<svg xmlns="http://www.w3.org/2000/svg" xmlns:xlink="http://www.w3.org/1999/xlink" width="292" height="263" viewBox="0 0 292 263">
  <defs>
    <clipPath id="clip-path">
      <rect id="Rectángulo_461889" data-name="Rectángulo 461889" width="284.212" height="260.012" fill="none"/>
    </clipPath>
  </defs>
  <g id="Grupo_1194959" data-name="Grupo 1194959" transform="translate(-185.711 -5948)">
    <rect id="Rectángulo_461776" data-name="Rectángulo 461776" width="292" height="166" rx="20" transform="translate(185.711 6045)" fill="#1e3a8a"/>
    <g id="Grupo_1194958" data-name="Grupo 1194958" transform="translate(189.711 5948)">
      <g id="Grupo_1194957" data-name="Grupo 1194957" clip-path="url(#clip-path)">
        <path id="Trazado_1015036" data-name="Trazado 1015036" d="M284.212,381.352c0,4.42-63.623,8-142.106,8S0,385.773,0,381.352s63.623-8,142.106-8,142.106,3.583,142.106,8" transform="translate(0 -133.479)" fill="#182e6e"/>
        <path id="Trazado_1015037" data-name="Trazado 1015037" d="M259.173,388.717c0,4.177-45.612,7.564-101.878,7.564s-101.879-3.387-101.879-7.564,45.612-7.564,101.879-7.564,101.878,3.387,101.878,7.564" transform="translate(-19.812 -136.269)" fill="#182e6e"/>
        <rect id="Rectángulo_461883" data-name="Rectángulo 461883" width="4.785" height="8.264" transform="translate(48.576 111.048)" fill="#17ada9"/>
        <rect id="Rectángulo_461884" data-name="Rectángulo 461884" width="18.92" height="22.509" transform="translate(214.105 123.39)" fill="#17ada9"/>
        <rect id="Rectángulo_461885" data-name="Rectángulo 461885" width="7.177" height="18.104" transform="translate(47.652 175.747)" fill="#17ada9"/>
        <rect id="Rectángulo_461886" data-name="Rectángulo 461886" width="2.447" height="24.792" transform="translate(50.017 192.22)" fill="#17ada9"/>
        <rect id="Rectángulo_461887" data-name="Rectángulo 461887" width="0.571" height="16.8" transform="translate(50.955 215.545)" fill="#17ada9"/>
        <path id="Trazado_1015038" data-name="Trazado 1015038" d="M192.03,182.32H67.822V243H85.438s12.644-18.051,24.822-16.311c11.19,1.6,90.8-15.6,81.735,11.288-.989,17.444-24.984,63.958-24.984,63.958l74.6,1.74V190.521a8.2,8.2,0,0,0-8.2-8.2Z" transform="translate(-24.248 -65.183)" fill="#4ccccc"/>
        <path id="Trazado_1015039" data-name="Trazado 1015039" d="M309.264,280.586a14.626,14.626,0,1,1-14.627-14.627,14.627,14.627,0,0,1,14.627,14.627" transform="translate(-100.109 -95.085)" fill="#9aedeb"/>
        <path id="Trazado_1015040" data-name="Trazado 1015040" d="M237.164,199.824H92.672a5.651,5.651,0,0,1,0-11.3H237.164a5.651,5.651,0,0,1,0,11.3" transform="translate(-31.112 -67.4)" fill="#9aedeb"/>
        <rect id="Rectángulo_461888" data-name="Rectángulo 461888" width="13.048" height="26.314" transform="translate(183.441 90.998)" fill="#17ada9"/>
        <path id="Trazado_1015041" data-name="Trazado 1015041" d="M357.548,226.57h0a7.034,7.034,0,0,1-7.013-7.013V156.923a7.013,7.013,0,1,1,14.027,0v62.633a7.034,7.034,0,0,1-7.013,7.013" transform="translate(-125.323 -53.596)" fill="#4ccccc"/>
        <path id="Trazado_1015042" data-name="Trazado 1015042" d="M360.5,186.714h0a2.4,2.4,0,0,1-2.388-2.388V154.241a2.388,2.388,0,1,1,4.776,0v30.085a2.4,2.4,0,0,1-2.388,2.388" transform="translate(-128.03 -54.29)" fill="#9aedeb"/>
        <path id="Trazado_1015043" data-name="Trazado 1015043" d="M268.2,375.253H23.754V371.61a8.537,8.537,0,0,1,8.536-8.536H259.659a8.536,8.536,0,0,1,8.536,8.536Z" transform="translate(-8.492 -129.806)" fill="#0082aa"/>
        <path id="Trazado_1015044" data-name="Trazado 1015044" d="M395.932,297.512c0,.637-9.929,1.154-22.177,1.154s-22.177-.517-22.177-1.154,9.929-1.154,22.177-1.154,22.177.517,22.177,1.154" transform="translate(-125.696 -105.953)" fill="#24a77c"/>
        <path id="Trazado_1015045" data-name="Trazado 1015045" d="M394.749,230.866c-.2.6-7.284,17.538-7.284,17.538l-5.84,6.729-.386,24.731,5.322.694,4.618-29.338,7.957-18.867Z" transform="translate(-136.299 -82.539)" fill="#052c49"/>
        <path id="Trazado_1015046" data-name="Trazado 1015046" d="M377.488,229.86l5.9,16.677,4,4.582-3.957,11.664-3.471-4.513-5.021-26.161Z" transform="translate(-134.05 -82.179)" fill="#052c49"/>
        <path id="Trazado_1015047" data-name="Trazado 1015047" d="M410.489,202.943c-4.839-1.642-10.331,1.653-12.267,7.359s.418,11.662,5.257,13.3,10.331-1.653,12.267-7.359-.418-11.662-5.257-13.3m-6.2,18.27c-3.719-1.262-5.527-5.839-4.039-10.223s5.708-6.916,9.426-5.654,5.527,5.839,4.04,10.223-5.708,6.916-9.427,5.654" transform="translate(-142.129 -72.405)" fill="#052c49"/>
        <path id="Trazado_1015048" data-name="Trazado 1015048" d="M365.524,201.386c-5.091.439-8.8,5.662-8.281,11.665s5.065,10.514,10.156,10.074,8.8-5.662,8.28-11.665-5.065-10.513-10.156-10.074m1.658,19.222c-3.912.337-7.406-3.128-7.8-7.741s2.451-8.626,6.363-8.963,7.406,3.128,7.8,7.741-2.45,8.626-6.363,8.963" transform="translate(-127.704 -71.988)" fill="#052c49"/>
        <path id="Trazado_1015049" data-name="Trazado 1015049" d="M389.389,270.611a2.239,2.239,0,1,1-1.4-2.84,2.24,2.24,0,0,1,1.4,2.84" transform="translate(-137.655 -95.69)" fill="#006f9b"/>
        <path id="Trazado_1015050" data-name="Trazado 1015050" d="M364.907,288.99l-5.823-41.17,3.383-8.939,4.616,7.094,5.34,40.933Z" transform="translate(-128.379 -85.405)" fill="#ffc28f"/>
        <path id="Trazado_1015051" data-name="Trazado 1015051" d="M359.1,251.673l5.813,41.094,7.515-2.082-5.339-40.933-.2-.308c-2.583,1.282-4.828,3.067-7.789,2.228" transform="translate(-128.384 -89.181)" fill="#ffd31a"/>
        <path id="Trazado_1015052" data-name="Trazado 1015052" d="M363.569,252.176l5.138,40.435,3.523-.976-5.281-40.924a13.924,13.924,0,0,1-3.38,1.465" transform="translate(-129.983 -89.634)" fill="#fcb503"/>
        <path id="Trazado_1015053" data-name="Trazado 1015053" d="M361.955,242.946a13.27,13.27,0,0,0,3.967-.332l-2.429-3.733Z" transform="translate(-129.405 -85.405)" fill="#ffd31a"/>
        <path id="Trazado_1015054" data-name="Trazado 1015054" d="M382.427,289.977l15.182-38.708,7.343-6.118.529,8.447-15.487,38.264Z" transform="translate(-136.724 -87.646)" fill="#ffc28f"/>
        <path id="Trazado_1015055" data-name="Trazado 1015055" d="M397.581,254.784l-15.154,38.638,7.567,1.884,15.486-38.264-.022-.367c-2.88-.154-5.712.295-7.878-1.891" transform="translate(-136.725 -91.09)" fill="#4ccccc"/>
        <path id="Trazado_1015056" data-name="Trazado 1015056" d="M401.287,257.051,385.87,294.783l3.547.883,15.533-38.228a13.92,13.92,0,0,1-3.663-.387" transform="translate(-137.956 -91.9)" fill="#00a0a8"/>
        <path id="Trazado_1015057" data-name="Trazado 1015057" d="M412.288,247.933a13.273,13.273,0,0,0,3.617,1.663l-.278-4.445Z" transform="translate(-147.4 -87.646)" fill="#00a0a8"/>
        <path id="Trazado_1015058" data-name="Trazado 1015058" d="M373.756,299.308c-12.248,0-22.177-.517-22.177-1.154l7.186,58.035c0,.916,6.711,1.658,14.99,1.658s14.99-.742,14.99-1.658l7.186-58.035c0,.637-9.929,1.154-22.177,1.154" transform="translate(-125.696 -106.595)" fill="#24a77c"/>
        <path id="Trazado_1015059" data-name="Trazado 1015059" d="M394.869,309.509c-8.1-2.238-11.026,7.946-11.563,15.475,0,12.308.148,22.391-.879,36.789q1.153.02,2.357.021a98.573,98.573,0,0,0,11.049-.537c1.982-17.789,5.893-49.852-.964-51.747" transform="translate(-136.725 -110.543)" fill="#2ed19b"/>
        <path id="Trazado_1015060" data-name="Trazado 1015060" d="M284.58,114.744s-16.453-4.87-22.94-11.024-6.986-12.64-6.32-23.618c-4.657-4.325-12.641-3.659-12.641-3.659s-7.983-.666-12.64,3.659c.665,10.977.166,17.464-6.321,23.618s-21.871,10.335-21.871,10.335,31.862,52.066,17.393,83.5-12.972,72.773-12.972,72.773h72.824s1.5-41.339-12.972-72.773,18.461-82.81,18.461-82.81" transform="translate(-72.164 -27.317)" fill="#f2b58c"/>
        <path id="Trazado_1015061" data-name="Trazado 1015061" d="M202.516,128.038s21.083,26.086,27.717,32.341c2.274,2.144,13.1-12.607,19.42-17.431s18.444-16,18.444-16,11.354.159,22.7,14.043c-8.981,5.822-14.546,23.713-14.546,26.6-7.983,14.858-9.259,28.607-6.377,42.579s4.6,23.285,9.259,35.926,4.213,46.128,4.213,46.128c-12.3,7.953-28.829,8.87-46.792,8.87s-35.482-5.544-37.922-8.648c-.443-13.306-2.661-44.131,4.435-58.989s5.807-24.922,4.255-35.124-2.259-23.643-6.695-27.857c-.887-9.979-5.322-28.829-11.088-32.156,4.657-8.205,8.655-10.5,12.979-10.275" transform="translate(-67.763 -45.386)" fill="#ff817b"/>
        <path id="Trazado_1015062" data-name="Trazado 1015062" d="M250.655,176.674c-.987-.938-2.28-2.295-3.768-3.931,1.171,6.421,2.865,12.713,6.6,18.323.524-.087,1.052-.184,1.584-.286-.115-.316-.237-.63-.351-.947-1.557-4.283-2.868-8.689-4.069-13.159" transform="translate(-88.267 -61.759)" fill="#ff817b"/>
        <path id="Trazado_1015063" data-name="Trazado 1015063" d="M302.26,131.052c-6.62-4.034-11.563-4.105-11.563-4.105s-12.124,11.178-18.444,16-17.147,19.575-19.42,17.431l-.082-.078c1.2,4.47,2.512,8.877,4.069,13.159.114.317.235.631.35.948,21.037-4.03,47.161-19.322,45.089-43.355" transform="translate(-90.363 -45.386)" fill="#ff5d52"/>
        <path id="Trazado_1015064" data-name="Trazado 1015064" d="M260.01,226.846a277.987,277.987,0,0,1-25.438-51.839c-.531.1-1.059.2-1.583.286-3.741-5.61-5.435-11.9-6.6-18.323-8.645-9.5-23.867-28.332-23.867-28.332-4.325-.222-8.323,2.069-12.98,10.275,3.853,2.222,7.11,11.375,9.112,20.182,22.854,20.257,43.838,42.841,61.36,67.752" transform="translate(-67.763 -45.985)" fill="#ff817b"/>
        <path id="Trazado_1015065" data-name="Trazado 1015065" d="M299.225,281.5q4.769,7.658,9.969,15.03-4.767-7.653-9.969-15.03" transform="translate(-106.978 -100.642)" fill="#ff817b"/>
        <path id="Trazado_1015066" data-name="Trazado 1015066" d="M282.574,295.162a303.381,303.381,0,0,0-1.395-31.928,45.577,45.577,0,0,1-7.128-7.974c-3.5-5.607-27.017-48.763-27.017-48.763-9.808-24.24-42.386-59.243-54.053-71.313a47.918,47.918,0,0,0-5.543,7.159c5.766,3.327,11.531,21.091,12.418,31.071,4.435,4.213,5.142,17.656,6.694,27.857s2.842,20.265-4.255,35.123-4.878,45.684-4.435,58.989c2.439,3.1,19.959,8.649,37.922,8.649s34.491-.917,46.792-8.871" transform="translate(-67.012 -48.33)" fill="#ff5d52"/>
        <path id="Trazado_1015067" data-name="Trazado 1015067" d="M224.223,178.87c9.045,14.943,19.6,28.131,30.21,41.163-4.206-7.679-7.4-13.538-7.4-13.538-9.809-24.24-42.387-59.243-54.054-71.313a47.962,47.962,0,0,0-5.543,7.159c2.04,1.177,4.078,4.165,5.9,7.973,11.72,7.755,23.348,15.495,30.883,28.556" transform="translate(-67.012 -48.33)" fill="#ed4440"/>
        <path id="Trazado_1015068" data-name="Trazado 1015068" d="M201.523,111.466c-2.79,1.479-3.862,1.369-3.924,1.24s2.826-1.116,2.317-1.872c-.736-1.092-3.936,1.124-4.392,1.793a2.291,2.291,0,0,1-1.075.819l-.133.044c-5.472,1.817-18.528,7.151-19.322,7.275-.957.15-10.709-8.864-10.709-8.864l-1.947,7.27s10.1,8.014,13.43,7.515c2.707-.405,14.389-6.915,19.854-9.759.931-.323,5.767-.527,7.486-2.79s-.1-3.265-1.584-2.671" transform="translate(-58.038 -39.519)" fill="#eda677"/>
        <path id="Trazado_1015069" data-name="Trazado 1015069" d="M214.738,110.135a37.693,37.693,0,0,1-13.764,7.59s4.226,1.951,15.875,16.183c14.026,17.135,12.484,22.422,26.356,57.989-26.818-37.49-44.074-61.408-56.257-71.09-17.66-14.035-9.093-27.63.771-26.376s27.019,15.7,27.019,15.7" transform="translate(-63.184 -33.732)" fill="#ffdcdc"/>
        <path id="Trazado_1015070" data-name="Trazado 1015070" d="M217.562,112.263a37.694,37.694,0,0,1-13.764,7.59s4.226,1.951,15.875,16.183c14.026,17.135,12.484,22.422,26.356,57.989-26.818-37.49-36.374-57.989-50.338-71.428-16.253-15.642-12.392-23.418-2.528-22.165s24.4,11.831,24.4,11.831" transform="translate(-66.007 -35.86)" fill="#ffc5c5"/>
        <path id="Trazado_1015071" data-name="Trazado 1015071" d="M280.256,117.7s9.13,1.424,17.562-1.658,9.974,7.843,4.117,16.252-46.7,28.291-46.7,28.291l-1.318-5.349s21.318-18.352,27.134-25.4-.795-12.136-.795-12.136" transform="translate(-90.78 -41.297)" fill="#ffdcdc"/>
        <path id="Trazado_1015072" data-name="Trazado 1015072" d="M280.256,117.668s9.13,1.424,17.562-1.658,4.734,6.5-1.123,14.908-41.461,29.634-41.461,29.634l-1.318-5.349s21.318-18.352,27.134-25.4-.795-12.136-.795-12.136" transform="translate(-90.78 -41.265)" fill="#ffc5c5"/>
        <path id="Trazado_1015073" data-name="Trazado 1015073" d="M324.885,321.246s-.539,5.171-.427,5.38c.747,1.389,3.6,6.995,3.631,11.522.046,6.6-4.509,19.582-4.561,20.31a9.636,9.636,0,0,0,.475,2.434c.055.187-2.91,3.955-3.841,4.186s-2.126-.736-2.126-.736,2.776-1.984,3.266-4.053.869-20.414.051-25.535-2.838-7.7-2.12-9.432c.208-.5.13-3.543.822-4.076,1.7-1.306,4.83,0,4.83,0" transform="translate(-113.704 -114.644)" fill="#f9b27d"/>
        <path id="Trazado_1015074" data-name="Trazado 1015074" d="M321.282,382.8s.686.6.51,2.438a16.409,16.409,0,0,1-1.025,3.913l-1.281-.091.106-1.491a7.634,7.634,0,0,1-3.563,1.558c-1.674.064-5.261.35-5.353.024s5.025-2.834,5.025-2.834a1.429,1.429,0,0,0,1.758.671c1.088-.495,3.821-4.188,3.821-4.188" transform="translate(-111.072 -136.859)" fill="#06345e"/>
        <path id="Trazado_1015075" data-name="Trazado 1015075" d="M311.87,322.113s-.043,6.019.01,6.572,13.134,28.87,13.624,29.7-.222,5.056-.74,6.4c-.328.853,2.317-.27,2.317-.27l1.192-5.631s-1.227-.757-1.826-3.483.795-13.738-3.618-19.435c-2.278-2.941-4.8-6.836-5.06-8.56-.037-.249.714-4.45.778-4.6.511-1.183-6.676-.693-6.676-.693" transform="translate(-111.493 -115.125)" fill="#f2b58c"/>
        <path id="Trazado_1015076" data-name="Trazado 1015076" d="M333.577,379.031s.875.251,1.5,1.991a16.4,16.4,0,0,1,.732,3.978l-1.2.461-.537-1.4s-1.107,2.763-2.6,3.531-4.1.828-4.321.571,3.155-3.352,3.155-3.352a1.191,1.191,0,0,0,1.585-.371c.775-.909,1.684-5.414,1.684-5.414" transform="translate(-116.959 -135.51)" fill="#06345e"/>
        <path id="Trazado_1015077" data-name="Trazado 1015077" d="M323.235,314.423l2.506-17.7-15.652-1.11.188,18.805Z" transform="translate(-110.863 -105.689)" fill="#06345e"/>
        <path id="Trazado_1015078" data-name="Trazado 1015078" d="M320.3,310.735h2.935l3.487-24.627L310.09,285.3l.019,8.5c9.436-.871,10.812,8.526,10.192,16.936" transform="translate(-110.863 -102.001)" fill="#052c49"/>
        <path id="Trazado_1015079" data-name="Trazado 1015079" d="M326.859,263.433c-.017-7.5-4.233-16.4-4.233-16.4l7.491-18.8-5.286-3.269-7.28-.517s-8.276,7.1-7.788,9.233c1.412,4.582.8,17.555-.1,23.344-.233,1.5-.417,4.279-.561,7.562l17.745.319c.008-.524.013-1.025.012-1.48" transform="translate(-110.51 -80.246)" fill="#f59e0b"/>
        <path id="Trazado_1015080" data-name="Trazado 1015080" d="M332.686,265.539c-.017-7.5-4.233-16.4-4.233-16.4l7.491-18.8L325.4,248.758s5.491,8.972,5.508,16.473c0,.535-.008,1.127-.024,1.757l1.789.032c.008-.524.013-1.025.012-1.48" transform="translate(-116.337 -82.353)" fill="#c98716"/>
        <path id="Trazado_1015081" data-name="Trazado 1015081" d="M278.337,234.309s-3.043-1.875-3.281-2.168-.734-.326-1.83-.447c-1.187-.13-1.357.885-.689,1.538a.937.937,0,0,0,.31.223s-.594.861.022,1.39c-.165.691.132,1.163.482,1.219-.162.408.031.7.347.995a1.554,1.554,0,0,0,1.347.112,2.369,2.369,0,0,0,.292-.214s2.016.683,3.275-.076-.274-2.571-.274-2.571" transform="translate(-97.298 -82.831)" fill="#f2b58c"/>
        <path id="Trazado_1015082" data-name="Trazado 1015082" d="M311.568,238.213a76.247,76.247,0,0,1-9.817,5.819l-21.269-8.68-1.121,3.187s4.2,2.607,11.249,7.008c5.775,3.6,10.057,6.1,15.374,3.43.937-.472,4.541-2.717,8.028-4.972v-5.791Z" transform="translate(-99.877 -84.143)" fill="#f2b58c"/>
        <path id="Trazado_1015083" data-name="Trazado 1015083" d="M332.471,228.1c-1.456.537-2.7,4.329-4.941,6.357a26.9,26.9,0,0,1-4.582,3,47.147,47.147,0,0,1,2.894,7.394c4.356-3.121,10.709-7.96,11.107-8.527,2.175-3.106-3.022-8.765-4.478-8.228" transform="translate(-115.46 -81.538)" fill="#fce2b5"/>
        <path id="Trazado_1015084" data-name="Trazado 1015084" d="M329.093,215.95l.743,6.147-7.4,2.077a20.421,20.421,0,0,1,1.153-2.67c.409-.611,1.588-3.363,1.588-3.363Z" transform="translate(-115.279 -77.206)" fill="#f2b58c"/>
        <path id="Trazado_1015085" data-name="Trazado 1015085" d="M325.756,221.463a2.846,2.846,0,0,1-1.376.076c.47-.817,1.5-3.212,1.5-3.212l3.313-1.856a5.387,5.387,0,0,1-3.432,4.991" transform="translate(-115.972 -77.393)" fill="#e5a070"/>
        <path id="Trazado_1015086" data-name="Trazado 1015086" d="M328.865,209.931s.845,4.11-4.172,7.092c-1.726.659-2.99-1.411-3.269-3.3s-1.206-5.331-.048-6.708,6.992.136,7.489,2.911" transform="translate(-114.695 -73.829)" fill="#f2b58c"/>
        <path id="Trazado_1015087" data-name="Trazado 1015087" d="M332.493,201.631a7.1,7.1,0,0,1,7.919-3.126c5.627,1.181,4.029,7.572,1.6,12.157s.208,8.125,3.265,6.251c-4.446,3.405-7.939,2.78-9.353-.971s-.72-6.828.669-9.944-.9-3.741-2.5-2.768-1.6-1.6-1.6-1.6" transform="translate(-118.872 -70.896)" fill="#052c49"/>
        <path id="Trazado_1015088" data-name="Trazado 1015088" d="M323.416,206.457s-2.008-.051-2.779.931a1.644,1.644,0,0,0,.086,2.231,2.842,2.842,0,0,1-3.448-2.531c-.378-2.4,2.625-4.127,3.518-3.836.649-2.057,6.524-2.363,8.327.572s-1.563,9.685-1.563,9.685a15.048,15.048,0,0,1-.684-2.168c0-.366.7-.8.563-1.812s-.9-1.116-1.268-.821-.372,1.368-.372,1.368-2.65-2.177-2.38-3.621" transform="translate(-113.42 -72.099)" fill="#052c49"/>
        <path id="Trazado_1015089" data-name="Trazado 1015089" d="M331.41,225.563s-.167-3.227-2.813-4.173a6.694,6.694,0,0,1-5.221,4.032c-.785.088-.472-2.4-.472-2.4s-.621-.521-1.953,1.12-1.831,4.408.868,5.557,8.909-.759,9.591-4.141" transform="translate(-114.359 -79.151)" fill="#ffd31a"/>
        <path id="Trazado_1015090" data-name="Trazado 1015090" d="M311.987,237.5s3.083-11.915,8.361-10.026c-.5.446-4.637,5.314-4.389,10.4a19.061,19.061,0,0,0-3.972-.371" transform="translate(-111.541 -81.254)" fill="#ffe236"/>
        <path id="Trazado_1015091" data-name="Trazado 1015091" d="M148.836,146s1.685,20.222,1.825,29.771-.912,35.389-.912,35.389h-3.3s-4.073-16.992-3.791-22.329a68.232,68.232,0,0,1,1.4-10.251l-3.721-13.762s-3.09,14.6-4.74,16.149-3.9,6.319-4.459,8.847-7.11,19.518-7.11,19.518l-3.385-.014s2.526-15.679,3.509-21.016,4.177-8.037,4.739-9.723,2.842-15.51,3.264-18.178-1.923-10.27,2.992-15.326,13.686.924,13.686.924" transform="translate(-43.133 -51.141)" fill="#f2b58c"/>
        <path id="Trazado_1015092" data-name="Trazado 1015092" d="M120.646,202.516c0-4.254,8.34-31.326,8.384-31.967.313-4.522.845-9.834,1.094-11.407.421-2.668-2.358-12.961,2.557-18.016s16.155,3.622,16.155,3.622,1.924,19,2.395,29.26c.026.57-.572,28.8-.556,29.337-1.74,1.333-4.844,1.422-7.349.674l-1.945-28.067-1.041-12.386s-1.627,8.435-2.731,12.871c-.123.5-10.682,27.149-10.821,27.628a6.194,6.194,0,0,1-6.141-1.549" transform="translate(-43.133 -49.889)" fill="#06345e"/>
        <path id="Trazado_1015093" data-name="Trazado 1015093" d="M150.577,158.852a38.617,38.617,0,0,1,5.447,9.887c-.709-10.4-2.085-23.991-2.085-23.991s-11.24-8.677-16.155-3.622a11.731,11.731,0,0,0-2.864,7.29,7.144,7.144,0,0,1,2.711.572c3.7,5.548,9.864,5.548,12.947,9.864" transform="translate(-48.236 -49.889)" fill="#052c49"/>
        <path id="Trazado_1015094" data-name="Trazado 1015094" d="M163.4,246.224a2.171,2.171,0,0,0-2.132.745c-.474.406-1.914-.621-1.914-.621s-2.35,2.871-1.177,6.027c4.422.72,15.253.364,15.794,0s-.181-3.342-3.836-3.3-6.735-2.854-6.735-2.854" transform="translate(-56.435 -88.014)" fill="#052c49"/>
        <path id="Trazado_1015095" data-name="Trazado 1015095" d="M173.575,253.226a.307.307,0,0,0,.1-.125c.534.769.574,1.572.31,1.749-.542.364-11.372.72-15.794,0a5.189,5.189,0,0,1-.319-1.611c4.474.7,15.169.349,15.707-.013" transform="translate(-56.441 -90.488)" fill="#052c49"/>
        <path id="Trazado_1015096" data-name="Trazado 1015096" d="M119.808,245.79a3.034,3.034,0,0,1,2.166-2.437c1.821-.341,1.76-.067,2.708,1.422s4.467,4.039,4.828,6.024-5.844,1.561-8.01.781-2.031-.781-2.3-1.593.609-4.2.609-4.2" transform="translate(-42.597 -86.956)" fill="#052c49"/>
        <path id="Trazado_1015097" data-name="Trazado 1015097" d="M121.5,252.954c1.818.655,6.481,1.059,7.718,0a2.9,2.9,0,0,1,.292.8c.361,1.985-5.844,1.561-8.01.78s-2.031-.78-2.3-1.593a4.01,4.01,0,0,1,.04-1.457c.222.691.211.732,2.262,1.471" transform="translate(-42.598 -89.91)" fill="#052c49"/>
        <path id="Trazado_1015098" data-name="Trazado 1015098" d="M155.914,97.193s-5.176-1.271-9.169,1.844c-6.319,4.932-7.729,17.062-8.8,22.071-.766,3.584-2.644,9.863-2.644,9.863s1.984-.217,8.426,2.887c7.888,3.8,10.925,1.6,10.925,1.6s6.33-23.837,5.207-31.291c-.48-3.185-3.945-6.969-3.945-6.969" transform="translate(-48.373 -34.656)" fill="#2ed19b"/>
        <path id="Trazado_1015099" data-name="Trazado 1015099" d="M174.73,84.071s5.3.486,5.168-2.551c-.173-4.047-4.521-4.966-4.521-4.966,1.124-1.325-2.348-2.731-3.96-1.25.7-1.9-4.825-2.331-6.219.6-3.085.463-3.071,6.389-1.714,9.967,2.346,6.183,2.63,2,2.63,2Z" transform="translate(-58.137 -26.381)" fill="#052c49"/>
        <path id="Trazado_1015100" data-name="Trazado 1015100" d="M171.17,82.969a13.12,13.12,0,0,1,3.8,2.135c1.061,1.118-.306,3.007-.1,3.8s.86,1.424.818,1.682-.973.406-1.126.418-1.374,2.617-2.36,3.411-1.862-.307-2.152-.531-2.233.936-2.594,3.652c-.1.74-3.216-.515-4.1-1.433a2.221,2.221,0,0,1-.213-3.25c.224-.29,2.086-2.28,2.414-2.7.614-.781,1.169-1.624,1.234-1.713s-1.3-1.748-.617-2.668,1.58.487,1.742,1.105a1.237,1.237,0,0,1-.037.912l.633.281a6.143,6.143,0,0,1,.7-2.1c.432-.483,2.682-1.622,1.953-3" transform="translate(-58.112 -29.663)" fill="#f2b58c"/>
        <path id="Trazado_1015101" data-name="Trazado 1015101" d="M138.506,260.6h3.205L116.65,347.321a1.541,1.541,0,0,1-1.478,1.112,1.522,1.522,0,0,1-.428-.062,1.539,1.539,0,0,1-1.052-1.906Z" transform="translate(-40.625 -93.168)" fill="#00a9c5"/>
        <path id="Trazado_1015102" data-name="Trazado 1015102" d="M73.616,346.466,98.43,260.6h3.2l-25.06,86.725a1.54,1.54,0,0,1-2.958-.855" transform="translate(-26.298 -93.168)" fill="#00a9c5"/>
        <path id="Trazado_1015103" data-name="Trazado 1015103" d="M79.652,379.853H105.4a1.525,1.525,0,0,0,0-3.05H79.652a1.525,1.525,0,0,0,0,3.05" transform="translate(-27.932 -134.714)" fill="#00a9c5"/>
        <path id="Trazado_1015104" data-name="Trazado 1015104" d="M88.051,351.3h25.612a1.521,1.521,0,0,0,0-3.042H88.051a1.521,1.521,0,0,0,0,3.042" transform="translate(-30.936 -124.509)" fill="#00a9c5"/>
        <path id="Trazado_1015105" data-name="Trazado 1015105" d="M96.4,322.75h25.507a1.518,1.518,0,0,0,0-3.036H96.4a1.518,1.518,0,0,0,0,3.036" transform="translate(-33.922 -114.304)" fill="#00a9c5"/>
        <path id="Trazado_1015106" data-name="Trazado 1015106" d="M104.8,294.2h25.37a1.514,1.514,0,0,0,0-3.027H104.8a1.514,1.514,0,0,0,0,3.027" transform="translate(-36.926 -104.099)" fill="#00a9c5"/>
        <path id="Trazado_1015107" data-name="Trazado 1015107" d="M112.773,265.651h25.405a1.515,1.515,0,1,0,0-3.03H112.773a1.515,1.515,0,1,0,0,3.03" transform="translate(-39.777 -93.892)" fill="#00a9c5"/>
        <path id="Trazado_1015108" data-name="Trazado 1015108" d="M143.739,260.6l24.813,85.87a1.54,1.54,0,1,1-2.958.855L140.534,260.6Z" transform="translate(-50.243 -93.168)" fill="#00a0a8"/>
        <path id="Trazado_1015109" data-name="Trazado 1015109" d="M183.814,260.6l24.813,85.87a1.54,1.54,0,1,1-2.958.855L180.609,260.6Z" transform="translate(-64.571 -93.168)" fill="#00a0a8"/>
        <path id="Trazado_1015110" data-name="Trazado 1015110" d="M202.193,379.853H176.445a1.525,1.525,0,1,1,0-3.05h25.747a1.525,1.525,0,0,1,0,3.05" transform="translate(-62.537 -134.714)" fill="#00a0a8"/>
        <path id="Trazado_1015111" data-name="Trazado 1015111" d="M193.874,351.3H168.262a1.521,1.521,0,0,1,0-3.042h25.612a1.521,1.521,0,1,1,0,3.042" transform="translate(-59.613 -124.509)" fill="#00a0a8"/>
        <path id="Trazado_1015112" data-name="Trazado 1015112" d="M185.587,322.75H160.079a1.518,1.518,0,0,1,0-3.036h25.508a1.518,1.518,0,0,1,0,3.036" transform="translate(-56.688 -114.304)" fill="#00a0a8"/>
        <path id="Trazado_1015113" data-name="Trazado 1015113" d="M177.268,294.2H151.9a1.514,1.514,0,0,1,0-3.027h25.37a1.514,1.514,0,0,1,0,3.027" transform="translate(-53.765 -104.099)" fill="#00a0a8"/>
        <path id="Trazado_1015114" data-name="Trazado 1015114" d="M169.273,265.651H143.868a1.515,1.515,0,1,1,0-3.03h25.405a1.515,1.515,0,1,1,0,3.03" transform="translate(-50.894 -93.892)" fill="#00a9c5"/>
        <path id="Trazado_1015115" data-name="Trazado 1015115" d="M104.53,263.258h55.532a4.074,4.074,0,0,0,0-8.147H104.53a4.074,4.074,0,0,0,0,8.147" transform="translate(-35.915 -91.207)" fill="#00a9c5"/>
        <path id="Trazado_1015116" data-name="Trazado 1015116" d="M192.646,137.453c-3.04-.853-3.741-1.672-3.7-1.808s2.815,1.14,2.968.242c.22-1.3-3.626-1.9-4.417-1.73a2.289,2.289,0,0,1-1.343-.148l-.127-.06c-5.216-2.457-18.349-7.6-19.01-8.056-.8-.551-7.7-10.422-7.7-10.422l-5.04,3.394s6.465,9.913,9.221,11.849c2.24,1.573,15.189,4.914,21.107,6.623.9.408,4.54,3.595,7.345,3.142s2.181-2.432.7-3.026" transform="translate(-55.157 -41.283)" fill="#f2b58c"/>
        <path id="Trazado_1015117" data-name="Trazado 1015117" d="M153.3,121.2s-5.139-12.075-3.255-15.317,4.635-.989,5.8.821,6.442,8.944,6.442,8.944Z" transform="translate(-53.496 -37.269)" fill="#c0f1e1"/>
        <path id="Trazado_1015118" data-name="Trazado 1015118" d="M48.416,126.944c-.458-.722-.91-1.463-1.345-2.2l.554-.325c.43.732.879,1.467,1.333,2.184Zm-2.3-3.884c-.413-.747-.82-1.514-1.21-2.28l.572-.292c.387.759.791,1.519,1.2,2.26Zm-2.068-4.014c-.369-.772-.731-1.561-1.074-2.346l.589-.258c.341.779.7,1.561,1.066,2.326Zm215.01-3.874-.26-.181-.323.071.082-.293.279.21.267-.056-.262.059.23.174Zm-216.838-.255c-.324-.792-.639-1.6-.935-2.4l.6-.223c.295.8.607,1.6.928,2.385Zm217.988-1.36-.536-.354c.444-.674.891-1.406,1.328-2.177l.558.317c-.443.783-.9,1.528-1.35,2.215M40.629,110.688c-.276-.809-.544-1.635-.793-2.456l.614-.188c.248.813.513,1.633.788,2.436Zm221.846-1.057-.572-.292c.383-.75.752-1.526,1.1-2.305l.587.261c-.351.79-.725,1.576-1.113,2.336M39.295,106.374c-.231-.829-.448-1.67-.648-2.5l.624-.15c.2.82.414,1.654.642,2.477Zm225.047-.867-.6-.238c.314-.786.611-1.592.883-2.4l.609.207c-.277.814-.579,1.631-.9,2.427M38.216,101.988c-.181-.844-.348-1.7-.5-2.533l.632-.113c.148.83.314,1.675.493,2.511Zm227.61-.756-.616-.184c.243-.814.468-1.643.669-2.465l.623.152c-.2.833-.43,1.672-.677,2.5M37.4,97.544c-.129-.851-.244-1.712-.342-2.558l.638-.074c.1.84.211,1.693.339,2.537Zm229.527-.7-.63-.13c.172-.833.324-1.679.453-2.513l.635.1c-.13.844-.285,1.7-.457,2.545M36.865,93.058c-.076-.86-.137-1.726-.181-2.575l.642-.033c.043.841.1,1.7.179,2.551Zm230.785-.682-.639-.075c.1-.844.179-1.7.237-2.542l.641.044c-.058.853-.139,1.719-.239,2.574M36.613,88.547q-.018-.794-.019-1.585,0-.5.007-1l.642.01q-.007.494-.007.99,0,.784.019,1.57Zm231.374-.681-.642-.021q.028-.866.029-1.757,0-.4-.006-.8l.642-.009q.006.4.006.806,0,.9-.029,1.778M37.3,84.052l-.642-.028c.038-.86.094-1.728.166-2.58l.64.054c-.071.844-.126,1.7-.164,2.555m230.007-.675c-.043-.851-.106-1.709-.186-2.549l.64-.06c.081.849.145,1.717.188,2.577ZM37.655,79.587l-.638-.074c.1-.855.217-1.717.35-2.562l.634.1c-.132.836-.249,1.688-.346,2.535m229.251-.663c-.109-.842-.238-1.692-.383-2.528l.632-.11c.148.844.278,1.7.389,2.555ZM38.331,75.161,37.7,75.04c.163-.849.345-1.7.542-2.528l.624.148c-.195.82-.375,1.661-.536,2.5m227.832-.648-.049-.234c-.157-.744-.35-1.492-.574-2.226l.615-.188c.23.752.427,1.519.588,2.28l.05.238ZM39.343,70.8l-.62-.169c.228-.835.477-1.669.74-2.477l.611.2c-.26.8-.506,1.624-.731,2.448m225.579-.545c-.3-.776-.641-1.555-1.016-2.317l.576-.283c.384.778.733,1.575,1.039,2.369Zm-179.2-1.85a16.194,16.194,0,0,1-2.6-.283l.123-.63a15.492,15.492,0,0,0,2.5.271Zm1.963-.058-.059-.641a14.055,14.055,0,0,0,2.466-.448l.172.619a14.84,14.84,0,0,1-2.579.47m-6.468-.73a13.112,13.112,0,0,1-2.39-1.094l.326-.554a12.462,12.462,0,0,0,2.272,1.04Zm10.9-.4-.256-.589a13.5,13.5,0,0,0,2.193-1.209l.361.532a14.18,14.18,0,0,1-2.3,1.266M40.7,66.541l-.6-.22c.295-.812.612-1.622.943-2.407l.592.249c-.326.775-.639,1.575-.932,2.378m222.315-.28c-.414-.722-.869-1.445-1.352-2.152l.531-.362c.492.721.955,1.459,1.378,2.195ZM77.2,65.4a12.827,12.827,0,0,1-1.85-1.87l.5-.4A12.119,12.119,0,0,0,77.609,64.9Zm18.763-.649-.428-.479a15.408,15.408,0,0,0,1.73-1.824l.5.4a16.081,16.081,0,0,1-1.8,1.9m164.577-2.185c-.5-.659-1.045-1.322-1.611-1.974l.484-.421c.576.661,1.126,1.336,1.637,2.005ZM42.4,62.412l-.583-.27c.362-.779.748-1.558,1.147-2.316l.568.3c-.394.748-.775,1.518-1.132,2.287m31.83-.508a14.732,14.732,0,0,1-1.12-2.371l.6-.223a14.1,14.1,0,0,0,1.072,2.268Zm24.677-.655-.542-.344a18.356,18.356,0,0,0,1.2-2.222l.585.265a18.883,18.883,0,0,1-1.241,2.3m158.734-2.078c-.569-.6-1.176-1.208-1.8-1.806l.443-.465c.636.606,1.251,1.221,1.828,1.83Zm-213.186-.72L43.9,58.13c.431-.746.885-1.487,1.349-2.2l.539.349c-.458.707-.906,1.439-1.331,2.175m28.09-.8a17.511,17.511,0,0,1-.4-2.584l.641-.051a16.858,16.858,0,0,0,.387,2.489Zm28.324-.522-.608-.208a20.616,20.616,0,0,0,.665-2.441l.629.13a21.179,21.179,0,0,1-.686,2.518m153.558-1.059c-.617-.55-1.272-1.108-1.945-1.661l.408-.5c.68.558,1.341,1.122,1.965,1.678ZM46.86,54.7l-.525-.371c.495-.7,1.015-1.4,1.546-2.073l.5.4c-.524.666-1.038,1.354-1.526,2.046m204.124-1.487q-1.007-.784-2.047-1.539l.378-.52q1.047.763,2.062,1.552ZM72.733,53.121l-.642-.015a20.311,20.311,0,0,1,.232-2.6l.635.1a19.734,19.734,0,0,0-.224,2.517m29.133-.445-.638-.072a20.87,20.87,0,0,0,.132-2.331v-.2l.642-.006v.2a21.381,21.381,0,0,1-.136,2.4M49.6,51.171l-.488-.417c.559-.655,1.142-1.3,1.731-1.92l.466.443c-.582.612-1.157,1.249-1.709,1.895m197.772-.618q-1.052-.734-2.125-1.446l.355-.535q1.077.715,2.137,1.453ZM73.333,48.745l-.624-.155a22.414,22.414,0,0,1,.779-2.486l.6.227a21.794,21.794,0,0,0-.756,2.415m27.919-.561a18.99,18.99,0,0,0-.427-2.488l.624-.152a19.738,19.738,0,0,1,.441,2.573Zm142.383-.13q-1.08-.695-2.171-1.368l.337-.546q1.095.677,2.181,1.373ZM52.654,47.915l-.448-.46c.614-.6,1.253-1.186,1.9-1.753l.423.483c-.639.56-1.27,1.142-1.875,1.73m149.22-.855-.763,0,.005-.642.757,0q.893,0,1.8-.015l.012.642q-.916.015-1.815.015m-2.7-.034q-1.3-.035-2.574-.1l.033-.642q1.263.066,2.558.1Zm6.442-.031-.022-.642q1.263-.043,2.559-.118l.037.641q-1.3.075-2.573.118m-10.945-.186q-1.3-.092-2.567-.215l.062-.639q1.261.122,2.55.213Zm15.447-.059-.048-.641q1.262-.093,2.555-.215l.06.639q-1.3.123-2.567.217m-19.935-.36q-1.292-.149-2.554-.33l.09-.637q1.256.179,2.538.328Zm24.424-.054-.071-.639q1.149-.126,2.323-.276l.222-.029.084.637-.225.029q-1.18.151-2.333.278m-28.888-.566q-1.282-.206-2.537-.441l.118-.632q1.249.233,2.522.439Zm33.36-.011-.1-.635q1.294-.2,2.524-.425l.117.632q-1.238.229-2.544.428m20.739-.074q-1.1-.668-2.206-1.316l.326-.554q1.105.651,2.213,1.32Zm-58.531-.727q-1.269-.258-2.517-.543l.141-.627q1.242.282,2.5.541Zm42.234,0-.133-.628c.848-.179,1.687-.373,2.491-.575l.157.623c-.813.2-1.658.4-2.515.58m-167.532,0-.4-.5c.665-.538,1.355-1.068,2.05-1.575l.378.519c-.686.5-1.367,1.023-2.024,1.555m18.842-.369-.58-.277A24.464,24.464,0,0,1,75.5,42.023l.547.338a23.4,23.4,0,0,0-1.215,2.223m102.06-.611q-1.255-.306-2.495-.632l.163-.621q1.235.325,2.483.629Zm-76.611-.09a16.532,16.532,0,0,0-1.024-2.3l.565-.306a17.055,17.055,0,0,1,1.064,2.39Zm127.626-.008-.175-.618c.834-.238,1.655-.492,2.439-.756l.2.609c-.793.267-1.623.524-2.468.765m8.043-.478q-1.12-.651-2.227-1.286l.2-.348c-.56.24-1.136.472-1.721.695l-.229-.6c.81-.308,1.6-.636,2.355-.974l.263.586-.393.174q1.03.593,2.075,1.2Zm-63.415-.558q-1.239-.342-2.471-.7l.179-.617q1.229.358,2.462.7ZM59.585,42.3l-.359-.533c.706-.476,1.439-.944,2.177-1.391l.333.549c-.73.442-1.454.9-2.152,1.374m108.635-.708q-1.232-.37-2.459-.753l.191-.614q1.226.382,2.453.75Zm63.832-.44-2.232-1.28.32-.557,2.232,1.279ZM77.113,40.785l-.518-.38a25.923,25.923,0,0,1,1.641-2.017l.477.43a25.17,25.17,0,0,0-1.6,1.967m159.233-.154-.291-.572c.768-.392,1.516-.808,2.222-1.237l.333.549c-.72.438-1.482.862-2.265,1.26m-72.428-.371q-1.224-.387-2.454-.783l.2-.612q1.228.4,2.45.783Zm-65.654-.277a14.653,14.653,0,0,0-1.627-1.913l.452-.457a15.252,15.252,0,0,1,1.7,2Zm-34.871-.021L63.08,39.4c.741-.413,1.509-.82,2.284-1.207l.287.574c-.766.383-1.525.784-2.258,1.193M228.147,38.9q-1.133-.657-2.222-1.306l.329-.552q1.084.646,2.215,1.3Zm-68.517-.021-2.443-.79.2-.612,2.444.79Zm80.611-.574-.367-.527c.706-.492,1.382-1.013,2.01-1.547l.417.489c-.644.548-1.337,1.081-2.059,1.586M67.379,37.942l-.268-.584c.776-.356,1.573-.7,2.37-1.027l.243.595c-.788.322-1.577.664-2.345,1.016m87.975-.437q-1.213-.39-2.445-.779l.193-.612q1.233.388,2.449.78ZM80.037,37.45l-.445-.463c.617-.592,1.275-1.168,1.955-1.71l.4.5c-.665.529-1.307,1.092-1.91,1.67m15.177-.612A14.756,14.756,0,0,0,93.089,35.5l.295-.571A15.457,15.457,0,0,1,95.6,36.326ZM224.27,36.6q-1.128-.691-2.184-1.374l.349-.539q1.05.679,2.172,1.366Zm-152.761-.37-.224-.6c.822-.305,1.644-.589,2.444-.843l.195.612c-.79.251-1.6.531-2.414.833m79.562-.078q-1.216-.377-2.453-.75l.185-.615q1.24.373,2.459.752Zm92.663-.748-.454-.454a21.312,21.312,0,0,0,1.677-1.891l.506.4a21.822,21.822,0,0,1-1.728,1.949M75.76,34.855l-.17-.62c.851-.232,1.7-.436,2.518-.605l.13.63c-.807.166-1.641.367-2.478.6m71.014,0q-1.219-.358-2.465-.707l.174-.619q1.248.351,2.472.709Zm-55.41-.112a17.484,17.484,0,0,0-2.42-.7l.135-.628a18.18,18.18,0,0,1,2.508.727Zm-7.889-.1-.366-.528c.466-.323.948-.638,1.441-.941V32.94q.19,0,.378.005c.124-.074.247-.146.372-.218l.134.233c.583.024,1.157.069,1.714.133l-.074.639c-.639-.075-1.3-.121-1.975-.14-.557.335-1.1.688-1.625,1.051m137-.491c-.759-.521-1.465-1.03-2.1-1.513l.389-.511c.626.477,1.324.979,2.075,1.494ZM80.118,33.922l-.1-.635c.875-.132,1.743-.227,2.58-.284l.044.641c-.82.055-1.67.148-2.528.278m62.337-.289q-1.226-.331-2.479-.653l.159-.623q1.259.322,2.488.655Zm-4.345-1.119q-1.231-.3-2.493-.59l.143-.626q1.267.289,2.5.592ZM87.3,32.381l-.287-.574c.76-.38,1.554-.741,2.36-1.07l.243.594c-.791.324-1.57.678-2.316,1.051m159.291-.525-.542-.344a18.03,18.03,0,0,0,1.2-2.217l.585.265a18.532,18.532,0,0,1-1.243,2.3m-112.853-.351q-1.238-.268-2.509-.521l.125-.63q1.276.254,2.519.524Zm83.115-.085a24.226,24.226,0,0,1-1.9-1.781l.466-.442a24.02,24.02,0,0,0,1.848,1.734ZM91.4,30.653l-.212-.607c.8-.279,1.629-.54,2.47-.774l.172.619c-.828.231-1.645.487-2.43.761m37.94-.033q-1.245-.232-2.523-.449l.107-.634q1.283.218,2.534.452Zm-4.42-.759q-1.251-.2-2.535-.376l.089-.636q1.289.181,2.546.378Zm-29.236-.439-.144-.626c.828-.19,1.681-.36,2.537-.5l.108.633c-.844.144-1.685.312-2.5.5m24.8-.191q-1.257-.16-2.545-.3l.071-.639q1.294.145,2.555.305Zm-4.458-.5q-1.261-.124-2.553-.233l.053-.64q1.3.108,2.563.233Zm-15.946-.085L100,28c.841-.109,1.706-.2,2.57-.268l.051.641c-.854.068-1.708.157-2.538.265m11.477-.293c-.856-.057-1.715-.1-2.555-.122l.018-.642c.848.024,1.716.066,2.58.123Zm-7.027-.09-.029-.642c.847-.038,1.715-.057,2.583-.058V28.2c-.858,0-1.717.021-2.555.058m109.16-.118c-.185-.251-.357-.5-.516-.754-.305-.484-.6-.975-.865-1.458l.562-.312c.263.473.547.953.846,1.428q.227.359.49.715Zm34.855-.408-.611-.2a17.005,17.005,0,0,0,.6-2.446l.633.107a17.76,17.76,0,0,1-.623,2.538m-37.125-3.539a24.54,24.54,0,0,1-.983-2.409l.607-.21A24.242,24.242,0,0,0,212,23.921Zm37.967-.948-.641-.037c.019-.341.03-.682.029-1.022,0-.495-.021-1-.062-1.5l.64-.052c.043.518.064,1.041.064,1.552,0,.352-.01.706-.03,1.059m-39.507-3.336a18.951,18.951,0,0,1-.456-2.572l.639-.067a18.5,18.5,0,0,0,.44,2.484Zm38.583-1.1a20.138,20.138,0,0,0-.61-2.453l.612-.193a20.982,20.982,0,0,1,.63,2.531Zm-38.49-3.424-.642-.006a15.708,15.708,0,0,1,.243-2.608l.632.114a15.029,15.029,0,0,0-.233,2.5M247.2,14.57a22.941,22.941,0,0,0-1.1-2.281l.562-.31a23.191,23.191,0,0,1,1.131,2.346ZM210.66,11.058l-.611-.2a14.29,14.29,0,0,1,1.032-2.413l.565.306a13.746,13.746,0,0,0-.986,2.3m34.454-.394A23.871,23.871,0,0,0,243.6,8.628l.494-.409a24.309,24.309,0,0,1,1.554,2.09Zm-2.783-3.449A22.987,22.987,0,0,0,240.466,5.5l.408-.5a23.83,23.83,0,0,1,1.918,1.764Zm-29.679-.049-.518-.38a15.032,15.032,0,0,1,1.73-1.97l.444.464a14.422,14.422,0,0,0-1.655,1.886m26.3-2.808a20.331,20.331,0,0,0-2.168-1.3l.295-.571a21.241,21.241,0,0,1,2.237,1.342Zm-23.2-.295-.383-.515a16.828,16.828,0,0,1,2.217-1.391l.3.569a16.3,16.3,0,0,0-2.133,1.338m19.309-1.789-.075-.029a24.22,24.22,0,0,0-2.331-.775l.172-.619a25.127,25.127,0,0,1,2.391.8l.075.029ZM219.6,1.939l-.235-.6a19.014,19.014,0,0,1,2.492-.783l.151.625a18.348,18.348,0,0,0-2.409.755m11.2-.9A22.427,22.427,0,0,0,228.288.7l.049-.641A23.261,23.261,0,0,1,230.92.4Zm-6.929-.2L223.782.2a21.083,21.083,0,0,1,2.6-.2l.009.642a20.43,20.43,0,0,0-2.521.19" transform="translate(-13.083)" fill="#b0c9d6"/>
        <path id="Trazado_1015119" data-name="Trazado 1015119" d="M58.183,37.468l4.685,2.28-4.685,2.28L55.9,46.713l-2.28-4.685-4.685-2.28,4.685-2.28,2.28-4.685Z" transform="translate(-17.496 -11.72)" fill="#334155"/>
        <path id="Trazado_1015120" data-name="Trazado 1015120" d="M78.579,133.387l4.685,2.28-4.685,2.28-2.28,4.685-2.28-4.685-4.685-2.28,4.685-2.28L76.3,128.7Z" transform="translate(-24.788 -46.013)" fill="#334155"/>
        <path id="Trazado_1015121" data-name="Trazado 1015121" d="M226.867,7.887l4.685,2.28-4.685,2.28-2.28,4.685-2.28-4.685-4.685-2.28,4.685-2.28,2.28-4.685Z" transform="translate(-77.804 -1.145)" fill="#334155"/>
        <path id="Trazado_1015122" data-name="Trazado 1015122" d="M132.223,3.564l3.067,1.493L132.223,6.55,130.73,9.617,129.238,6.55,126.17,5.057l3.067-1.493L130.73.5Z" transform="translate(-45.108 -0.178)" fill="#334155"/>
        <path id="Trazado_1015123" data-name="Trazado 1015123" d="M388.48,62.662l3.067,1.493-3.067,1.493-1.492,3.067-1.493-3.067-3.067-1.493,3.067-1.493,1.493-3.067Z" transform="translate(-136.725 -21.306)" fill="#334155"/>
        <path id="Trazado_1015124" data-name="Trazado 1015124" d="M210.973,72.376l3.067,1.493-3.067,1.492-1.493,3.067-1.492-3.067-3.067-1.492,3.067-1.493,1.492-3.067Z" transform="translate(-73.263 -24.779)" fill="#334155"/>
        <path id="Trazado_1015125" data-name="Trazado 1015125" d="M346.094,101.954l3.067,1.493-3.067,1.492-1.493,3.067-1.492-3.067-3.067-1.492,3.067-1.493,1.492-3.067Z" transform="translate(-121.571 -35.354)" fill="#334155"/>
        <path id="Trazado_1015126" data-name="Trazado 1015126" d="M12.522,106.314l3.067,1.493L12.522,109.3l-1.493,3.067L9.536,109.3l-3.067-1.492,3.067-1.493,1.492-3.067Z" transform="translate(-2.313 -36.912)" fill="#334155"/>
      </g>
    </g>
  </g>
</svg>
