<svg xmlns="http://www.w3.org/2000/svg" xmlns:xlink="http://www.w3.org/1999/xlink" width="292" height="260" viewBox="0 0 292 260">
  <defs>
    <clipPath id="clip-path">
      <rect id="Rectángulo_461843" data-name="Rectángulo 461843" width="253.909" height="217.913" fill="none"/>
    </clipPath>
    <clipPath id="clip-path-3">
      <rect id="Rectángulo_461836" data-name="Rectángulo 461836" width="193.361" height="168.88" fill="none"/>
    </clipPath>
  </defs>
  <g id="Grupo_1194992" data-name="Grupo 1194992" transform="translate(-705.711 -787)">
    <g id="Grupo_1194873" data-name="Grupo 1194873">
      <rect id="Rectángulo_461735" data-name="Rectángulo 461735" width="292" height="260" rx="20" transform="translate(705.711 787)" fill="#1e3a8a"/>
      <g id="Grupo_1194867" data-name="Grupo 1194867" transform="translate(724.756 808.043)">
        <g id="Grupo_1194872" data-name="Grupo 1194872" clip-path="url(#clip-path)">
          <g id="Grupo_1194871" data-name="Grupo 1194871">
            <g id="Grupo_1194870" data-name="Grupo 1194870" clip-path="url(#clip-path)">
              <g id="Grupo_1194869" data-name="Grupo 1194869" transform="translate(35.834)" opacity="0.53">
                <g id="Grupo_1194868" data-name="Grupo 1194868">
                  <g id="Grupo_1194867-2" data-name="Grupo 1194867" clip-path="url(#clip-path-3)">
                    <path id="Trazado_1014712" data-name="Trazado 1014712" d="M118.888,62.016h-6.123a6.336,6.336,0,0,0,0-12.672h-12.8a6.336,6.336,0,1,0,0-12.672H80.693a6.336,6.336,0,0,0,0,12.672H69.138a6.336,6.336,0,0,0,0,12.672H79.5a6.336,6.336,0,1,0,0,12.672h39.383a6.336,6.336,0,1,0,0-12.672" transform="translate(-62.802 -15.748)" fill="#829fff"/>
                    <path id="Trazado_1014713" data-name="Trazado 1014713" d="M348.815,102.295h-6.072a6.283,6.283,0,1,1,0,12.567h-12.7a6.284,6.284,0,0,1,0,12.567H310.938a6.284,6.284,0,0,1,0-12.567H299.479a6.283,6.283,0,0,1,0-12.567h10.28a6.283,6.283,0,1,1,0-12.567h39.056a6.283,6.283,0,1,1,0,12.567" transform="translate(-161.737 -38.531)" fill="#829fff"/>
                    <path id="Trazado_1014714" data-name="Trazado 1014714" d="M257.765,12.337h-9.472a6.168,6.168,0,1,0,0-12.337H219.358a6.168,6.168,0,1,0,0,12.337H208.109a6.168,6.168,0,0,0-6.168,6.168h0a6.168,6.168,0,0,0,6.168,6.168h9.46a6.168,6.168,0,1,0,0,12.337h27.266a6.168,6.168,0,1,0,0-12.337h12.93a6.169,6.169,0,0,0,6.169-6.168h0a6.169,6.169,0,0,0-6.169-6.168" transform="translate(-122.551)" fill="#829fff"/>
                    <path id="Trazado_1014715" data-name="Trazado 1014715" d="M325.595,235.138H314.623a7.145,7.145,0,1,0,0-14.29H281.108a7.145,7.145,0,1,0,0,14.29h-13.03a7.145,7.145,0,0,0,0,14.29h10.957a7.145,7.145,0,1,0,0,14.289h31.582a7.145,7.145,0,1,0,0-14.289h14.977a7.145,7.145,0,0,0,0-14.29" transform="translate(-147.883 -94.836)" fill="#829fff"/>
                    <path id="Trazado_1014716" data-name="Trazado 1014716" d="M85.61,244.991H96.582a7.145,7.145,0,0,0,0,14.29H130.1a7.145,7.145,0,0,0,0-14.29h13.029a7.145,7.145,0,1,0,0-14.29H132.169a7.145,7.145,0,1,0,0-14.289H100.586a7.145,7.145,0,1,0,0,14.289H85.61a7.145,7.145,0,1,0,0,14.29" transform="translate(-69.528 -92.931)" fill="#829fff"/>
                  </g>
                </g>
              </g>
              <path id="Trazado_1014717" data-name="Trazado 1014717" d="M263.176,329.426c0,4.155-43.2,7.523-96.481,7.523s-96.481-3.368-96.481-7.523,43.2-7.523,96.481-7.523,96.481,3.368,96.481,7.523" transform="translate(-30.151 -138.231)" fill="#506feb"/>
              <path id="Trazado_1014718" data-name="Trazado 1014718" d="M249.307,49.208H125.276a4.04,4.04,0,0,0-4.218,3.835v154.81a4.04,4.04,0,0,0,4.218,3.835H249.307a4.04,4.04,0,0,0,4.218-3.835V53.043a4.04,4.04,0,0,0-4.218-3.835" transform="translate(-51.984 -21.131)" fill="#ffb53b"/>
              <rect id="Rectángulo_461837" data-name="Rectángulo 461837" width="113.096" height="144.868" transform="translate(78.759 36.883)" fill="#fff"/>
              <path id="Trazado_1014719" data-name="Trazado 1014719" d="M238.907,31.162h-6.586c0-4.1-4.974-7.416-11.118-7.416s-11.118,3.32-11.118,7.416H203.5a3.466,3.466,0,0,0-3.466,3.466V52.555h42.341V34.628a3.466,3.466,0,0,0-3.466-3.466m-17.7,2.966a2.5,2.5,0,1,1,2.5-2.5,2.5,2.5,0,0,1-2.5,2.5" transform="translate(-85.897 -10.197)" fill="#35537a"/>
              <rect id="Rectángulo_461838" data-name="Rectángulo 461838" width="42.341" height="5.348" transform="translate(114.135 31.662)" fill="#658db7"/>
              <path id="Trazado_1014720" data-name="Trazado 1014720" d="M208.709,106.1c8.389.735,17.014.209,25.432.213s17.048.538,25.432-.285a.366.366,0,0,0,0-.731c-8.385-.823-17.01-.288-25.432-.285s-17.044-.522-25.432.213a.437.437,0,0,0,0,.874" transform="translate(-89.442 -45.019)" fill="#7da0cb"/>
              <path id="Trazado_1014721" data-name="Trazado 1014721" d="M210.606,114.282c9.249.334,18.482.444,27.735.475,4.529.015,9.057.07,13.585.087,4.3.016,8.915.495,13.147-.3a.485.485,0,0,0,0-.928c-4.058-.765-8.462-.317-12.581-.3-4.717.015-9.433.072-14.151.088-9.254.031-18.487.142-27.735.475a.205.205,0,0,0,0,.41" transform="translate(-90.353 -48.596)" fill="#7da0cb"/>
              <path id="Trazado_1014722" data-name="Trazado 1014722" d="M213.621,122.4c7.45,1.038,15.328.414,22.839.411l11.373,0c3.809,0,7.723.269,11.5-.288a.476.476,0,0,0,0-.911,75.354,75.354,0,0,0-10.931-.287l-11.942,0c-7.511,0-15.389-.626-22.839.411a.35.35,0,0,0,0,.67" transform="translate(-91.625 -52.014)" fill="#7da0cb"/>
              <path id="Trazado_1014723" data-name="Trazado 1014723" d="M209.474,98.013c8.426.536,16.99.135,25.432.142l12.434.01c4.3,0,8.734.334,13-.214a.473.473,0,0,0,0-.945c-4.079-.524-8.324-.219-12.434-.215l-13,.011c-8.442.007-17.006-.394-25.432.141a.535.535,0,0,0,0,1.07" transform="translate(-89.73 -41.509)" fill="#7da0cb"/>
              <path id="Trazado_1014724" data-name="Trazado 1014724" d="M180.655,112.647H165.592V94.708h15.063ZM167.3,110.935h11.64V96.419H167.3Z" transform="translate(-71.108 -40.669)" fill="#b2c9de"/>
              <path id="Trazado_1014725" data-name="Trazado 1014725" d="M171.367,98.846l2.107,4.064c.288.555.692,1.753,1.311,2.1,1.385.771,2.512-.7,3.287-1.614,1.619-1.9,3.059-3.942,4.688-5.832,1.72-1.994,3.911-3.328,5.716-5.172a.593.593,0,0,0-.572-.984c-3.181.767-5.754,4.288-7.671,6.717-1.014,1.286-2.162,3.611-3.54,4.509q-.62,1.4-1.742,0l-.491-.89a30.659,30.659,0,0,1-1.962-3.56c-.409-.741-1.518-.085-1.131.661" transform="translate(-73.553 -39.244)" fill="#e17872"/>
              <path id="Trazado_1014726" data-name="Trazado 1014726" d="M208.709,162.7c8.389.735,17.014.209,25.432.213s17.048.538,25.432-.285a.366.366,0,0,0,0-.731c-8.385-.823-17.01-.288-25.432-.285s-17.044-.522-25.432.213a.437.437,0,0,0,0,.874" transform="translate(-89.442 -69.324)" fill="#7da0cb"/>
              <path id="Trazado_1014727" data-name="Trazado 1014727" d="M210.606,170.883c9.249.334,18.482.444,27.735.476,4.529.015,9.057.07,13.585.087,4.3.016,8.915.495,13.147-.3a.485.485,0,0,0,0-.928c-4.058-.765-8.462-.317-12.581-.3-4.717.015-9.433.072-14.151.088-9.254.031-18.487.142-27.735.475a.205.205,0,0,0,0,.41" transform="translate(-90.353 -72.901)" fill="#7da0cb"/>
              <path id="Trazado_1014728" data-name="Trazado 1014728" d="M213.621,179c7.45,1.038,15.328.414,22.839.411l11.373,0c3.809,0,7.723.269,11.5-.288a.476.476,0,0,0,0-.911,75.354,75.354,0,0,0-10.931-.287l-11.942,0c-7.511,0-15.389-.627-22.839.411a.35.35,0,0,0,0,.67" transform="translate(-91.625 -76.319)" fill="#7da0cb"/>
              <path id="Trazado_1014729" data-name="Trazado 1014729" d="M209.474,154.613c8.426.536,16.99.135,25.432.142l12.434.01c4.3,0,8.734.334,13-.214a.473.473,0,0,0,0-.945c-4.079-.524-8.324-.219-12.434-.215l-13,.011c-8.442.007-17.006-.394-25.432.141a.535.535,0,0,0,0,1.07" transform="translate(-89.73 -65.814)" fill="#7da0cb"/>
              <path id="Trazado_1014730" data-name="Trazado 1014730" d="M180.655,169.248H165.592V151.309h15.063ZM167.3,167.536h11.64V153.02H167.3Z" transform="translate(-71.108 -64.975)" fill="#b2c9de"/>
              <path id="Trazado_1014731" data-name="Trazado 1014731" d="M171.367,155.447l2.107,4.064c.288.555.692,1.753,1.311,2.1,1.385.771,2.512-.7,3.287-1.614,1.619-1.9,3.059-3.942,4.688-5.832,1.72-1.994,3.911-3.328,5.716-5.172a.593.593,0,0,0-.572-.984c-3.181.767-5.754,4.288-7.671,6.717-1.014,1.286-2.162,3.611-3.54,4.509q-.62,1.4-1.742,0l-.491-.89a30.661,30.661,0,0,1-1.962-3.56c-.409-.741-1.518-.085-1.131.661" transform="translate(-73.553 -63.549)" fill="#e17872"/>
              <path id="Trazado_1014732" data-name="Trazado 1014732" d="M208.709,219.3c8.389.735,17.014.209,25.432.213s17.048.538,25.432-.285a.366.366,0,0,0,0-.731c-8.385-.823-17.01-.288-25.432-.285s-17.044-.522-25.432.213a.437.437,0,0,0,0,.874" transform="translate(-89.442 -93.63)" fill="#7da0cb"/>
              <path id="Trazado_1014733" data-name="Trazado 1014733" d="M210.606,227.484c9.249.334,18.482.444,27.735.475,4.529.015,9.057.07,13.585.087,4.3.016,8.915.495,13.147-.3a.485.485,0,0,0,0-.928c-4.058-.765-8.462-.317-12.581-.3-4.717.015-9.433.072-14.151.088-9.254.031-18.487.141-27.735.475a.205.205,0,0,0,0,.41" transform="translate(-90.353 -97.207)" fill="#7da0cb"/>
              <path id="Trazado_1014734" data-name="Trazado 1014734" d="M213.621,235.6c7.45,1.038,15.328.414,22.839.411l11.373,0c3.809,0,7.723.269,11.5-.288a.476.476,0,0,0,0-.911,75.354,75.354,0,0,0-10.931-.287l-11.942,0c-7.511,0-15.389-.627-22.839.411a.35.35,0,0,0,0,.67" transform="translate(-91.625 -100.625)" fill="#7da0cb"/>
              <path id="Trazado_1014735" data-name="Trazado 1014735" d="M209.474,211.214c8.426.536,16.99.135,25.432.142l12.434.01c4.3,0,8.734.334,13-.214a.473.473,0,0,0,0-.945c-4.079-.524-8.324-.219-12.434-.215l-13,.011c-8.442.007-17.006-.394-25.432.142a.535.535,0,0,0,0,1.07" transform="translate(-89.73 -90.119)" fill="#7da0cb"/>
              <path id="Trazado_1014736" data-name="Trazado 1014736" d="M180.655,225.849H165.592V207.91h15.063ZM167.3,224.137h11.64V209.621H167.3Z" transform="translate(-71.108 -89.28)" fill="#b2c9de"/>
              <path id="Trazado_1014737" data-name="Trazado 1014737" d="M171.367,212.048l2.107,4.064c.288.555.692,1.753,1.311,2.1,1.385.771,2.512-.7,3.287-1.614,1.619-1.9,3.059-3.942,4.688-5.832,1.72-1.994,3.911-3.328,5.716-5.172a.593.593,0,0,0-.572-.984c-3.181.767-5.754,4.288-7.671,6.717-1.014,1.286-2.162,3.611-3.54,4.509q-.62,1.4-1.742,0l-.491-.89a30.66,30.66,0,0,1-1.962-3.56c-.409-.741-1.518-.085-1.131.661" transform="translate(-73.553 -87.855)" fill="#e17872"/>
              <path id="Trazado_1014738" data-name="Trazado 1014738" d="M208.709,275.906c8.389.735,17.014.209,25.432.213s17.048.538,25.432-.285a.366.366,0,0,0,0-.731c-8.385-.823-17.01-.288-25.432-.285s-17.044-.522-25.432.213a.437.437,0,0,0,0,.874" transform="translate(-89.442 -117.935)" fill="#7da0cb"/>
              <path id="Trazado_1014739" data-name="Trazado 1014739" d="M210.606,284.084c9.249.334,18.482.444,27.735.475,4.529.015,9.057.07,13.585.087,4.3.016,8.915.495,13.147-.3a.485.485,0,0,0,0-.928c-4.058-.765-8.462-.317-12.581-.3-4.717.015-9.433.072-14.151.088-9.254.031-18.487.142-27.735.475a.205.205,0,0,0,0,.41" transform="translate(-90.353 -121.512)" fill="#7da0cb"/>
              <path id="Trazado_1014740" data-name="Trazado 1014740" d="M213.621,292.2c7.45,1.038,15.328.414,22.839.411l11.373,0c3.809,0,7.723.269,11.5-.288a.476.476,0,0,0,0-.911,75.354,75.354,0,0,0-10.931-.287l-11.942,0c-7.511,0-15.389-.626-22.839.411a.35.35,0,0,0,0,.67" transform="translate(-91.625 -124.93)" fill="#7da0cb"/>
              <path id="Trazado_1014741" data-name="Trazado 1014741" d="M209.474,267.815c8.426.536,16.99.135,25.432.142l12.434.01c4.3,0,8.734.334,13-.214a.473.473,0,0,0,0-.945c-4.079-.524-8.324-.219-12.434-.215l-13,.011c-8.442.007-17.006-.394-25.432.141a.535.535,0,0,0,0,1.07" transform="translate(-89.73 -114.425)" fill="#7da0cb"/>
              <path id="Trazado_1014742" data-name="Trazado 1014742" d="M180.655,282.45H165.592V264.511h15.063ZM167.3,280.738h11.64V266.222H167.3Z" transform="translate(-71.108 -113.586)" fill="#b2c9de"/>
              <path id="Trazado_1014743" data-name="Trazado 1014743" d="M171.367,268.649l2.107,4.064c.288.555.692,1.753,1.311,2.1,1.385.771,2.512-.7,3.287-1.614,1.619-1.9,3.059-3.942,4.688-5.832,1.72-1.994,3.911-3.328,5.716-5.172a.593.593,0,0,0-.572-.984c-3.181.767-5.754,4.289-7.671,6.717-1.014,1.286-2.162,3.611-3.54,4.509q-.62,1.4-1.742,0l-.491-.89a30.658,30.658,0,0,1-1.962-3.56c-.409-.741-1.518-.085-1.131.661" transform="translate(-73.553 -112.16)" fill="#e17872"/>
              <path id="Trazado_1014744" data-name="Trazado 1014744" d="M96.341,358.422c0,3.353-20.12,6.07-44.94,6.07s-44.94-2.718-44.94-6.07,20.12-6.07,44.94-6.07,44.94,2.718,44.94,6.07" transform="translate(-2.775 -151.306)" fill="#506feb"/>
              <rect id="Rectángulo_461839" data-name="Rectángulo 461839" width="89.48" height="10.226" transform="translate(7.146 87.824) rotate(-18.916)" fill="#c7413d"/>
              <rect id="Rectángulo_461840" data-name="Rectángulo 461840" width="89.48" height="4.221" transform="translate(8.119 90.664) rotate(-18.915)" fill="#d76767"/>
              <path id="Trazado_1014745" data-name="Trazado 1014745" d="M160.873,102.859l9.772-.175,6.858-.122-5.491,4.11-7.823,5.862Z" transform="translate(-69.081 -44.042)" fill="#eccbaa"/>
              <path id="Trazado_1014746" data-name="Trazado 1014746" d="M178,102.684l6.858-.122-5.491,4.11Z" transform="translate(-76.436 -44.042)" fill="#c7413d"/>
              <rect id="Rectángulo_461841" data-name="Rectángulo 461841" width="3.264" height="10.226" transform="matrix(0.946, -0.324, 0.324, 0.946, 4.059, 88.883)" fill="#ffb53b"/>
              <path id="Trazado_1014747" data-name="Trazado 1014747" d="M.136,159.764l1.693,4.94a2.5,2.5,0,0,0,3.178,1.556l2.367-.811-3.315-9.674-2.367.811a2.5,2.5,0,0,0-1.556,3.178" transform="translate(0 -66.892)" fill="#e17872"/>
              <path id="Trazado_1014748" data-name="Trazado 1014748" d="M42.625,357.82a110.168,110.168,0,0,0,14.04-.386c1.572-1.579-3.849-2.914-7.36-3.935-1.368-.4-1.853-1.688-2.129-3.085-1.794-.29-2.992-1.331-3.471-.066-.8,2.109-1.08,7.23-1.08,7.471" transform="translate(-18.304 -150.183)" fill="#393e52"/>
              <path id="Trazado_1014749" data-name="Trazado 1014749" d="M95.76,357.144a110.173,110.173,0,0,0,14.04-.386c1.572-1.579-3.848-2.914-7.36-3.935-1.368-.4-1.853-1.688-2.129-3.085-1.794-.29-2.992-1.331-3.471-.066-.8,2.109-1.08,7.23-1.08,7.471" transform="translate(-41.121 -149.893)" fill="#393e52"/>
              <path id="Trazado_1014750" data-name="Trazado 1014750" d="M77.743,264.8c-2.031-13.436-3.143-17.924-7.385-33.211-6.012.7-18.127-5.98-20.1,1.481-2.342,8.841-.312,30.968-1.345,33.546-5.057,12.615-3.575,20.848-5.054,32.125-.188,1.435,2.689,1.642,4.2,1.033,3.517-14.688,7.229-23.9,8.877-31.749.26-1.239,3.027-16.873,4.6-21.115,4.287,12.353,8.74,16.616,8.42,20.936-.71,9.6,4.255,26.027,4.223,30.9-.009,1.425,3.084.745,4.36.112.586-.29.343-26.525-.8-34.062" transform="translate(-18.829 -98.552)" fill="#35537a"/>
              <path id="Trazado_1014751" data-name="Trazado 1014751" d="M63.954,157.607c.837.185,4.416-.447,4.868-1.247a11.314,11.314,0,0,0-.022-10.941c-1.888-3.314-3.4-3.482-7.167-2.88-9.6,1.535-4.241,13.621,2.321,15.068" transform="translate(-24.223 -61.092)" fill="#eccbaa"/>
              <path id="Trazado_1014752" data-name="Trazado 1014752" d="M62.534,162.151a27.883,27.883,0,0,1,1.535,7.443c1.933,1.142,3.673.021,5.9-.27q-1.215-3.008-2.431-6.015a7.825,7.825,0,0,0-1.372-2.477,2.657,2.657,0,0,0-2.555-.891,1.634,1.634,0,0,0-1.068,2.224" transform="translate(-26.786 -68.65)" fill="#eccbaa"/>
              <path id="Trazado_1014753" data-name="Trazado 1014753" d="M54.842,142.96c.808-2.826,3.644-4.08,5.494-4.569.645-.171,7.017-1.333,7.2-2.873a15.738,15.738,0,0,1,1.623,4.429,2.411,2.411,0,0,1-.246,2.038,2.477,2.477,0,0,1-1.2.655,29.548,29.548,0,0,1-5.18,1.121c-.948.4-.526,1.308.411,3.279-.067.525-.84.6-1.142.272-.433-.464-.762-1.577-1.877-.9a2.99,2.99,0,0,0,1.371,3.883.626.626,0,0,1,.321.955c-.851,1.275-2.294,1.653-3.193.876-2.107-1.821-4.322-6.583-3.584-9.162" transform="translate(-23.488 -58.194)" fill="#393e52"/>
              <path id="Trazado_1014754" data-name="Trazado 1014754" d="M74.365,163.032a2.054,2.054,0,0,0,1.227.238c.341-.041.852-.172,1.007-.512a.192.192,0,0,0-.214-.278c-.3.051-.543.283-.854.347a1.781,1.781,0,0,1-1.034-.108c-.181-.072-.3.224-.132.314" transform="translate(-31.899 -69.77)" fill="#e17872"/>
              <path id="Trazado_1014755" data-name="Trazado 1014755" d="M53.857,207.565c6.6,0,13.272-.27,19.873-.41,1.269.1,1.092-6.764.625-11.11-.876-8.17,1.622-15.467-1.233-22.516-.759-1.876-1.686-2.677-2.193-2.648-5.524.319-19.65-.1-19.707,7.954-.008,1.2,1.47,4.717,1.764,10.834.365,7.592-1.346,17.9.871,17.9" transform="translate(-21.996 -73.379)" fill="#fff"/>
              <path id="Trazado_1014756" data-name="Trazado 1014756" d="M28.757,181.966c-.225-5.84-1.514-8.164-1.74-14-1.016-.547-1.359-.947-2.018,0s-1.828,22.67,1.256,22.527c5.132-.238,10.443-3.826,16.535-6.712,2.325-1.1,3.2-12.384-.218-11.138-4.421,1.61-9.607,5.882-13.817,9.327" transform="translate(-10.402 -71.881)" fill="#fff"/>
              <path id="Trazado_1014757" data-name="Trazado 1014757" d="M97.4,152.5c.89-.62,3.59-7.7,4.787-15.782,1.157-.211,2.1-.561,3.2-.15-1.335,10.025-2.226,19.626-5.023,21.5-1.192.8-15.542,8.769-17.54,8.87-5.537.279-7.907-9.081-3.917-10.146,8.051-2.146,15.248-2.027,18.494-4.288" transform="translate(-33.029 -58.564)" fill="#fff"/>
              <path id="Trazado_1014758" data-name="Trazado 1014758" d="M25.244,161.756c-.536-.261-.818,1.088-1.414,1.088-2.883,0-2.176-2.435-4.025-2.152a2.074,2.074,0,0,0-1.2,2.206c.511,2.032,1.849,2.428,3.19,2.842,2.533.782,5.459-3.005,3.446-3.984" transform="translate(-7.976 -68.994)" fill="#eccbaa"/>
              <path id="Trazado_1014759" data-name="Trazado 1014759" d="M124.549,128.057c-.429-1.034-2.133-.59-2.386-.272-.759.953-.26,3.324-1.687,3.59-.771.144-1.561.168-1.468.663.185.993,2.723,1.414,3.907.92a4.206,4.206,0,0,0,1.78-1.128c1.005-1.282.478-2.268-.146-3.773" transform="translate(-51.101 -54.713)" fill="#eccbaa"/>
              <path id="Trazado_1014760" data-name="Trazado 1014760" d="M388.967,354.342c0,3.353-16.667,6.07-37.227,6.07s-37.226-2.718-37.226-6.07,16.667-6.07,37.226-6.07,37.227,2.718,37.227,6.07" transform="translate(-135.058 -149.554)" fill="#506feb"/>
              <path id="Trazado_1014761" data-name="Trazado 1014761" d="M384.568,354.389c-.284.251-3.392.079-4.5.212a20.151,20.151,0,0,1-7.181.013c-.767-.5-.45-1.183.39-1.468,1.673-.562,2.578-.839,3.689-1.23.245-.086.5-.179.767-.278A6.626,6.626,0,0,0,380.766,349c.456-.945,2.036-.747,2.731-.628,0,0,.568.913.608,1.045a12.878,12.878,0,0,1,.35,1.68c.039.2.092.423.172.694.219.694.483,2.116-.059,2.6" transform="translate(-159.936 -149.553)" fill="#e17872"/>
              <path id="Trazado_1014762" data-name="Trazado 1014762" d="M387.854,351.1c-.053.026-.1.053-.146.079a13.307,13.307,0,0,1-3.762,1.534c-1.177.225-2.8.2-3.584-.794.245-.086.5-.179.767-.278A6.623,6.623,0,0,0,384.164,349c.456-.945,2.036-.747,2.731-.628,0,0,.568.912.608,1.044a12.876,12.876,0,0,1,.35,1.68" transform="translate(-163.334 -149.553)" fill="#eccbaa"/>
              <path id="Trazado_1014763" data-name="Trazado 1014763" d="M411.392,355.071c-.261.276-3.372.382-4.466.612a20.157,20.157,0,0,1-7.151.653c-.809-.432-.553-1.138.257-1.5,1.616-.709,2.494-1.066,3.566-1.554.236-.108.478-.223.739-.345a6.625,6.625,0,0,0,2.788-2.9c.37-.983,1.962-.925,2.664-.869,0,0,.648.858.7.987a12.767,12.767,0,0,1,.5,1.642c.057.194.13.413.233.676.279.672.669,2.064.172,2.593" transform="translate(-171.458 -149.93)" fill="#e17872"/>
              <path id="Trazado_1014764" data-name="Trazado 1014764" d="M414.235,351.8c-.05.031-.094.062-.138.092a13.3,13.3,0,0,1-3.611,1.864c-1.153.329-2.774.454-3.64-.471.236-.107.478-.222.739-.345a6.62,6.62,0,0,0,2.788-2.9c.37-.983,1.962-.926,2.664-.87,0,0,.648.858.7.987a12.764,12.764,0,0,1,.5,1.642" transform="translate(-174.707 -149.93)" fill="#eccbaa"/>
              <path id="Trazado_1014765" data-name="Trazado 1014765" d="M382.9,303.329a22.551,22.551,0,0,1,3.617.183c2.056-11.468,2.224-14.941.9-28.275-.74-7.455.86-11.748,1.776-21.558.307,7.183,2.018,12.755,2.971,20.12,1.251,9.665,3.518,21.293,5.263,29.53.153.724,4.506.963,3.876-.69-1.418-8.931,1.465-19.87-1.653-29.424-2.668-8.173,3.609-21.206.411-30.148a31.59,31.59,0,0,0-12.045-1.082c-3.664.637-8.782-2.37-9.487,1.035-1.264,6.112.356,22.831,1.063,30.306,1,10.545,3.306,16.684,3.306,30" transform="translate(-162.348 -103.645)" fill="#35537a"/>
              <path id="Trazado_1014766" data-name="Trazado 1014766" d="M403.111,170.024c-.243-.52-.84-.766-1.214-1.2-1.057-1.231.064-3.235-.582-4.724-.59-1.359-2.415-1.784-3.134-3.079a6.419,6.419,0,0,1-.507-2.014c-1.1-6.109-9.144-9.092-14.1-5.323-1.724,1.311-3.641,5.2-2.784,7.188,1.846,4.285-.37,3.2-.293,5.529.051,1.543.556,3.49,2.087,3.692-.836,1.083-1.368,2.819-.307,3.683s2.61.034,3.957.179c1.921.207,3.689,2.4,5.387,1.484a11,11,0,0,0,1.041-.816c1.308-.929,3.091-.436,4.7-.439a7.238,7.238,0,0,0,5.058-2.105,1.955,1.955,0,0,0,.695-2.054" transform="translate(-163.391 -65.278)" fill="#393e52"/>
              <path id="Trazado_1014767" data-name="Trazado 1014767" d="M388.35,170.006a2.58,2.58,0,0,0,3.107.744,6.429,6.429,0,0,0,2.62-1.278,13.712,13.712,0,0,0,3.035-7.839c.271-4.9-5.213-8.3-9.211-4.868-3.332,2.86-2.359,10.427.448,13.24" transform="translate(-165.666 -66.72)" fill="#eccbaa"/>
              <path id="Trazado_1014768" data-name="Trazado 1014768" d="M394.6,178.331c.111-.43-4.349,1.433-4.349,1.433-.4,1.717-.033,1.959-.434,3.676-4.661.248-2.7,7.2-2.067,7.273.4.048,5.218,1.2,5.62,1.22.386.019,2.711-6.808,3.372-8.761l-2.091-.061c-.207-2.264-.454-3.225-.052-4.78" transform="translate(-166.097 -76.551)" fill="#eccbaa"/>
              <path id="Trazado_1014769" data-name="Trazado 1014769" d="M389.241,160.677a3.616,3.616,0,0,1,1.85.695c.479.513.439,1.307.666,1.971a3.7,3.7,0,0,0,3.373,2.117c1.4.1,2.8-.246,4.213-.25q-1.4-3.279-2.541-6.658a13.24,13.24,0,0,0-2.056-4.366,6.8,6.8,0,0,0-9.16-.74,7.711,7.711,0,0,0-1.789,9.247c-.4-.785,2.021-3.524,2.608-3.947a3.942,3.942,0,0,0,2.836,1.93" transform="translate(-164.46 -65.278)" fill="#393e52"/>
              <path id="Trazado_1014770" data-name="Trazado 1014770" d="M392.695,175.534a14.737,14.737,0,0,0-3.228,0c-.192,0,.086,1.773,1.886,1.779,1.227,0,1.342-1.779,1.342-1.779" transform="translate(-167.222 -75.334)" fill="#fff"/>
              <path id="Trazado_1014771" data-name="Trazado 1014771" d="M314.846,166.635c-.661.067-.191.843.26,1.331s1.254,1.1,1.752,1.542c.645.569-.63,3.212,1.507,4.533.881.544,3.03.562,4.046.766,1.124.226,10.236,4.638,14.795,6.64,4.1,1.8,15.517,4.384,15.766,4.582,1.146.907,4.108-5.659,2.787-6.347-4.049-2.1-11.032-1.525-18.8-3.689-3.668-1.022-11.036-2.752-14.464-4.411-1.5-.725-1.865-1.574-3.321-2.384-1.872-1.041-2.536-1.389-4.326-2.565" transform="translate(-135.06 -71.556)" fill="#eccbaa"/>
              <path id="Trazado_1014772" data-name="Trazado 1014772" d="M378.9,198.276c-.238,1.89,3.142,5.562,3.471,7.439.756,4.305-3.577,9.517-3.483,13.887.007.34,9.33,4.027,21.532.047-.117-6.188-3.951-12.148-2.262-17.184a17.342,17.342,0,0,1,2.811-5.429c1.176-1.486-2.164-2.507-2.961-4.226-.789-1.7,1.321-4.269-.4-5.022a13.133,13.133,0,0,0-4.969-.955c-.95,6.032-4.6,7.726-6.51,7.432-3.224-.5-2.188-4.467-.669-6.973,0,0-2.4.059-3.09.817-.611.668-.362,2.621-1.074,4.463-1.05,2.714-2.034,2.815-2.4,5.7" transform="translate(-162.699 -80.229)" fill="#e17872"/>
              <path id="Trazado_1014773" data-name="Trazado 1014773" d="M423.512,202c.529,1.6-.35,3.292-1.2,4.747-1.68,2.875-7.392,9.8-7.392,10.712,0,2.08-1.227,2.209-2.479,2.232,1.469,2.245.413,2.547-.662,2.149a3.026,3.026,0,0,1-1.97-3.155c-.038-1.57,1.144-1.652,2.709-2.49a69.854,69.854,0,0,0,5.709-13.06c-4.27-1.955-7.582-4.862-11.158-7.908-3.992-3.4-1.707-8.528,3.223-6.286,4.845,2.2,12.97,12.3,13.222,13.06" transform="translate(-173.925 -80.898)" fill="#eccbaa"/>
              <path id="Trazado_1014774" data-name="Trazado 1014774" d="M300.57,359.131c0,5.022-14.537,9.094-32.468,9.094s-32.468-4.072-32.468-9.094,14.537-9.094,32.468-9.094,32.468,4.071,32.468,9.094" transform="translate(-101.185 -150.312)" fill="#506feb"/>
              <path id="Trazado_1014775" data-name="Trazado 1014775" d="M280.924,349.814a22.446,22.446,0,0,0,9.817-2.233c2.993-1.582,8.319-5.767,9.015-9.081.148-.708-.664-1.877-2.086-2.711-.785-.461-12.043-.773-17.311-.365-9.653.748-26.215-2.847-22.658,4.271,4.666,9.338,16.842,10.322,23.223,10.119" transform="translate(-110.45 -143.925)" fill="#2a3a3b"/>
              <path id="Trazado_1014776" data-name="Trazado 1014776" d="M275.748,269.731a11.75,11.75,0,0,1,.781,2.6,12.3,12.3,0,0,1-.513,3.163c-.468,2.559.572,5.5,2.891,6.678,2.4,1.218,5.278.306,7.973.3,1.9-.007,3.826.45,5.684.046s3.656-2.151,3.172-3.99c-.258-.981-1.091-1.713-1.458-2.661a6.357,6.357,0,0,1-.185-2.771c.3-4.125.075-8.614-2.493-11.856a9.937,9.937,0,0,0-11.166-2.967c-4.053,1.626-5.993,7.45-4.686,11.458" transform="translate(-118.237 -110.628)" fill="#e17872"/>
              <path id="Trazado_1014777" data-name="Trazado 1014777" d="M266.25,297.387c1.239.337,4.471,1.252,5.706,1.605a110.152,110.152,0,0,1,.013,16.34c5.727,2.908,12.528,2.311,18.916,1.643a3.226,3.226,0,0,0,1.764-.544c.7-.576-.961-2.548-.951-3.453.058-5.252-.636-9.064-.678-14.61a26.762,26.762,0,0,0,5.736-1.877,26.116,26.116,0,0,0-4.23-5.886c-1.536-1.536-5.376-1.81-7.027-1.963a34.067,34.067,0,0,0-8.192-.038c-3.289.469-6.737,1.154-8.135,3.089-.387.535-2.923,5.692-2.923,5.692" transform="translate(-114.332 -123.833)" fill="#35537a"/>
              <path id="Trazado_1014778" data-name="Trazado 1014778" d="M265.529,318.73c.417,1.787,7.406,1.9,11.454,1.035q-.175-.764-.35-1.529c-1.788-.81-3.874-1.227-6.322-2.464-1.43-.722-.438-2.481-.253-4.073.227-1.949,1.347-3.8,1.574-5.747.015-.131-4.856-1.369-4.856-1.369a67.351,67.351,0,0,0-1.247,14.147" transform="translate(-114.009 -130.793)" fill="#eccbaa"/>
              <path id="Trazado_1014779" data-name="Trazado 1014779" d="M315.279,317.108c-.6,1.457-6.129,1.409-9.181,1.477-.783,0-.842-1.372-.578-1.9.231-.464,6.232-2.992,6.057-3.48-1.106-3.077-2.177-4.544-3.754-8.447a34.178,34.178,0,0,1,4.919-1.508c1.235,3.9,3.372,11.821,2.537,13.859" transform="translate(-131.135 -130.22)" fill="#eccbaa"/>
              <path id="Trazado_1014780" data-name="Trazado 1014780" d="M296.7,308.708h-25.1a1.074,1.074,0,0,0-1.074,1.074v16.484a1.074,1.074,0,0,0,1.074,1.074h25.1a1.074,1.074,0,0,0,1.074-1.074V309.782a1.074,1.074,0,0,0-1.074-1.074" transform="translate(-116.166 -132.565)" fill="#fff"/>
              <path id="Trazado_1014781" data-name="Trazado 1014781" d="M293.953,321.906c-.676-.034-.975.217-1.547,1-.268-.868-2.1-1.471-2.483-.177-.525,1.682,2.341,2.81,2.5,3,.37-.247,2.263-1.057,2.536-2.357a1.218,1.218,0,0,0-1.007-1.466" transform="translate(-124.47 -138.231)" fill="#98b0e3"/>
              <path id="Trazado_1014782" data-name="Trazado 1014782" d="M293.547,285.763c-.452-.369-1.833-.4-2.387-.582-.7-.23-.424-2.658-.215-3.835h-4.414c.154,1.6.751,2.506.4,3.42-.24.624-1.7.656-2.275,1s-.024,2.073.451,2.543c.92,1.931,3.956,3.753,4.367,3.65,1.04-.258,2.243-1.963,3.172-3.233.385-.526,1.408-2.553.9-2.965" transform="translate(-122.13 -120.815)" fill="#eccbaa"/>
              <path id="Trazado_1014783" data-name="Trazado 1014783" d="M284.49,273.881c1.612,1.632,4.481,2.023,6.186.49,1.411-1.27,1.7-3.362,1.83-5.27a13.209,13.209,0,0,0-.088-3.471,4.381,4.381,0,0,0-4.627-3.867c-6.232-.066-6.938,8.437-3.3,12.119" transform="translate(-121.218 -112.405)" fill="#eccbaa"/>
              <path id="Trazado_1014784" data-name="Trazado 1014784" d="M286.648,262.162a12.6,12.6,0,0,0,2.419,4.125,5.558,5.558,0,0,0,4.273,1.854c.174-2.531.325-5.2-.775-7.481a7.358,7.358,0,0,0-12.548-1.181c-1.882,2.547-1.93,5.975-1.745,9.137,0,.066,4.063-2,4.489-2.313a14.138,14.138,0,0,0,3.887-4.141" transform="translate(-119.464 -110.143)" fill="#e17872"/>
              <path id="Trazado_1014785" data-name="Trazado 1014785" d="M288.741,280.892a2.409,2.409,0,0,0,2.658.007c.143-.136-.013-.32-.173-.3a8.531,8.531,0,0,1-1.181.243,3.312,3.312,0,0,1-1.182-.242c-.173-.065-.268.2-.122.289" transform="translate(-123.959 -120.491)" fill="#e17872"/>
              <path id="Trazado_1014786" data-name="Trazado 1014786" d="M318.235,366a1.911,1.911,0,0,1-1.072,1.7c-1.321.744-2.9.3-4.285-.452-.348-.2-3.426-2.826-3.746-3.042-.773-.536-3.016-1.612-1.882-3.163.414-.569,1-.389,2.948.394,1.193.479,3.7,1.413,4.641,1.867.716.341,1.273.619,1.53.745.848.41,1.788,1.008,1.864,1.947" transform="translate(-131.804 -154.895)" fill="#eccbaa"/>
              <path id="Trazado_1014787" data-name="Trazado 1014787" d="M322.707,367.947a1.911,1.911,0,0,1-1.072,1.7c-1.321.744-2.9.3-4.284-.452a8.956,8.956,0,0,0,1.962-3.944c.716.341,1.273.619,1.53.745.848.41,1.788,1.008,1.864,1.947" transform="translate(-136.276 -156.847)" fill="#c7413d"/>
              <path id="Trazado_1014788" data-name="Trazado 1014788" d="M275.7,342.34c-6.485-4.422-7.822-6.448-12.357-7.337-3.484-.684-7.493.225-6.207,3.664s6.638,5.7,8.877,6.684c6.98,3.069,14.379,5.359,21.627,7.725a5.493,5.493,0,0,0,1.066-2.77c-3.617-2.121-9.542-5.6-13.007-7.966" transform="translate(-110.314 -143.765)" fill="#393e52"/>
              <path id="Trazado_1014789" data-name="Trazado 1014789" d="M262.7,365.981a1.911,1.911,0,0,0,1.072,1.7c1.321.744,2.9.3,4.285-.452.348-.2,3.4-2.826,3.718-3.042.773-.536,3.043-1.612,1.909-3.163-.427-.588-.96-.428-2.976.394-1.133.462-3.717,1.436-4.614,1.867-.716.341-1.273.619-1.53.745-.848.41-1.788,1.008-1.864,1.947" transform="translate(-112.807 -154.88)" fill="#eccbaa"/>
              <path id="Trazado_1014790" data-name="Trazado 1014790" d="M262.7,367.947a1.911,1.911,0,0,0,1.072,1.7c1.321.744,2.9.3,4.285-.452a8.955,8.955,0,0,1-1.962-3.944c-.716.341-1.273.619-1.53.745-.848.41-1.788,1.008-1.864,1.947" transform="translate(-112.807 -156.847)" fill="#c7413d"/>
              <path id="Trazado_1014791" data-name="Trazado 1014791" d="M289.351,342.72c6.485-4.422,9.984-8.1,13.242-8.882,3.453-.829,6.838.554,5.551,3.992s-6.47,6.027-8.708,7.011c-6.98,3.069-14.379,5.359-21.628,7.725a5.5,5.5,0,0,1-1.066-2.77c3.617-2.121,9.145-4.714,12.61-7.076" transform="translate(-118.837 -143.255)" fill="#393e52"/>
            </g>
          </g>
        </g>
      </g>
    </g>
  </g>
</svg>
