<svg xmlns="http://www.w3.org/2000/svg" xmlns:xlink="http://www.w3.org/1999/xlink" width="188" height="162.164" viewBox="0 0 188 162.164">
  <defs>
    <clipPath id="clip-path">
      <rect id="Rectángulo_461868" data-name="Rectángulo 461868" width="164.711" height="143.414" fill="none"/>
    </clipPath>
    <clipPath id="clip-path-3">
      <rect id="Rectángulo_461846" data-name="Rectángulo 461846" width="47.885" height="34.206" fill="none"/>
    </clipPath>
    <clipPath id="clip-path-4">
      <rect id="Rectángulo_461847" data-name="Rectángulo 461847" width="156.23" height="58.732" fill="none"/>
    </clipPath>
    <clipPath id="clip-path-5">
      <rect id="Rectángulo_461855" data-name="Rectángulo 461855" width="26.161" height="1.045" fill="none"/>
    </clipPath>
    <clipPath id="clip-path-8">
      <rect id="Rectángulo_461858" data-name="Rectángulo 461858" width="7.085" height="1.044" fill="none"/>
    </clipPath>
    <clipPath id="clip-path-9">
      <rect id="Rectángulo_461859" data-name="Rectángulo 461859" width="7.085" height="1.045" fill="none"/>
    </clipPath>
    <clipPath id="clip-path-10">
      <rect id="Rectángulo_461860" data-name="Rectángulo 461860" width="21.261" height="0.722" fill="none"/>
    </clipPath>
    <clipPath id="clip-path-12">
      <rect id="Rectángulo_461862" data-name="Rectángulo 461862" width="21.261" height="0.723" fill="none"/>
    </clipPath>
    <clipPath id="clip-path-13">
      <rect id="Rectángulo_461863" data-name="Rectángulo 461863" width="12.408" height="1.045" fill="none"/>
    </clipPath>
    <clipPath id="clip-path-16">
      <rect id="Rectángulo_461866" data-name="Rectángulo 461866" width="1.234" height="2.762" fill="none"/>
    </clipPath>
  </defs>
  <g id="Grupo_1194993" data-name="Grupo 1194993" transform="translate(-185.711 -1774.836)">
    <g id="Grupo_1194920" data-name="Grupo 1194920">
      <rect id="Rectángulo_461743" data-name="Rectángulo 461743" width="188" height="103" rx="20" transform="translate(185.711 1834)" fill="#334155"/>
      <g id="Grupo_1194919" data-name="Grupo 1194919" transform="translate(197.355 1774.836)">
        <g id="Grupo_1194918" data-name="Grupo 1194918" clip-path="url(#clip-path)">
          <rect id="Rectángulo_461844" data-name="Rectángulo 461844" width="29.673" height="33.326" transform="translate(67.519 103.687)" fill="#2ed19b"/>
          <rect id="Rectángulo_461845" data-name="Rectángulo 461845" width="29.673" height="11.583" transform="translate(67.519 103.687)" fill="#24a77c"/>
          <g id="Grupo_1194917" data-name="Grupo 1194917">
            <g id="Grupo_1194916" data-name="Grupo 1194916" clip-path="url(#clip-path)">
              <path id="Trazado_1014792" data-name="Trazado 1014792" d="M175.947,293.749H120.284V290.06a5.622,5.622,0,0,1,5.622-5.622h44.418a5.623,5.623,0,0,1,5.622,5.622Z" transform="translate(-65.76 -155.503)" fill="#24a77c"/>
              <path id="Trazado_1014793" data-name="Trazado 1014793" d="M159.282,107.527H5.429A5.429,5.429,0,0,1,0,102.1V5.43A5.429,5.429,0,0,1,5.429,0H159.282a5.429,5.429,0,0,1,5.429,5.429V102.1a5.429,5.429,0,0,1-5.429,5.429" transform="translate(0 -0.001)" fill="#2ed19b"/>
              <path id="Trazado_1014794" data-name="Trazado 1014794" d="M9.618,106.236V11.807a2.189,2.189,0,0,1,2.189-2.189H163.42a2.189,2.189,0,0,1,2.189,2.189v94.428a2.189,2.189,0,0,1-2.189,2.189H11.807a2.189,2.189,0,0,1-2.189-2.189" transform="translate(-5.258 -5.258)" fill="#c7d2d7"/>
              <g id="Grupo_1194876" data-name="Grupo 1194876" transform="translate(13.031 9.407)" opacity="0.68" style="mix-blend-mode: screen;isolation: isolate">
                <g id="Grupo_1194875" data-name="Grupo 1194875">
                  <g id="Grupo_1194874" data-name="Grupo 1194874" clip-path="url(#clip-path-3)">
                    <path id="Trazado_1014795" data-name="Trazado 1014795" d="M51.115,59.142l5.714-5.714-3.492-3.492a.144.144,0,0,1,.029-.059l4.823-.008V41.8h-4.86a.77.77,0,0,0-.052-.112l3.366-3.366-5.714-5.714-3.366,3.366a1.476,1.476,0,0,0-.193-.089V31.247l-8.077.007v4.667a2.571,2.571,0,0,0-.245.112L35.814,32.8,30.1,38.514l3.3,3.3a2.551,2.551,0,0,1-.089.253H28.748v8.085H33.5a1.44,1.44,0,0,1,.082.186L30.3,53.621l5.714,5.714L39.456,55.9a.967.967,0,0,0,.112.037L39.56,60.7h8.085V55.746c.022-.007.037-.022.052-.022ZM38.453,50.79a6.951,6.951,0,1,1,9.838,0,6.95,6.95,0,0,1-9.838,0" transform="translate(-28.748 -26.49)" fill="#8bf6f1"/>
                    <path id="Trazado_1014796" data-name="Trazado 1014796" d="M105.431,36.5h4.321V33.857a.079.079,0,0,1,.034-.011l1.826,1.82,3.051-3.051-1.837-1.838a.511.511,0,0,0,.023-.062h2.545V26.394h-2.545a.828.828,0,0,0-.04-.107l1.753-1.753-3.057-3.051-1.764,1.764c-.045-.022-.09-.034-.135-.05V20.752h-4.322v2.495a1.333,1.333,0,0,1-.129.062l-1.725-1.725-3.057,3.057,1.8,1.8a.774.774,0,0,1-.039.1H99.649v4.321h2.6a.6.6,0,0,0,.029.056l-1.8,1.8,3.057,3.057L105.4,33.9c.011.005.023.005.028.011ZM103.8,28.552a3.717,3.717,0,1,1,3.72,3.72,3.715,3.715,0,0,1-3.72-3.72" transform="translate(-67.51 -20.752)" fill="#8bf6f1"/>
                  </g>
                </g>
              </g>
              <g id="Grupo_1194879" data-name="Grupo 1194879" transform="translate(4.36 44.435)" opacity="0.68" style="mix-blend-mode: screen;isolation: isolate">
                <g id="Grupo_1194878" data-name="Grupo 1194878">
                  <g id="Grupo_1194877" data-name="Grupo 1194877" clip-path="url(#clip-path-4)">
                    <path id="Trazado_1014797" data-name="Trazado 1014797" d="M311.689,174.6l5.714-5.714-3.492-3.492a.143.143,0,0,1,.029-.059l4.823-.008v-8.07H313.9a.825.825,0,0,0-.052-.112l3.366-3.366-5.714-5.714-3.366,3.366a1.512,1.512,0,0,0-.194-.089V146.7l-8.077.007v4.667a2.572,2.572,0,0,0-.245.112l-3.232-3.232-5.714,5.714,3.3,3.3a2.557,2.557,0,0,1-.089.253h-4.562V165.6h4.756a1.349,1.349,0,0,1,.082.186l-3.285,3.285,5.714,5.714,3.441-3.441a1,1,0,0,0,.112.037l-.007,4.763h8.085V171.2c.022-.008.037-.022.052-.022Zm-12.662-8.352a6.951,6.951,0,1,1,9.838,0,6.95,6.95,0,0,1-9.838,0" transform="translate(-162.533 -124.637)" fill="#8bf6f1"/>
                    <path id="Trazado_1014798" data-name="Trazado 1014798" d="M231.493,113.772h4.321v-2.641a.077.077,0,0,1,.034-.011l1.826,1.821,3.051-3.052-1.837-1.838a.436.436,0,0,0,.022-.062h2.546v-4.321h-2.546a.766.766,0,0,0-.039-.107l1.753-1.753-3.057-3.051-1.764,1.764a1.4,1.4,0,0,0-.135-.05V98.026h-4.321v2.495a1.4,1.4,0,0,1-.129.062l-1.725-1.725-3.057,3.057,1.8,1.8a.771.771,0,0,1-.039.1h-2.484v4.321h2.6c.006.017.017.034.028.056l-1.8,1.8,3.057,3.057,1.871-1.871c.011.005.023.005.028.011Zm-1.63-7.946a3.717,3.717,0,1,1,3.72,3.72,3.716,3.716,0,0,1-3.72-3.72" transform="translate(-127.757 -98.026)" fill="#8bf6f1"/>
                    <path id="Trazado_1014799" data-name="Trazado 1014799" d="M27.593,184.562l3.366-3.366-5.714-5.714-3.366,3.366a1.477,1.477,0,0,0-.193-.089v-4.637l-8.077.007V178.8a2.576,2.576,0,0,0-.245.112l-3.232-3.232-.513.512v19.984a2.189,2.189,0,0,0,2.189,2.189H29.088l2.057-2.057-3.492-3.492a.144.144,0,0,1,.029-.059l4.823-.008v-8.07h-4.86a.768.768,0,0,0-.052-.111m-4.986,9.1a6.951,6.951,0,1,1-.008-9.831,6.951,6.951,0,0,1,.008,9.831" transform="translate(-9.618 -139.628)" fill="#8bf6f1"/>
                  </g>
                </g>
              </g>
              <path id="Trazado_1014800" data-name="Trazado 1014800" d="M258.906,66.406H206.655a2.8,2.8,0,0,1-2.8-2.8V37.228a2.8,2.8,0,0,1,2.8-2.8h52.251a2.8,2.8,0,0,1,2.8,2.8V63.6a2.8,2.8,0,0,1-2.8,2.8" transform="translate(-111.448 -18.821)" fill="#1e3a8a"/>
              <line id="Línea_3668" data-name="Línea 3668" x2="52.936" transform="translate(94.865 19.926)" fill="none" stroke="#fff" stroke-linecap="round" stroke-miterlimit="10" stroke-width="0.896"/>
              <path id="Trazado_1014801" data-name="Trazado 1014801" d="M322.842,38.336a.641.641,0,1,1-.641-.641.641.641,0,0,1,.641.641" transform="translate(-175.798 -20.608)" fill="#fff"/>
              <path id="Trazado_1014802" data-name="Trazado 1014802" d="M315.467,38.336a.641.641,0,1,1-.641-.641.641.641,0,0,1,.641.641" transform="translate(-171.766 -20.608)" fill="#fff"/>
              <path id="Trazado_1014803" data-name="Trazado 1014803" d="M308.093,38.336a.641.641,0,1,1-.641-.641.641.641,0,0,1,.641.641" transform="translate(-167.734 -20.608)" fill="#fff"/>
              <path id="Trazado_1014804" data-name="Trazado 1014804" d="M219.145,51.319h-8.982a.885.885,0,1,1,0-1.771h8.982a.885.885,0,0,1,0,1.771" transform="translate(-114.413 -27.088)" fill="#fff"/>
              <path id="Trazado_1014805" data-name="Trazado 1014805" d="M219.145,60.344h-8.982a.885.885,0,1,1,0-1.771h8.982a.885.885,0,0,1,0,1.771" transform="translate(-114.413 -32.022)" fill="#fff"/>
              <path id="Trazado_1014806" data-name="Trazado 1014806" d="M219.145,69.368h-8.982a.885.885,0,1,1,0-1.771h8.982a.885.885,0,0,1,0,1.771" transform="translate(-114.413 -36.955)" fill="#fff"/>
              <path id="Trazado_1014807" data-name="Trazado 1014807" d="M219.145,78.393h-8.982a.885.885,0,1,1,0-1.771h8.982a.885.885,0,0,1,0,1.771" transform="translate(-114.413 -41.889)" fill="#fff"/>
              <path id="Trazado_1014808" data-name="Trazado 1014808" d="M219.145,87.417h-8.982a.885.885,0,1,1,0-1.771h8.982a.885.885,0,0,1,0,1.771" transform="translate(-114.413 -46.823)" fill="#fff"/>
              <path id="Trazado_1014809" data-name="Trazado 1014809" d="M219.145,96.442h-8.982a.885.885,0,1,1,0-1.771h8.982a.885.885,0,0,1,0,1.771" transform="translate(-114.413 -51.757)" fill="#fff"/>
              <path id="Trazado_1014810" data-name="Trazado 1014810" d="M276.35,51.319H237.64a.885.885,0,0,1,0-1.771h38.71a.885.885,0,1,1,0,1.771" transform="translate(-129.435 -27.088)" fill="#8dc2ff"/>
              <path id="Trazado_1014811" data-name="Trazado 1014811" d="M276.35,60.344H237.64a.885.885,0,0,1,0-1.771h38.71a.885.885,0,1,1,0,1.771" transform="translate(-129.435 -32.022)" fill="#8dc2ff"/>
              <path id="Trazado_1014812" data-name="Trazado 1014812" d="M276.35,69.368H237.64a.885.885,0,0,1,0-1.771h38.71a.885.885,0,1,1,0,1.771" transform="translate(-129.435 -36.955)" fill="#8dc2ff"/>
              <path id="Trazado_1014813" data-name="Trazado 1014813" d="M276.35,78.393H237.64a.885.885,0,0,1,0-1.771h38.71a.885.885,0,1,1,0,1.771" transform="translate(-129.435 -41.889)" fill="#8dc2ff"/>
              <path id="Trazado_1014814" data-name="Trazado 1014814" d="M276.35,87.417H237.64a.885.885,0,0,1,0-1.771h38.71a.885.885,0,1,1,0,1.771" transform="translate(-129.435 -46.823)" fill="#8dc2ff"/>
              <path id="Trazado_1014815" data-name="Trazado 1014815" d="M276.35,96.442H237.64a.885.885,0,0,1,0-1.771h38.71a.885.885,0,1,1,0,1.771" transform="translate(-129.435 -51.757)" fill="#8dc2ff"/>
              <path id="Trazado_1014816" data-name="Trazado 1014816" d="M134.138,51.4a9.181,9.181,0,0,0-9.2-7.036c-.034-.166-.053-.332-.093-.5a13.35,13.35,0,0,0-25.672-1.047A10.861,10.861,0,0,0,87.92,56.16h20.934V50.769H106.18c-.6,0-.969-.509-.67-.915l4.828-6.591a.889.889,0,0,1,1.341,0l4.829,6.591c.3.407-.075.915-.671.915h-2.674V56.16H134a9.127,9.127,0,0,0,.136-4.759" transform="translate(-47.906 -18.38)" fill="#fff"/>
              <path id="Trazado_1014817" data-name="Trazado 1014817" d="M63.717,106.43H29.168a3.45,3.45,0,1,1,0-6.9H63.717a3.45,3.45,0,1,1,0,6.9" transform="translate(-14.06 -54.413)" fill="#1e3a8a"/>
              <path id="Trazado_1014818" data-name="Trazado 1014818" d="M104,104.4a1.835,1.835,0,1,1-1.834-1.834A1.835,1.835,0,0,1,104,104.4Z" transform="translate(-54.852 -56.075)" fill="none" stroke="#fff" stroke-miterlimit="10" stroke-width="1.672"/>
              <line id="Línea_3669" data-name="Línea 3669" x2="1.013" y2="1.013" transform="translate(48.613 49.626)" fill="none" stroke="#fff" stroke-linecap="round" stroke-miterlimit="10" stroke-width="1.672"/>
              <path id="Trazado_1014819" data-name="Trazado 1014819" d="M86.214,122.2h-7.3a.548.548,0,0,1,0-1.1h7.3a.548.548,0,1,1,0,1.1" transform="translate(-42.844 -66.206)" fill="#fff"/>
              <path id="Trazado_1014820" data-name="Trazado 1014820" d="M104.75,122.2H99.469a.548.548,0,1,1,0-1.1h5.281a.548.548,0,1,1,0,1.1" transform="translate(-54.08 -66.206)" fill="#fff"/>
              <path id="Trazado_1014821" data-name="Trazado 1014821" d="M82.017,127.518h-3.1a.548.548,0,0,1,0-1.1h3.1a.548.548,0,1,1,0,1.1" transform="translate(-42.844 -69.115)" fill="#fff"/>
              <path id="Trazado_1014822" data-name="Trazado 1014822" d="M99.473,127.518H89.815a.548.548,0,1,1,0-1.1h9.657a.548.548,0,1,1,0,1.1" transform="translate(-48.803 -69.115)" fill="#fff"/>
              <path id="Trazado_1014823" data-name="Trazado 1014823" d="M88.535,132.837H78.916a.548.548,0,0,1,0-1.1h9.619a.548.548,0,1,1,0,1.1" transform="translate(-42.844 -72.023)" fill="#fff"/>
              <path id="Trazado_1014824" data-name="Trazado 1014824" d="M107.38,132.837h-3.1a.548.548,0,1,1,0-1.1h3.1a.548.548,0,1,1,0,1.1" transform="translate(-56.71 -72.023)" fill="#fff"/>
              <path id="Trazado_1014825" data-name="Trazado 1014825" d="M43.69,122.2h-7.3a.548.548,0,0,1,0-1.1h7.3a.548.548,0,1,1,0,1.1" transform="translate(-19.596 -66.206)" fill="#fff"/>
              <path id="Trazado_1014826" data-name="Trazado 1014826" d="M62.227,122.2H56.946a.548.548,0,1,1,0-1.1h5.281a.548.548,0,1,1,0,1.1" transform="translate(-30.833 -66.206)" fill="#fff"/>
              <path id="Trazado_1014827" data-name="Trazado 1014827" d="M39.493,127.518h-3.1a.548.548,0,0,1,0-1.1h3.1a.548.548,0,1,1,0,1.1" transform="translate(-19.596 -69.115)" fill="#fff"/>
              <path id="Trazado_1014828" data-name="Trazado 1014828" d="M56.95,127.518H47.292a.548.548,0,1,1,0-1.1H56.95a.548.548,0,1,1,0,1.1" transform="translate(-25.555 -69.115)" fill="#fff"/>
              <path id="Trazado_1014829" data-name="Trazado 1014829" d="M46.012,132.837H36.393a.548.548,0,0,1,0-1.1h9.619a.548.548,0,1,1,0,1.1" transform="translate(-19.597 -72.023)" fill="#fff"/>
              <path id="Trazado_1014830" data-name="Trazado 1014830" d="M64.857,132.837h-3.1a.548.548,0,1,1,0-1.1h3.1a.548.548,0,1,1,0,1.1" transform="translate(-33.463 -72.023)" fill="#fff"/>
              <rect id="Rectángulo_461848" data-name="Rectángulo 461848" width="1.557" height="20.075" transform="translate(25.89 71.75)" fill="#5aa0f1"/>
              <rect id="Rectángulo_461849" data-name="Rectángulo 461849" width="1.557" height="9.049" transform="translate(29.065 82.776)" fill="#5aa0f1"/>
              <rect id="Rectángulo_461850" data-name="Rectángulo 461850" width="1.557" height="6.312" transform="translate(22.714 85.512)" fill="#5aa0f1"/>
              <rect id="Rectángulo_461851" data-name="Rectángulo 461851" width="1.557" height="24.662" transform="translate(32.241 67.162)" fill="#5aa0f1"/>
              <rect id="Rectángulo_461852" data-name="Rectángulo 461852" width="1.557" height="12.107" transform="translate(35.417 79.717)" fill="#5aa0f1"/>
              <rect id="Rectángulo_461853" data-name="Rectángulo 461853" width="1.557" height="16.762" transform="translate(38.592 75.063)" fill="#5aa0f1"/>
              <rect id="Rectángulo_461854" data-name="Rectángulo 461854" width="1.557" height="3.365" transform="translate(41.768 88.459)" fill="#5aa0f1"/>
              <path id="Trazado_1014831" data-name="Trazado 1014831" d="M127.731,165.355h43.754a2.841,2.841,0,0,0,2.841-2.841V136.961a2.841,2.841,0,0,0-2.841-2.841H127.731a2.841,2.841,0,0,0-2.841,2.841v25.552a2.841,2.841,0,0,0,2.841,2.841" transform="translate(-68.278 -73.324)" fill="#1e3a8a"/>
              <g id="Grupo_1194882" data-name="Grupo 1194882" transform="translate(75.672 87.973)" style="mix-blend-mode: soft-light;isolation: isolate">
                <g id="Grupo_1194881" data-name="Grupo 1194881">
                  <g id="Grupo_1194880" data-name="Grupo 1194880" clip-path="url(#clip-path-5)">
                    <path id="Trazado_1014832" data-name="Trazado 1014832" d="M167.3,194.074h25.439a.361.361,0,0,1,.361.361v.322a.361.361,0,0,1-.361.361H167.3a.361.361,0,0,1-.361-.361v-.322a.361.361,0,0,1,.361-.361" transform="translate(-166.937 -194.074)" fill="#8bf6f1"/>
                  </g>
                </g>
              </g>
              <g id="Grupo_1194885" data-name="Grupo 1194885" transform="translate(75.672 85.958)" style="mix-blend-mode: soft-light;isolation: isolate">
                <g id="Grupo_1194884" data-name="Grupo 1194884">
                  <g id="Grupo_1194883" data-name="Grupo 1194883" clip-path="url(#clip-path-5)">
                    <path id="Trazado_1014833" data-name="Trazado 1014833" d="M167.3,189.629h25.439a.361.361,0,0,1,.361.361v.322a.361.361,0,0,1-.361.361H167.3a.361.361,0,0,1-.361-.361v-.322a.361.361,0,0,1,.361-.361" transform="translate(-166.937 -189.629)" fill="#8bf6f1"/>
                  </g>
                </g>
              </g>
              <g id="Grupo_1194888" data-name="Grupo 1194888" transform="translate(75.672 83.943)" style="mix-blend-mode: soft-light;isolation: isolate">
                <g id="Grupo_1194887" data-name="Grupo 1194887">
                  <g id="Grupo_1194886" data-name="Grupo 1194886" clip-path="url(#clip-path-5)">
                    <path id="Trazado_1014834" data-name="Trazado 1014834" d="M167.3,185.184h25.439a.361.361,0,0,1,.361.361v.322a.361.361,0,0,1-.361.361H167.3a.361.361,0,0,1-.361-.361v-.322a.361.361,0,0,1,.361-.361" transform="translate(-166.937 -185.184)" fill="#8bf6f1"/>
                  </g>
                </g>
              </g>
              <g id="Grupo_1194891" data-name="Grupo 1194891" transform="translate(94.748 81.928)" style="mix-blend-mode: soft-light;isolation: isolate">
                <g id="Grupo_1194890" data-name="Grupo 1194890">
                  <g id="Grupo_1194889" data-name="Grupo 1194889" clip-path="url(#clip-path-8)">
                    <path id="Trazado_1014835" data-name="Trazado 1014835" d="M209.38,180.739h6.363a.361.361,0,0,1,.361.361v.322a.361.361,0,0,1-.361.361H209.38a.361.361,0,0,1-.361-.361V181.1a.361.361,0,0,1,.361-.361" transform="translate(-209.019 -180.739)" fill="#8bf6f1"/>
                  </g>
                </g>
              </g>
              <g id="Grupo_1194894" data-name="Grupo 1194894" transform="translate(94.748 79.913)" style="mix-blend-mode: soft-light;isolation: isolate">
                <g id="Grupo_1194893" data-name="Grupo 1194893">
                  <g id="Grupo_1194892" data-name="Grupo 1194892" clip-path="url(#clip-path-9)">
                    <path id="Trazado_1014836" data-name="Trazado 1014836" d="M209.38,176.293h6.363a.361.361,0,0,1,.361.361v.322a.361.361,0,0,1-.361.361H209.38a.361.361,0,0,1-.361-.361v-.322a.361.361,0,0,1,.361-.361" transform="translate(-209.019 -176.293)" fill="#8bf6f1"/>
                  </g>
                </g>
              </g>
              <path id="Trazado_1014837" data-name="Trazado 1014837" d="M203.238,147.078a4.856,4.856,0,1,1,4.856,4.856,4.861,4.861,0,0,1-4.856-4.856m.114,0a4.742,4.742,0,1,0,4.741-4.742,4.747,4.747,0,0,0-4.741,4.742" transform="translate(-111.111 -77.753)" fill="#fff"/>
              <path id="Trazado_1014838" data-name="Trazado 1014838" d="M208.733,143.391v.665a3.665,3.665,0,0,0-3.662,3.661h-.665a4.331,4.331,0,0,1,4.326-4.326" transform="translate(-111.75 -78.392)" fill="#fff"/>
              <path id="Trazado_1014839" data-name="Trazado 1014839" d="M208.467,151.469l.1,0,.018.519-.11,0Zm-.325.512.032-.519.1,0-.019.519-.111,0m.618-.526.1-.009.055.517-.109.01Zm-.947.494.069-.515.1.012-.056.517-.11-.013m1.239-.529.1-.016.093.512-.109.018Zm-1.566.473.105-.509.1.019-.094.512-.108-.021m1.854-.529.1-.024.129.5-.107.026Zm-2.175.45.143-.5.094.025-.131.5-.107-.029m2.459-.526.093-.03.166.493-.1.034Zm-2.773.424.177-.489.093.033-.167.493-.1-.037m3.05-.521.091-.037.2.479-.1.041Zm-3.358.4.214-.474.09.039-.2.479-.1-.044m3.627-.513.088-.044.235.464-.1.048Zm-3.924.365.248-.457.087.045-.237.463-.1-.051m4.184-.5.084-.049.268.446-.1.056Zm-4.47.333.28-.438.083.051-.269.445-.094-.058m4.719-.488.08-.055.3.425-.091.063Zm-4.992.3.311-.417.079.058-.3.424-.089-.065m5.229-.471.077-.061.329.4-.086.069Zm-5.488.263.34-.393.075.063-.33.4-.085-.072m5.713-.452.072-.066.358.377-.081.075Zm-5.955.228.366-.369.071.069-.358.377-.079-.077m6.166-.432c.023-.024.045-.047.067-.072l.383.351-.076.081Zm-6.392.19.392-.342.066.074-.384.35c-.025-.027-.049-.054-.073-.082m6.587-.409.062-.076.408.322q-.034.044-.069.086Zm-6.8.151.416-.312c.02.026.039.052.06.078l-.408.322-.068-.087m6.976-.384.056-.081.429.293c-.02.03-.042.06-.063.09Zm-7.164.113L205,149.6l.054.082-.43.292c-.021-.03-.041-.061-.061-.092m7.327-.358.05-.084.45.261c-.018.032-.037.063-.056.095Zm-7.5.073.456-.25.048.085-.45.261-.054-.1m7.641-.33c.015-.029.029-.058.044-.087l.468.228c-.016.034-.033.067-.05.1Zm-7.789.034.473-.215c.013.029.027.059.041.088l-.467.227c-.016-.033-.032-.066-.047-.1m7.914-.3q.02-.046.038-.091l.482.194c-.014.034-.028.068-.042.1Zm-8.04-.006.488-.181c.011.03.023.061.035.091l-.483.193c-.014-.034-.027-.069-.04-.1m8.146-.269c.011-.031.021-.062.031-.093l.5.157c-.011.035-.023.07-.035.105Zm-8.25-.045.5-.146c.01.032.019.063.029.094l-.5.157c-.011-.035-.022-.07-.032-.105m8.336-.235c.008-.031.016-.063.024-.1l.505.121c-.009.035-.018.071-.027.107Zm-8.416-.087.509-.108c.007.032.014.063.021.1l-.505.121c-.009-.036-.017-.072-.024-.108m8.481-.2c.006-.032.012-.063.017-.1l.513.083c-.006.037-.013.073-.019.11Zm-8.538-.126.515-.07c0,.032.009.064.014.1l-.513.084q-.009-.055-.016-.11m8.582-.163c0-.033.007-.065.01-.1l.518.047c0,.037-.007.073-.011.109Zm-8.615-.165.519-.035c0,.033,0,.066.008.1l-.518.046c0-.036-.006-.073-.008-.109m8.638-.128c0-.032,0-.065,0-.1l.52.009c0,.037,0,.074,0,.111Zm-8.648-.172v-.032l.52.005v.027c0,.024,0,.047,0,.07l-.52.009c0-.026,0-.053,0-.079m8.646-.219.519-.028c0,.037,0,.073,0,.11l-.519.017c0-.033,0-.066,0-.1m-8.639-.033c0-.037,0-.073.007-.109l.519.039c0,.033,0,.066-.007.1Zm8.613-.259.516-.066c0,.037.009.073.012.111l-.517.052q0-.049-.011-.1m-8.583-.07c0-.037.01-.073.015-.11l.514.079c0,.032-.01.064-.014.1Zm8.536-.22.51-.1c.007.036.014.072.02.108l-.512.09c-.005-.032-.011-.064-.018-.1m-8.482-.107q.011-.054.023-.107l.507.114c-.007.032-.014.064-.02.1Zm8.414-.179.5-.139c.01.035.019.071.029.107l-.5.127c-.008-.032-.016-.063-.025-.1M204,146.172c.01-.035.02-.071.031-.106l.5.152c-.01.031-.019.062-.027.093Zm8.248-.136.489-.175c.013.034.024.069.036.1l-.493.164c-.01-.031-.021-.062-.032-.093m-8.148-.18.039-.1.485.187c-.012.03-.024.061-.034.092Zm8.039-.092.476-.21c.015.034.029.068.044.1l-.481.2c-.012-.03-.025-.059-.038-.089m-7.915-.217c.015-.034.03-.068.046-.1l.47.223c-.014.029-.028.059-.041.089Zm7.787-.047.459-.244.051.1-.465.233-.044-.087m-7.642-.251c.017-.033.035-.065.053-.1l.452.256-.047.086Zm7.494,0,.441-.276c.019.031.039.062.058.094l-.447.266-.051-.084m-7.328-.284c.019-.031.039-.062.06-.092l.433.287-.053.083Zm7.163.042.419-.307c.022.029.044.06.064.09l-.427.3c-.019-.027-.037-.053-.057-.079m-6.976-.315.066-.088.411.319-.059.078Zm6.794.085.4-.336.07.085-.4.327-.063-.076m-6.589-.344.073-.083.387.347-.064.074Zm6.391.127.371-.364.076.079-.379.355-.068-.071m-6.167-.372.078-.078.361.374-.069.069Zm5.954.169.344-.389.082.074-.354.381-.073-.066m-5.713-.4.083-.071.334.4-.075.064Zm5.486.21.315-.413.087.068-.326.405-.077-.06m-5.23-.419.089-.066.3.422-.078.058Zm4.99.25.285-.435.092.062-.3.428-.082-.054m-4.72-.44.093-.059.274.442c-.028.017-.055.034-.083.053Zm4.469.288.252-.454.1.055-.264.448-.085-.048m-4.185-.459.1-.052.24.461-.086.046Zm3.923.325.219-.471.1.048-.231.466-.088-.043m-3.629-.475.1-.045.207.477-.089.04Zm3.358.36.184-.486.1.041-.2.481-.091-.036m-3.053-.488.1-.038.173.49-.092.034Zm2.774.394.148-.5.106.033-.16.495-.094-.029m-2.46-.5.106-.03.136.5-.094.027Zm2.176.427.112-.508.107.025-.124.5-.1-.022m-1.856-.509.108-.022.1.51-.1.019Zm1.567.456.074-.514.109.017-.087.512-.1-.015m-1.241-.515.11-.014.062.516-.1.013Zm.949.484.037-.519.11.009-.05.518-.1-.008m-.62-.519.11-.006.024.519-.1.005Zm.326.509v-.52h.11l-.012.52h-.1" transform="translate(-111.437 -78.078)" fill="#fff"/>
              <path id="Trazado_1014840" data-name="Trazado 1014840" d="M202.085,154.071a5.164,5.164,0,0,0,1.521,3.17l-.294.294a5.58,5.58,0,0,1-1.644-3.465Z" transform="translate(-110.252 -84.231)" fill="#fff"/>
              <path id="Trazado_1014841" data-name="Trazado 1014841" d="M223.479,154.071h.417a5.578,5.578,0,0,1-1.644,3.464l-.294-.294a5.167,5.167,0,0,0,1.52-3.17" transform="translate(-121.346 -84.231)" fill="#fff"/>
              <path id="Trazado_1014842" data-name="Trazado 1014842" d="M203.263,145.192a5.151,5.151,0,0,0-1.234,3.349c0,.045,0,.09,0,.135h-.416c0-.045,0-.089,0-.135a5.568,5.568,0,0,1,1.355-3.643Z" transform="translate(-110.222 -79.216)" fill="#fff"/>
              <path id="Trazado_1014843" data-name="Trazado 1014843" d="M214.371,162.86a5.148,5.148,0,0,0,3.158-1.228l.295.295a5.567,5.567,0,0,1-3.453,1.35Z" transform="translate(-117.197 -88.365)" fill="#fff"/>
              <path id="Trazado_1014844" data-name="Trazado 1014844" d="M217.866,142.565a5.161,5.161,0,0,0-3.5-1.542v-.416a5.576,5.576,0,0,1,3.789,1.664Z" transform="translate(-117.197 -76.87)" fill="#fff"/>
              <path id="Trazado_1014845" data-name="Trazado 1014845" d="M223.879,148.675c0-.045,0-.09,0-.135a5.153,5.153,0,0,0-1.234-3.349l.295-.295a5.568,5.568,0,0,1,1.355,3.643c0,.045,0,.09,0,.135Z" transform="translate(-121.723 -79.216)" fill="#fff"/>
              <path id="Trazado_1014846" data-name="Trazado 1014846" d="M208.961,141.024a5.157,5.157,0,0,0-3.5,1.542l-.294-.294a5.572,5.572,0,0,1,3.79-1.663Z" transform="translate(-112.168 -76.871)" fill="#fff"/>
              <path id="Trazado_1014847" data-name="Trazado 1014847" d="M206.209,161.632a5.154,5.154,0,0,0,3.158,1.229v.416a5.566,5.566,0,0,1-3.453-1.35Z" transform="translate(-112.574 -88.365)" fill="#fff"/>
              <path id="Trazado_1014848" data-name="Trazado 1014848" d="M208.52,149.965a2.461,2.461,0,1,0,2.461-2.461,2.464,2.464,0,0,0-2.461,2.461" transform="translate(-113.998 -80.641)" fill="#fff"/>
              <path id="Trazado_1014849" data-name="Trazado 1014849" d="M143.382,165.539H132.131a.95.95,0,0,1-.95-.95v-7.2a.95.95,0,0,1,.95-.95h11.251a.95.95,0,0,1,.95.95v7.2a.95.95,0,0,1-.95.95" transform="translate(-71.717 -85.523)" fill="#fff"/>
              <path id="Trazado_1014850" data-name="Trazado 1014850" d="M143.382,187.394H132.131a.95.95,0,0,1-.95-.95v-5.551a.95.95,0,0,1,.95-.95h11.251a.95.95,0,0,1,.95.95v5.551a.95.95,0,0,1-.95.95" transform="translate(-71.717 -98.375)" fill="#fff"/>
              <g id="Grupo_1194897" data-name="Grupo 1194897" transform="translate(59.464 63.695)" style="mix-blend-mode: soft-light;isolation: isolate">
                <g id="Grupo_1194896" data-name="Grupo 1194896">
                  <g id="Grupo_1194895" data-name="Grupo 1194895" clip-path="url(#clip-path-10)">
                    <path id="Trazado_1014851" data-name="Trazado 1014851" d="M152.08,141.236H131.541a.361.361,0,1,1,0-.723H152.08a.361.361,0,0,1,0,.723" transform="translate(-131.18 -140.513)" fill="#8bf6f1"/>
                  </g>
                </g>
              </g>
              <path id="Trazado_1014852" data-name="Trazado 1014852" d="M168.705,141.236h-6.753a.361.361,0,0,1,0-.723h6.753a.361.361,0,1,1,0,.723" transform="translate(-88.342 -76.819)" fill="#fff"/>
              <g id="Grupo_1194900" data-name="Grupo 1194900" transform="translate(59.464 65.636)" style="mix-blend-mode: soft-light;isolation: isolate">
                <g id="Grupo_1194899" data-name="Grupo 1194899">
                  <g id="Grupo_1194898" data-name="Grupo 1194898" clip-path="url(#clip-path-10)">
                    <path id="Trazado_1014853" data-name="Trazado 1014853" d="M152.08,145.519H131.541a.361.361,0,1,1,0-.723H152.08a.361.361,0,0,1,0,.723" transform="translate(-131.18 -144.796)" fill="#8bf6f1"/>
                  </g>
                </g>
              </g>
              <path id="Trazado_1014854" data-name="Trazado 1014854" d="M173.6,145.519h-2.692a.361.361,0,0,1,0-.723H173.6a.361.361,0,1,1,0,.723" transform="translate(-93.241 -79.16)" fill="#fff"/>
              <g id="Grupo_1194903" data-name="Grupo 1194903" transform="translate(59.464 67.577)" style="mix-blend-mode: soft-light;isolation: isolate">
                <g id="Grupo_1194902" data-name="Grupo 1194902">
                  <g id="Grupo_1194901" data-name="Grupo 1194901" clip-path="url(#clip-path-12)">
                    <path id="Trazado_1014855" data-name="Trazado 1014855" d="M152.08,149.8H131.541a.361.361,0,1,1,0-.723H152.08a.361.361,0,0,1,0,.723" transform="translate(-131.18 -149.079)" fill="#8bf6f1"/>
                  </g>
                </g>
              </g>
              <path id="Trazado_1014856" data-name="Trazado 1014856" d="M160.132,149.8H146.27a.361.361,0,0,1,0-.723h13.862a.361.361,0,1,1,0,.723" transform="translate(-79.769 -81.502)" fill="#fff"/>
              <g id="Grupo_1194906" data-name="Grupo 1194906" transform="translate(77.182 78.971)" style="mix-blend-mode: soft-light;isolation: isolate">
                <g id="Grupo_1194905" data-name="Grupo 1194905">
                  <g id="Grupo_1194904" data-name="Grupo 1194904" clip-path="url(#clip-path-13)">
                    <path id="Trazado_1014857" data-name="Trazado 1014857" d="M170.628,174.215h11.685a.361.361,0,0,1,.361.361v.322a.361.361,0,0,1-.361.361H170.628a.361.361,0,0,1-.361-.361v-.322a.361.361,0,0,1,.361-.361" transform="translate(-170.267 -174.215)" fill="#8bf6f1"/>
                  </g>
                </g>
              </g>
              <g id="Grupo_1194909" data-name="Grupo 1194909" transform="translate(77.182 76.645)" style="mix-blend-mode: soft-light;isolation: isolate">
                <g id="Grupo_1194908" data-name="Grupo 1194908">
                  <g id="Grupo_1194907" data-name="Grupo 1194907" clip-path="url(#clip-path-13)">
                    <path id="Trazado_1014858" data-name="Trazado 1014858" d="M170.628,169.084h11.685a.361.361,0,0,1,.361.361v.322a.361.361,0,0,1-.361.361H170.628a.361.361,0,0,1-.361-.361v-.322a.361.361,0,0,1,.361-.361" transform="translate(-170.267 -169.084)" fill="#8bf6f1"/>
                  </g>
                </g>
              </g>
              <g id="Grupo_1194912" data-name="Grupo 1194912" transform="translate(77.182 74.32)" style="mix-blend-mode: soft-light;isolation: isolate">
                <g id="Grupo_1194911" data-name="Grupo 1194911">
                  <g id="Grupo_1194910" data-name="Grupo 1194910" clip-path="url(#clip-path-13)">
                    <path id="Trazado_1014859" data-name="Trazado 1014859" d="M170.628,163.954h11.685a.361.361,0,0,1,.361.361v.322a.361.361,0,0,1-.361.361H170.628a.361.361,0,0,1-.361-.361v-.322a.361.361,0,0,1,.361-.361" transform="translate(-170.267 -163.954)" fill="#8bf6f1"/>
                  </g>
                </g>
              </g>
              <path id="Trazado_1014860" data-name="Trazado 1014860" d="M224.593,309.678h13.939a7.605,7.605,0,0,0-.909-5.557s-1.122.9-4.483.291a14.964,14.964,0,0,1-2.371,1.657c-.974.471-6.552,1.566-6.176,3.609" transform="translate(-122.776 -166.264)" fill="#fff"/>
              <path id="Trazado_1014861" data-name="Trazado 1014861" d="M226.377,226.268c.9,5.372,5.054,23.546,6.84,34.282a16.387,16.387,0,0,0,5.662-.288c-.163-3.744-.485-12.7-.447-16.626.062-6.637.374-15.39-2.548-20.193l-9.825.773c.06.519.114.941.162,1.242s.1.557.155.81" transform="translate(-123.588 -122.157)" fill="#3a66b4"/>
              <path id="Trazado_1014862" data-name="Trazado 1014862" d="M168.974,309.678h13.939a7.6,7.6,0,0,0-.909-5.557s-1.122.9-4.483.291a14.963,14.963,0,0,1-2.371,1.657c-.974.471-6.552,1.566-6.176,3.609" transform="translate(-92.369 -166.264)" fill="#fff"/>
              <path id="Trazado_1014863" data-name="Trazado 1014863" d="M186.96,256.34a16,16,0,0,0,5.506.492c.741-4.315,1.912-13.811,2.965-18.262,1.635-6.918,3.235-16.432,2.123-19.827l-9.664-2.427c-.032.306-.819,29.424-.931,40.023" transform="translate(-102.212 -118.261)" fill="#264c91"/>
              <path id="Trazado_1014864" data-name="Trazado 1014864" d="M226.515,190.477h0c-.194-1.91-.417-3.3-.417-3.3l-10.8,2.643-9.172,2.09c-3.4.757-7.508,1.669-11.129,2.488-4.064.923-6.761,4.01-5.871,8.079l1.018,4.936c5.683-.078,32.4-2.64,34.69-3.794,2.582-1.3,3.36-5.915,1.678-13.136" transform="translate(-103.304 -102.327)" fill="#264c91"/>
              <path id="Trazado_1014865" data-name="Trazado 1014865" d="M262.072,189.688h0a14.9,14.9,0,0,0-1.125-3.959l-10.089,3.3-9.171,2.09c-3.4.757-7.508,1.669-11.129,2.488-4.064.923-6.761,4.01-5.871,8.079l1.018,4.936c5.683-.078,29.438-.906,34.69-3.794,2.535-1.394,3.36-5.915,1.678-13.136" transform="translate(-122.743 -101.539)" fill="#3a66b4"/>
              <path id="Trazado_1014866" data-name="Trazado 1014866" d="M221.556,159.166s4.8-2.166,6.115.006a3.394,3.394,0,0,1-1.412,4.326,111.92,111.92,0,0,1-19.6,7.017,21.187,21.187,0,0,0-.973-2.489,45.96,45.96,0,0,0,7.8-4.356,49.747,49.747,0,0,1,8.068-4.5" transform="translate(-112.448 -86.491)" fill="#e5918f"/>
              <path id="Trazado_1014867" data-name="Trazado 1014867" d="M238.387,127.288,234.276,143.7s.425,4.15,4.616,2.114,6.969-15.116,6.969-15.116Z" transform="translate(-128.079 -69.589)" fill="#e5918f"/>
              <path id="Trazado_1014868" data-name="Trazado 1014868" d="M248.015,125.07c-.509-.123-.994-.257-1.461-.4s-.936-.286-1.369-.438a23.073,23.073,0,0,1-6.016-2.947A43.106,43.106,0,0,1,243.192,110a1.606,1.606,0,0,0,.1-.175l.106-.175a10.262,10.262,0,0,1,2.859-2.976l.345-.24.485,8.571.082.883Z" transform="translate(-130.754 -58.189)" fill="#fff"/>
              <path id="Trazado_1014869" data-name="Trazado 1014869" d="M255.271,135.2c-.509-.123-.994-.257-1.461-.4s-.936-.286-1.369-.438c.82-5.774,1.561-9.4,1.561-9.4l.421,1.058Z" transform="translate(-138.01 -68.315)" fill="#9fbbc7"/>
              <path id="Trazado_1014870" data-name="Trazado 1014870" d="M279.639,106.353c-.1,2.538-.544,6.613-.93,10.705-.123,1.3-.24,2.6-.339,3.859-.069.783-1.251,4.964-1.3,5.712-.21,3.578-1.964,6.256-.3,11.705a8.59,8.59,0,0,1,.5,2.514c0,.374-.485.766-.678.871a11.436,11.436,0,0,1-3.724.888h-.006a96.522,96.522,0,0,1-10.337.474c-3.572,0-8.933-.567-9.611-1.468-.62-.824-.047-2.023.246-3.677,1.315-7.466.848-11.36.766-16.751,0-.134-.006-.269-.006-.409-.135-8.314-.684-15.429-.3-18l.345-.24c.567-.386,1.122-.731,1.661-1.035.046-.024.1-.058.163-.094.164-.093.334-.181.491-.269a1.794,1.794,0,0,1,.187-.093,40.793,40.793,0,0,1,3.987-1.573c.129-.041.246-.082.345-.111.953-.058,1.987-.07,3.1-.041.97.029,2.455.158,4.069.369h.006a41.917,41.917,0,0,1,5.4,1.011.277.277,0,0,1,.029.012,11.114,11.114,0,0,1,4.251,2.976,14.366,14.366,0,0,1,1.982,2.66" transform="translate(-138.114 -54.293)" fill="#fff"/>
              <path id="Trazado_1014871" data-name="Trazado 1014871" d="M300.237,153.435a8.583,8.583,0,0,1,.5,2.514c0,.374-.485.766-.678.871a11.422,11.422,0,0,1-3.724.888,2.638,2.638,0,0,0,1.865-2.145c0-.685-.889-5.314-.643-8.3s.731-7.729-.193-11.53-1.8-8.8-1.8-8.8l5.209,3.145s.672.941,1.409,2.082c-.123,1.3-.24,2.6-.339,3.858-.07.783-3.262,11.968-1.6,17.417" transform="translate(-161.584 -69.395)" fill="#9fbbc7"/>
              <path id="Trazado_1014872" data-name="Trazado 1014872" d="M255.32,66.374s.451,5.448,2.257,5.814,1.363-1.949,1.363-1.949l-.253-2.587Z" transform="translate(-139.584 -36.287)" fill="#3a66b4"/>
              <path id="Trazado_1014873" data-name="Trazado 1014873" d="M270.83,93.468c-3.537-.421-2.216-3.859-1.731-4.648.129-.041.737-.228.783-.257a.018.018,0,0,1,.012-.006.979.979,0,0,0,.276-.409,8.4,8.4,0,0,0,.175-2.83v-.333c.058-.216.117-.421.164-.614l1.86-1.462,3.935-3.093s-1.047,5.174-.2,8.437a1.23,1.23,0,0,0,.52.784c0,.005.006,0,.006,0a.95.95,0,0,0,.392.14c.964.456-.381,4.981-6.186,4.291" transform="translate(-146.764 -43.636)" fill="#e5918f"/>
              <path id="Trazado_1014874" data-name="Trazado 1014874" d="M276.015,87.07a5.869,5.869,0,0,1-3.781,5.041,8.3,8.3,0,0,0,.177-2.825l1.57-1.233Z" transform="translate(-148.831 -47.601)" fill="#cc6362"/>
              <path id="Trazado_1014875" data-name="Trazado 1014875" d="M257.226,61.563s.818,11.3,3.87,12.265a7.938,7.938,0,0,0,6.681-3.39c.8-1.082,1.821-1.325,2.153-2.632.539-2.122,1.3-6.037.33-8.4-1.382-3.36-12.9-6.028-13.034,2.154" transform="translate(-140.626 -30.701)" fill="#e5918f"/>
              <path id="Trazado_1014876" data-name="Trazado 1014876" d="M266.313,55.154a3.326,3.326,0,0,0-2.129-2.821c-2.069-.968-6.369-.551-10.8.438-1.039.232-2.343-.406-3.069.1-.877.609,0,3.389,0,3.389,1.71,5.178,8,3.494,9.894,2.856.449,1.333.392,3.187,1.513,4.143a3.671,3.671,0,0,0,2.878.372c.139.264.661.5.767.859a18.3,18.3,0,0,1,.294,4.564l.534-.261c.07-.4,5.589-13.469.126-13.638" transform="translate(-136.633 -28.31)" fill="#3a66b4"/>
              <path id="Trazado_1014877" data-name="Trazado 1014877" d="M260.9,74.686a1.384,1.384,0,1,1-1.612-1.475A1.569,1.569,0,0,1,260.9,74.686Z" transform="translate(-141.173 -40.017)" fill="none" stroke="#fff" stroke-miterlimit="10" stroke-width="0.501"/>
              <path id="Trazado_1014878" data-name="Trazado 1014878" d="M269.04,73.166a1.384,1.384,0,1,1-1.612-1.475A1.569,1.569,0,0,1,269.04,73.166Z" transform="translate(-145.621 -39.186)" fill="none" stroke="#fff" stroke-miterlimit="10" stroke-width="0.501"/>
              <path id="Trazado_1014879" data-name="Trazado 1014879" d="M264.133,76.239s.161-.262,1.011-.189" transform="translate(-144.402 -41.57)" fill="none" stroke="#fff" stroke-miterlimit="10" stroke-width="0.501"/>
              <line id="Línea_3670" data-name="Línea 3670" y1="0.504" x2="3.153" transform="translate(123.451 33.702)" fill="none" stroke="#fff" stroke-miterlimit="10" stroke-width="0.501"/>
              <path id="Trazado_1014880" data-name="Trazado 1014880" d="M278.72,77.436c2.171.832,2.849-4.512.787-4.749-1.563-.18-1.627,2-1.627,2s-.4,2.272.84,2.747" transform="translate(-151.884 -39.733)" fill="#e5918f"/>
              <g id="Grupo_1194915" data-name="Grupo 1194915" transform="translate(126.656 33.76)" opacity="0.5">
                <g id="Grupo_1194914" data-name="Grupo 1194914">
                  <g id="Grupo_1194913" data-name="Grupo 1194913" clip-path="url(#clip-path-16)">
                    <path id="Trazado_1014881" data-name="Trazado 1014881" d="M280.306,74.477a2.089,2.089,0,0,0-.56,1.292,4.006,4.006,0,0,0,.008.718l.092.753c-.076-.107-.134-.222-.2-.336-.052-.119-.1-.242-.142-.368a2.225,2.225,0,0,1-.083-.8,1.665,1.665,0,0,1,.264-.772,1.189,1.189,0,0,1,.623-.49" transform="translate(-279.411 -74.477)" fill="#cc6362"/>
                    <path id="Trazado_1014882" data-name="Trazado 1014882" d="M280.675,76.709a1.093,1.093,0,0,0-.6.289,1.073,1.073,0,0,0-.3.549l-.309-.111a1.318,1.318,0,0,1,.509-.571,1.177,1.177,0,0,1,.7-.157" transform="translate(-279.441 -75.695)" fill="#cc6362"/>
                  </g>
                </g>
              </g>
              <path id="Trazado_1014883" data-name="Trazado 1014883" d="M312.474,144.233v.005c-.954,1.107-4.576,1.914-6.318.383a10.117,10.117,0,0,1-1.773-3.368,104.275,104.275,0,0,1-3.007-10.179l8.1-4.141s1.042,4.674,1.941,9.117c0,0,.008.045.024.123.292,1.423.564,2.823.778,4.024a.5.5,0,0,1,.015.1,16.993,16.993,0,0,1,.236,3.941" transform="translate(-164.763 -69.395)" fill="#e5918f"/>
              <path id="Trazado_1014884" data-name="Trazado 1014884" d="M294.624,113.081a97.331,97.331,0,0,0,3.242,9.421,12.842,12.842,0,0,0,5.947-.719,10.955,10.955,0,0,0,3.788-2.461s-1.631-4.585-3.1-7.879a15.94,15.94,0,0,0-2.672-4.647,12.881,12.881,0,0,0-3.217-2.393Z" transform="translate(-161.072 -57.078)" fill="#fff"/>
              <path id="Trazado_1014885" data-name="Trazado 1014885" d="M306.977,114.117l-4.756-2.052-3.747-9.655s.687.209,1.591.574h0c.018.009.057.022.122.048a.462.462,0,0,1,.069.03c.809.378,3.943,2.226,6.112,8.937l.052.17c.23.774.4,1.4.491,1.717.009.03.017.061.026.1s.022.091.035.135" transform="translate(-163.177 -55.988)" fill="#fff"/>
              <path id="Trazado_1014886" data-name="Trazado 1014886" d="M295.8,155.083v.005c-.07.594-.233,1.02-.526,1.171-.047.03-.712.426-.759.456a40.494,40.494,0,0,1-5.023,2.6,181.821,181.821,0,0,1-17.541,6.3,20.692,20.692,0,0,0-1.073-2.449,45.946,45.946,0,0,0,7.615-4.674c3.78-2.885,9.216-6.39,9.216-6.39l1.373-1.615s4.881-4.492,5.664-3.588c0,0,.008.045.025.123.116.469.5,2.192.778,4.024a.5.5,0,0,1,.015.1,16.993,16.993,0,0,1,.236,3.941" transform="translate(-148.09 -80.245)" fill="#e5918f"/>
              <path id="Trazado_1014887" data-name="Trazado 1014887" d="M264.82,181.519a3.02,3.02,0,0,1-1.927.37c-.538-.113-.755-.333-1.153-.4a8.956,8.956,0,0,1-1.981-.458c-.524-.257-.729-.286-.71.24s1.053.982,1.334,1.128a2.655,2.655,0,0,1,.67.672c.038.058-1.724.981-2.2.794a1.373,1.373,0,0,0-.061.661c.08.237.442.32.471.439s-.083.363,0,.552.4.189.533.5-.013.312.082.632.5.378.582.543.037.358.209.472a7.985,7.985,0,0,0,2.335-.643c.578-.248,2.125-2.474,3.836-3.232Z" transform="translate(-141.47 -98.871)" fill="#e5918f"/>
              <path id="Trazado_1014888" data-name="Trazado 1014888" d="M275.119,202.79H262.792v-1.206h12.327a.6.6,0,0,1,0,1.206" transform="translate(-143.669 -110.207)" fill="#c1c5cb"/>
              <path id="Trazado_1014889" data-name="Trazado 1014889" d="M229.435,174.883H198.569a.823.823,0,0,1-.793-.6l-6.318-22.742a.79.79,0,0,1,.761-1h29.848a1.548,1.548,0,0,1,1.492,1.134l6.294,22.659a.435.435,0,0,1-.419.552" transform="translate(-104.655 -82.299)" fill="#c1c5cb"/>
              <path id="Trazado_1014890" data-name="Trazado 1014890" d="M226.971,174.883H196.105a.823.823,0,0,1-.793-.6l-6.318-22.742a.79.79,0,0,1,.761-1H219.6a1.548,1.548,0,0,1,1.492,1.134l6.295,22.659a.436.436,0,0,1-.42.552" transform="translate(-103.308 -82.299)" fill="#334155"/>
            </g>
          </g>
        </g>
      </g>
    </g>
  </g>
</svg>
