<svg xmlns="http://www.w3.org/2000/svg" xmlns:xlink="http://www.w3.org/1999/xlink" width="170" height="199" viewBox="0 0 170 199">
  <defs>
    <clipPath id="clip-path">
      <rect id="Rectángulo_461882" data-name="Rectángulo 461882" width="170" height="199" rx="20" transform="translate(203.711 4735)" fill="#2ed19b"/>
    </clipPath>
    <clipPath id="clip-path-2">
      <rect id="Rectángulo_461881" data-name="Rectángulo 461881" width="247.333" height="189.68" fill="none"/>
    </clipPath>
    <clipPath id="clip-path-4">
      <rect id="Rectángulo_461872" data-name="Rectángulo 461872" width="17.004" height="2.432" fill="none"/>
    </clipPath>
    <clipPath id="clip-path-6">
      <rect id="Rectángulo_461878" data-name="Rectángulo 461878" width="24.069" height="17.092" fill="none"/>
    </clipPath>
    <clipPath id="clip-path-7">
      <rect id="Rectángulo_461874" data-name="Rectángulo 461874" width="24.001" height="2.432" fill="none"/>
    </clipPath>
    <clipPath id="clip-path-11">
      <rect id="Rectángulo_461879" data-name="Rectángulo 461879" width="82.68" height="5.175" fill="none"/>
    </clipPath>
  </defs>
  <g id="Grupo_1194994" data-name="Grupo 1194994" transform="translate(-203.711 -4735)">
    <rect id="Rectángulo_461767" data-name="Rectángulo 461767" width="170" height="182" rx="20" transform="translate(203.711 4752)" fill="#2ed19b"/>
    <g id="Enmascarar_grupo_1193125" data-name="Enmascarar grupo 1193125" clip-path="url(#clip-path)">
      <g id="Grupo_1194955" data-name="Grupo 1194955" transform="translate(218.711 4739.458)">
        <g id="Grupo_1194954" data-name="Grupo 1194954" clip-path="url(#clip-path-2)">
          <g id="Grupo_1194953" data-name="Grupo 1194953">
            <g id="Grupo_1194952" data-name="Grupo 1194952" clip-path="url(#clip-path-2)">
              <path id="Trazado_1014891" data-name="Trazado 1014891" d="M59.277,329.241c0,2.031-13.27,3.677-29.638,3.677S0,331.271,0,329.241s13.269-3.677,29.638-3.677,29.638,1.646,29.638,3.677" transform="translate(0 -143.432)" fill="#24a77c"/>
              <path id="Trazado_1014892" data-name="Trazado 1014892" d="M107.526,51.048a55.574,55.574,0,0,1-7.187,7.912,49.172,49.172,0,0,1-8.877,6.367,4.055,4.055,0,0,1-4.068-.059l-.457-.277L69.6,54.559a5.774,5.774,0,1,1,5.954-9.895,6.337,6.337,0,0,1,.6.417L90.108,56.1a40.861,40.861,0,0,0,5.341-3.2,48.366,48.366,0,0,0,7.025-6.122l.014-.014a3.311,3.311,0,0,1,5.038,4.28" transform="translate(-29.431 -19.313)" fill="#354adb"/>
              <path id="Trazado_1014893" data-name="Trazado 1014893" d="M138.121,43.343h0c-.043.012-.088.023-.134.034,0,0-.055.1-.158.266-.5.789-2.112,3.016-4.036,2.27-.15-.059-.294-.123-.432-.191a5,5,0,0,1-.44-.25,6.386,6.386,0,0,1-2.351-2.8s-.462-3.928,1.128-4.868c.919-.544,1.454-.395,1.74-.171a.944.944,0,0,1,.286.363l.233-.293c.839-1.048,3.693-4.551,4.4-4.624.827-.087-2.1,4.886-2.1,4.886s.7-.209,2.129,1.221c1.4,1.4,1.949,3.576-.261,4.155" transform="translate(-57.496 -14.574)" fill="#fdbb92"/>
              <path id="Trazado_1014894" data-name="Trazado 1014894" d="M139.72,46.487a.2.2,0,0,1-.034-.4c.016,0,.587-.13,1.17-1.134a.2.2,0,1,1,.352.2c-.7,1.2-1.426,1.327-1.457,1.332l-.031,0" transform="translate(-61.466 -19.758)" fill="#fd967d"/>
              <path id="Trazado_1014895" data-name="Trazado 1014895" d="M141.318,48.793a.2.2,0,0,1-.055-.4,2.415,2.415,0,0,0,1.418-1.221.2.2,0,1,1,.373.164,2.786,2.786,0,0,1-1.681,1.449.208.208,0,0,1-.055.007" transform="translate(-62.17 -20.729)" fill="#fd967d"/>
              <path id="Trazado_1014896" data-name="Trazado 1014896" d="M135.407,43.641a1.1,1.1,0,0,1-.873.286,8.819,8.819,0,0,1-2.546-.578.2.2,0,1,1,.141-.381c1.023.38,2.673.775,2.96.417.1-.123.016-.414-.232-.8l-.827-1.359a.937.937,0,0,1,.286.363s.086-.109.234-.293l.652,1.075c.133.208.544.853.2,1.273" transform="translate(-58.09 -18.162)" fill="#fd967d"/>
              <path id="Trazado_1014897" data-name="Trazado 1014897" d="M141.863,47.735c-.044.012-.088.023-.134.034,0,0-.056.1-.159.266-3.362-1.964-2.461-4.817-2.45-4.847a.2.2,0,0,1,.385.128c-.037.113-.815,2.628,2.357,4.42" transform="translate(-61.239 -18.965)" fill="#fd967d"/>
              <path id="Trazado_1014898" data-name="Trazado 1014898" d="M53.262,176.043,48.8,243.465l7.33-.452,15.836-84.1-17.246.585Z" transform="translate(-21.498 -70.01)" fill="#002029"/>
              <path id="Trazado_1014899" data-name="Trazado 1014899" d="M49.313,308.821l-.516,6.414a8.8,8.8,0,0,0,5.6.68l1.062-7.581Z" transform="translate(-21.498 -135.84)" fill="#fdbb92"/>
              <path id="Trazado_1014900" data-name="Trazado 1014900" d="M56.29,306.537a6.385,6.385,0,0,1-.3,3.931l-8.784-.413a10.106,10.106,0,0,1-.076-3.86Z" transform="translate(-20.7 -134.898)" fill="#173953"/>
              <path id="Trazado_1014901" data-name="Trazado 1014901" d="M69.05,325.839c-.476,1.014-21.362-.074-21.362-.074s-.663-6.2-.008-8.11,3.7.235,5.786-.245c0,0,1.25-1.731,2.265-1.673a16.442,16.442,0,0,1,3.331,1.95c.266.175.542.357.824.542q.293.195.6.392c.326.215.659.432.992.647l.376.242h0c.3.2.611.39.915.579a17.251,17.251,0,0,0,4.567,2.283c2.685.476,2.195,2.453,1.717,3.468" transform="translate(-20.879 -139.102)" fill="#354adb"/>
              <path id="Trazado_1014902" data-name="Trazado 1014902" d="M69.837,321.539a1.929,1.929,0,0,0-1.144.224,5.1,5.1,0,0,0-1.614,1.759.366.366,0,0,1-.215.176.374.374,0,0,1-.441-.537,5.741,5.741,0,0,1,1.923-2.063,3.064,3.064,0,0,1,.5-.207c.548.047,1.006.169.992.648" transform="translate(-29.243 -141.373)" fill="#fff"/>
              <path id="Trazado_1014903" data-name="Trazado 1014903" d="M67.358,319.765a2.03,2.03,0,0,0-.69.223,5.087,5.087,0,0,0-1.614,1.761.374.374,0,1,1-.656-.362,5.741,5.741,0,0,1,1.923-2.063,2.314,2.314,0,0,1,.213-.1c.351.029.744.007.824.541" transform="translate(-28.351 -140.638)" fill="#fff"/>
              <path id="Trazado_1014904" data-name="Trazado 1014904" d="M72.332,323.051a1.987,1.987,0,0,0-.909.238,5.088,5.088,0,0,0-1.613,1.759.375.375,0,1,1-.657-.361,5.773,5.773,0,0,1,1.923-2.063,3.042,3.042,0,0,1,.34-.153h0c.595-.058.949.094.915.579" transform="translate(-30.446 -142.064)" fill="#fff"/>
              <path id="Trazado_1014905" data-name="Trazado 1014905" d="M19.212,243.724l6.52.3,16.721-39.5,3.427-42.761-15.307-2.328-.849-.129-2.556-.389c1.114,9.14,2.709,41.461,2.709,41.461A142.349,142.349,0,0,0,24.843,215c-2.238,7.948-5.631,28.725-5.631,28.725" transform="translate(-8.464 -70.011)" fill="#173953"/>
              <path id="Trazado_1014906" data-name="Trazado 1014906" d="M21.538,243.6a.345.345,0,0,0,.076.007.418.418,0,0,0,.412-.344c.04-.218,3.985-21.894,6.325-28.777,1.54-4.53,5.414-13.586,5.453-13.677a.418.418,0,0,0,.034-.189l-2.392-40.885-.849-.129,2.4,40.964c-.412.968-3.971,9.333-5.438,13.645-2.361,6.943-6.317,28.68-6.357,28.9a.419.419,0,0,0,.338.487" transform="translate(-9.337 -70.317)" fill="#002029"/>
              <path id="Trazado_1014907" data-name="Trazado 1014907" d="M19.386,308.66l-1.892,6.524a8.8,8.8,0,0,0,5.6.68l1.884-7.647Z" transform="translate(-7.707 -135.789)" fill="#fdbb92"/>
              <path id="Trazado_1014908" data-name="Trazado 1014908" d="M25.963,307.287c.322,1.566.23,2.728-.962,3.681l-9.179-.533a6.318,6.318,0,0,1,.32-3.74Z" transform="translate(-6.906 -135.119)" fill="#2a5b74"/>
              <path id="Trazado_1014909" data-name="Trazado 1014909" d="M37.023,325.839c-.476,1.014-21.362-.074-21.362-.074s-.663-6.2-.008-8.11,3.7.235,5.786-.245c0,0,1.25-1.731,2.265-1.673a16.442,16.442,0,0,1,3.331,1.95c.266.175.542.357.824.542q.294.195.6.392c.326.215.658.432.991.647l.377.242h0c.3.2.611.39.915.579a17.251,17.251,0,0,0,4.567,2.283c2.685.476,2.195,2.453,1.717,3.468" transform="translate(-6.769 -139.102)" fill="#3263ff"/>
              <path id="Trazado_1014910" data-name="Trazado 1014910" d="M37.81,321.539a1.93,1.93,0,0,0-1.144.224,5.1,5.1,0,0,0-1.614,1.759.366.366,0,0,1-.215.176.374.374,0,0,1-.441-.537,5.741,5.741,0,0,1,1.923-2.063,3.064,3.064,0,0,1,.5-.207c.548.047,1.006.169.992.648" transform="translate(-15.133 -141.373)" fill="#fff"/>
              <path id="Trazado_1014911" data-name="Trazado 1014911" d="M35.331,319.765a2.029,2.029,0,0,0-.69.223,5.077,5.077,0,0,0-1.613,1.761.374.374,0,1,1-.656-.362,5.729,5.729,0,0,1,1.923-2.063,2.239,2.239,0,0,1,.212-.1c.351.029.745.007.825.541" transform="translate(-14.241 -140.638)" fill="#fff"/>
              <path id="Trazado_1014912" data-name="Trazado 1014912" d="M40.305,323.051a1.987,1.987,0,0,0-.909.238,5.088,5.088,0,0,0-1.613,1.759.375.375,0,1,1-.657-.361,5.773,5.773,0,0,1,1.923-2.063,3.081,3.081,0,0,1,.34-.153h0c.595-.058.949.094.915.579" transform="translate(-16.336 -142.064)" fill="#fff"/>
              <path id="Trazado_1014913" data-name="Trazado 1014913" d="M63.013,107.061c-3.245,1.7-24.685,1.377-29.482-1.363-1.483-.846-2.164-6.308-2.371-13.623q-.015-.5-.024-1c-.031-1.34-.045-2.737-.046-4.176v-.439q0-.953.007-1.927.006-.8.017-1.6c.01-.655.022-1.317.034-1.98,0-.123,0-.245.007-.368q.011-.462.021-.925c.007-.263.011-.525.02-.788l.017-.688c.007-.215.013-.431.018-.647q.052-1.74.116-3.479c.013-.343.025-.681.038-1.023.07-1.759.149-3.5.235-5.216.007-.145.014-.291.022-.437.021-.412.041-.819.063-1.226.01-.175.02-.35.028-.525.011-.191.021-.382.031-.571q.021-.368.042-.729c.011-.19.022-.379.032-.568s.021-.354.031-.529q.04-.665.08-1.317c.007-.147.018-.293.026-.435.474-7.6,1.019-13.625,1.32-15.369C34.272,40.417,48,34.761,48,34.761l6.221,2.018q.547.178,1.066.4c.219.1.435.2.645.3A11.905,11.905,0,0,1,62.39,49.34c-.209,2.011-.294,4.233-.3,6.531,0,.38,0,.764,0,1.149.006,1.1.025,2.207.053,3.314.01.378.021.756.031,1.133,0,.014,0,.03,0,.046.006.19.013.379.018.57s.012.351.017.528.015.38.021.571q.034.907.07,1.794c.007.181.016.36.022.539.02.487.041.97.059,1.443.007.18.015.361.023.539.034.835.067,1.648.093,2.429q.013.346.022.681c.006.21.011.418.017.624s.013.429.017.638c.024,1.113.031,2.138.011,3.043,0,.094-.006.186-.008.277-.01.285-.014.578-.017.877-.011,1.2.031,2.507.108,3.9.01.185.02.373.032.558s.021.342.031.515.025.369.038.556c.031.446.063.9.1,1.357.018.224.038.449.055.676,0,.024,0,.05.007.074s0,.021,0,.031c.014.171.027.344.044.515,0,.022,0,.045.006.067.025.322.056.647.086.973q.017.222.037.44c.039.446.081.895.123,1.344.077.81.154,1.625.232,2.433.808,8.413,1.584,16.506-.422,17.558" transform="translate(-13.697 -15.314)" fill="#3263ff"/>
              <path id="Trazado_1014914" data-name="Trazado 1014914" d="M62.5,139.258a24.134,24.134,0,0,1-11.133-2.971,28.6,28.6,0,0,1-5.962-4.152.35.35,0,0,1,.486-.5,28.48,28.48,0,0,0,5.823,4.048,22.088,22.088,0,0,0,13.932,2.611.35.35,0,0,1,.119.69,19.059,19.059,0,0,1-3.264.279" transform="translate(-19.957 -57.949)" fill="#354adb"/>
              <path id="Trazado_1014915" data-name="Trazado 1014915" d="M64.491,55.913a.35.35,0,0,1-.092-.688,14.316,14.316,0,0,0,8.044-6.536.35.35,0,0,1,.618.327A14.762,14.762,0,0,1,64.583,55.9a.352.352,0,0,1-.092.012" transform="translate(-28.258 -21.368)" fill="#354adb"/>
              <path id="Trazado_1014916" data-name="Trazado 1014916" d="M48.384,85.531a.35.35,0,0,1-.321-.21c-3.4-7.825,1.262-22.2,1.461-22.808a.35.35,0,1,1,.665.219c-.048.146-4.775,14.731-1.484,22.311a.35.35,0,0,1-.321.489" transform="translate(-20.63 -27.435)" fill="#354adb"/>
              <path id="Trazado_1014917" data-name="Trazado 1014917" d="M50.629,66.288a.35.35,0,0,1-.189-.644l2.613-1.672a.35.35,0,1,1,.377.589l-2.613,1.672a.346.346,0,0,1-.188.055" transform="translate(-22.151 -28.159)" fill="#354adb"/>
              <path id="Trazado_1014918" data-name="Trazado 1014918" d="M31.242,113.841a14.11,14.11,0,0,0,2.693,4.119c.167.125.511.382,2.72.584,2.055.189,5.722.331,12.361.275,4.191-.035,11.134-.232,14.008-.318,0-.021,0-.045-.005-.066-.017-.171-.03-.345-.044-.515-10.523.314-27.4.417-28.635-.505-.783-.585-1.96-2.735-3.062-5.05Z" transform="translate(-13.764 -49.504)" fill="#354adb"/>
              <path id="Trazado_1014919" data-name="Trazado 1014919" d="M31.683,49.944l-.14.333-.114.281-.213.543c-.137.359-.268.712-.394,1.066-.254.706-.49,1.41-.714,2.117q-.67,2.12-1.191,4.279a55.981,55.981,0,0,0-1.424,8.875,40.909,40.909,0,0,0,.313,9.334,32.066,32.066,0,0,0,1.11,4.752c.25.788.54,1.57.859,2.345s.687,1.537,1.081,2.287h0l.266.463a4.682,4.682,0,0,0,4.06,2.344c2.683-.005,5.336-.026,8-.052s5.328-.063,7.992-.109c5.33-.1,12.736-1.165,18.089-1.407.8-.123.934-.575.858-2.271A3.075,3.075,0,0,0,67.348,82.2h-.013c-5.229-.505-10.474-1.121-15.716-1.77q-3.931-.489-7.861-1.009c-2.616-.346-5.245-.7-7.842-1.064l4.326,2.807a19.066,19.066,0,0,1-1.933-6.034,30.314,30.314,0,0,1-.216-6.9,45.415,45.415,0,0,1,1.157-7.179c.288-1.2.62-2.387.991-3.56.186-.586.381-1.168.586-1.739.1-.285.207-.567.312-.842l.158-.4.133-.326.068-.165a5.314,5.314,0,0,0-9.816-4.074" transform="translate(-12.055 -20.569)" fill="#3263ff"/>
              <path id="Trazado_1014920" data-name="Trazado 1014920" d="M40.955,105.862a.347.347,0,0,0,.231-.087c.03-.026,3.05-2.647,5.949-2.069a.35.35,0,1,0,.137-.686c-3.242-.644-6.414,2.113-6.548,2.231a.349.349,0,0,0,.231.611" transform="translate(-17.889 -45.344)" fill="#354adb"/>
              <path id="Trazado_1014921" data-name="Trazado 1014921" d="M44.53,103.4a.35.35,0,0,0,.206-.632,8.316,8.316,0,0,0-3.495-1.036.35.35,0,0,0-.054.7,7.776,7.776,0,0,1,3.136.9.348.348,0,0,0,.206.067" transform="translate(-18.004 -44.819)" fill="#354adb"/>
              <path id="Trazado_1014922" data-name="Trazado 1014922" d="M75.191,6.321s2.135-.136,3.232-3.966c1.292-4.517-3.682-1.066-7.448-1.51s-9.313-.105-11.2,3.066a8.406,8.406,0,0,0-.559,6.691Z" transform="translate(-25.888 0)" fill="#002029"/>
              <path id="Trazado_1014923" data-name="Trazado 1014923" d="M61.052,31.137s-1.013-.939-1.486-1.44c1.1-1.382,3.275-4.481,3.514-7.559l7.774,5.67s-.2.371-.546.968l-.059.1a.242.242,0,0,0-.012.021c-.248.422-.563.943-.928,1.518-.132.209-.27.425-.416.647-.131.2-.267.4-.407.608a30.308,30.308,0,0,1-2.3,3.008,34.1,34.1,0,0,1-5.135-3.543" transform="translate(-26.243 -9.753)" fill="#fdbb92"/>
              <path id="Trazado_1014924" data-name="Trazado 1014924" d="M76.607,32.832c-.019.034-.039.067-.059.1,0,.007-.008.013-.012.022-.249.421-.563.943-.928,1.518-.132.209-.27.425-.416.647-.131.2-.267.4-.407.608a14.582,14.582,0,0,1-.921-4.384Z" transform="translate(-32.542 -13.809)" fill="#fd967d"/>
              <path id="Trazado_1014925" data-name="Trazado 1014925" d="M60.421,14.736A24.629,24.629,0,0,0,63.4,17.455c3.667,2.925,8.665,5.919,10.112,6.164,1.069.179,1.841-.421,2.325-2.283.073-.286.145-.586.211-.9l.331-1.9c.033-.223.063-.451.09-.677.533-.076,1.667-.277,1.506-.6-.2-.414-1.248-2.449-1.29-2.531v0a19.933,19.933,0,0,0-.3-4.111,3.854,3.854,0,0,0-.445-1.189,4.02,4.02,0,0,0-1.994-1.73c-2.578-1.036-7.44-2.774-10.1-2.367-3.742.573-6.454,5.992-3.415,9.41" transform="translate(-26.042 -2.32)" fill="#fdbb92"/>
              <path id="Trazado_1014926" data-name="Trazado 1014926" d="M80.471,24.568c-.023.457.684.864,1.578.91s1.639-.289,1.662-.745-.684-.864-1.578-.91-1.639.288-1.662.745" transform="translate(-35.452 -10.494)" fill="#fd967d"/>
              <path id="Trazado_1014927" data-name="Trazado 1014927" d="M83.638,23.543s-2.557-1.138-4.266-.257-2-.81-1.7-1.834a11.348,11.348,0,0,0,0-3.289l-.727.041s.194,3.286-.942,4.083-.644,5.211,1.01,6.413,3.97,2.214,5.373,1.195,1.248-6.351,1.248-6.351" transform="translate(-33.215 -8.002)" fill="#002029"/>
              <path id="Trazado_1014928" data-name="Trazado 1014928" d="M86.619,30.556q.058,0,.117,0a.2.2,0,1,0-.008-.4,1.558,1.558,0,0,1-1.338-.874.2.2,0,1,0-.365.172,1.987,1.987,0,0,0,1.593,1.1" transform="translate(-37.451 -12.848)" fill="#2a5b74"/>
              <path id="Trazado_1014929" data-name="Trazado 1014929" d="M87.914,20.418c.024.373-.124.685-.33.7s-.392-.279-.416-.651.124-.685.33-.7.392.279.416.651" transform="translate(-38.402 -8.709)" fill="#002029"/>
              <path id="Trazado_1014930" data-name="Trazado 1014930" d="M84.627,18.361a.323.323,0,0,1-.249-.489,2.25,2.25,0,0,1,2.581-1.019.323.323,0,0,1-.2.616,1.612,1.612,0,0,0-1.829.736.324.324,0,0,1-.305.156" transform="translate(-37.154 -7.377)" fill="#002029"/>
              <path id="Trazado_1014931" data-name="Trazado 1014931" d="M74.446,20.831a.225.225,0,0,1-.2-.2A3.754,3.754,0,0,0,73,18.245a.225.225,0,0,1,.277-.354,4.138,4.138,0,0,1,1.415,2.694.225.225,0,0,1-.2.247.2.2,0,0,1-.045,0" transform="translate(-32.123 -7.861)" fill="#fd967d"/>
              <path id="Trazado_1014932" data-name="Trazado 1014932" d="M72.554,20.491a.225.225,0,0,1-.068-.43,2.512,2.512,0,0,1,1.368-.183.225.225,0,0,1-.114.435,2.031,2.031,0,0,0-1.075.161.226.226,0,0,1-.111.017" transform="translate(-31.875 -8.739)" fill="#fd967d"/>
              <path id="Trazado_1014933" data-name="Trazado 1014933" d="M63.835,5.326c2.662-.407,7.524,1.331,10.1,2.367a4.038,4.038,0,0,1,1.408.948,13.6,13.6,0,0,1-2.391-.586,3.145,3.145,0,0,1-2.206,1.5c-.045,1-.2,1.908-.244,2.929a3.693,3.693,0,0,1-.727.041s-1.6-2.867-3.947-1.213c-1.335.941-1.019,2.727-.047,4.009-.535,1.413-1.552,2.19-2.385,2.137a24.672,24.672,0,0,1-2.976-2.719c-3.039-3.418-.326-8.837,3.415-9.41" transform="translate(-26.042 -2.32)" fill="#002029"/>
              <path id="Trazado_1014934" data-name="Trazado 1014934" d="M87.422,15.464c-.724-.081-1.434,1.125-1.613,2.746s.247,2.951.972,3.032c.7.078,1.391-1.052,1.6-2.594.006-.049.013-.1.018-.15s.01-.088.012-.132c.144-1.56-.279-2.822-.985-2.9m-.611,5.5c-.481-.053-.9-1.187-.727-2.725s.827-2.553,1.308-2.5.888,1.13.733,2.658c0,.022,0,.044-.006.068-.011.092-.022.182-.036.271-.213,1.4-.809,2.28-1.272,2.228" transform="translate(-37.786 -6.811)" fill="#fff"/>
              <path id="Trazado_1014935" data-name="Trazado 1014935" d="M90.483,21.051a.138.138,0,0,1-.192-.036.261.261,0,0,0-.089-.087.108.108,0,0,0-.044-.015.25.25,0,0,0-.166.067.133.133,0,0,1-.083.037c.014-.089.025-.178.035-.271,0-.023.005-.045.006-.067a.454.454,0,0,1,.236-.043c.013,0,.029,0,.046.008a.466.466,0,0,1,.288.214.137.137,0,0,1-.036.192" transform="translate(-39.61 -9.091)" fill="#fff"/>
              <path id="Trazado_1014936" data-name="Trazado 1014936" d="M83.255,19.237l-3.722-.519c.016.1.03.191.042.286l3.642.507h0a.139.139,0,0,0,.034-.275" transform="translate(-35.039 -8.246)" fill="#fff"/>
              <rect id="Rectángulo_461869" data-name="Rectángulo 461869" width="28.91" height="2.579" transform="translate(47.242 60.885)" fill="#173953"/>
              <path id="Trazado_1014937" data-name="Trazado 1014937" d="M141.649,67.529l-9.594,24.805,2.279.88,9.9-25.685Z" transform="translate(-58.178 -29.751)" fill="#173953"/>
              <path id="Trazado_1014938" data-name="Trazado 1014938" d="M104.273,112.41a7.208,7.208,0,0,1-1,.724,10.309,10.309,0,0,1-7.58,1.531,8.709,8.709,0,0,1-4.81-3.134s.328-1.968,1.531-2.405c1.027-.375.291,1.239.583,1.749s3.994.7,6.2.474a25.354,25.354,0,0,1,3.523-.087q.234.008.45.019.407.022.742.046a.6.6,0,0,1,.322.117.621.621,0,0,1,.043.966" transform="translate(-40.041 -48.052)" fill="#fdbb92"/>
              <path id="Trazado_1014939" data-name="Trazado 1014939" d="M112.343,113.54a7.938,7.938,0,0,1-3.286,1.834.149.149,0,0,1-.044.007.144.144,0,0,1-.139-.1.146.146,0,0,1,.093-.183,7.59,7.59,0,0,0,3.185-1.782.614.614,0,0,1,.19.227" transform="translate(-47.963 -49.922)" fill="#fd967d"/>
              <path id="Trazado_1014940" data-name="Trazado 1014940" d="M110.346,113.006a8.576,8.576,0,0,1-2.977,1.548.149.149,0,0,1-.044.007.146.146,0,0,1-.044-.284,8.767,8.767,0,0,0,2.614-1.29q.234.008.45.019" transform="translate(-47.22 -49.778)" fill="#fd967d"/>
              <path id="Trazado_1014941" data-name="Trazado 1014941" d="M284.267,329.589c0,2.031-44.868,3.677-100.217,3.677s-100.216-1.646-100.216-3.677,44.868-3.677,100.216-3.677,100.217,1.646,100.217,3.677" transform="translate(-36.934 -143.585)" fill="#24a77c"/>
              <path id="Trazado_1014942" data-name="Trazado 1014942" d="M334.78,218.76H321.751a.91.91,0,1,1,0-1.819h12.12V137.413h-9.635a.91.91,0,0,1,0-1.819H334.78a.91.91,0,0,1,.91.91V217.85a.91.91,0,0,1-.91.91" transform="translate(-141.351 -59.738)" fill="#354adb"/>
              <path id="Trazado_1014943" data-name="Trazado 1014943" d="M332.155,137.717h2.786a1.885,1.885,0,0,0,1.885-1.885v-.9a1.885,1.885,0,0,0-1.885-1.885h-2.786Z" transform="translate(-146.335 -58.615)" fill="#5a95ff"/>
              <path id="Trazado_1014944" data-name="Trazado 1014944" d="M330.318,283.125H333.1a1.885,1.885,0,0,0,1.885-1.885v-.9a1.885,1.885,0,0,0-1.885-1.885h-2.787Z" transform="translate(-145.526 -122.676)" fill="#5a95ff"/>
              <path id="Trazado_1014945" data-name="Trazado 1014945" d="M164.16,177.637H153.99a.91.91,0,0,1-.91-.91V95.381a.91.91,0,0,1,.91-.91h8.23a.91.91,0,1,1,0,1.819H154.9v79.527h9.261a.91.91,0,1,1,0,1.819" transform="translate(-67.441 -41.62)" fill="#354adb"/>
              <path id="Trazado_1014946" data-name="Trazado 1014946" d="M165.739,96.3h-2.787a1.885,1.885,0,0,1-1.885-1.885v-.9a1.885,1.885,0,0,1,1.885-1.885h2.787Z" transform="translate(-70.96 -40.367)" fill="#5a95ff"/>
              <path id="Trazado_1014947" data-name="Trazado 1014947" d="M169.207,242H166.42a1.885,1.885,0,0,1-1.885-1.885v-.9a1.885,1.885,0,0,1,1.885-1.885h2.787Z" transform="translate(-72.488 -104.559)" fill="#5a95ff"/>
              <path id="Trazado_1014948" data-name="Trazado 1014948" d="M231.577,153.413l-3.937,14.364h25.9L249.6,153.413Z" transform="translate(-100.29 -67.588)" fill="#002029"/>
              <path id="Trazado_1014949" data-name="Trazado 1014949" d="M258.776,184.986H193.138v-1.138a4.76,4.76,0,0,1,4.76-4.76h56.117a4.76,4.76,0,0,1,4.76,4.76Z" transform="translate(-85.09 -78.9)" fill="#173953"/>
              <path id="Trazado_1014950" data-name="Trazado 1014950" d="M257.532,100.567H172.347a2.928,2.928,0,0,1-2.928-2.928V36.391a2.928,2.928,0,0,1,2.928-2.928h85.185a2.927,2.927,0,0,1,2.927,2.928V97.64a2.927,2.927,0,0,1-2.927,2.928" transform="translate(-74.64 -14.743)" fill="#173953"/>
              <path id="Trazado_1014951" data-name="Trazado 1014951" d="M259.57,41.647V90.653A1.345,1.345,0,0,1,258.226,92H178.234a1.346,1.346,0,0,1-1.345-1.345V41.647a1.667,1.667,0,0,1,1.667-1.667H257.9a1.667,1.667,0,0,1,1.667,1.667" transform="translate(-77.931 -17.614)" fill="#fff"/>
              <rect id="Rectángulo_461870" data-name="Rectángulo 461870" width="4.319" height="4.319" transform="translate(149.514 33.02)" fill="#5a95ff"/>
              <rect id="Rectángulo_461871" data-name="Rectángulo 461871" width="4.319" height="4.319" transform="translate(149.514 40.715)" fill="#3263ff"/>
              <g id="Grupo_1194930" data-name="Grupo 1194930" transform="translate(156.7 41.658)" opacity="0.3">
                <g id="Grupo_1194929" data-name="Grupo 1194929">
                  <g id="Grupo_1194928" data-name="Grupo 1194928" clip-path="url(#clip-path-4)">
                    <path id="Trazado_1014952" data-name="Trazado 1014952" d="M295.774,74.465H281.439a1.221,1.221,0,1,0,0,2.432h14.335a1.221,1.221,0,1,0,0-2.432" transform="translate(-280.104 -74.465)" fill="#5a95ff"/>
                  </g>
                </g>
              </g>
              <g id="Grupo_1194933" data-name="Grupo 1194933" transform="translate(156.7 33.963)" opacity="0.3">
                <g id="Grupo_1194932" data-name="Grupo 1194932">
                  <g id="Grupo_1194931" data-name="Grupo 1194931" clip-path="url(#clip-path-4)">
                    <path id="Trazado_1014953" data-name="Trazado 1014953" d="M295.774,60.71H281.439a1.221,1.221,0,1,0,0,2.432h14.335a1.221,1.221,0,1,0,0-2.432" transform="translate(-280.104 -60.71)" fill="#5a95ff"/>
                  </g>
                </g>
              </g>
              <g id="Grupo_1194948" data-name="Grupo 1194948" transform="translate(149.514 50.866)">
                <g id="Grupo_1194947" data-name="Grupo 1194947">
                  <g id="Grupo_1194946" data-name="Grupo 1194946" clip-path="url(#clip-path-6)">
                    <g id="Grupo_1194936" data-name="Grupo 1194936" transform="translate(0.068 14.661)" opacity="0.3">
                      <g id="Grupo_1194935" data-name="Grupo 1194935">
                        <g id="Grupo_1194934" data-name="Grupo 1194934" clip-path="url(#clip-path-7)">
                          <path id="Trazado_1014954" data-name="Trazado 1014954" d="M267.379,118.346h0a1.216,1.216,0,0,0,1.216,1.217h21.569a1.216,1.216,0,1,0,0-2.432H268.6a1.216,1.216,0,0,0-1.216,1.216" transform="translate(-267.379 -117.13)" fill="#5a95ff"/>
                        </g>
                      </g>
                    </g>
                    <g id="Grupo_1194939" data-name="Grupo 1194939" transform="translate(0.045 9.773)" opacity="0.3">
                      <g id="Grupo_1194938" data-name="Grupo 1194938">
                        <g id="Grupo_1194937" data-name="Grupo 1194937" clip-path="url(#clip-path-7)">
                          <path id="Trazado_1014955" data-name="Trazado 1014955" d="M267.339,109.61h0a1.216,1.216,0,0,0,1.216,1.216h21.569a1.216,1.216,0,1,0,0-2.432H268.555a1.216,1.216,0,0,0-1.216,1.216" transform="translate(-267.339 -108.394)" fill="#5a95ff"/>
                        </g>
                      </g>
                    </g>
                    <g id="Grupo_1194942" data-name="Grupo 1194942" transform="translate(0.022 4.887)" opacity="0.3">
                      <g id="Grupo_1194941" data-name="Grupo 1194941">
                        <g id="Grupo_1194940" data-name="Grupo 1194940" clip-path="url(#clip-path-7)">
                          <path id="Trazado_1014956" data-name="Trazado 1014956" d="M267.3,100.875h0a1.216,1.216,0,0,0,1.216,1.216h21.569a1.216,1.216,0,0,0,0-2.432H268.514a1.216,1.216,0,0,0-1.216,1.216" transform="translate(-267.298 -99.659)" fill="#5a95ff"/>
                        </g>
                      </g>
                    </g>
                    <g id="Grupo_1194945" data-name="Grupo 1194945" opacity="0.3">
                      <g id="Grupo_1194944" data-name="Grupo 1194944">
                        <g id="Grupo_1194943" data-name="Grupo 1194943" clip-path="url(#clip-path-7)">
                          <path id="Trazado_1014957" data-name="Trazado 1014957" d="M267.258,92.14h0a1.216,1.216,0,0,0,1.216,1.216h21.569a1.216,1.216,0,0,0,0-2.432H268.474a1.216,1.216,0,0,0-1.216,1.216" transform="translate(-267.258 -90.924)" fill="#5a95ff"/>
                        </g>
                      </g>
                    </g>
                  </g>
                </g>
              </g>
              <path id="Trazado_1014958" data-name="Trazado 1014958" d="M225.669,80.07a16.081,16.081,0,1,1-30.917-6.215l14.837,6.215-.762-16.06c.25-.016.506-.02.762-.02a16.081,16.081,0,0,1,16.08,16.08" transform="translate(-85.252 -28.192)" fill="#3263ff"/>
              <path id="Trazado_1014959" data-name="Trazado 1014959" d="M207.211,59.494a16.1,16.1,0,0,0-14.073,9.846l14.836,6.215Z" transform="translate(-85.09 -26.211)" fill="#5a95ff"/>
              <g id="Grupo_1194951" data-name="Grupo 1194951" transform="translate(98.959 22.366)" opacity="0.3">
                <g id="Grupo_1194950" data-name="Grupo 1194950">
                  <g id="Grupo_1194949" data-name="Grupo 1194949" clip-path="url(#clip-path-11)">
                    <path id="Trazado_1014960" data-name="Trazado 1014960" d="M259.57,41.647v3.509H176.889V41.647a1.667,1.667,0,0,1,1.667-1.667H257.9a1.667,1.667,0,0,1,1.667,1.667" transform="translate(-176.89 -39.979)" fill="#5a95ff"/>
                  </g>
                </g>
              </g>
              <path id="Trazado_1014961" data-name="Trazado 1014961" d="M305.706,43.68a1.174,1.174,0,1,1-1.174-1.174,1.174,1.174,0,0,1,1.174,1.174" transform="translate(-133.648 -18.727)" fill="#3263ff"/>
              <path id="Trazado_1014962" data-name="Trazado 1014962" d="M312.509,43.68a1.174,1.174,0,1,1-1.174-1.174,1.174,1.174,0,0,1,1.174,1.174" transform="translate(-136.646 -18.727)" fill="#354adb"/>
              <path id="Trazado_1014963" data-name="Trazado 1014963" d="M319.022,43.68a1.174,1.174,0,1,1-1.174-1.174,1.174,1.174,0,0,1,1.174,1.174" transform="translate(-139.515 -18.727)" fill="#002029"/>
              <path id="Trazado_1014964" data-name="Trazado 1014964" d="M251.521,140.674a3.453,3.453,0,1,1-3.453-3.453,3.453,3.453,0,0,1,3.453,3.453" transform="translate(-107.768 -60.455)" fill="#2a5b74"/>
              <path id="Trazado_1014965" data-name="Trazado 1014965" d="M256.846,270.715H177a4.114,4.114,0,0,1-4.114-4.114V193.745A4.114,4.114,0,0,1,177,189.631h79.846a4.114,4.114,0,0,1,4.114,4.114V266.6a4.114,4.114,0,0,1-4.114,4.114" transform="translate(-76.168 -83.544)" fill="#3263ff"/>
              <path id="Trazado_1014966" data-name="Trazado 1014966" d="M247.817,204.6H187.35a1.3,1.3,0,0,1,0-2.6h60.467a1.3,1.3,0,1,1,0,2.6" transform="translate(-81.966 -88.992)" fill="#354adb"/>
              <path id="Trazado_1014967" data-name="Trazado 1014967" d="M247.817,216.994H187.35a1.3,1.3,0,0,1,0-2.6h60.467a1.3,1.3,0,0,1,0,2.6" transform="translate(-81.966 -94.452)" fill="#354adb"/>
              <path id="Trazado_1014968" data-name="Trazado 1014968" d="M247.817,229.387H187.35a1.3,1.3,0,0,1,0-2.605h60.467a1.3,1.3,0,0,1,0,2.605" transform="translate(-81.966 -99.912)" fill="#354adb"/>
              <path id="Trazado_1014969" data-name="Trazado 1014969" d="M247.817,241.782H187.35a1.3,1.3,0,1,1,0-2.6h60.467a1.3,1.3,0,1,1,0,2.6" transform="translate(-81.966 -105.373)" fill="#354adb"/>
              <path id="Trazado_1014970" data-name="Trazado 1014970" d="M247.817,254.177H187.35a1.3,1.3,0,0,1,0-2.6h60.467a1.3,1.3,0,0,1,0,2.6" transform="translate(-81.966 -110.833)" fill="#354adb"/>
              <path id="Trazado_1014971" data-name="Trazado 1014971" d="M247.817,266.57H187.35a1.3,1.3,0,0,1,0-2.605h60.467a1.3,1.3,0,0,1,0,2.605" transform="translate(-81.966 -116.293)" fill="#354adb"/>
              <path id="Trazado_1014972" data-name="Trazado 1014972" d="M313.938,201.994h0a1.25,1.25,0,0,0-1.25,1.25v.105a1.25,1.25,0,0,0,2.5,0v-.105a1.25,1.25,0,0,0-1.25-1.25" transform="translate(-137.759 -88.991)" fill="#fff"/>
              <path id="Trazado_1014973" data-name="Trazado 1014973" d="M313.938,214.389h0a1.25,1.25,0,0,0-1.25,1.25v.105a1.25,1.25,0,1,0,2.5,0v-.105a1.25,1.25,0,0,0-1.25-1.25" transform="translate(-137.759 -94.452)" fill="#fff"/>
              <path id="Trazado_1014974" data-name="Trazado 1014974" d="M313.938,226.783h0a1.25,1.25,0,0,0-1.25,1.25v.105a1.25,1.25,0,1,0,2.5,0v-.105a1.25,1.25,0,0,0-1.25-1.25" transform="translate(-137.759 -99.912)" fill="#fff"/>
              <path id="Trazado_1014975" data-name="Trazado 1014975" d="M313.938,239.177h0a1.25,1.25,0,0,0-1.25,1.25v.105a1.25,1.25,0,0,0,2.5,0v-.105a1.25,1.25,0,0,0-1.25-1.25" transform="translate(-137.759 -105.373)" fill="#fff"/>
              <path id="Trazado_1014976" data-name="Trazado 1014976" d="M313.938,251.571h0a1.25,1.25,0,0,0-1.25,1.25v.105a1.25,1.25,0,0,0,2.5,0v-.105a1.25,1.25,0,0,0-1.25-1.25" transform="translate(-137.759 -110.833)" fill="#fff"/>
              <path id="Trazado_1014977" data-name="Trazado 1014977" d="M313.938,263.965h0a1.25,1.25,0,0,0-1.25,1.25v.105a1.25,1.25,0,1,0,2.5,0v-.105a1.25,1.25,0,0,0-1.25-1.25" transform="translate(-137.759 -116.293)" fill="#fff"/>
              <path id="Trazado_1014978" data-name="Trazado 1014978" d="M255.225,306.165H190.218a4.17,4.17,0,0,1-4.17-4.17V285.36a4.17,4.17,0,0,1,4.17-4.17h65.007a4.17,4.17,0,0,1,4.17,4.17V302a4.17,4.17,0,0,1-4.17,4.17" transform="translate(-81.966 -123.882)" fill="#354adb"/>
              <path id="Trazado_1014979" data-name="Trazado 1014979" d="M201.657,306.064a12.013,12.013,0,1,1,12.013-12.013,12.027,12.027,0,0,1-12.013,12.013m0-19.954a7.941,7.941,0,1,0,7.941,7.941,7.95,7.95,0,0,0-7.941-7.941" transform="translate(-83.55 -124.256)" fill="#5a95ff"/>
              <path id="Trazado_1014980" data-name="Trazado 1014980" d="M210.307,297a.95.95,0,0,1-.95-.95v-4.208a.95.95,0,1,1,1.9,0v4.208a.95.95,0,0,1-.95.95" transform="translate(-92.235 -128.157)" fill="#5a95ff"/>
              <path id="Trazado_1014981" data-name="Trazado 1014981" d="M210.307,311.235a.95.95,0,0,1-.95-.95v-4.208a.95.95,0,1,1,1.9,0v4.208a.95.95,0,0,1-.95.95" transform="translate(-92.235 -134.428)" fill="#5a95ff"/>
              <path id="Trazado_1014982" data-name="Trazado 1014982" d="M203.637,303.671H199.43a.95.95,0,0,1,0-1.9h4.208a.95.95,0,0,1,0,1.9" transform="translate(-87.443 -132.949)" fill="#5a95ff"/>
              <path id="Trazado_1014983" data-name="Trazado 1014983" d="M217.87,303.671h-4.208a.95.95,0,0,1,0-1.9h4.208a.95.95,0,0,1,0,1.9" transform="translate(-93.714 -132.949)" fill="#5a95ff"/>
              <path id="Trazado_1014984" data-name="Trazado 1014984" d="M247.25,306.064a12.013,12.013,0,1,1,12.013-12.013,12.027,12.027,0,0,1-12.013,12.013m0-19.954a7.941,7.941,0,1,0,7.941,7.941,7.95,7.95,0,0,0-7.941-7.941" transform="translate(-103.637 -124.256)" fill="#5a95ff"/>
              <path id="Trazado_1014985" data-name="Trazado 1014985" d="M255.9,297a.95.95,0,0,1-.95-.95v-4.208a.95.95,0,1,1,1.9,0v4.208a.95.95,0,0,1-.95.95" transform="translate(-112.322 -128.157)" fill="#5a95ff"/>
              <path id="Trazado_1014986" data-name="Trazado 1014986" d="M255.9,311.235a.95.95,0,0,1-.95-.95v-4.208a.95.95,0,1,1,1.9,0v4.208a.95.95,0,0,1-.95.95" transform="translate(-112.322 -134.428)" fill="#5a95ff"/>
              <path id="Trazado_1014987" data-name="Trazado 1014987" d="M249.23,303.671h-4.208a.95.95,0,1,1,0-1.9h4.208a.95.95,0,0,1,0,1.9" transform="translate(-107.529 -132.949)" fill="#5a95ff"/>
              <path id="Trazado_1014988" data-name="Trazado 1014988" d="M263.463,303.671h-4.208a.95.95,0,0,1,0-1.9h4.208a.95.95,0,0,1,0,1.9" transform="translate(-113.8 -132.949)" fill="#5a95ff"/>
              <path id="Trazado_1014989" data-name="Trazado 1014989" d="M299.034,291.86H283.963a1.018,1.018,0,0,1-1.018-1.018v-2.488a1.018,1.018,0,0,1,1.018-1.018h15.071a1.018,1.018,0,0,1,1.018,1.018v2.488a1.018,1.018,0,0,1-1.018,1.018" transform="translate(-124.655 -126.59)" fill="#5a95ff"/>
              <path id="Trazado_1014990" data-name="Trazado 1014990" d="M287.617,291.543a2.244,2.244,0,0,1-.942-.208,4.175,4.175,0,0,0-1.759-.363h-.759a.2.2,0,0,1,0-.407h.759a4.583,4.583,0,0,1,1.93.4,1.823,1.823,0,0,0,2.037-.343,2.234,2.234,0,0,1,3.1,0l0,0a1.828,1.828,0,0,0,2.54,0,2.23,2.23,0,0,1,2.635-.348,2.164,2.164,0,0,0,1.05.29h1.348a.2.2,0,1,1,0,.407h-1.348a2.568,2.568,0,0,1-1.247-.341,1.823,1.823,0,0,0-2.155.284,2.234,2.234,0,0,1-3.1.005l0,0a1.828,1.828,0,0,0-2.541,0,2.229,2.229,0,0,1-1.548.628" transform="translate(-125.099 -127.76)" fill="#fff"/>
              <path id="Trazado_1014991" data-name="Trazado 1014991" d="M293.711,320.359H283.647a.7.7,0,1,1,0-1.4h10.064a.7.7,0,0,1,0,1.4" transform="translate(-124.655 -140.521)" fill="#5a95ff"/>
              <path id="Trazado_1014992" data-name="Trazado 1014992" d="M293.711,313.8H283.647a.7.7,0,1,1,0-1.4h10.064a.7.7,0,0,1,0,1.4" transform="translate(-124.655 -137.629)" fill="#5a95ff"/>
              <path id="Trazado_1014993" data-name="Trazado 1014993" d="M293.711,307.23H283.647a.7.7,0,1,1,0-1.4h10.064a.7.7,0,0,1,0,1.4" transform="translate(-124.655 -134.737)" fill="#5a95ff"/>
              <path id="Trazado_1014994" data-name="Trazado 1014994" d="M293.711,300.667H283.647a.7.7,0,1,1,0-1.4h10.064a.7.7,0,0,1,0,1.4" transform="translate(-124.655 -131.845)" fill="#5a95ff"/>
              <path id="Trazado_1014995" data-name="Trazado 1014995" d="M309.868,318.957h-.023a.7.7,0,0,0,0,1.4h.023a.7.7,0,0,0,0-1.4" transform="translate(-136.198 -140.521)" fill="#5a95ff"/>
              <path id="Trazado_1014996" data-name="Trazado 1014996" d="M309.868,312.393h-.023a.7.7,0,0,0,0,1.4h.023a.7.7,0,0,0,0-1.4" transform="translate(-136.198 -137.629)" fill="#5a95ff"/>
              <path id="Trazado_1014997" data-name="Trazado 1014997" d="M309.868,305.828h-.023a.7.7,0,0,0,0,1.4h.023a.7.7,0,0,0,0-1.4" transform="translate(-136.198 -134.737)" fill="#5a95ff"/>
              <path id="Trazado_1014998" data-name="Trazado 1014998" d="M309.868,299.264h-.023a.7.7,0,0,0,0,1.4h.023a.7.7,0,0,0,0-1.4" transform="translate(-136.198 -131.845)" fill="#5a95ff"/>
              <path id="Trazado_1014999" data-name="Trazado 1014999" d="M128.476,254.352V296.8a1.689,1.689,0,0,1-1.689,1.689h-24.6A1.69,1.69,0,0,1,100.5,296.8V254.352a1.689,1.689,0,0,1,1.689-1.689h24.6a1.689,1.689,0,0,1,1.689,1.689" transform="translate(-44.277 -111.314)" fill="#3263ff"/>
              <path id="Trazado_1015000" data-name="Trazado 1015000" d="M122.954,265.463H106.528a1.163,1.163,0,1,1,0-2.325h16.427a1.163,1.163,0,0,1,0,2.325" transform="translate(-46.42 -115.929)" fill="#5a95ff"/>
              <path id="Trazado_1015001" data-name="Trazado 1015001" d="M122.954,274.93H106.528a1.163,1.163,0,1,1,0-2.325h16.427a1.163,1.163,0,0,1,0,2.325" transform="translate(-46.42 -120.1)" fill="#5a95ff"/>
              <path id="Trazado_1015002" data-name="Trazado 1015002" d="M122.954,284.4H106.528a1.163,1.163,0,1,1,0-2.325h16.427a1.163,1.163,0,0,1,0,2.325" transform="translate(-46.42 -124.271)" fill="#5a95ff"/>
              <path id="Trazado_1015003" data-name="Trazado 1015003" d="M122.954,293.863H106.528a1.163,1.163,0,1,1,0-2.325h16.427a1.163,1.163,0,1,1,0,2.325" transform="translate(-46.42 -128.441)" fill="#5a95ff"/>
              <path id="Trazado_1015004" data-name="Trazado 1015004" d="M122.954,303.33H106.528a1.163,1.163,0,1,1,0-2.325h16.427a1.163,1.163,0,0,1,0,2.325" transform="translate(-46.42 -132.612)" fill="#5a95ff"/>
              <path id="Trazado_1015005" data-name="Trazado 1015005" d="M122.954,312.8H106.528a1.163,1.163,0,1,1,0-2.325h16.427a1.163,1.163,0,0,1,0,2.325" transform="translate(-46.42 -136.783)" fill="#5a95ff"/>
              <path id="Trazado_1015006" data-name="Trazado 1015006" d="M122.954,322.263H106.528a1.163,1.163,0,1,1,0-2.325h16.427a1.163,1.163,0,0,1,0,2.325" transform="translate(-46.42 -140.953)" fill="#5a95ff"/>
              <path id="Trazado_1015007" data-name="Trazado 1015007" d="M144.036,263.636a.5.5,0,1,1-.5-.5.5.5,0,0,1,.5.5" transform="translate(-63.018 -115.929)" fill="#173953"/>
              <path id="Trazado_1015008" data-name="Trazado 1015008" d="M144.036,266.012a.5.5,0,1,1-.5-.5.5.5,0,0,1,.5.5" transform="translate(-63.018 -116.976)" fill="#5a95ff"/>
              <path id="Trazado_1015009" data-name="Trazado 1015009" d="M144.036,273.1a.5.5,0,1,1-.5-.5.5.5,0,0,1,.5.5" transform="translate(-63.018 -120.099)" fill="#fff"/>
              <path id="Trazado_1015010" data-name="Trazado 1015010" d="M144.036,275.479a.5.5,0,1,1-.5-.5.5.5,0,0,1,.5.5" transform="translate(-63.018 -121.147)" fill="#5a95ff"/>
              <path id="Trazado_1015011" data-name="Trazado 1015011" d="M144.036,292.036a.5.5,0,1,1-.5-.5.5.5,0,0,1,.5.5" transform="translate(-63.018 -128.441)" fill="#fff"/>
              <path id="Trazado_1015012" data-name="Trazado 1015012" d="M144.036,294.412a.5.5,0,1,1-.5-.5.5.5,0,0,1,.5.5" transform="translate(-63.018 -129.488)" fill="#5a95ff"/>
              <path id="Trazado_1015013" data-name="Trazado 1015013" d="M144.036,282.569a.5.5,0,1,1-.5-.5.5.5,0,0,1,.5.5" transform="translate(-63.018 -124.27)" fill="#173953"/>
              <path id="Trazado_1015014" data-name="Trazado 1015014" d="M144.036,284.946a.5.5,0,1,1-.5-.5.5.5,0,0,1,.5.5" transform="translate(-63.018 -125.317)" fill="#5a95ff"/>
              <path id="Trazado_1015015" data-name="Trazado 1015015" d="M144.036,301.5a.5.5,0,1,1-.5-.5.5.5,0,0,1,.5.5" transform="translate(-63.018 -132.612)" fill="#173953"/>
              <path id="Trazado_1015016" data-name="Trazado 1015016" d="M144.036,303.879a.5.5,0,1,1-.5-.5.5.5,0,0,1,.5.5" transform="translate(-63.018 -133.659)" fill="#5a95ff"/>
              <path id="Trazado_1015017" data-name="Trazado 1015017" d="M144.036,310.969a.5.5,0,1,1-.5-.5.5.5,0,0,1,.5.5" transform="translate(-63.018 -136.782)" fill="#fff"/>
              <path id="Trazado_1015018" data-name="Trazado 1015018" d="M144.036,313.346a.5.5,0,1,1-.5-.5.5.5,0,0,1,.5.5" transform="translate(-63.018 -137.829)" fill="#5a95ff"/>
              <path id="Trazado_1015019" data-name="Trazado 1015019" d="M144.036,320.436a.5.5,0,1,1-.5-.5.5.5,0,0,1,.5.5" transform="translate(-63.018 -140.953)" fill="#173953"/>
              <path id="Trazado_1015020" data-name="Trazado 1015020" d="M144.036,322.812a.5.5,0,1,1-.5-.5.5.5,0,0,1,.5.5" transform="translate(-63.018 -142)" fill="#5a95ff"/>
              <path id="Trazado_1015021" data-name="Trazado 1015021" d="M124.787,213.383a.91.91,0,0,1-.91-.91V166.7a.909.909,0,0,1,.91-.91h16.337a.909.909,0,1,1,0,1.819H125.7v44.868a.91.91,0,0,1-.91.91" transform="translate(-54.576 -73.04)" fill="#354adb"/>
              <path id="Trazado_1015022" data-name="Trazado 1015022" d="M127.342,251.155h-17.3a1.915,1.915,0,0,1,1.915-1.915h13.475a1.915,1.915,0,0,1,1.915,1.915" transform="translate(-48.479 -109.806)" fill="#173953"/>
              <path id="Trazado_1015023" data-name="Trazado 1015023" d="M149.492,167.909h-2.787a1.885,1.885,0,0,1-1.885-1.885v-.9a1.885,1.885,0,0,1,1.885-1.885h2.787Z" transform="translate(-63.802 -71.916)" fill="#5a95ff"/>
              <path id="Trazado_1015024" data-name="Trazado 1015024" d="M368.877,241.226a.91.91,0,0,1-.91-.91v-9.512H345.041a.91.91,0,1,1,0-1.819h23.836a.91.91,0,0,1,.91.91v10.421a.91.91,0,0,1-.91.91" transform="translate(-151.612 -100.883)" fill="#354adb"/>
              <path id="Trazado_1015025" data-name="Trazado 1015025" d="M347.318,230.9H350.1a1.885,1.885,0,0,0,1.885-1.885v-.9a1.885,1.885,0,0,0-1.885-1.885h-2.787Z" transform="translate(-153.016 -99.666)" fill="#5a95ff"/>
              <path id="Trazado_1015026" data-name="Trazado 1015026" d="M384.189,245.561v-2.787a1.885,1.885,0,0,1,1.885-1.885h.9a1.885,1.885,0,0,1,1.885,1.885v2.787Z" transform="translate(-169.26 -106.127)" fill="#5a95ff"/>
              <path id="Trazado_1015027" data-name="Trazado 1015027" d="M366.808,249.24a2.493,2.493,0,0,0-2.493,2.5l.06,42.651a2.465,2.465,0,0,0,2.469,2.462l21.631-.032a2.465,2.465,0,0,0,2.462-2.469l-.059-42.619a2.494,2.494,0,0,0-2.493-2.489Z" transform="translate(-160.504 -109.806)" fill="#173953"/>
              <path id="Trazado_1015028" data-name="Trazado 1015028" d="M363.617,265.29h0a.9.9,0,0,1-.9-.9l-.006-3.935a.9.9,0,0,1,.9-.9Z" transform="translate(-159.796 -114.349)" fill="#002029"/>
              <path id="Trazado_1015029" data-name="Trazado 1015029" d="M411.807,265.681h0a.738.738,0,0,0,.737-.739l0-3.2a.739.739,0,0,0-.739-.737Z" transform="translate(-181.424 -114.991)" fill="#002029"/>
              <path id="Trazado_1015030" data-name="Trazado 1015030" d="M363.634,276.94h0a.9.9,0,0,1-.9-.9l-.006-3.935a.9.9,0,0,1,.9-.9Z" transform="translate(-159.803 -119.481)" fill="#002029"/>
              <path id="Trazado_1015031" data-name="Trazado 1015031" d="M389.646,295.9l-16,.024h0l-3.4,0a1,1,0,0,1-.827-.435.881.881,0,0,1-.094-.168.966.966,0,0,1-.083-.4l-.012-8-.011-7.806-.015-9.456-.007-5.015-.013-8.493a1,1,0,0,1,1-1l7.8-.011,4.747-.007,6.853-.01a.983.983,0,0,1,.41.087,1,1,0,0,1,.586.8,1.069,1.069,0,0,1,.007.114l.012,7.848.012,8.591.008,5.122.025,17.208a1,1,0,0,1-1,1" transform="translate(-162.649 -112.397)" fill="#fff"/>
              <path id="Trazado_1015032" data-name="Trazado 1015032" d="M382.144,277.1a8.766,8.766,0,1,0,8.766,8.766,8.776,8.776,0,0,0-8.766-8.766m.352,12v-3.071h3.963a11.59,11.59,0,0,1-.468,3.071Zm2.483,3.5A9.765,9.765,0,0,0,386.5,289.8h2.67a8.029,8.029,0,0,1-5.249,3.921,8.928,8.928,0,0,0,1.055-1.127m.772-2.794a9.013,9.013,0,0,1-1.309,2.336,7.334,7.334,0,0,1-1.946,1.775V289.8Zm-3.255-8.258v-3.737c.1,0,.209.011.314.02a10.945,10.945,0,0,1,2.749,3.717Zm3.833,0a11.536,11.536,0,0,0-1.181-2.154,11.917,11.917,0,0,0-1.109-1.366,8.1,8.1,0,0,1,4.91,3.52Zm-3.833,3.776V282.25h3.35a10.07,10.07,0,0,1,.609,3.071Zm4.664,0a10.826,10.826,0,0,0-.566-3.071h2.755a7.971,7.971,0,0,1,.837,3.071Zm3.042.705a7.97,7.97,0,0,1-.677,3.071h-2.8a12.393,12.393,0,0,0,.439-3.071ZM377.644,289.1h-2.882a7.981,7.981,0,0,1-.677-3.071h3.121a12.418,12.418,0,0,0,.439,3.071m1.165-7.553a10.777,10.777,0,0,1,.981-1.735,10.41,10.41,0,0,1,1.778-1.99c.074-.005.148-.009.223-.012v3.737Zm2.982.7v3.071h-3.876a10.124,10.124,0,0,1,.608-3.071Zm-6.451-.7A8.089,8.089,0,0,1,380.354,278a11.833,11.833,0,0,0-1.132,1.39,11.507,11.507,0,0,0-1.181,2.154Zm6.451,4.482V289.1h-3.414a11.545,11.545,0,0,1-.467-3.071Zm-7.69-.705a7.961,7.961,0,0,1,.838-3.071h2.836a10.808,10.808,0,0,0-.566,3.071Zm3.766,4.482a9.765,9.765,0,0,0,1.523,2.794,8.9,8.9,0,0,0,1.081,1.15,8.136,8.136,0,0,1-5.357-3.943Zm3.924,0v4.061a8.3,8.3,0,0,1-3.172-4.061Z" transform="translate(-164.497 -122.078)" fill="#3263ff"/>
              <path id="Trazado_1015033" data-name="Trazado 1015033" d="M389.879,254.731l-1,1.531a1.516,1.516,0,0,1-1.266.685l-9.711.015a1.517,1.517,0,0,1-1.268-.681l-1.007-1.527a.289.289,0,0,1,.288-.289l13.678-.02a.29.29,0,0,1,.289.288" transform="translate(-165.487 -112.098)" fill="#173953"/>
              <path id="Trazado_1015034" data-name="Trazado 1015034" d="M387.633,256.14l-8.321.012a.307.307,0,0,1,0-.615l8.321-.012a.307.307,0,1,1,0,.615" transform="translate(-166.975 -112.575)" fill="#2a5b74"/>
              <path id="Trazado_1015035" data-name="Trazado 1015035" d="M397.3,255.671a.369.369,0,1,1-.29-.29.369.369,0,0,1,.29.29" transform="translate(-174.716 -112.509)" fill="#2a5b74"/>
            </g>
          </g>
        </g>
      </g>
    </g>
  </g>
</svg>
