<svg xmlns="http://www.w3.org/2000/svg" width="75.775" height="42.564" viewBox="0 0 75.775 42.564">
  <g id="Grupo_1194994" data-name="Grupo 1194994" transform="translate(-1173.225 -19753.436)">
    <path id="Trazado_1015337" data-name="Trazado 1015337" d="M9.438-3.8a4.254,4.254,0,0,1-.8,2.09,4.375,4.375,0,0,1-1.75,1.4A5.329,5.329,0,0,1,4.555.156a3.936,3.936,0,0,1-1.961-.52A3.443,3.443,0,0,1,1.277-1.8,5.312,5.312,0,0,1,.734-3.969a10.634,10.634,0,0,1,.2-2.391A7.578,7.578,0,0,1,1.84-8.9a5.666,5.666,0,0,1,1.551-1.758,4.679,4.679,0,0,1,2.891-.875,3.839,3.839,0,0,1,2.8,1.09A4.384,4.384,0,0,1,10.219-7.5L7.938-7.508a2.391,2.391,0,0,0-.43-1.578,1.752,1.752,0,0,0-1.336-.531,2.319,2.319,0,0,0-1.926.836A5.027,5.027,0,0,0,3.234-6.227a14.155,14.155,0,0,0-.219,2.445,2.434,2.434,0,0,0,.461,1.52,1.543,1.543,0,0,0,1.18.512,2.356,2.356,0,0,0,1.676-.5,2.625,2.625,0,0,0,.832-1.535Zm12.75-2.031H15.4l.328-1.844h6.789ZM21.6-2.445H14.813l.328-1.844H21.93Z" transform="translate(1172.5 19786)" fill="#12263f"/>
    <path id="Trazado_1015338" data-name="Trazado 1015338" d="M9.438-3.8a4.254,4.254,0,0,1-.8,2.09,4.375,4.375,0,0,1-1.75,1.4A5.329,5.329,0,0,1,4.555.156a3.936,3.936,0,0,1-1.961-.52A3.443,3.443,0,0,1,1.277-1.8,5.312,5.312,0,0,1,.734-3.969a10.634,10.634,0,0,1,.2-2.391A7.578,7.578,0,0,1,1.84-8.9a5.666,5.666,0,0,1,1.551-1.758,4.679,4.679,0,0,1,2.891-.875,3.839,3.839,0,0,1,2.8,1.09A4.384,4.384,0,0,1,10.219-7.5L7.938-7.508a2.391,2.391,0,0,0-.43-1.578,1.752,1.752,0,0,0-1.336-.531,2.319,2.319,0,0,0-1.926.836A5.027,5.027,0,0,0,3.234-6.227a14.155,14.155,0,0,0-.219,2.445,2.434,2.434,0,0,0,.461,1.52,1.543,1.543,0,0,0,1.18.512,2.356,2.356,0,0,0,1.676-.5,2.625,2.625,0,0,0,.832-1.535Z" transform="translate(1228.5 19774)" fill="#12263f"/>
    <path id="Trazado_1015339" data-name="Trazado 1015339" d="M3.508-8.461l-.187,1A3.042,3.042,0,0,1,5.781-8.609a2.028,2.028,0,0,1,1.766.875,3.526,3.526,0,0,1,.414,2.359L7.07,0h-2.2l.906-5.4a2.528,2.528,0,0,0,.016-.555.9.9,0,0,0-1-.82,1.9,1.9,0,0,0-1.555.8L2.18,0h-2.2L1.445-8.453Z" transform="translate(1213.5 19796)" fill="#12263f"/>
    <path id="Trazado_1014706" data-name="Trazado 1014706" d="M17.1,18.913l1.635-4.323H18.4a4.908,4.908,0,0,1-3.512,2.729,16.806,16.806,0,0,1-4.2.419H2.54L9.416,9.673c.095-.108.122-.149.122-.216,0-.027,0-.068-.095-.2L3.148.648h7.4a19.843,19.843,0,0,1,3.161.216,7.649,7.649,0,0,1,2.972,1.013A4.358,4.358,0,0,1,18.4,3.8h.338L17.1,0H1.135C.824,0,.811.014.77.095A3.826,3.826,0,0,0,.757.54L7.9,10.321l-7,8.2c-.135.162-.135.23-.135.243,0,.149.122.149.365.149Z" transform="translate(1205.743 19754)" fill="#12263f" stroke="#12263f" stroke-width="1.13"/>
    <path id="Trazado_1015340" data-name="Trazado 1015340" d="M0,0H11" transform="translate(1174 19771.914)" fill="none" stroke="#12263f" stroke-width="2"/>
    <path id="Trazado_1015341" data-name="Trazado 1015341" d="M0,0H49.5" transform="translate(1199.5 19780.5)" fill="none" stroke="#12263f" stroke-width="2"/>
  </g>
</svg>
