<svg xmlns="http://www.w3.org/2000/svg" xmlns:xlink="http://www.w3.org/1999/xlink" width="126.128" height="147.785" viewBox="0 0 126.128 147.785">
  <defs>
    <clipPath id="clip-path">
      <rect id="Rectángulo_461368" data-name="Rectángulo 461368" width="110.453" height="121.353" fill="none"/>
    </clipPath>
    <clipPath id="clip-path-2">
      <rect id="Rectángulo_461834" data-name="Rectángulo 461834" width="47.47" height="63.927" fill="#f59e0b" stroke="#707070" stroke-width="2"/>
    </clipPath>
  </defs>
  <g id="Grupo_1194865" data-name="Grupo 1194865" transform="translate(-890.5 -197.343)">
    <path id="Trazado_1013556" data-name="Trazado 1013556" d="M472.11,222.552a52.814,52.814,0,1,0,52.813-52.813,52.813,52.813,0,0,0-52.813,52.813" transform="translate(438.891 58.648)" fill="#2ed19b"/>
    <g id="Grupo_1194430" data-name="Grupo 1194430" transform="translate(890.5 197.343)">
      <g id="Grupo_1194429" data-name="Grupo 1194429" clip-path="url(#clip-path)">
        <path id="Trazado_1013477" data-name="Trazado 1013477" d="M59.6,0c1.526.7,7.324,6.321,7.932,7.766-.2,1.817-7.071,7.915-8.667,9.554-.066,1-.038,2.013-.039,3.016l11.329-.156a41.474,41.474,0,0,1,6.215.069c.561.079.923.1,1.208.669a1.67,1.67,0,0,1,.008,1.45c-.965.891-3.7.566-5.013.559A129.4,129.4,0,0,0,77.261,37.91c2.554.753,19.67,8.072,21.39,9.386A48.283,48.283,0,0,1,98.7,54.3q-.028,5.62.009,11.239c.058,17.685-.42,35.439.124,53.111l11.617.061-.011,2.62-46.579.017L0,121.328.03,118.8q6.661.065,13.319-.115l.075-51.421c.028-4.354-.474-14.152.337-17.834.29-1.314,1.507-2.139,2.553-2.878a47.383,47.383,0,0,1,5.813-3.2c4.474-2.286,9.138-4.387,13.389-7.067.044-1.722,1.061-13.812,1.536-14.966.9-2.191,11.39.259,13.287-1.108.947-.682.908-2.509,1.024-3.552A8.378,8.378,0,0,1,50.1,11.484C50.635,6.643,56.11,2.905,59.6,0" fill="#023057"/>
        <path id="Trazado_1013478" data-name="Trazado 1013478" d="M125.72,18.253a7.265,7.265,0,0,1-.044-2.284c.549-3.128,4.493-6.3,6.931-8.141l1.828,1.981c-2.785,3-5.827,5.582-8.716,8.444" transform="translate(-72.798 -4.537)" fill="#c0f1e1"/>
        <path id="Trazado_1013479" data-name="Trazado 1013479" d="M134.6,12.539a21.838,21.838,0,0,0,2.795,2.439c-2.535,2.884-5.331,5.534-8.034,8.258l.005,4.467-2.631.026c.127-1.812.72-5.015-.56-6.436-.095-.105-.194-.206-.291-.309,2.888-2.862,5.931-5.447,8.716-8.444" transform="translate(-72.958 -7.267)" fill="#2ed19b"/>
        <path id="Trazado_1013480" data-name="Trazado 1013480" d="M93.453,56.95a4.5,4.5,0,0,1,.254-2.074,90.157,90.157,0,0,1,10.136-.164l20.054-.063.55,2.116q-15.5-.061-30.994.185" transform="translate(-54.163 -31.674)" fill="#c0f1e1"/>
        <path id="Trazado_1013481" data-name="Trazado 1013481" d="M93.336,59.851q15.5-.246,30.994-.185l.031.189.559,2.322-31.175-.106-.342-.079a4.876,4.876,0,0,1-.066-2.142" transform="translate(-54.045 -34.574)" fill="#2ed19b"/>
        <path id="Trazado_1013482" data-name="Trazado 1013482" d="M137.025,71.65c4.772.006,9.552.071,14.323.016.9,2.82,1.723,5.694,2.776,8.458-1.693,1.392-15.975,13.649-17.027,13.741l-.179-.126q.207-11.044.108-22.09" transform="translate(-79.354 -41.527)" fill="#c0f1e1"/>
        <path id="Trazado_1013483" data-name="Trazado 1013483" d="M90.956,71.431q9.4-.018,18.8.09.1,11.045-.108,22.09c-4.983-3.122-15.838-9.765-19.779-13.849Z" transform="translate(-52.087 -41.399)" fill="#fff"/>
        <path id="Trazado_1013484" data-name="Trazado 1013484" d="M158.812,96.706l12.744,5.475c2.143.928,4.378,1.784,6.455,2.851l.032,69.655-36.586-.027,0-3.54-.11-60.351q6.063-5.034,12.265-9.9,2.574-2.115,5.2-4.168" transform="translate(-81.924 -56.049)" fill="#bbc3dc"/>
        <path id="Trazado_1013485" data-name="Trazado 1013485" d="M57.282,94.519c.713.766,1.567,1.442,2.351,2.137,6.21,4.638,12.682,9.066,19.164,13.318q.233,19.685.085,39.371c-.006,7.948.179,15.912-.013,23.858-.89.531-32.384.253-36.565.172l-4.274.019-.022-43.308c.006-8.356-.337-16.885.14-25.216,3.385-2.932,14.527-8.028,19.135-10.352" transform="translate(-21.963 -54.781)" fill="#bbc3dc"/>
        <path id="Trazado_1013486" data-name="Trazado 1013486" d="M120.895,242.022a2.631,2.631,0,0,1,1.95.653,1.622,1.622,0,0,1,.558,1.376c-.071.888-.63,1.3-1.285,1.788a2.819,2.819,0,0,1-1.854-.477,1.574,1.574,0,0,1-.6-1.372,2.722,2.722,0,0,1,1.231-1.968" transform="translate(-69.353 -140.271)" fill="#023057"/>
        <path id="Trazado_1013487" data-name="Trazado 1013487" d="M120.844,175.641a3.1,3.1,0,0,1,1.749.423,1.713,1.713,0,0,1,.736,1.321,2.717,2.717,0,0,1-1.1,2.073,2.463,2.463,0,0,1-2.07-.563,1.689,1.689,0,0,1-.544-1.382,2.537,2.537,0,0,1,1.232-1.873" transform="translate(-69.322 -101.798)" fill="#023057"/>
        <path id="Trazado_1013488" data-name="Trazado 1013488" d="M121.038,143.121q.249-.006.5,0a2.681,2.681,0,0,1,2.132.864,1.446,1.446,0,0,1,.265,1.308c-.161.639-.819,1.01-1.328,1.352a2.658,2.658,0,0,1-1.9-.283,1.592,1.592,0,0,1-.755-1.292,2.38,2.38,0,0,1,1.091-1.947" transform="translate(-69.518 -82.948)" fill="#023057"/>
        <path id="Trazado_1013489" data-name="Trazado 1013489" d="M120.561,209.1a2.8,2.8,0,0,1,2.186.465,1.637,1.637,0,0,1,.657,1.35,2.611,2.611,0,0,1-1.12,1.891,2.647,2.647,0,0,1-1.9-.313,1.754,1.754,0,0,1-.8-1.37,2.447,2.447,0,0,1,.971-2.023" transform="translate(-69.308 -121.177)" fill="#023057"/>
        <path id="Trazado_1013490" data-name="Trazado 1013490" d="M57.282,94.519c.713.766,1.567,1.442,2.351,2.137-1.65,2.35-4.343,3.35-6.4,5.235,1.181,4.181-.716,13.724-.043,18.612l-.193.98c-.787.042-1.574-.394-2.19.156a4.7,4.7,0,0,0,.014,1.769,3.6,3.6,0,0,0,1.978.274c.1.451.121.23-.093.66a2.529,2.529,0,0,0-1.662.444A5.223,5.223,0,0,0,50.8,127a1.476,1.476,0,0,0,.169.107c.694.32,1.264-.214,1.921.249l-.076.282c-.631.084-1.3.085-1.923.2l-.082,2.509c.624.295,1.775.048,2.137.475l-.208.429a3.147,3.147,0,0,0-1.78.41,5.461,5.461,0,0,0-.126,2.152,3.3,3.3,0,0,1,1.8.413c-.5.391-1.172.264-1.78.339a4.513,4.513,0,0,0,.206,2.283,3.55,3.55,0,0,0,1.682.259c.16.471.169.441-.039.892-.638.042-1.336-.079-1.767.491a1.253,1.253,0,0,0-.186,1.2c.32.4.406.63.927.735a5.508,5.508,0,0,0,.843.045l.368.128,0,.384a.917.917,0,0,1-.8.288,1.685,1.685,0,0,0-1.241.588,1.426,1.426,0,0,0-.008,1.289,1.067,1.067,0,0,0,.985.684c.187.027.552.044.75.055l.3.07-.1.48-.482.191c-.671,0-1.042-.085-1.571.409A3.027,3.027,0,0,0,51.278,147l.467.218c.445-.183.7-.246.914-.73a4.332,4.332,0,0,0,.169-1.116c.593,1.3.293,5.249.247,6.841l-.279,0,.189.475.069-.18-.2-.079a13.324,13.324,0,0,1-.2-1.461,2.655,2.655,0,0,0-1.764.594c-.2.509-.107.644.021,1.184l.308.325-.084.214a1.614,1.614,0,0,1-1.156.134l-.214-.3a4.364,4.364,0,0,0,.151-1.5,1.417,1.417,0,0,0-.9-.677,1.749,1.749,0,0,0-.908.4c-.359.3-.3.968-.356,1.425a5.2,5.2,0,0,1-.24.636l-.258-.089c-.2-.764-.426-1.513-.667-2.265a6.476,6.476,0,0,0-1.9-.38,5.381,5.381,0,0,1,1.986-.2,1.692,1.692,0,0,0,.3-.511,1.838,1.838,0,0,0-.074-1.621,2.7,2.7,0,0,0-1.854-.389,3.882,3.882,0,0,0-1.114-.02c-.071,1.624-.066,3.228-.018,4.852-.016,2.087.238,19.815-.269,20.324l-1.353.269-4.274.019-.022-43.308c.006-8.356-.337-16.885.14-25.216,3.385-2.932,14.527-8.028,19.135-10.352" transform="translate(-21.963 -54.781)" fill="#8b95b5"/>
        <g id="Grupo_1194862" data-name="Grupo 1194862" transform="translate(21.978 47.664)">
          <path id="Trazado_1013491" data-name="Trazado 1013491" d="M70.416,113.372a2.525,2.525,0,0,1-.079,1.792,1.15,1.15,0,0,1-.88.326c-.555-.386-.517-.412-.689-1.074Z" transform="translate(-61.835 -113.372)" fill="#334155"/>
          <path id="Trazado_1013492" data-name="Trazado 1013492" d="M57.174,120.469c-.015.658.127,1.346-.421,1.831a1.044,1.044,0,0,1-1.128.226,1.675,1.675,0,0,1-.619-.837,16.7,16.7,0,0,1,2.168-1.22" transform="translate(-53.859 -117.485)" fill="#334155"/>
          <path id="Trazado_1013493" data-name="Trazado 1013493" d="M68.742,119.506a3.624,3.624,0,0,1,1.617.144,3.8,3.8,0,0,1,.216,2.034,4.467,4.467,0,0,1-1.61-.17,3.9,3.9,0,0,1-.223-2.007" transform="translate(-61.807 -116.912)" fill="#334155"/>
          <path id="Trazado_1013494" data-name="Trazado 1013494" d="M68.657,221.513a3.662,3.662,0,0,1,1.51.211,3.949,3.949,0,0,1,.28,2.169,3.918,3.918,0,0,1-1.572-.159,4.175,4.175,0,0,1-.218-2.22" transform="translate(-61.748 -176.048)" fill="#334155"/>
          <path id="Trazado_1013495" data-name="Trazado 1013495" d="M68.852,150.076a2.6,2.6,0,0,1,1.5.27,4.013,4.013,0,0,1,.156,2.2,2.832,2.832,0,0,1-1.624-.349,3.525,3.525,0,0,1-.03-2.121" transform="translate(-61.794 -134.645)" fill="#334155"/>
          <path id="Trazado_1013496" data-name="Trazado 1013496" d="M68.853,126.51a3.78,3.78,0,0,1,1.507.174,4.218,4.218,0,0,1,.246,2.227,3.222,3.222,0,0,1-1.64-.23,3.9,3.9,0,0,1-.113-2.171" transform="translate(-61.827 -120.984)" fill="#334155"/>
          <path id="Trazado_1013497" data-name="Trazado 1013497" d="M55.616,150.012a4.371,4.371,0,0,1,.676.2,1.324,1.324,0,0,1,.589,1.083,1.813,1.813,0,0,1-.6,1.349q-.534-.134-1.066-.277a2.093,2.093,0,0,1-.5-1.223c.272-.7.264-.745.9-1.135" transform="translate(-53.689 -134.608)" fill="#334155"/>
          <path id="Trazado_1013498" data-name="Trazado 1013498" d="M55.083,158.429a3.848,3.848,0,0,1,1.668.205A3.182,3.182,0,0,1,57,160.642a3.633,3.633,0,0,1-1.733-.15,4.11,4.11,0,0,1-.181-2.062" transform="translate(-53.879 -139.484)" fill="#334155"/>
          <path id="Trazado_1013499" data-name="Trazado 1013499" d="M68.328,144.007a2.7,2.7,0,0,1,.626-1.857.93.93,0,0,1,1-.017,1.639,1.639,0,0,1,.524,1.182,1.568,1.568,0,0,1-.528,1.127l-1.008.233Z" transform="translate(-61.58 -129.962)" fill="#334155"/>
          <path id="Trazado_1013500" data-name="Trazado 1013500" d="M55.073,166.518a3.237,3.237,0,0,1,1.638.127,3.481,3.481,0,0,1,.247,2.071,9.646,9.646,0,0,1-1.735-.094c-.407-.574-.193-1.4-.151-2.1" transform="translate(-53.843 -144.148)" fill="#334155"/>
          <path id="Trazado_1013501" data-name="Trazado 1013501" d="M68.774,134.129a2.593,2.593,0,0,1,1.562.213,3.835,3.835,0,0,1,.151,2.295,2.579,2.579,0,0,1-1.715-.487,3.39,3.39,0,0,1,0-2.021" transform="translate(-61.744 -125.39)" fill="#334155"/>
          <path id="Trazado_1013502" data-name="Trazado 1013502" d="M55.026,142.018a4.081,4.081,0,0,1,.981.128c.534.2.6.432.845.9a3.309,3.309,0,0,1-.362,1.517l-1.132-.115a1.487,1.487,0,0,1-.69-1.009,1.832,1.832,0,0,1,.359-1.425" transform="translate(-53.647 -129.975)" fill="#334155"/>
          <path id="Trazado_1013503" data-name="Trazado 1013503" d="M55.112,126.674a5,5,0,0,1,1.659.136A4.088,4.088,0,0,1,57.1,129a3.913,3.913,0,0,1-1.8-.213,3.641,3.641,0,0,1-.187-2.111" transform="translate(-53.885 -121.076)" fill="#334155"/>
          <path id="Trazado_1013504" data-name="Trazado 1013504" d="M55.047,134.055a2.845,2.845,0,0,1,1.755.388,3.8,3.8,0,0,1,.142,2.086,3.171,3.171,0,0,1-1.757-.282,3.9,3.9,0,0,1-.14-2.191" transform="translate(-53.832 -125.359)" fill="#334155"/>
          <path id="Trazado_1013505" data-name="Trazado 1013505" d="M54.956,174.03a10.474,10.474,0,0,1,1.271.1,1.761,1.761,0,0,1,.81,1.01,2.459,2.459,0,0,1-.426,1.258,7.861,7.861,0,0,1-1.5.054c-.486-.541-.194-1.684-.157-2.427" transform="translate(-53.76 -148.528)" fill="#334155"/>
          <path id="Trazado_1013506" data-name="Trazado 1013506" d="M54.986,190.092a3.222,3.222,0,0,1,1.907.3,3.635,3.635,0,0,1,.037,2.014,3.8,3.8,0,0,1-1.67-.066,4.2,4.2,0,0,1-.274-2.248" transform="translate(-53.835 -157.833)" fill="#334155"/>
          <path id="Trazado_1013507" data-name="Trazado 1013507" d="M54.534,213.907a3.241,3.241,0,0,1,2.258.185,3.289,3.289,0,0,1-.684,2.314c-.363.076-.3.148-.531-.013-.884-.607-.866-1.524-1.042-2.486" transform="translate(-53.585 -171.573)" fill="#334155"/>
          <path id="Trazado_1013508" data-name="Trazado 1013508" d="M61.923,150.218a6.639,6.639,0,0,1,1.215.1,2.091,2.091,0,0,1,.683,1.31c-.156.511-.149.634-.558.964a2.6,2.6,0,0,1-1.6-.243,2.053,2.053,0,0,1-.517-1.357,1.27,1.27,0,0,1,.777-.771" transform="translate(-57.417 -134.727)" fill="#334155"/>
          <path id="Trazado_1013509" data-name="Trazado 1013509" d="M61.523,126.635a4.49,4.49,0,0,1,2.028.151,3.678,3.678,0,0,1,.223,2.155,4.194,4.194,0,0,1-2.033-.172,3.463,3.463,0,0,1-.218-2.134" transform="translate(-57.602 -121.035)" fill="#334155"/>
          <path id="Trazado_1013510" data-name="Trazado 1013510" d="M61.214,221.593a4.164,4.164,0,0,1,2.067.166,3.885,3.885,0,0,1,.233,2.187,4.664,4.664,0,0,1-2.057-.2,3.637,3.637,0,0,1-.243-2.153" transform="translate(-57.432 -176.067)" fill="#334155"/>
          <path id="Trazado_1013511" data-name="Trazado 1013511" d="M61.527,158.259a9.153,9.153,0,0,1,1.429,0,1.4,1.4,0,0,1,.755.9,3.93,3.93,0,0,1-.365,1.471l-1.362-.071c-.592-.365-.707-.4-1-1.02a2.38,2.38,0,0,1,.54-1.277" transform="translate(-57.325 -139.37)" fill="#334155"/>
          <path id="Trazado_1013512" data-name="Trazado 1013512" d="M61.3,190.143a4.322,4.322,0,0,1,2.2.154,4.033,4.033,0,0,1,.237,2.183,4.177,4.177,0,0,1-2.295-.309,3.7,3.7,0,0,1-.144-2.028" transform="translate(-57.465 -157.829)" fill="#334155"/>
          <path id="Trazado_1013513" data-name="Trazado 1013513" d="M61.321,134.183a2.732,2.732,0,0,1,2.118.337,3.387,3.387,0,0,1,.1,2.065,9.853,9.853,0,0,1-1.405-.053,1.376,1.376,0,0,1-1.065-.727,4.6,4.6,0,0,1,.249-1.623" transform="translate(-57.375 -125.401)" fill="#334155"/>
          <path id="Trazado_1013514" data-name="Trazado 1013514" d="M61.177,198.131a5.318,5.318,0,0,1,2.23.138,4.157,4.157,0,0,1,.254,2.2,5.086,5.086,0,0,1-2.186-.206,3.377,3.377,0,0,1-.3-2.133" transform="translate(-57.419 -162.468)" fill="#334155"/>
          <path id="Trazado_1013515" data-name="Trazado 1013515" d="M61.3,166.161a8.005,8.005,0,0,1,1.338-.081,1.206,1.206,0,0,1,1.015.573,6.35,6.35,0,0,1-.077,1.9,8.85,8.85,0,0,1-1.521-.081c-.551-.119-.639-.269-.927-.7a5.711,5.711,0,0,1,.171-1.614" transform="translate(-57.404 -143.915)" fill="#334155"/>
          <path id="Trazado_1013516" data-name="Trazado 1013516" d="M61.973,141.99a6.8,6.8,0,0,1,1.211.322,1.768,1.768,0,0,1,.516,1.313c-.085.611-.33.753-.783,1.09-.586-.077-1.095-.032-1.536-.479a1.637,1.637,0,0,1-.442-1.35,1.688,1.688,0,0,1,1.033-.9" transform="translate(-57.297 -129.958)" fill="#334155"/>
          <path id="Trazado_1013517" data-name="Trazado 1013517" d="M61.181,182.108a4.138,4.138,0,0,1,2.269.2,4.131,4.131,0,0,1,.2,2.27,5.2,5.2,0,0,1-2.214-.3,3.508,3.508,0,0,1-.255-2.174" transform="translate(-57.411 -153.177)" fill="#334155"/>
          <path id="Trazado_1013518" data-name="Trazado 1013518" d="M61.557,213.4a4.933,4.933,0,0,1,2.166.425,3.014,3.014,0,0,1-.391,2.027,1.62,1.62,0,0,1-1.333.226,1.749,1.749,0,0,1-.707-.734,2.219,2.219,0,0,1,.264-1.945" transform="translate(-57.423 -171.347)" fill="#334155"/>
          <path id="Trazado_1013519" data-name="Trazado 1013519" d="M61.274,174.217a3.465,3.465,0,0,1,2.164.247,3.983,3.983,0,0,1,.073,2.253,4.2,4.2,0,0,1-2.316-.481,2.51,2.51,0,0,1,.079-2.02" transform="translate(-57.341 -148.604)" fill="#334155"/>
          <path id="Trazado_1013520" data-name="Trazado 1013520" d="M61.4,205.693a7.325,7.325,0,0,1,1.439.061,1.72,1.72,0,0,1,.783.975,3.579,3.579,0,0,1-.388,1.57,4.063,4.063,0,0,1-1.724-.186,1.243,1.243,0,0,1-.709-1,2.919,2.919,0,0,1,.6-1.425" transform="translate(-57.216 -166.873)" fill="#334155"/>
          <path id="Trazado_1013521" data-name="Trazado 1013521" d="M63.728,116.93a2.451,2.451,0,0,1,.028.7,2.123,2.123,0,0,0,.073.729,1.8,1.8,0,0,1-.338,1.647,1.321,1.321,0,0,1-.758.495,1.492,1.492,0,0,1-1.026-.683,6.221,6.221,0,0,1-.115-1.612c.733-.383,1.432-.843,2.136-1.276" transform="translate(-57.672 -115.434)" fill="#334155"/>
          <path id="Trazado_1013522" data-name="Trazado 1013522" d="M54.141,205.814a2.952,2.952,0,0,1,1.325.174,1.12,1.12,0,0,1,.329,1.007,2.366,2.366,0,0,1-.881,1.311c-.5.145-.582.216-1.064.039a1.987,1.987,0,0,1-.342-1.26c.106-.427.129-.222-.066-.614a2.218,2.218,0,0,0-.246,1.382l0,.259-.212-.079a4.131,4.131,0,0,1-.309-.821,1.459,1.459,0,0,1,.185-1.139Z" transform="translate(-52.484 -166.943)" fill="#334155"/>
          <path id="Trazado_1013523" data-name="Trazado 1013523" d="M53.521,198.34a11.965,11.965,0,0,1,1.257-.1,2,2,0,0,1,.825,1.043,1.537,1.537,0,0,1-.281.952c-.257.362-.581.27-.994.322-.765-.1-1.384-.009-1.858-.723a.933.933,0,0,1-.078-1.021,1.751,1.751,0,0,1,1.13-.476" transform="translate(-52.277 -162.561)" fill="#334155"/>
          <path id="Trazado_1013524" data-name="Trazado 1013524" d="M52.705,182.312c.907.233,1.833-.288,2.7.091a4.1,4.1,0,0,1,.309,2.166,6.373,6.373,0,0,1-2.582-.229,3.579,3.579,0,0,1-.423-2.028" transform="translate(-52.525 -153.298)" fill="#334155"/>
        </g>
      </g>
    </g>
    <g id="Grupo_1194863" data-name="Grupo 1194863" transform="translate(958.765 281.201)" clip-path="url(#clip-path-2)">
      <path id="Trazado_1014707" data-name="Trazado 1014707" d="M47.47,23.735c0-1.5-2.807-2.7-3.087-4.109-.288-1.456,1.841-3.637,1.285-4.977-.565-1.363-3.618-1.4-4.429-2.608s.314-4.054-.722-5.089-3.868.1-5.089-.721S34.184,2.367,32.821,1.8c-1.34-.556-3.52,1.573-4.977,1.285C26.431,2.807,25.23,0,23.735,0s-2.7,2.807-4.109,3.087c-1.456.288-3.637-1.841-4.977-1.285-1.363.565-1.4,3.618-2.608,4.429s-4.054-.314-5.089.722.1,3.868-.721,5.089S2.367,13.287,1.8,14.649c-.555,1.34,1.573,3.52,1.285,4.977C2.807,21.039,0,22.24,0,23.735s2.807,2.7,3.087,4.109C3.374,29.3,1.246,31.481,1.8,32.821c.565,1.363,3.618,1.4,4.429,2.608s-.314,4.054.722,5.089,3.868-.1,5.089.721,1.246,3.864,2.608,4.429c1.34.555,3.52-1.573,4.977-1.285,1.413.28,2.614,3.087,4.109,3.087s2.7-2.807,4.109-3.087c1.456-.288,3.637,1.841,4.977,1.285,1.363-.565,1.4-3.618,2.608-4.429s4.054.314,5.089-.722-.1-3.868.721-5.089,3.864-1.246,4.429-2.608c.555-1.34-1.573-3.52-1.285-4.977.28-1.413,3.087-2.614,3.087-4.109M23.735,39.39A15.655,15.655,0,1,1,39.39,23.735,15.655,15.655,0,0,1,23.735,39.39" fill="#f59e0b" stroke="#334155" stroke-width="2"/>
      <path id="Trazado_1014708" data-name="Trazado 1014708" d="M160.454,146.473a13.981,13.981,0,1,1-13.981-13.981,13.981,13.981,0,0,1,13.981,13.981" transform="translate(-122.738 -122.738)" fill="#f59e0b" stroke="#334155" stroke-width="2"/>
      <path id="Trazado_1014709" data-name="Trazado 1014709" d="M56.735,578.838l-5.007,14.629a1.4,1.4,0,0,1-2.573.188l-3.03-5.886a1.4,1.4,0,0,0-1.6-.716l-5.768,1.483a1.4,1.4,0,0,1-1.561-2.062l8.038-13.827a.963.963,0,0,1,.405.1,1.122,1.122,0,0,1,.279.413,10.586,10.586,0,0,1,.44,1.124c.412,1.171.878,2.5,2.1,3.006a2.507,2.507,0,0,0,.967.186,6.275,6.275,0,0,0,2.6-.817,5.269,5.269,0,0,1,1.587-.588.287.287,0,0,1,.05,0,1.1,1.1,0,0,1,.4.266,10.483,10.483,0,0,1,.828.861,7.426,7.426,0,0,0,1.837,1.641" transform="translate(-34.282 -530.489)" fill="#f59e0b" stroke="#334155" stroke-width="2"/>
      <path id="Trazado_1014710" data-name="Trazado 1014710" d="M357.8,588.541l-5.768-1.483a1.4,1.4,0,0,0-1.6.716l-3.03,5.886a1.4,1.4,0,0,1-2.573-.188l-5.007-14.629a7.446,7.446,0,0,0,1.837-1.642,10.491,10.491,0,0,1,.828-.86,1.1,1.1,0,0,1,.4-.266.287.287,0,0,1,.051,0,5.274,5.274,0,0,1,1.587.588,6.276,6.276,0,0,0,2.6.817,2.506,2.506,0,0,0,.967-.186c1.224-.508,1.69-1.834,2.1-3.005a10.623,10.623,0,0,1,.44-1.123,1.119,1.119,0,0,1,.279-.413.962.962,0,0,1,.405-.1h0l8.037,13.827a1.4,1.4,0,0,1-1.561,2.062" transform="translate(-314.808 -530.494)" fill="#f59e0b" stroke="#334155" stroke-width="2"/>
      <path id="Trazado_1014711" data-name="Trazado 1014711" d="M229.776,269.046a1.424,1.424,0,0,1-1.007-.417l-3.948-3.948a1.424,1.424,0,0,1,2.014-2.014l2.941,2.941,5.808-5.808a1.424,1.424,0,1,1,2.014,2.014l-6.815,6.815a1.424,1.424,0,0,1-1.007.417" transform="translate(-207.883 -240.286)" fill="#334155"/>
    </g>
  </g>
</svg>
