<svg xmlns="http://www.w3.org/2000/svg" xmlns:xlink="http://www.w3.org/1999/xlink" width="133.925" height="112.804" viewBox="0 0 133.925 112.804">
  <defs>
    <clipPath id="clip-path">
      <rect id="Rectángulo_461353" data-name="Rectángulo 461353" width="133.925" height="112.804" fill="none"/>
    </clipPath>
  </defs>
  <g id="Grupo_1194397" data-name="Grupo 1194397" transform="translate(-1229.075 -293.695)">
    <path id="Trazado_1006039" data-name="Trazado 1006039" d="M472.11,220.782a51.043,51.043,0,1,0,51.043-51.043,51.043,51.043,0,0,0-51.043,51.043" transform="translate(777.723 129.659)" fill="#2ed19b"/>
    <g id="Grupo_1194396" data-name="Grupo 1194396" transform="translate(1229.075 293.695)">
      <g id="Grupo_1194395" data-name="Grupo 1194395" clip-path="url(#clip-path)">
        <path id="Trazado_1013121" data-name="Trazado 1013121" d="M61.937,210.038c4.392-.022,10.755-.473,14.946.07a3.729,3.729,0,0,1,.148,1.945c-3.937.027-11.345.522-14.906-.089a3.442,3.442,0,0,1-.188-1.925" transform="translate(-33.8 -114.595)" fill="#023057"/>
        <path id="Trazado_1013123" data-name="Trazado 1013123" d="M89.556,0a2.531,2.531,0,0,1,1.063.63A1.453,1.453,0,0,1,91,1.922C89.779,3.863,61.709,22.494,57.449,25.337l0,4.938,32.38.036c9.34-.014,19.017-.828,28.16,1.305.024-3.059.066-6.12.051-9.179a39.559,39.559,0,0,1,.11-6.542,5.059,5.059,0,0,1,.982-2.3,4.155,4.155,0,0,1,.284-.321,4.077,4.077,0,0,1,.317-.29,4.078,4.078,0,0,1,1.106-.649,3.962,3.962,0,0,1,.407-.135,4.126,4.126,0,0,1,.419-.092,4.065,4.065,0,0,1,.426-.047,4.357,4.357,0,0,1,.927.036,4.342,4.342,0,0,1,.455.091,4.378,4.378,0,0,1,.869.323,4.475,4.475,0,0,1,.4.228,4.332,4.332,0,0,1,.378.27,4.382,4.382,0,0,1,.347.308,4.294,4.294,0,0,1,1.185,2.272,44.986,44.986,0,0,1,.107,6.567q-.018,7.058.1,14.115c.161.124.319.251.472.385a26.691,26.691,0,0,1,7.721,10.829c1.935,5.431,2.026,14.259,2.589,20.214q1.658,16.9,3.062,33.831.514.384,1,.807a5.793,5.793,0,0,1,2.05,4.283,5.608,5.608,0,0,1-.081,1.165,5.563,5.563,0,0,1-.13.57,5.667,5.667,0,0,1-.188.553,5.6,5.6,0,0,1-.244.531,5.545,5.545,0,0,1-.3.5,5.831,5.831,0,0,1-.348.469,5.532,5.532,0,0,1-.395.431,6.607,6.607,0,0,1-3.56,1.794,71.62,71.62,0,0,1-8.853.049l-17.6-.02-60.627.018-12.283.05a42.92,42.92,0,0,1-6.552-.14,7.309,7.309,0,0,1-3.352-1.4,5.555,5.555,0,0,1-2.123-3.987A5.3,5.3,0,0,1,28.4,103a6.768,6.768,0,0,1,4.126-1.918c4.1-.533,10.761-.026,15.17-.044l39.259-.093c.053-3.2.34-6.43.171-9.633a26.1,26.1,0,0,0-8.564-18.574c-6.24-5.582-13.06-6.382-21.1-5.908C57.5,69.8,58,73.8,56.05,76.26a5.6,5.6,0,0,1-4.18,1.974,5.066,5.066,0,0,1-3.743-1.472,5.7,5.7,0,0,1-1.83-4.1c-1.255-.709-2.516-1.416-3.724-2.2A26.557,26.557,0,0,1,31.021,53.423c-2.321.009-11.417.521-12.823-.744-.409-2.274-.011-5.164-.053-7.522-.022-1.222-.176-2.792.7-3.716,2.8-1.01,9.655-.5,12.9-.494C33.8,35.5,36.631,30.516,41.6,27.247c1.43-.941,3.385-1.726,4.653-2.822.713-.616,1.3-2.548,2.208-3.447a4.644,4.644,0,0,1,3.46-1.533c1.91.08,3.477,1.4,4.742,2.7a115.8,115.8,0,0,0,11.128-7.193c3.853-2.638,7.769-5.185,11.6-7.852,3.387-2.356,6.7-4.858,10.165-7.1" transform="translate(-9.836)" fill="#023057"/>
        <path id="Trazado_1013124" data-name="Trazado 1013124" d="M245.59,32.454a2.812,2.812,0,0,1,1.479.635,6.285,6.285,0,0,1,.371,2.079c.088,1.717.117,16.014-.15,16.72l-.418-.138c-.843-.485-1.7-.947-2.552-1.42-.032-4.218-.532-12.13.058-15.99a2.513,2.513,0,0,1,1.211-1.886" transform="translate(-133.299 -17.723)" fill="#b9e0d9"/>
        <path id="Trazado_1013125" data-name="Trazado 1013125" d="M26.995,96.37a73.463,73.463,0,0,1,8.067-.015l-.007,7.068c-3.5.008-7.242.295-10.712-.037-.037-2.325.012-4.657.023-6.983Z" transform="translate(-13.286 -52.562)" fill="#bbc3dc"/>
        <path id="Trazado_1013126" data-name="Trazado 1013126" d="M24.366,96.547l2.629-.033c.664,2.051.308,4.8.226,6.932l-2.879.084c-.037-2.325.012-4.657.023-6.983" transform="translate(-13.286 -52.706)" fill="#fef9ef"/>
        <path id="Trazado_1013127" data-name="Trazado 1013127" d="M66.455,60.93q.076,5.871.026,11.742a34.364,34.364,0,0,0-6.28.335,5.515,5.515,0,0,0-1.874,1.942,8.5,8.5,0,0,1-3.788-1.129L55.36,72.1c2.654-5.1,5.662-8.95,11.1-11.172" transform="translate(-29.784 -33.274)" fill="#104936"/>
        <path id="Trazado_1013128" data-name="Trazado 1013128" d="M55.36,85.543c1.579.132,3.473.034,4.841.905a5.515,5.515,0,0,0-1.874,1.942,8.5,8.5,0,0,1-3.788-1.129Z" transform="translate(-29.784 -46.715)" fill="#bbc3dc"/>
        <path id="Trazado_1013129" data-name="Trazado 1013129" d="M53.912,90.659l.176-1.33a8.5,8.5,0,0,0,3.788,1.129,20.918,20.918,0,0,0-.194,2.893,3.217,3.217,0,0,0,1.652.328c.584-.588.6-1.617.927-2.414,1.334-1.1,4.031-.662,5.74-.626l-.024,11.989c-1.331.027-3.959.415-5.028-.53-.962-.851-.81-2.526-.839-3.7-2.1-.192-4.18-.285-6.282-.351.012-2.376-.316-5.064.084-7.392" transform="translate(-29.332 -48.783)" fill="#bbc3dc"/>
        <path id="Trazado_1013130" data-name="Trazado 1013130" d="M54.141,90.659l.176-1.33A8.5,8.5,0,0,0,58.1,90.458a20.918,20.918,0,0,0-.194,2.893c-1.1-.055-2.477.06-3.382-.622a3.028,3.028,0,0,1-.388-2.07" transform="translate(-29.561 -48.783)" fill="#fff"/>
        <path id="Trazado_1013131" data-name="Trazado 1013131" d="M53.363,114.09l3.771.011a6.252,6.252,0,0,0,1.384,3.36c1.709,1.73,5.031,1.278,7.286,1.286v13a18.728,18.728,0,0,1-6.614-4.593c-3.459-3.583-5.932-8-5.827-13.063" transform="translate(-29.14 -62.305)" fill="#104936"/>
        <path id="Trazado_1013132" data-name="Trazado 1013132" d="M88.587,49.127q.452.051.9.132a2.79,2.79,0,0,1,2.206,1.274,5.549,5.549,0,0,1,.315,2.4c.137,5.116.218,46.468-.383,47.922A3.037,3.037,0,0,1,89.8,102.5q-.253-.01-.5-.03a2.966,2.966,0,0,1-2.278-1.1,3.266,3.266,0,0,1-.466-1.877c-.187-3.592-.012-7.26-.018-10.859l-.084-18.959V57.7a32.467,32.467,0,0,1,.225-6.44,3.779,3.779,0,0,1,1.91-2.131" transform="translate(-47.185 -26.828)" fill="#ecf2fb"/>
        <path id="Trazado_1013133" data-name="Trazado 1013133" d="M104.96,137.066q1.76-.041,3.52-.058c8.568-.087,16.18,1.794,22.446,8.016,7.039,6.989,8.757,15.513,8.795,25.035l45.034.18a27.114,27.114,0,0,1,.238,5.439l-47.687.059c.111-9.329.1-17.9-5.619-25.823q-.208-.293-.423-.581t-.439-.568q-.223-.281-.454-.556t-.469-.544q-.238-.269-.484-.531t-.5-.517q-.253-.255-.512-.5t-.526-.49q-.266-.242-.538-.476t-.551-.46q-.278-.227-.563-.446t-.576-.43q-.291-.211-.587-.414t-.6-.4q-.3-.2-.608-.382t-.619-.365q-.312-.178-.629-.348t-.638-.331q-.321-.161-.646-.313t-.655-.3q-.33-.144-.662-.278t-.67-.26q-.337-.125-.676-.241t-.683-.223q-.342-.107-.689-.2t-.694-.186q-.348-.088-.7-.167t-.7-.148q-.353-.069-.707-.128t-.71-.109q-.356-.05-.713-.09t-.715-.07c-2.361-.177-4.833.288-7.153-.09-.38-.527-.241-1.068-.24-1.7" transform="translate(-57.304 -74.818)" fill="#b9e0d9"/>
        <path id="Trazado_1013134" data-name="Trazado 1013134" d="M46.054,228.169c5.927-.2,11.922-.021,17.857-.02l34.219.023,36.023.038c5.315,0,10.686-.189,15.991-.046a6.009,6.009,0,0,1,4.375,1.578,1.912,1.912,0,0,1,.527,1.651,4.775,4.775,0,0,1-2.283,2.8c-6.363.534-13.685.074-20.146.069l-39.495.011-31.778-.023H52.62a45.175,45.175,0,0,1-4.7.054,5.041,5.041,0,0,1-3.526-1.686,2.125,2.125,0,0,1-.472-1.8,4.441,4.441,0,0,1,2.134-2.643" transform="translate(-23.957 -124.551)" fill="#1e3a8a"/>
        <path id="Trazado_1013135" data-name="Trazado 1013135" d="M104.941,72.9l6.535.04,32.082.048c5.548.005,13.131-.6,18.428.537a25.414,25.414,0,0,1,12.827,6.716q.464.458.9.945t.838,1q.4.513.774,1.049t.708,1.095q.337.558.639,1.137t.566,1.174q.265.6.492,1.207t.416,1.236c1.381,4.689,1.439,12.316,1.9,17.378.79,8.651,1.841,17.3,2.45,25.968H142.361c-.5-9.711-3.392-18.624-10.794-25.347q-.483-.442-.986-.862t-1.024-.816q-.521-.4-1.059-.769t-1.093-.721q-.555-.348-1.125-.671t-1.154-.62q-.583-.3-1.181-.567t-1.2-.513q-.608-.243-1.226-.458t-1.246-.4q-.628-.187-1.263-.346t-1.277-.289q-.642-.13-1.289-.231t-1.3-.173q-.651-.072-1.3-.115t-1.308-.056c-2.505-.163-5.08-.064-7.593-.069Z" transform="translate(-57.304 -39.773)" fill="#c1c5cb"/>
        <path id="Trazado_1013136" data-name="Trazado 1013136" d="M166.017,85.979a3.007,3.007,0,0,1,1.263.456c.831,1.554.7,4.2.383,5.883-.126.673-.343.82-.877,1.223a2.207,2.207,0,0,1-1.223-.529,6.335,6.335,0,0,1-.6-2.839c-.026-1.559-.034-3.033,1.055-4.193" transform="translate(-90.082 -46.953)" fill="#023057"/>
        <path id="Trazado_1013137" data-name="Trazado 1013137" d="M182.385,86.056a2.116,2.116,0,0,1,1.558.438c.8,1.492.61,3.131.451,4.743a4.448,4.448,0,0,1-.735,2.4,2.8,2.8,0,0,1-1.289-.4c-.664-.487-.83-2.087-.852-2.871-.039-1.354-.064-3.269.867-4.31" transform="translate(-99.119 -46.995)" fill="#023057"/>
        <path id="Trazado_1013138" data-name="Trazado 1013138" d="M199.241,85.945a2.556,2.556,0,0,1,1.678.588,7.459,7.459,0,0,1,.481,4.529,5.239,5.239,0,0,1-.659,2.463,2.1,2.1,0,0,1-1.556-.463c-.842-1.507-.638-3.126-.526-4.771a4.1,4.1,0,0,1,.581-2.346" transform="translate(-108.43 -46.935)" fill="#023057"/>
        <path id="Trazado_1013139" data-name="Trazado 1013139" d="M148.963,86.545a2.586,2.586,0,0,1,1.565.565,6.857,6.857,0,0,1,.517,2.624c0,1.468-.026,3.092-1.131,4.139a2.16,2.16,0,0,1-1.477-.529A6.188,6.188,0,0,1,147.917,91c-.077-1.544-.01-3.3,1.046-4.455" transform="translate(-80.765 -47.262)" fill="#023057"/>
        <path id="Trazado_1013140" data-name="Trazado 1013140" d="M202.7,146.506a3.721,3.721,0,0,1,1.25.295,4.66,4.66,0,0,1,.748,2.8c.138,1.907.209,4.482-1.068,5.952a6.262,6.262,0,0,1-.979-.3,3.209,3.209,0,0,1-.809-2.15c-.216-1.861-.326-5.1.859-6.6" transform="translate(-110.152 -80.007)" fill="#023057"/>
        <path id="Trazado_1013141" data-name="Trazado 1013141" d="M197.266,181.175c2.039.055,6.046-.6,7.788.3.6.307.625.427.783,1.024a3.008,3.008,0,0,1-.868,1.472c-2.217.043-6.443.649-8.3-.482a1.374,1.374,0,0,1-.322-1.263c.14-.6.444-.738.914-1.051" transform="translate(-107.202 -98.842)" fill="#023057"/>
        <path id="Trazado_1013142" data-name="Trazado 1013142" d="M230.485,130.324a9.7,9.7,0,0,1,5.037,1.282q.2.116.393.243t.38.262q.187.135.367.281t.353.3q.172.153.338.315t.322.332q.157.17.305.347t.287.362q.14.185.27.375t.251.388q.12.2.231.4t.211.411q.1.208.191.421t.169.43q.08.217.148.438t.126.444q.059.233.108.468t.084.473c.024.158.044.318.06.477s.028.319.036.479.012.32.011.481,0,.32-.012.481-.02.32-.037.479-.036.319-.061.477-.052.316-.084.473-.068.313-.108.468-.084.31-.132.463-.1.305-.155.455-.114.3-.177.447-.129.293-.2.438-.144.286-.221.427-.158.279-.243.415c-1.663,2.662-4.116,3.722-7.049,4.366-2.5-.012-4.672-.279-6.776-1.808q-.185-.135-.362-.28t-.347-.3q-.17-.153-.331-.315t-.315-.332q-.153-.17-.3-.348t-.279-.363q-.135-.185-.26-.376t-.24-.389q-.115-.2-.219-.4t-.2-.412q-.094-.208-.177-.421t-.155-.43q-.072-.217-.133-.438t-.11-.444q-.049-.223-.087-.449t-.064-.453c-.02-.163-.035-.326-.046-.49s-.019-.328-.022-.492,0-.328,0-.492.015-.328.029-.491.031-.326.054-.489.048-.325.078-.486.065-.322.1-.481.081-.318.127-.475.1-.314.152-.468.113-.308.175-.46.128-.3.2-.45.143-.3.221-.44.158-.287.243-.428.173-.279.265-.415.187-.27.285-.4.2-.26.305-.386a9.836,9.836,0,0,1,6.979-3.492" transform="translate(-120.833 -71.167)" fill="#023057"/>
        <path id="Trazado_1013143" data-name="Trazado 1013143" d="M233.169,136.3a8.084,8.084,0,0,1,4.022.855,6.67,6.67,0,0,1,1.6,1.167q.235.233.446.488a6.612,6.612,0,0,1,.4.53q.185.274.341.566t.283.6q.127.306.222.623a6.264,6.264,0,0,1,.159.63q.063.319.095.643a6.456,6.456,0,0,1-.007,1.3,6.376,6.376,0,0,1-.1.642q-.067.318-.166.628a6.321,6.321,0,0,1-.229.608,6.491,6.491,0,0,1-.289.582,7.38,7.38,0,0,1-4.987,3.423,7.461,7.461,0,0,1-4.3-.826,6.483,6.483,0,0,1-1.078-.767,6.486,6.486,0,0,1-1.27-1.519,6.437,6.437,0,0,1-.312-.584,6.553,6.553,0,0,1-.251-.613,6.438,6.438,0,0,1-.187-.635q-.08-.326-.127-.658a6.686,6.686,0,0,1-.062-.667q-.015-.335,0-.67t.069-.667q.051-.332.134-.657t.2-.64q.114-.315.259-.618t.319-.59a7.16,7.16,0,0,1,4.828-3.17" transform="translate(-124.157 -74.43)" fill="#ecf2fb"/>
      </g>
    </g>
  </g>
</svg>
