<svg xmlns="http://www.w3.org/2000/svg" xmlns:xlink="http://www.w3.org/1999/xlink" width="188" height="154.85" viewBox="0 0 188 154.85">
  <defs>
    <clipPath id="clip-path">
      <rect id="Rectángulo_461904" data-name="Rectángulo 461904" width="188" height="154.85" fill="none"/>
    </clipPath>
  </defs>
  <g id="Grupo_1194966" data-name="Grupo 1194966" transform="translate(-186 -9650.037)">
    <rect id="Rectángulo_461799" data-name="Rectángulo 461799" width="188" height="107" rx="20" transform="translate(186 9697)" fill="#334155"/>
    <g id="Grupo_1194965" data-name="Grupo 1194965" transform="translate(186 9650.037)">
      <g id="Grupo_1194964" data-name="Grupo 1194964" clip-path="url(#clip-path)">
        <path id="Trazado_1015128" data-name="Trazado 1015128" d="M193.6,296.243H25.06a3.4,3.4,0,0,1-3.4-3.4V291.4H197v1.433a3.4,3.4,0,0,1-3.4,3.4" transform="translate(-11.979 -161.192)" fill="#29275f"/>
        <path id="Trazado_1015129" data-name="Trazado 1015129" d="M178.71,231.66H39.948l-18.293,26.7H197Z" transform="translate(-11.979 -128.144)" fill="#fff"/>
        <path id="Trazado_1015130" data-name="Trazado 1015130" d="M199.054,34.686H65.069A2.319,2.319,0,0,0,62.75,37v85.7H201.372V37a2.319,2.319,0,0,0-2.319-2.319" transform="translate(-34.711 -19.187)" fill="#29275f"/>
        <rect id="Rectángulo_461890" data-name="Rectángulo 461890" width="130.138" height="73.894" transform="translate(32.282 22.794)" fill="#67a4e9"/>
        <path id="Trazado_1015131" data-name="Trazado 1015131" d="M193.184,296.163H24.644a3.744,3.744,0,0,1-3.74-3.74V290.99a.335.335,0,0,1,.335-.335H196.588a.335.335,0,0,1,.335.335v1.433a3.744,3.744,0,0,1-3.74,3.74m-171.61-4.838v1.1a3.073,3.073,0,0,0,3.07,3.07h168.54a3.073,3.073,0,0,0,3.069-3.07v-1.1Z" transform="translate(-11.563 -160.778)" fill="#29275f"/>
        <path id="Trazado_1015132" data-name="Trazado 1015132" d="M196.588,258.277H21.239a.335.335,0,0,1-.277-.525l18.294-26.7a.335.335,0,0,1,.276-.146H178.294a.336.336,0,0,1,.277.146l18.294,26.7a.335.335,0,0,1-.277.525m-174.713-.67H195.952L178.118,231.58H39.709Z" transform="translate(-11.563 -127.729)" fill="#29275f"/>
        <path id="Trazado_1015133" data-name="Trazado 1015133" d="M200.957,122.623H62.335a.335.335,0,0,1-.335-.335V36.59a2.657,2.657,0,0,1,2.654-2.654H198.639a2.657,2.657,0,0,1,2.654,2.654v85.7a.335.335,0,0,1-.335.335m-138.287-.67H200.622V36.59a1.986,1.986,0,0,0-1.984-1.984H64.654A1.986,1.986,0,0,0,62.67,36.59Z" transform="translate(-34.296 -18.772)" fill="#29275f"/>
        <path id="Trazado_1015134" data-name="Trazado 1015134" d="M201.967,124.826H71.83a.335.335,0,0,1-.335-.335V50.6a.335.335,0,0,1,.335-.335H201.967a.335.335,0,0,1,.335.335v73.894a.335.335,0,0,1-.335.335m-129.8-.67H201.633V50.933H72.165Z" transform="translate(-39.548 -27.803)" fill="#29275f"/>
        <rect id="Rectángulo_461891" data-name="Rectángulo 461891" width="71.305" height="3.239" transform="translate(61.698 99.748)" fill="#fff"/>
        <path id="Trazado_1015135" data-name="Trazado 1015135" d="M198.925,39.964a2.184,2.184,0,1,1-2.184-2.184,2.184,2.184,0,0,1,2.184,2.184" transform="translate(-107.62 -20.898)" fill="#67a4e9"/>
        <path id="Trazado_1015136" data-name="Trazado 1015136" d="M211.466,277.017H161.178a.335.335,0,0,1-.277-.525l5.246-7.656a.335.335,0,0,1,.277-.146h39.8a.337.337,0,0,1,.277.146l5.246,7.656a.335.335,0,0,1-.277.525m-49.652-.67H210.83l-4.787-6.986H166.6Z" transform="translate(-88.971 -148.627)" fill="#29275f"/>
        <path id="Trazado_1015137" data-name="Trazado 1015137" d="M91.4,241.6H82.126a.335.335,0,0,1-.292-.5l2.38-4.236a.335.335,0,0,1,.292-.171h8.91a.335.335,0,0,1,.3.479L91.7,241.412a.335.335,0,0,1-.3.191m-8.7-.67h8.49l1.7-3.565H84.7Z" transform="translate(-45.243 -130.93)" fill="#29275f"/>
        <path id="Trazado_1015138" data-name="Trazado 1015138" d="M127.232,241.6h-9.274a.335.335,0,0,1-.31-.463L119.4,236.9a.335.335,0,0,1,.31-.207h8.91a.334.334,0,0,1,.319.439l-1.388,4.236a.335.335,0,0,1-.319.231m-8.772-.67h8.53l1.168-3.565h-8.223Z" transform="translate(-65.064 -130.93)" fill="#29275f"/>
        <path id="Trazado_1015139" data-name="Trazado 1015139" d="M163.066,241.6h-9.274a.336.336,0,0,1-.324-.421l1.123-4.236a.335.335,0,0,1,.324-.249h8.91a.335.335,0,0,1,.33.394l-.76,4.236a.335.335,0,0,1-.33.276m-8.838-.67h8.558l.64-3.565h-8.251Z" transform="translate(-84.886 -130.93)" fill="#29275f"/>
        <path id="Trazado_1015140" data-name="Trazado 1015140" d="M198.9,241.6h-9.274a.336.336,0,0,1-.333-.374l.5-4.235a.335.335,0,0,1,.333-.3h8.91a.335.335,0,0,1,.335.345l-.132,4.236a.335.335,0,0,1-.335.325m-8.9-.67h8.573l.111-3.565H190.42Z" transform="translate(-104.707 -130.93)" fill="#29275f"/>
        <path id="Trazado_1015141" data-name="Trazado 1015141" d="M234.568,241.6h-9.274a.336.336,0,0,1-.335-.325l-.132-4.236a.334.334,0,0,1,.335-.345h8.911a.335.335,0,0,1,.332.3l.5,4.236a.334.334,0,0,1-.333.374m-8.949-.67h8.573l-.418-3.565h-8.267Z" transform="translate(-124.364 -130.93)" fill="#29275f"/>
        <path id="Trazado_1015142" data-name="Trazado 1015142" d="M269.624,241.6H260.35a.335.335,0,0,1-.33-.276l-.76-4.236a.335.335,0,0,1,.33-.394h8.91a.335.335,0,0,1,.324.249l1.124,4.236a.335.335,0,0,1-.324.421m-8.993-.67h8.557l-.946-3.565H259.99Z" transform="translate(-143.408 -130.93)" fill="#29275f"/>
        <path id="Trazado_1015143" data-name="Trazado 1015143" d="M304.681,241.6h-9.274a.336.336,0,0,1-.319-.231l-1.387-4.236a.334.334,0,0,1,.319-.439h8.91a.334.334,0,0,1,.31.207l1.752,4.236a.335.335,0,0,1-.31.463m-9.031-.67h8.529l-1.474-3.565h-8.223Z" transform="translate(-162.453 -130.93)" fill="#29275f"/>
        <path id="Trazado_1015144" data-name="Trazado 1015144" d="M339.736,241.6h-9.274a.334.334,0,0,1-.3-.192l-2.016-4.235a.335.335,0,0,1,.3-.479h8.91a.334.334,0,0,1,.292.171l2.38,4.236a.335.335,0,0,1-.293.5m-9.062-.67h8.49l-2-3.565h-8.184Z" transform="translate(-181.497 -130.93)" fill="#29275f"/>
        <path id="Trazado_1015145" data-name="Trazado 1015145" d="M68.94,254.9H59.666a.335.335,0,0,1-.292-.5l2.38-4.236a.335.335,0,0,1,.292-.171h8.91a.335.335,0,0,1,.3.479l-2.016,4.236a.335.335,0,0,1-.3.191m-8.7-.67h8.489l1.7-3.566H62.242Z" transform="translate(-32.819 -138.286)" fill="#29275f"/>
        <path id="Trazado_1015146" data-name="Trazado 1015146" d="M104.773,254.9H95.5a.335.335,0,0,1-.31-.463l1.752-4.236a.335.335,0,0,1,.31-.207h8.91a.336.336,0,0,1,.319.44l-1.388,4.236a.335.335,0,0,1-.319.231M96,254.23h8.529l1.168-3.566H97.475Z" transform="translate(-52.641 -138.286)" fill="#29275f"/>
        <path id="Trazado_1015147" data-name="Trazado 1015147" d="M140.606,254.9h-9.273a.335.335,0,0,1-.324-.421l1.123-4.236a.336.336,0,0,1,.324-.249h8.91a.335.335,0,0,1,.33.395l-.76,4.236a.335.335,0,0,1-.33.276m-8.838-.67h8.557l.64-3.566h-8.251Z" transform="translate(-72.462 -138.286)" fill="#29275f"/>
        <path id="Trazado_1015148" data-name="Trazado 1015148" d="M176.44,254.9h-9.274a.336.336,0,0,1-.333-.374l.5-4.236a.336.336,0,0,1,.333-.3h8.91a.335.335,0,0,1,.335.346l-.132,4.236a.335.335,0,0,1-.335.325m-8.9-.67h8.572l.111-3.566H167.96Z" transform="translate(-92.283 -138.286)" fill="#29275f"/>
        <path id="Trazado_1015149" data-name="Trazado 1015149" d="M212.108,254.9h-9.273a.336.336,0,0,1-.335-.325l-.132-4.236a.335.335,0,0,1,.335-.346h8.91a.336.336,0,0,1,.333.3l.5,4.236a.334.334,0,0,1-.333.374m-8.948-.67h8.572l-.417-3.566h-8.266Z" transform="translate(-111.941 -138.286)" fill="#29275f"/>
        <path id="Trazado_1015150" data-name="Trazado 1015150" d="M247.164,254.9h-9.273a.335.335,0,0,1-.33-.276l-.76-4.236a.335.335,0,0,1,.33-.395h8.91a.336.336,0,0,1,.324.249l1.123,4.237a.334.334,0,0,1-.324.42m-8.993-.67h8.558l-.946-3.566h-8.252Z" transform="translate(-130.985 -138.286)" fill="#29275f"/>
        <path id="Trazado_1015151" data-name="Trazado 1015151" d="M282.221,254.9h-9.273a.336.336,0,0,1-.319-.231l-1.388-4.236a.335.335,0,0,1,.319-.44h8.91a.335.335,0,0,1,.31.207l1.751,4.236a.335.335,0,0,1-.31.463m-9.03-.67h8.529l-1.474-3.566h-8.224Z" transform="translate(-150.029 -138.286)" fill="#29275f"/>
        <path id="Trazado_1015152" data-name="Trazado 1015152" d="M317.276,254.9H308a.336.336,0,0,1-.3-.191l-2.016-4.236a.336.336,0,0,1,.3-.479h8.91a.335.335,0,0,1,.292.171l2.379,4.236a.335.335,0,0,1-.293.5m-9.062-.67H316.7l-2-3.566h-8.184Z" transform="translate(-169.073 -138.286)" fill="#29275f"/>
        <path id="Trazado_1015153" data-name="Trazado 1015153" d="M352.367,254.9h-9.273a.336.336,0,0,1-.3-.191l-2.016-4.236a.336.336,0,0,1,.3-.479h8.91a.335.335,0,0,1,.292.171l2.38,4.236a.335.335,0,0,1-.293.5m-9.062-.67h8.489l-2-3.566h-8.183Z" transform="translate(-188.484 -138.286)" fill="#29275f"/>
        <path id="Trazado_1015154" data-name="Trazado 1015154" d="M208.779,12.285V84.251a7.755,7.755,0,0,1-7.755,7.755H140.168a7.755,7.755,0,0,1-7.755-7.755V12.285a7.755,7.755,0,0,1,7.755-7.755h60.857a7.755,7.755,0,0,1,7.755,7.755" transform="translate(-73.245 -2.506)" fill="#fff"/>
        <path id="Trazado_1015155" data-name="Trazado 1015155" d="M245.613,11.914A1.918,1.918,0,1,1,243.695,10a1.918,1.918,0,0,1,1.918,1.918" transform="translate(-133.74 -5.529)" fill="#88c8fc"/>
        <path id="Trazado_1015156" data-name="Trazado 1015156" d="M264.472,11.914A1.918,1.918,0,1,1,262.554,10a1.918,1.918,0,0,1,1.918,1.918" transform="translate(-144.172 -5.529)" fill="#508dd2"/>
        <path id="Trazado_1015157" data-name="Trazado 1015157" d="M283.331,11.914A1.918,1.918,0,1,1,281.413,10a1.918,1.918,0,0,1,1.918,1.918" transform="translate(-154.604 -5.529)" fill="#29275f"/>
        <path id="Trazado_1015158" data-name="Trazado 1015158" d="M200.609,91.926H139.752a8.1,8.1,0,0,1-8.09-8.09V11.87a8.1,8.1,0,0,1,8.09-8.09h60.857a8.1,8.1,0,0,1,8.09,8.09V83.836a8.1,8.1,0,0,1-8.09,8.09M139.752,4.45a7.428,7.428,0,0,0-7.42,7.419V83.836a7.428,7.428,0,0,0,7.42,7.42h60.857a7.428,7.428,0,0,0,7.419-7.42V11.87a7.428,7.428,0,0,0-7.419-7.419Z" transform="translate(-72.83 -2.091)" fill="#29275f"/>
        <path id="Trazado_1015159" data-name="Trazado 1015159" d="M208.363,21.8H132a.335.335,0,0,1,0-.67h76.366a.335.335,0,0,1,0,.67" transform="translate(-72.83 -11.69)" fill="#29275f"/>
        <path id="Trazado_1015160" data-name="Trazado 1015160" d="M170.792,19.557,162.5,16.045,154.2,19.557V0h16.588Z" transform="translate(-85.298 0)" fill="#508dd2"/>
        <rect id="Rectángulo_461892" data-name="Rectángulo 461892" width="19.239" height="20.778" transform="translate(64.855 24.155)" fill="#88c8fc"/>
        <rect id="Rectángulo_461893" data-name="Rectángulo 461893" width="43.098" height="1.765" transform="translate(86.749 24.155)" fill="#c7c7c7"/>
        <rect id="Rectángulo_461894" data-name="Rectángulo 461894" width="43.098" height="1.765" transform="translate(86.749 28.882)" fill="#c7c7c7"/>
        <rect id="Rectángulo_461895" data-name="Rectángulo 461895" width="43.098" height="1.765" transform="translate(86.749 33.609)" fill="#c7c7c7"/>
        <rect id="Rectángulo_461896" data-name="Rectángulo 461896" width="43.098" height="1.765" transform="translate(86.749 38.336)" fill="#c7c7c7"/>
        <rect id="Rectángulo_461897" data-name="Rectángulo 461897" width="24.908" height="1.765" transform="translate(86.749 43.062)" fill="#c7c7c7"/>
        <rect id="Rectángulo_461898" data-name="Rectángulo 461898" width="64.992" height="1.765" transform="translate(64.854 52.241)" fill="#c7c7c7"/>
        <rect id="Rectángulo_461899" data-name="Rectángulo 461899" width="64.992" height="1.765" transform="translate(64.854 56.968)" fill="#c7c7c7"/>
        <rect id="Rectángulo_461900" data-name="Rectángulo 461900" width="64.992" height="1.765" transform="translate(64.854 61.695)" fill="#c7c7c7"/>
        <rect id="Rectángulo_461901" data-name="Rectángulo 461901" width="64.992" height="1.765" transform="translate(64.854 66.422)" fill="#c7c7c7"/>
        <rect id="Rectángulo_461902" data-name="Rectángulo 461902" width="46.802" height="1.765" transform="translate(64.855 71.149)" fill="#c7c7c7"/>
        <rect id="Rectángulo_461903" data-name="Rectángulo 461903" width="29.923" height="4.934" transform="translate(99.657 15.499)" fill="#88c8fc"/>
        <path id="Trazado_1015161" data-name="Trazado 1015161" d="M213.117,185.363a.334.334,0,0,1-.144-.033l-6.847-3.266a.335.335,0,1,1,.288-.6l6.7,3.2,6.7-3.2a.335.335,0,1,1,.289.6l-6.847,3.266a.334.334,0,0,1-.144.033" transform="translate(-113.914 -100.357)" fill="#29275f"/>
        <path id="Trazado_1015162" data-name="Trazado 1015162" d="M331.065,227.03H291.338l-10.75-40.522s-10.929-11.544-16.127-19.805S257.245,155.693,256.8,153c-.395-2.413-3.232-19.927-3.835-23.657a1.281,1.281,0,0,1,.336-1.1.808.808,0,0,1,.163-.151c1.253-.946,4.3-2.2,7.773,3.782,4,6.9,4.577,15.605,4.664,17.63l1.416,2.39,3.869,6.527,4.838,8.156a16.421,16.421,0,0,0,8.667-5.14l-4.833-8.157-3.869-6.526-1.52-2.57-.017-.023-10.4-14.625s-5.117-2.216-10.158-4.594-6.654-10.645-2.982-10.083a50,50,0,0,1,7.745,2.657c5.337,2.135,11.2,4.763,11.2,4.763,2.3-2.094,6.208-.887,6.208-.887a10.251,10.251,0,0,1,5.488-1.05c2.738.406,15.281,12.217,17.253,16.128s6.613,40.7,6.613,40.7Z" transform="translate(-137.689 -63.516)" fill="#fff"/>
        <path id="Trazado_1015163" data-name="Trazado 1015163" d="M256.186,117.735a4.92,4.92,0,0,1-.657,1.986,1.645,1.645,0,0,1-2.013.614l-3.554-1.462a1.663,1.663,0,0,1-1.017-1.727,4.258,4.258,0,0,1,.6-1.833,1.637,1.637,0,0,1,1.917-.63l3.623,1.266a1.664,1.664,0,0,1,1.1,1.785" transform="translate(-137.7 -63.386)" fill="#afd4ef"/>
        <path id="Trazado_1015164" data-name="Trazado 1015164" d="M262.729,151.323a4.955,4.955,0,0,1-3.2.78.65.65,0,0,1-.61-.546l-.831-5.132a.665.665,0,0,1,.248-.624,3.956,3.956,0,0,1,2.782-.707.654.654,0,0,1,.533.367,26.45,26.45,0,0,1,1.313,5.251.656.656,0,0,1-.234.61" transform="translate(-142.759 -80.247)" fill="#afd4ef"/>
        <path id="Trazado_1015165" data-name="Trazado 1015165" d="M268.532,135.112a16.448,16.448,0,0,1-8.673,5.14l-1.416-2.39c-.087-2.025-.667-10.732-4.664-17.63-3.469-5.987-6.52-4.728-7.773-3.783a.82.82,0,0,0-.163.151L235.436,99.028a10.038,10.038,0,0,0,1.23,1.485l.1.1a4.667,4.667,0,0,0,.528.435,1.717,1.717,0,0,0,.168.122,2.561,2.561,0,0,0,.319.185,1.97,1.97,0,0,0,.227.1c.075.029.151.058.232.081s.145.034.22.046h.012a1.486,1.486,0,0,0,.226.017,1.435,1.435,0,0,0,.731-.2,2.653,2.653,0,0,0,1.091-2.535.44.44,0,0,0-.006-.087,3.831,3.831,0,0,0-.041-.47c0-.029-.006-.052-.006-.076-.012-.069-.023-.133-.029-.191a.018.018,0,0,1-.006-.012,6.661,6.661,0,0,0-.162-.714c.012.012.035.035.064.07a.569.569,0,0,1,.052.058c.023.023.046.052.07.076.087.087.2.191.325.307a1.365,1.365,0,0,0,.168.151c.07.058.139.122.215.174a.406.406,0,0,0,.058.046,2.88,2.88,0,0,0,.267.191l.07.052a4.707,4.707,0,0,0,.475.261,2.425,2.425,0,0,0,.256.11,2.22,2.22,0,0,0,.261.081.966.966,0,0,0,.255.052,1.683,1.683,0,0,0,.7-.035,1.392,1.392,0,0,0,.209-.069,1.885,1.885,0,0,0,.215-.11,1.281,1.281,0,0,0,.446-.453.918.918,0,0,0,.076-.127v-.006a2.148,2.148,0,0,0,.1-.267.132.132,0,0,0,.017-.064,1.1,1.1,0,0,0,.058-.238,2.271,2.271,0,0,0,.035-.278.113.113,0,0,0,.006-.046,4.451,4.451,0,0,0,.006-.615c-.006-.081-.012-.162-.017-.238a6.681,6.681,0,0,0-.11-.772,1.736,1.736,0,0,0-.052-.249c-.023-.116-.046-.232-.076-.342s-.058-.226-.087-.331c-.134-.482-.261-.829-.3-.916l7.165,12.084a49.961,49.961,0,0,0-7.745-2.657c-3.672-.563-2.06,7.7,2.982,10.083s10.158,4.595,10.158,4.595l10.4,14.625.017.023Z" transform="translate(-130.233 -51.88)" fill="#e6ac4b"/>
        <path id="Trazado_1015166" data-name="Trazado 1015166" d="M302.635,192.791a16.4,16.4,0,0,1-8.673,5.14l-3.869-6.527a16.447,16.447,0,0,0,8.673-5.14Z" transform="translate(-160.467 -103.034)" fill="#c7c7c7"/>
        <path id="Trazado_1015167" data-name="Trazado 1015167" d="M312.257,209.027a16.422,16.422,0,0,1-8.667,5.14l-4.838-8.157a16.4,16.4,0,0,0,8.673-5.14Z" transform="translate(-165.256 -111.112)" fill="#fff"/>
        <path id="Trazado_1015168" data-name="Trazado 1015168" d="M242.5,88.781a4.32,4.32,0,0,1-.006.615.113.113,0,0,1-.006.046,2.279,2.279,0,0,1-.035.278c-.006.023-.012.052-.017.076a.289.289,0,0,1-.017.076.48.48,0,0,1-.023.087c-.006.023-.012.041-.017.064a2.155,2.155,0,0,1-.1.267V90.3a.923.923,0,0,1-.076.128,1.286,1.286,0,0,1-.447.453,1.877,1.877,0,0,1-.214.11,1.471,1.471,0,0,1-.209.07,1.683,1.683,0,0,1-.7.035,2.233,2.233,0,0,1-.255-.052,2.273,2.273,0,0,1-.261-.081,2.323,2.323,0,0,1-.255-.11,4.8,4.8,0,0,1-.476-.261l-.07-.052a2.869,2.869,0,0,1-.267-.192.408.408,0,0,1-.058-.046c-.075-.052-.145-.116-.214-.174a2,2,0,0,1-.168-.151c-.128-.116-.238-.22-.325-.307a.427.427,0,0,0-.07-.075.524.524,0,0,0-.052-.058c-.029-.035-.052-.058-.064-.07a6.609,6.609,0,0,1,.163.714.018.018,0,0,0,.006.012c.006.058.017.122.029.191,0,.023.006.046.006.076a3.918,3.918,0,0,1,.04.47.432.432,0,0,1,.006.087,2.653,2.653,0,0,1-1.09,2.535,1.442,1.442,0,0,1-.731.2,1.478,1.478,0,0,1-.226-.017h-.012c-.076-.012-.151-.029-.221-.046s-.156-.052-.232-.081a1.855,1.855,0,0,1-.226-.1,2.5,2.5,0,0,1-.319-.186,1.774,1.774,0,0,1-.168-.122,4.664,4.664,0,0,1-.528-.435l-.1-.1a10.005,10.005,0,0,1-1.23-1.485c-.046-.076-.076-.116-.076-.116L231.5,82.417a7.113,7.113,0,0,0,3.017-2.831l7.339,6.33a.042.042,0,0,0,.006.017c.035.087.162.435.3.917q.044.156.087.331c.029.11.052.226.075.342a1.713,1.713,0,0,1,.052.249,6.654,6.654,0,0,1,.11.772c.006.081.012.162.017.238" transform="translate(-128.057 -44.023)" fill="#fff"/>
        <path id="Trazado_1015169" data-name="Trazado 1015169" d="M233.779,77.21a7.116,7.116,0,0,1-3.017,2.831l-.6-3.075,1.392-1.677Z" transform="translate(-127.317 -41.647)" fill="#29275f"/>
        <path id="Trazado_1015170" data-name="Trazado 1015170" d="M290.926,226.952a.335.335,0,0,1-.324-.249l-10.727-40.439c-.875-.929-11.15-11.913-16.109-19.794-.9-1.436-1.712-2.706-2.432-3.837-3.464-5.445-4.9-7.7-5.278-10-.395-2.414-3.231-19.928-3.835-23.659a1.613,1.613,0,0,1,.425-1.387,1.05,1.05,0,0,1,.208-.19,3.962,3.962,0,0,1,3.213-.789c1.758.356,3.456,1.928,5.047,4.674,3.91,6.748,4.59,15.147,4.706,17.7l9.957,16.792a16.28,16.28,0,0,0,8.091-4.8l-10.1-17.046-10.344-14.549c-.694-.3-5.448-2.375-10.082-4.561-3.917-1.848-5.742-6.916-5.014-9.3a1.871,1.871,0,0,1,2.225-1.416,47.646,47.646,0,0,1,7.819,2.677c4.74,1.9,9.955,4.207,11.019,4.681,2.2-1.816,5.519-1.047,6.232-.853a10.382,10.382,0,0,1,5.57-1.024c3.051.453,15.594,12.522,17.5,16.308,1.96,3.875,6.363,38.557,6.639,40.745l25.614,49.82a.335.335,0,1,1-.6.307L304.714,176.9a.326.326,0,0,1-.035-.111c-.046-.367-4.65-36.772-6.58-40.586-1.984-3.933-14.379-15.558-17-15.947a9.954,9.954,0,0,0-5.282,1.015.335.335,0,0,1-.256.024c-.038-.011-3.757-1.123-5.883.815a.335.335,0,0,1-.362.059c-.059-.026-5.92-2.65-11.189-4.758a48.242,48.242,0,0,0-7.671-2.637,1.211,1.211,0,0,0-1.483.95c-.664,2.175,1.158,6.847,4.659,8.5,4.978,2.349,10.1,4.568,10.148,4.59a.334.334,0,0,1,.14.113l10.4,14.625.033.046,10.222,17.253a.335.335,0,0,1-.032.386,16.592,16.592,0,0,1-8.862,5.254.331.331,0,0,1-.349-.159L265.2,149.254a.33.33,0,0,1-.046-.156c-.1-2.408-.742-10.784-4.62-17.477-1.491-2.573-3.038-4.038-4.6-4.353a3.311,3.311,0,0,0-2.681.67.511.511,0,0,0-.1.094.964.964,0,0,0-.267.835c.6,3.734,3.441,21.247,3.835,23.66.357,2.161,1.77,4.381,5.182,9.744.72,1.132,1.529,2.4,2.434,3.84,5.121,8.137,15.978,19.638,16.087,19.753a.335.335,0,0,1,.08.144l10.75,40.522a.335.335,0,0,1-.324.421" transform="translate(-137.277 -63.102)" fill="#29275f"/>
        <path id="Trazado_1015171" data-name="Trazado 1015171" d="M263.314,146.7a.336.336,0,0,1-.289-.164l-5.285-8.917a.34.34,0,0,1-.046-.156c-.1-2.408-.742-10.784-4.619-17.476-1.491-2.573-3.039-4.038-4.6-4.354a3.314,3.314,0,0,0-2.681.67.49.49,0,0,0-.1.094.336.336,0,0,1-.55-.04L234.733,98.784a.335.335,0,0,1,.566-.359,9.64,9.64,0,0,0,1.186,1.433l.1.1a4.219,4.219,0,0,0,.481.4,1.032,1.032,0,0,0,.118.088l.052.036a2.232,2.232,0,0,0,.271.157,1.744,1.744,0,0,0,.2.095c.066.025.132.051.2.072.046.011.1.025.162.035l.029,0a1.107,1.107,0,0,0,.737-.143,2.275,2.275,0,0,0,.925-2.233c0-.017-.005-.071-.006-.088a3.467,3.467,0,0,0-.036-.429.3.3,0,0,1,0-.053q0-.02,0-.038c-.011-.064-.019-.112-.024-.153a.3.3,0,0,1-.008-.034h0a5.544,5.544,0,0,0-.139-.618c-.01-.038-.017-.065-.021-.079a.335.335,0,0,1,.567-.306c.018.018.046.047.082.089a.425.425,0,0,1,.037.039.909.909,0,0,1,.09.1c.059.056.165.157.288.269a1.282,1.282,0,0,0,.152.137l.064.054a1.647,1.647,0,0,0,.132.106.324.324,0,0,1,.046.039,3.1,3.1,0,0,0,.265.19l.094.069a4.479,4.479,0,0,0,.415.225l.042.02a1.486,1.486,0,0,0,.177.076,1.962,1.962,0,0,0,.235.074.749.749,0,0,0,.2.043,1.409,1.409,0,0,0,.59-.024,1.111,1.111,0,0,0,.168-.056,1.512,1.512,0,0,0,.175-.09.956.956,0,0,0,.328-.334.91.91,0,0,0,.05-.08l.01-.024a1.849,1.849,0,0,0,.088-.225c0-.008.022-.079.025-.086a.52.52,0,0,1,.017-.067c0-.013.005-.035.006-.038s.01-.043.011-.046l.01-.045a1.973,1.973,0,0,0,.026-.221.324.324,0,0,1,.007-.051,4.246,4.246,0,0,0,0-.57l-.017-.231a6.424,6.424,0,0,0-.1-.728,1.692,1.692,0,0,0-.047-.226c-.028-.135-.049-.244-.077-.348s-.058-.226-.086-.327c-.127-.458-.251-.8-.284-.881a.335.335,0,0,1,.6-.3l7.164,12.084a.335.335,0,0,1-.413.482,48.143,48.143,0,0,0-7.671-2.636,1.211,1.211,0,0,0-1.483.95c-.664,2.175,1.159,6.847,4.659,8.5,4.978,2.349,10.1,4.568,10.148,4.59a.33.33,0,0,1,.14.113l10.4,14.625.033.047,5.389,9.1a.336.336,0,0,1-.032.387,16.57,16.57,0,0,1-8.869,5.254.315.315,0,0,1-.061.006m-4.954-9.35,5.119,8.636a16.258,16.258,0,0,0,8.1-4.8l-5.267-8.89-10.344-14.548c-.693-.3-5.448-2.375-10.082-4.561-3.917-1.849-5.742-6.916-5.014-9.3a1.873,1.873,0,0,1,2.226-1.416,42.011,42.011,0,0,1,6.9,2.312l-5.463-9.214c.017.122.031.253.043.387l.018.242a4.566,4.566,0,0,1-.006.669.236.236,0,0,1-.008.075,2.782,2.782,0,0,1-.037.282s-.011.046-.011.05a.99.99,0,0,1-.031.134.818.818,0,0,1-.026.094l-.006.023a2.51,2.51,0,0,1-.118.317.285.285,0,0,1-.017.044,1.255,1.255,0,0,1-.1.172,1.564,1.564,0,0,1-.546.545,2.169,2.169,0,0,1-.26.133,1.833,1.833,0,0,1-.256.085,2,2,0,0,1-.832.041,1.2,1.2,0,0,1-.319-.068,2.834,2.834,0,0,1-.506-.185,5.191,5.191,0,0,1-.549-.3l-.094-.069a2.808,2.808,0,0,1-.277-.2.472.472,0,0,1-.06-.047c-.048-.035-.095-.073-.141-.112a4.337,4.337,0,0,1,.037.446.88.88,0,0,1,.007.119,2.913,2.913,0,0,1-1.256,2.824,1.775,1.775,0,0,1-1.159.231l-.031,0c-.087-.013-.172-.033-.252-.053-.1-.029-.186-.061-.271-.093a2.364,2.364,0,0,1-.265-.122,2.743,2.743,0,0,1-.345-.2l-.027-.018,8.683,14.66a3.925,3.925,0,0,1,3.092-.7c1.757.355,3.456,1.928,5.047,4.674,3.91,6.748,4.589,15.147,4.705,17.7" transform="translate(-129.818 -51.465)" fill="#29275f"/>
        <path id="Trazado_1015172" data-name="Trazado 1015172" d="M303.176,214.087a.335.335,0,0,1-.288-.164l-4.838-8.157a.335.335,0,0,1,.227-.5,16.2,16.2,0,0,0,8.477-5.026.332.332,0,0,1,.284-.118.336.336,0,0,1,.261.163l4.832,8.157a.336.336,0,0,1-.032.387,16.6,16.6,0,0,1-8.862,5.254.319.319,0,0,1-.061.006m-4.315-8.266,4.479,7.552a16.277,16.277,0,0,0,8.092-4.8l-4.474-7.55a16.7,16.7,0,0,1-8.1,4.8" transform="translate(-164.842 -110.698)" fill="#29275f"/>
        <path id="Trazado_1015173" data-name="Trazado 1015173" d="M235.365,91.291a1.841,1.841,0,0,1-.257-.018l-.031,0c-.086-.013-.172-.033-.251-.053-.1-.029-.186-.061-.271-.093A2.331,2.331,0,0,1,234.29,91a2.775,2.775,0,0,1-.346-.2l-.048-.033a1.394,1.394,0,0,1-.158-.118,4.386,4.386,0,0,1-.533-.44L233.1,90.1a10.345,10.345,0,0,1-1.27-1.534c-.046-.073-.07-.108-.072-.112a.335.335,0,0,1-.055-.129l-2.28-11.713a.336.336,0,0,1,.071-.278l1.393-1.677a.334.334,0,0,1,.23-.12.349.349,0,0,1,.247.08l9.56,8.249a.334.334,0,0,1,.105.169c.063.162.181.5.3.929.029.107.06.22.089.339s.055.235.079.358a1.831,1.831,0,0,1,.056.269,6.965,6.965,0,0,1,.112.787l.018.242v.007a4.611,4.611,0,0,1-.007.663.271.271,0,0,1-.008.075,2.761,2.761,0,0,1-.037.282l-.012.05a.924.924,0,0,1-.03.134.82.82,0,0,1-.026.094c0,.011-.006.021-.006.023a2.511,2.511,0,0,1-.118.317.421.421,0,0,1-.017.044,1.257,1.257,0,0,1-.1.172,1.559,1.559,0,0,1-.546.545,2.237,2.237,0,0,1-.26.133,1.783,1.783,0,0,1-.257.085,2.01,2.01,0,0,1-.831.042,2.686,2.686,0,0,1-.293-.06,2.58,2.58,0,0,1-.3-.095,2.148,2.148,0,0,1-.233-.1,5.187,5.187,0,0,1-.548-.3l-.094-.069a2.705,2.705,0,0,1-.277-.2.44.44,0,0,1-.06-.047c-.048-.035-.1-.073-.141-.112a4.35,4.35,0,0,1,.037.446.878.878,0,0,1,.007.119,2.912,2.912,0,0,1-1.255,2.824,1.763,1.763,0,0,1-.9.249m-.2-.686.028,0a1.109,1.109,0,0,0,.738-.143,2.273,2.273,0,0,0,.925-2.233c0-.018-.005-.071-.006-.089a3.383,3.383,0,0,0-.036-.429.344.344,0,0,1,0-.053q0-.02,0-.038c-.011-.064-.019-.112-.025-.153a.3.3,0,0,1-.007-.034h0a5.758,5.758,0,0,0-.139-.618c-.01-.038-.017-.065-.021-.079a.335.335,0,0,1,.567-.306c.018.018.046.047.081.089a.347.347,0,0,1,.037.039.829.829,0,0,1,.09.1c.059.056.165.157.288.269a1.877,1.877,0,0,0,.152.137l.063.054c.043.037.086.074.132.106a.329.329,0,0,1,.047.039,3.144,3.144,0,0,0,.265.191l.094.069a4.6,4.6,0,0,0,.415.225l.043.02a1.605,1.605,0,0,0,.177.076,2.066,2.066,0,0,0,.236.074,2,2,0,0,0,.223.046,1.359,1.359,0,0,0,.566-.026,1.163,1.163,0,0,0,.168-.055,1.55,1.55,0,0,0,.175-.091.949.949,0,0,0,.328-.334c.024-.035.038-.058.05-.08l.01-.024a1.846,1.846,0,0,0,.088-.225c0-.008.022-.079.025-.086s.01-.043.017-.067l.006-.038s.01-.043.01-.046l.011-.045A1.972,1.972,0,0,0,241,86.63a.28.28,0,0,1,.008-.051,4.511,4.511,0,0,0,0-.567l-.017-.234a6.325,6.325,0,0,0-.1-.728,1.6,1.6,0,0,0-.046-.226c-.028-.136-.05-.245-.077-.349s-.058-.226-.086-.327c-.108-.388-.213-.691-.263-.825l-9.237-7.97-1.073,1.291,2.237,11.491.045.069a9.632,9.632,0,0,0,1.178,1.422l.1.1a4.181,4.181,0,0,0,.481.4,1.029,1.029,0,0,0,.118.088l.052.036a2.228,2.228,0,0,0,.271.157,1.712,1.712,0,0,0,.2.095c.066.025.132.051.2.072.045.011.1.025.162.035" transform="translate(-126.902 -41.233)" fill="#29275f"/>
        <path id="Trazado_1015174" data-name="Trazado 1015174" d="M249.658,108.135a.336.336,0,0,1-.3-.186l-2.68-5.389a.335.335,0,1,1,.6-.3l2.68,5.389a.335.335,0,0,1-.151.449.33.33,0,0,1-.149.035" transform="translate(-136.431 -56.463)" fill="#29275f"/>
        <path id="Trazado_1015175" data-name="Trazado 1015175" d="M292.84,179.631a.335.335,0,0,1-.286-.16l-6.663-10.805a.335.335,0,0,1,.571-.352l6.663,10.805a.335.335,0,0,1-.285.511" transform="translate(-158.115 -93.016)" fill="#29275f"/>
        <path id="Trazado_1015176" data-name="Trazado 1015176" d="M310.2,148.13a.336.336,0,0,1-.251-.113L295.126,131.3a.335.335,0,1,1,.5-.445l14.828,16.718a.335.335,0,0,1-.251.558" transform="translate(-163.204 -72.321)" fill="#29275f"/>
        <path id="Trazado_1015177" data-name="Trazado 1015177" d="M323.189,142.086a.333.333,0,0,1-.226-.087l-13.921-12.66a.335.335,0,1,1,.451-.5l13.921,12.66a.335.335,0,0,1-.226.583" transform="translate(-170.888 -71.221)" fill="#29275f"/>
        <path id="Trazado_1015178" data-name="Trazado 1015178" d="M319.382,272.908a.335.335,0,0,1-.068-.663,52.555,52.555,0,0,0,6.5-1.81.335.335,0,1,1,.244.624,52.122,52.122,0,0,1-6.611,1.842.334.334,0,0,1-.069.007" transform="translate(-176.483 -149.58)" fill="#29275f"/>
        <path id="Trazado_1015179" data-name="Trazado 1015179" d="M81.781,61.1a1.526,1.526,0,1,1,1.526-1.526A1.526,1.526,0,0,1,81.781,61.1" transform="translate(-44.394 -32.108)" fill="#afd4ef"/>
        <path id="Trazado_1015180" data-name="Trazado 1015180" d="M98.273,61.1A1.526,1.526,0,1,1,99.8,59.572,1.526,1.526,0,0,1,98.273,61.1" transform="translate(-53.516 -32.108)" fill="#afd4ef"/>
        <path id="Trazado_1015181" data-name="Trazado 1015181" d="M80.255,76.064a1.526,1.526,0,1,1,1.526,1.526,1.526,1.526,0,0,1-1.526-1.526" transform="translate(-44.394 -41.231)" fill="#afd4ef"/>
        <path id="Trazado_1015182" data-name="Trazado 1015182" d="M80.255,92.556a1.526,1.526,0,1,1,1.526,1.526,1.526,1.526,0,0,1-1.526-1.526" transform="translate(-44.394 -50.354)" fill="#afd4ef"/>
        <path id="Trazado_1015183" data-name="Trazado 1015183" d="M80.255,109.048a1.526,1.526,0,1,1,1.526,1.526,1.525,1.525,0,0,1-1.526-1.526" transform="translate(-44.394 -59.476)" fill="#afd4ef"/>
        <path id="Trazado_1015184" data-name="Trazado 1015184" d="M80.255,125.54a1.526,1.526,0,1,1,1.526,1.526,1.525,1.525,0,0,1-1.526-1.526" transform="translate(-44.394 -68.599)" fill="#afd4ef"/>
        <path id="Trazado_1015185" data-name="Trazado 1015185" d="M98.273,77.589A1.526,1.526,0,1,1,99.8,76.064a1.526,1.526,0,0,1-1.526,1.526" transform="translate(-53.516 -41.231)" fill="#afd4ef"/>
        <path id="Trazado_1015186" data-name="Trazado 1015186" d="M96.747,92.556a1.526,1.526,0,1,1,1.526,1.526,1.526,1.526,0,0,1-1.526-1.526" transform="translate(-53.516 -50.354)" fill="#afd4ef"/>
        <path id="Trazado_1015187" data-name="Trazado 1015187" d="M96.747,109.048a1.526,1.526,0,1,1,1.526,1.526,1.525,1.525,0,0,1-1.526-1.526" transform="translate(-53.516 -59.476)" fill="#afd4ef"/>
        <path id="Trazado_1015188" data-name="Trazado 1015188" d="M96.747,125.54a1.526,1.526,0,1,1,1.526,1.526,1.525,1.525,0,0,1-1.526-1.526" transform="translate(-53.516 -68.599)" fill="#afd4ef"/>
        <path id="Trazado_1015189" data-name="Trazado 1015189" d="M80.255,142.032a1.526,1.526,0,1,1,1.526,1.526,1.526,1.526,0,0,1-1.526-1.526" transform="translate(-44.394 -77.722)" fill="#afd4ef"/>
        <path id="Trazado_1015190" data-name="Trazado 1015190" d="M96.747,142.032a1.526,1.526,0,1,1,1.526,1.526,1.526,1.526,0,0,1-1.526-1.526" transform="translate(-53.516 -77.722)" fill="#afd4ef"/>
        <path id="Trazado_1015191" data-name="Trazado 1015191" d="M334.243,61.26a1.526,1.526,0,1,1,1.526-1.526,1.526,1.526,0,0,1-1.526,1.526" transform="translate(-184.044 -32.199)" fill="#afd4ef"/>
        <path id="Trazado_1015192" data-name="Trazado 1015192" d="M350.734,61.26a1.526,1.526,0,1,1,1.526-1.526,1.526,1.526,0,0,1-1.526,1.526" transform="translate(-193.166 -32.199)" fill="#afd4ef"/>
        <path id="Trazado_1015193" data-name="Trazado 1015193" d="M332.717,76.227a1.526,1.526,0,1,1,1.526,1.526,1.526,1.526,0,0,1-1.526-1.526" transform="translate(-184.044 -41.321)" fill="#afd4ef"/>
        <path id="Trazado_1015194" data-name="Trazado 1015194" d="M332.717,92.719a1.526,1.526,0,1,1,1.526,1.526,1.526,1.526,0,0,1-1.526-1.526" transform="translate(-184.044 -50.444)" fill="#afd4ef"/>
        <path id="Trazado_1015195" data-name="Trazado 1015195" d="M332.717,109.211a1.526,1.526,0,1,1,1.526,1.526,1.526,1.526,0,0,1-1.526-1.526" transform="translate(-184.044 -59.567)" fill="#afd4ef"/>
        <path id="Trazado_1015196" data-name="Trazado 1015196" d="M350.734,77.752a1.526,1.526,0,1,1,1.526-1.526,1.526,1.526,0,0,1-1.526,1.526" transform="translate(-193.166 -41.321)" fill="#afd4ef"/>
        <path id="Trazado_1015197" data-name="Trazado 1015197" d="M349.208,92.719a1.526,1.526,0,1,1,1.526,1.526,1.526,1.526,0,0,1-1.526-1.526" transform="translate(-193.166 -50.444)" fill="#afd4ef"/>
        <path id="Trazado_1015198" data-name="Trazado 1015198" d="M349.208,109.211a1.526,1.526,0,1,1,1.526,1.526,1.526,1.526,0,0,1-1.526-1.526" transform="translate(-193.166 -59.567)" fill="#afd4ef"/>
        <path id="Trazado_1015199" data-name="Trazado 1015199" d="M317.212,60.691a1.526,1.526,0,1,1,1.526-1.526,1.526,1.526,0,0,1-1.526,1.526" transform="translate(-174.624 -31.884)" fill="#afd4ef"/>
        <path id="Trazado_1015200" data-name="Trazado 1015200" d="M317.212,77.183a1.526,1.526,0,1,1,1.526-1.526,1.526,1.526,0,0,1-1.526,1.526" transform="translate(-174.624 -41.007)" fill="#afd4ef"/>
        <path id="Trazado_1015201" data-name="Trazado 1015201" d="M315.686,92.15a1.526,1.526,0,1,1,1.526,1.526,1.526,1.526,0,0,1-1.526-1.526" transform="translate(-174.624 -50.129)" fill="#afd4ef"/>
        <path id="Trazado_1015202" data-name="Trazado 1015202" d="M315.686,108.642a1.526,1.526,0,1,1,1.526,1.526,1.526,1.526,0,0,1-1.526-1.526" transform="translate(-174.624 -59.252)" fill="#afd4ef"/>
      </g>
    </g>
  </g>
</svg>
