<svg xmlns="http://www.w3.org/2000/svg" width="84" height="84" viewBox="0 0 84 84">
  <g id="Grupo_1194997" data-name="Grupo 1194997" transform="translate(-706.74 -10150.92)">
    <g id="Grupo_1194995" data-name="Grupo 1194995">
      <g id="Grupo_1177229" data-name="Grupo 1177229" transform="translate(0.74 8472)" style="isolation: isolate">
        <g id="Grupo_1119665" data-name="Grupo 1119665" transform="translate(534.111 -3840.08)">
          <rect id="Rectángulo_402006" data-name="Rectángulo 402006" width="84" height="84" rx="5" transform="translate(171.889 5519)" fill="#104936"/>
        </g>
      </g>
      <g id="Out_line" data-name="Out line" transform="translate(702.09 10146.263)">
        <g id="Grupo_1194996" data-name="Grupo 1194996">
          <circle id="Elipse_13657" data-name="Elipse 13657" cx="1.103" cy="1.103" r="1.103" transform="translate(38.56 28.271)" fill="#c0f1e1"/>
          <circle id="Elipse_13658" data-name="Elipse 13658" cx="1.103" cy="1.103" r="1.103" transform="translate(44.443 28.271)" fill="#c0f1e1"/>
          <path id="Trazado_1009922" data-name="Trazado 1009922" d="M363.065,286.13A3.065,3.065,0,1,0,360,283.065,3.065,3.065,0,0,0,363.065,286.13Zm0-4.087a1.022,1.022,0,1,1-1.022,1.022A1.022,1.022,0,0,1,363.065,282.043Z" transform="translate(-300.067 -230.278)" fill="#c0f1e1"/>
          <path id="Trazado_1009923" data-name="Trazado 1009923" d="M73.215,65.047V63a2.046,2.046,0,0,0-2.043-2.043H70.149V55.852h2.043a2.046,2.046,0,0,0,2.043-2.043V48.7a2.046,2.046,0,0,0-2.043-2.043H70.149a2.047,2.047,0,0,0-.41.041,5.116,5.116,0,0,0-4.7-3.106H62.946a2.555,2.555,0,0,0-1.992-3.014V38.432a2.554,2.554,0,0,0-.511-5.057H55.335a2.537,2.537,0,0,0-1.529.513c0-.061,0-.121,0-.182V32.592a3.058,3.058,0,0,0,1.022-2.282V28.266a3.06,3.06,0,0,0-1.1-2.35,11.239,11.239,0,0,0-22.32,0,3.059,3.059,0,0,0-1.1,2.35V30.31a3.058,3.058,0,0,0,1.022,2.282v1.114a7.983,7.983,0,0,1-1.345,4.442,4.157,4.157,0,0,0-.44,3.749,13.288,13.288,0,0,0-6.794,7.9L19.1,61.2a6.076,6.076,0,0,0,.074,3.846H16v2.043h4.393a6.063,6.063,0,0,0,4.567,2.043h7.387a4.065,4.065,0,0,0,2.453-.821,2.045,2.045,0,0,0,1.209.776,4.662,4.662,0,0,0-.124,1.066,4.6,4.6,0,0,0,1.358,3.277A2.59,2.59,0,0,1,37.9,76a1.022,1.022,0,0,0,.98,1.31H51.138a1.022,1.022,0,0,0,.98-.732,4.637,4.637,0,0,0-1.169-4.588,2.588,2.588,0,0,1-.549-2.853H71.171a2.046,2.046,0,0,0,2.043-2.043H77.3V65.047ZM72.193,48.7v5.108H70.149V48.7Zm-4.087,0V60.96H57.889V52.787a1.022,1.022,0,0,0-1.022-1.022H46.025l.573-1.72L44.66,49.4l-1.578,4.733a1.02,1.02,0,0,1-.969.7H39.5a1.023,1.023,0,0,1-1.022-1.022V48.7a3.069,3.069,0,0,1,3.065-3.065h23.5A3.069,3.069,0,0,1,68.106,48.7ZM50.4,60.96a2.545,2.545,0,0,1-.1-.287,1.022,1.022,0,0,0-.98-.734H41.542V56.874h.571a3.061,3.061,0,0,0,2.908-2.1l.323-.969h10.5V60.96ZM34.39,30.31v1.022H33.369a1.023,1.023,0,0,1-1.022-1.022V28.266a1.022,1.022,0,0,1,2.043,0,1.022,1.022,0,1,0,2.043,0v-.519a.5.5,0,0,1,.5-.5,4.224,4.224,0,0,0,4.134-3.289,1.533,1.533,0,0,1,2.987,0,4.224,4.224,0,0,0,4.134,3.289.5.5,0,0,1,.5.5v.519a1.022,1.022,0,1,0,2.043,0,1.022,1.022,0,0,1,2.043,0V30.31a1.023,1.023,0,0,1-1.022,1.022H50.737V30.31H48.694v1.022a6.13,6.13,0,1,1-12.26,0V30.31Zm6.651,9.051a8.094,8.094,0,0,0,3.025,0,6.147,6.147,0,0,0,2.261,2.345,4.7,4.7,0,0,1-7.534-.009A6.147,6.147,0,0,0,41.041,39.361Zm11.791,4.231H47.4a6.779,6.779,0,0,0,.777-.962l.114-.172a6.1,6.1,0,0,0,1.161.112h.208a11.25,11.25,0,0,1,3.124.442.578.578,0,0,0-.006.069,2.557,2.557,0,0,0,.052.511Zm2.5,0a.511.511,0,1,1,0-1.022h5.108a.511.511,0,0,1,0,1.022Zm1.533-3.065V38.483h2.043v2.043Zm-1.533-5.108h5.108a.511.511,0,0,1,0,1.022H55.335a.511.511,0,1,1,0-1.022Zm-1.888,3.863a2.108,2.108,0,0,1,.355,1.173h1.022v.123a2.545,2.545,0,0,0-1.151.567,13.278,13.278,0,0,0-4.01-.619h-.208a4.1,4.1,0,0,1-3.392-1.81,8.209,8.209,0,0,0,4.416-5.342h1.28v.331A10.02,10.02,0,0,0,53.447,39.282ZM42.564,18.05a9.237,9.237,0,0,1,8.968,7.161,3.05,3.05,0,0,0-1.65.634,2.536,2.536,0,0,0-1.69-.644A2.19,2.19,0,0,1,46.048,23.5a3.576,3.576,0,0,0-6.969,0A2.19,2.19,0,0,1,36.936,25.2a2.536,2.536,0,0,0-1.69.644,3.049,3.049,0,0,0-1.65-.634A9.237,9.237,0,0,1,42.564,18.05ZM31.325,40.455a2.109,2.109,0,0,1,.355-1.173,10.02,10.02,0,0,0,1.688-5.575v-.331h1.28a8.209,8.209,0,0,0,4.4,5.334,4.1,4.1,0,0,1-3.4,1.818h-.208a13.393,13.393,0,0,0-4.005.612A2.114,2.114,0,0,1,31.325,40.455Zm4.118,2.115h.208a6.1,6.1,0,0,0,1.181-.115l.117.175a6.75,6.75,0,0,0,1.78,1.81A5.107,5.107,0,0,0,36.434,48.7v5.108A3.068,3.068,0,0,0,39.5,56.874v3.065H37.056A1.02,1.02,0,0,0,36.035,61a2.044,2.044,0,0,0-1.235.781,4.065,4.065,0,0,0-2.453-.821H30.3V53.809H28.26v1.711L23.5,54.158l1.195-3.738A11.25,11.25,0,0,1,35.443,42.57Zm-3.1,24.521H24.96a4.087,4.087,0,0,1-3.909-5.278l1.824-5.707,5.385,1.539V60.96H23.152V63h9.2a2.043,2.043,0,0,1,0,4.087Zm4.087,0V63h.611q.1.109.2.212a2.589,2.589,0,0,1,0,3.664c-.069.069-.134.14-.2.212Zm2.255,4.9a2.589,2.589,0,0,1,0-3.664,4.632,4.632,0,0,0,.2-6.342H40.45a4.644,4.644,0,0,0,.881,1.233,2.589,2.589,0,0,1,0,3.664,4.632,4.632,0,0,0,0,6.553,2.59,2.59,0,0,1,.758,1.832H40.046a4.632,4.632,0,0,0-1.358-3.277Zm11.575,3.277H44.132a4.632,4.632,0,0,0-1.356-3.277,2.589,2.589,0,0,1,0-3.664,4.63,4.63,0,0,0,.2-6.342h5.649a4.646,4.646,0,0,0,.883,1.233,2.589,2.589,0,0,1,0,3.664,4.632,4.632,0,0,0,0,6.553A2.574,2.574,0,0,1,50.264,75.264Zm20.908-8.174H51.833a4.642,4.642,0,0,0,0-4.087H71.171Z" fill="#c0f1e1"/>
        </g>
      </g>
    </g>
  </g>
</svg>
