<svg xmlns="http://www.w3.org/2000/svg" xmlns:xlink="http://www.w3.org/1999/xlink" width="399.3" height="425.904" viewBox="0 0 399.3 425.904">
  <defs>
    <clipPath id="clip-path">
      <rect id="Rectángulo_461394" data-name="Rectángulo 461394" width="399.3" height="425.904" transform="translate(0 -70.402)" fill="none"/>
    </clipPath>
  </defs>
  <g id="Grupo_1194741" data-name="Grupo 1194741" transform="translate(-1018 -8810.667)">
    <path id="Trazado_1014088" data-name="Trazado 1014088" d="M426.787,434c25-4.976,86.3-178.121-9.417-271.63-29.624-28.941-58.191-11.313-89.978-56.067-24.159-34.013-42.431-55.746-73.356-59.268-37.247-4.241-91.275,1.537-106.122,58.059-6.785,25.829-10.073,48.117-10.27,74.992-.5,68.68-35.537,74.642-44.359,120.618-14.181,73.9,17.2,131.9,36.624,133.247,18.137,1.258,277.714,3.264,296.879.049" transform="translate(940.029 8764.734)" fill="#e0e8fc"/>
    <g id="Grupo_1194453" data-name="Grupo 1194453" transform="translate(1018 8881.074)">
      <g id="Grupo_1194452" data-name="Grupo 1194452" transform="translate(0 -0.005)" clip-path="url(#clip-path)">
        <path id="Trazado_1013849" data-name="Trazado 1013849" d="M761.156,232.7a.587.587,0,0,0-.016-.084c-3.194-12.357-8.661-22.827-16.251-31.118a63.924,63.924,0,0,0-23.66-16.215c-16.207-6.482-33.5-6.182-42.715-3.16a.55.55,0,0,0-.32.665.468.468,0,0,0,.584.369c16.208-5.317,67.723-3.387,81.46,49.76a.467.467,0,0,0,.585.366.54.54,0,0,0,.334-.583" transform="translate(-442.146 -117.389)" fill="#fbf9f6"/>
        <path id="Trazado_1013850" data-name="Trazado 1013850" d="M199.07,298.676a.443.443,0,0,0-.074.019,61.714,61.714,0,0,0-27.307,19.026,75.1,75.1,0,0,0-13.841,26.956c-5.36,18.345-4.649,37.738-1.721,47.994a.469.469,0,0,0,.6.342.544.544,0,0,0,.313-.664c-5.152-18.044-4.752-75.879,42.246-92.648a.544.544,0,0,0,.311-.666.476.476,0,0,0-.528-.359" transform="translate(-100.316 -194.721)" fill="#fbf9f6"/>
        <path id="Trazado_1013852" data-name="Trazado 1013852" d="M56.824,871.429c-20.962,1.455-69.939,3.728-53.515,18.206,5.111,2.192,13.711,1.674,18.061,4.956,11.926,8.851,22.9,15.224,43.087,16.69,34.269,2.831,70.093-.112,105.08.3,28.923.055,58.3,3.469,87.249,3.512,24.114.381,46.673-4.041,70.206-6.124,34.207-1.423,73.774-2.081,72.266-22.365-3.561-19.295-94.493-17.4-118.813-16.9-25.481.649-137.9-4.8-149.787-3.626-25.174,2.309-48.825,3.548-73.834,5.352" transform="translate(0 -564.541)" fill="#e5ddd7"/>
        <rect id="Rectángulo_461388" data-name="Rectángulo 461388" width="23.873" height="65.819" transform="translate(69.416 224.967) rotate(-1.988)" fill="#d35742"/>
        <path id="Trazado_1013853" data-name="Trazado 1013853" d="M199.473,641.891c.044,1.253,5.42,2.084,12.008,1.855s11.894-1.43,11.851-2.683-5.42-2.084-12.008-1.855-11.894,1.43-11.851,2.683" transform="translate(-130.049 -416.715)" fill="#e2654f"/>
        <path id="Trazado_1013854" data-name="Trazado 1013854" d="M228.744,623.711,229,631h-.008c-.07.393-2.188.682-4.826.773s-4.805-.049-4.9-.436h-.008L219,624.049Z" transform="translate(-142.78 -406.636)" fill="#c88761"/>
        <path id="Trazado_1013855" data-name="Trazado 1013855" d="M219,622.839c.015.44,2.209.721,4.9.628s4.86-.526,4.845-.966-2.209-.721-4.9-.628-4.86.526-4.845.966" transform="translate(-142.78 -405.426)" fill="#e5a17a"/>
        <rect id="Rectángulo_461389" data-name="Rectángulo 461389" width="91.213" height="25.357" transform="translate(90.461 310.073) rotate(-82.339)" fill="#fcc15e"/>
        <path id="Trazado_1013856" data-name="Trazado 1013856" d="M294.783,630.028c-.145,1.078,5.363,2.708,12.3,3.641s12.683.817,12.828-.261-5.363-2.707-12.3-3.641-12.683-.817-12.828.261" transform="translate(-192.186 -410.174)" fill="#ffcf80"/>
        <path id="Trazado_1013857" data-name="Trazado 1013857" d="M328.154,617.492l-.843,6.263h-.007c-.117.325-1.969.264-4.237-.04s-4.1-.74-4.127-1.085h-.007l.843-6.263Z" transform="translate(-207.935 -401.847)" fill="#c88761"/>
        <path id="Trazado_1013858" data-name="Trazado 1013858" d="M321.354,615.759c-.051.378,1.783.938,4.1,1.249s4.23.256,4.28-.122-1.783-.938-4.1-1.249-4.23-.256-4.28.122" transform="translate(-209.511 -401.241)" fill="#e5a17a"/>
        <path id="Trazado_1013859" data-name="Trazado 1013859" d="M158.033,738.1l-8.349-58.446L167.6,677.1l8.554,59.884Z" transform="translate(-97.589 -441.441)" fill="#5b87b0"/>
        <path id="Trazado_1013860" data-name="Trazado 1013860" d="M197.454,694.4l-1.054-.511-1.757,1,.276-2-1.493-1.362,1.989-.356.835-1.841.654,1.222Z" transform="translate(-126.107 -449.416)" fill="#9cc9f1"/>
        <path id="Trazado_1013861" data-name="Trazado 1013861" d="M165.785,772.933l.835-1.841.953,1.782,2.008.225-1.4,1.457.407,1.98-1.819-.881-1.757,1,.276-2-1.493-1.363Z" transform="translate(-106.789 -502.724)" fill="#9cc9f1"/>
        <path id="Trazado_1013862" data-name="Trazado 1013862" d="M181.812,833.387l-1.316-1.533-2.01.215,1.051-1.726-.826-1.845,1.966.467,1.5-1.356.164,2.014,1.752,1.007-1.865.778Z" transform="translate(-116.367 -539.571)" fill="#9cc9f1"/>
        <path id="Trazado_1013863" data-name="Trazado 1013863" d="M197.285,802.043l-.953-1.782-2.008-.225,1.4-1.458-.407-1.98,1.819.882,1.757-1-.276,2,1.493,1.362-1.989.356Z" transform="translate(-126.692 -519.277)" fill="#9cc9f1"/>
        <path id="Trazado_1013864" data-name="Trazado 1013864" d="M201.8,755.394l-1.317-1.533-2.009.215,1.051-1.726-.826-1.845,1.966.467,1.5-1.356.164,2.014,1.062.611.092.646-1.268.529Z" transform="translate(-129.4 -488.722)" fill="#9cc9f1"/>
        <path id="Trazado_1013865" data-name="Trazado 1013865" d="M153.889,687.833l1.752,1.007-1.865.778-.417,1.978-1.316-1.533-1.372.147-.113-.793.527-.865-.826-1.845,1.966.467.352-.318c.378.022.79.033,1.234.032Z" transform="translate(-97.964 -447.707)" fill="#9cc9f1"/>
        <path id="Trazado_1013866" data-name="Trazado 1013866" d="M173,727.327l1.115,1.685-2.016-.14-1.258,1.582-.49-1.961-1.893-.708,1.713-1.072.088-2.019,1.549,1.3,1.948-.54Z" transform="translate(-109.829 -472.474)" fill="#9cc9f1"/>
        <path id="Trazado_1013867" data-name="Trazado 1013867" d="M218.283,846.9l.063-1.452,1.549,1.3.949-.263.037.256Z" transform="translate(-142.313 -551.202)" fill="#9cc9f1"/>
        <path id="Trazado_1013868" data-name="Trazado 1013868" d="M149.741,678.567c.131.916,4.248,1.086,9.2.379s8.853-2.023,8.722-2.939-4.248-1.086-9.2-.379-8.853,2.023-8.722,2.939" transform="translate(-97.624 -440.2)" fill="#699ccb"/>
        <path id="Trazado_1013869" data-name="Trazado 1013869" d="M170.123,663.957l.761,5.326h-.006c-.02.294-1.552.673-3.481.949s-3.53.344-3.632.068h-.006L163,664.975Z" transform="translate(-106.27 -432.875)" fill="#c88761"/>
        <path id="Trazado_1013870" data-name="Trazado 1013870" d="M163,664.478c.046.322,1.678.355,3.645.074s3.525-.77,3.479-1.092-1.678-.355-3.645-.074-3.525.77-3.479,1.092" transform="translate(-106.267 -432.379)" fill="#e5a17a"/>
        <rect id="Rectángulo_461390" data-name="Rectángulo 461390" width="69.899" height="15.798" transform="translate(89.23 304.818) rotate(-87.207)" fill="#b37753"/>
        <path id="Trazado_1013871" data-name="Trazado 1013871" d="M266.151,673.429c-.041.832,3.459,1.679,7.816,1.892s7.922-.29,7.963-1.122-3.458-1.679-7.816-1.892-7.922.29-7.963,1.122" transform="translate(-173.521 -438.288)" fill="#e2c3a9"/>
        <path id="Trazado_1013872" data-name="Trazado 1013872" d="M286.253,662.25l-.236,4.837h-.006c-.068.256-1.486.33-3.237.245s-3.178-.3-3.221-.56h-.006l.236-4.837Z" transform="translate(-182.255 -431.556)" fill="#c88761"/>
        <path id="Trazado_1013873" data-name="Trazado 1013873" d="M280.226,661.195c-.014.292,1.422.6,3.209.687s3.246-.079,3.261-.371-1.422-.6-3.209-.687-3.246.079-3.261.371" transform="translate(-182.697 -430.817)" fill="#e5a17a"/>
        <path id="Trazado_1013874" data-name="Trazado 1013874" d="M292.6,686.493a.24.24,0,0,1-.233-.272,1.511,1.511,0,0,1,.056-.678.517.517,0,0,1,.531-.345,1.691,1.691,0,0,1,.669.393.63.63,0,0,1-.029.815,1.067,1.067,0,0,1-.994.086" transform="translate(-190.607 -446.72)" fill="#e2c3a9"/>
        <path id="Trazado_1013875" data-name="Trazado 1013875" d="M264.28,748.249a.24.24,0,0,1-.233-.272,1.512,1.512,0,0,1,.056-.678.517.517,0,0,1,.531-.344,1.69,1.69,0,0,1,.669.393.63.63,0,0,1-.029.815,1.067,1.067,0,0,1-.994.086" transform="translate(-172.142 -486.983)" fill="#e2c3a9"/>
        <path id="Trazado_1013876" data-name="Trazado 1013876" d="M306.311,698.029a1.7,1.7,0,0,1,.669.393.63.63,0,0,1-.029.816,1.067,1.067,0,0,1-.994.086.24.24,0,0,1-.233-.271,1.512,1.512,0,0,1,.056-.678.516.516,0,0,1,.531-.345" transform="translate(-199.314 -455.085)" fill="#e2c3a9"/>
        <path id="Trazado_1013877" data-name="Trazado 1013877" d="M272.5,688.377a.24.24,0,0,1-.233-.271,1.512,1.512,0,0,1,.056-.678.516.516,0,0,1,.531-.345,1.691,1.691,0,0,1,.669.393.63.63,0,0,1-.029.816,1.068,1.068,0,0,1-.994.086" transform="translate(-177.501 -447.948)" fill="#e2c3a9"/>
        <path id="Trazado_1013878" data-name="Trazado 1013878" d="M280.385,755.757a.24.24,0,0,1-.233-.271,1.512,1.512,0,0,1,.056-.678.517.517,0,0,1,.531-.345,1.691,1.691,0,0,1,.669.393.63.63,0,0,1-.029.816,1.067,1.067,0,0,1-.994.086" transform="translate(-182.642 -491.878)" fill="#e2c3a9"/>
        <path id="Trazado_1013879" data-name="Trazado 1013879" d="M288.969,744.433a.321.321,0,0,1-.05-.18,1.5,1.5,0,0,1,.056-.678.516.516,0,0,1,.531-.345,1.693,1.693,0,0,1,.669.393.631.631,0,0,1-.029.816,1.068,1.068,0,0,1-.994.086.32.32,0,0,1-.183-.091" transform="translate(-188.358 -484.554)" fill="#e2c3a9"/>
        <path id="Trazado_1013880" data-name="Trazado 1013880" d="M302.992,729.585a1.068,1.068,0,0,1-.994.086.321.321,0,0,1-.183-.092.318.318,0,0,1-.05-.18,1.507,1.507,0,0,1,.056-.678.516.516,0,0,1,.531-.345,1.7,1.7,0,0,1,.669.393.631.631,0,0,1-.029.816" transform="translate(-196.732 -474.87)" fill="#e2c3a9"/>
        <path id="Trazado_1013881" data-name="Trazado 1013881" d="M299.033,767.107a1.513,1.513,0,0,1,.056-.678.517.517,0,0,1,.531-.345,1.694,1.694,0,0,1,.669.393.63.63,0,0,1-.029.815,1.067,1.067,0,0,1-.994.086.241.241,0,0,1-.233-.272" transform="translate(-194.951 -499.454)" fill="#e2c3a9"/>
        <path id="Trazado_1013882" data-name="Trazado 1013882" d="M291.125,793a1.7,1.7,0,0,1,.669.393.63.63,0,0,1-.029.816,1.068,1.068,0,0,1-.994.086.24.24,0,0,1-.233-.271,1.512,1.512,0,0,1,.056-.678.516.516,0,0,1,.531-.345" transform="translate(-189.413 -517.002)" fill="#e2c3a9"/>
        <path id="Trazado_1013883" data-name="Trazado 1013883" d="M297.756,810.153a.322.322,0,0,1-.05-.18,1.513,1.513,0,0,1,.056-.678.516.516,0,0,1,.531-.345,1.7,1.7,0,0,1,.669.393.631.631,0,0,1-.029.816,1.067,1.067,0,0,1-.994.086.32.32,0,0,1-.183-.091" transform="translate(-194.086 -527.401)" fill="#e2c3a9"/>
        <path id="Trazado_1013884" data-name="Trazado 1013884" d="M305.855,781.795a.313.313,0,0,1-.178-.09.319.319,0,0,1-.05-.18,1.5,1.5,0,0,1,.056-.678.6.6,0,0,1,.232-.277Z" transform="translate(-199.25 -508.903)" fill="#e2c3a9"/>
        <path id="Trazado_1013885" data-name="Trazado 1013885" d="M298.315,846.626a.24.24,0,0,1-.233-.272,1.511,1.511,0,0,1,.056-.678.517.517,0,0,1,.531-.345,1.691,1.691,0,0,1,.669.393.63.63,0,0,1-.029.816,1.068,1.068,0,0,1-.994.086" transform="translate(-194.331 -551.121)" fill="#e2c3a9"/>
        <path id="Trazado_1013886" data-name="Trazado 1013886" d="M276.894,774.516a.24.24,0,0,1-.233-.272,1.51,1.51,0,0,1,.056-.678.517.517,0,0,1,.531-.345,1.69,1.69,0,0,1,.669.393.63.63,0,0,1-.029.816,1.068,1.068,0,0,1-.994.086" transform="translate(-180.366 -504.108)" fill="#e2c3a9"/>
        <path id="Trazado_1013887" data-name="Trazado 1013887" d="M268.936,806.484a.24.24,0,0,1-.233-.272,1.511,1.511,0,0,1,.056-.678.517.517,0,0,1,.531-.345,1.69,1.69,0,0,1,.669.393.63.63,0,0,1-.029.815,1.067,1.067,0,0,1-.994.086" transform="translate(-175.177 -524.95)" fill="#e2c3a9"/>
        <path id="Trazado_1013888" data-name="Trazado 1013888" d="M279.869,827.891a.24.24,0,0,1-.233-.272,1.511,1.511,0,0,1,.056-.678.517.517,0,0,1,.531-.345,1.69,1.69,0,0,1,.669.393.63.63,0,0,1-.029.816,1.068,1.068,0,0,1-.994.086" transform="translate(-182.305 -538.906)" fill="#e2c3a9"/>
        <path id="Trazado_1013889" data-name="Trazado 1013889" d="M284.657,859.611a.24.24,0,0,1-.233-.272,1.511,1.511,0,0,1,.056-.678.517.517,0,0,1,.531-.345,1.691,1.691,0,0,1,.669.393.63.63,0,0,1-.029.815,1.067,1.067,0,0,1-.994.086" transform="translate(-185.427 -559.587)" fill="#e2c3a9"/>
        <path id="Trazado_1013890" data-name="Trazado 1013890" d="M261.325,787.608a1.7,1.7,0,0,1,.669.393.63.63,0,0,1-.029.816,1.067,1.067,0,0,1-.994.086.24.24,0,0,1-.233-.271,1.512,1.512,0,0,1,.056-.678.516.516,0,0,1,.531-.345" transform="translate(-169.984 -513.487)" fill="#e2c3a9"/>
        <path id="Trazado_1013891" data-name="Trazado 1013891" d="M259.023,823.991a.567.567,0,0,1-.218.127l.054-1.11a.8.8,0,0,1,.192.167.631.631,0,0,1-.029.816" transform="translate(-168.732 -536.571)" fill="#e2c3a9"/>
        <path id="Trazado_1013892" data-name="Trazado 1013892" d="M257.085,858.966a1.467,1.467,0,0,1,.579.36.63.63,0,0,1-.029.815.751.751,0,0,1-.615.152Z" transform="translate(-167.568 -560.014)" fill="#e2c3a9"/>
        <path id="Trazado_1013893" data-name="Trazado 1013893" d="M264.35,843a.24.24,0,0,1-.233-.272,1.512,1.512,0,0,1,.056-.678.517.517,0,0,1,.531-.345,1.69,1.69,0,0,1,.669.393.63.63,0,0,1-.029.815,1.068,1.068,0,0,1-.994.086" transform="translate(-172.187 -548.758)" fill="#e2c3a9"/>
        <path id="Trazado_1013894" data-name="Trazado 1013894" d="M270,704.438a.322.322,0,0,1-.05-.18,1.5,1.5,0,0,1,.056-.678.516.516,0,0,1,.531-.345,1.7,1.7,0,0,1,.669.393.631.631,0,0,1-.029.816,1.068,1.068,0,0,1-.994.086.319.319,0,0,1-.183-.091" transform="translate(-175.993 -458.479)" fill="#e2c3a9"/>
        <path id="Trazado_1013895" data-name="Trazado 1013895" d="M286.835,712.069a.24.24,0,0,1-.233-.271,1.512,1.512,0,0,1,.056-.678.517.517,0,0,1,.531-.345,1.691,1.691,0,0,1,.669.393.63.63,0,0,1-.029.816,1.068,1.068,0,0,1-.994.086" transform="translate(-186.847 -463.395)" fill="#e2c3a9"/>
        <path id="Trazado_1013896" data-name="Trazado 1013896" d="M274.2,729.765a.631.631,0,0,1-.029.816,1.068,1.068,0,0,1-.994.086.24.24,0,0,1-.233-.271,1.507,1.507,0,0,1,.056-.678.516.516,0,0,1,.531-.345,1.691,1.691,0,0,1,.669.393" transform="translate(-177.945 -475.52)" fill="#e2c3a9"/>
        <path id="Trazado_1013897" data-name="Trazado 1013897" d="M221.092,821.43l-21.856,3.081-47.914-1.462-3.642-45.314h76.708Z" transform="translate(-96.282 -507.055)" fill="#c88761"/>
        <path id="Trazado_1013898" data-name="Trazado 1013898" d="M297.222,777.735l-.645,46.776,21.581-2.951,3.306-43.825Z" transform="translate(-193.358 -507.055)" fill="#b37753"/>
        <path id="Trazado_1013899" data-name="Trazado 1013899" d="M200.146,777.735l-6.487,10.243L148.786,791.5l-1.106-13.765Z" transform="translate(-96.282 -507.055)" fill="#b37753"/>
        <path id="Trazado_1013900" data-name="Trazado 1013900" d="M134.674,777.735H187.14l-7.4,8.65H127.731Z" transform="translate(-83.276 -507.055)" fill="#e5a17a"/>
        <path id="Trazado_1013901" data-name="Trazado 1013901" d="M298.43,777.735l3.813,10.243,19.516,1.859.913-12.1Z" transform="translate(-194.566 -507.055)" fill="#9b6646"/>
        <path id="Trazado_1013902" data-name="Trazado 1013902" d="M298.43,777.735h24.242l4.325,8.65H302.679Z" transform="translate(-194.566 -507.055)" fill="#e5a17a"/>
        <path id="Trazado_1013903" data-name="Trazado 1013903" d="M338.171,929.955c3.827-.825-6.877-.182-7.669,1.679-1.647,3.869,26.03,1,28.876.637,4.718-.608,22.78-3.661,18.557,5.981-2.322,5.3-17.339.913-17.626,5.371-.549,8.536,22.219,1.3,24.676-2.23,2.946-4.237-1.728-12.537-3.622-15.305-1.591-3.3-.865-5.773-2.589-8.566-4.081-6.612-11.926-9.155-19.37-9.3-8.127-.156-20.024,2.3-23.612,10.535-.688,1.579.893,5.551.233,6.54-.673,1.008-7.959,2.536-7.224,4.677.643,1.873,8.657.132,9.37-.022" transform="translate(-214.333 -592.125)" fill="#4d3932"/>
        <path id="Trazado_1013904" data-name="Trazado 1013904" d="M346.109,920.533a10.6,10.6,0,0,0-7.013.06.667.667,0,0,1-.71-.161c-.724-.751-2.7-2.566-4.951-2.7a.668.668,0,0,0-.65.39,4.863,4.863,0,0,0-.157,3.913c.437.984,1.5,1.611,1.2,2.273a9.988,9.988,0,0,0-.323,3.352,8.094,8.094,0,0,0,1.408,4.3c2.5,3.713,10.4,6.1,17.93.486.027-.02,5.287-4.95-.141-9.983a.644.644,0,0,1-.2-.476c0-.9-.061-3.716-.891-5.173a.663.663,0,0,0-.7-.325c-.813.155-2.585.826-3.988,3.7a.663.663,0,0,1-.812.338" transform="translate(-216.635 -597.51)" fill="#382924"/>
        <path id="Trazado_1013905" data-name="Trazado 1013905" d="M802.616,370l-44.889-.31V343.051h43.213Z" transform="translate(-494.011 -223.656)" fill="#824c32"/>
        <path id="Trazado_1013906" data-name="Trazado 1013906" d="M650.532,195.143c-.565.374-1.111.781-1.644,1.2a44.378,44.378,0,0,1-10.008,6.177,41.556,41.556,0,0,1-13.855,3.2,33.159,33.159,0,0,1-14.076-2.2c-4.787-1.912-7.828-2.036-12.036-4.938-.031,4.347-3.135,10.692-1.49,10.928,16.282,3.316,29.1,13.724,45.386,6.83,5.092-1.71,14.849-5.353,18.289-9.752.718-.918.8-2.985.872-4.095a12.564,12.564,0,0,0-.5-4.705,6.082,6.082,0,0,0-7.425-4.277,11.3,11.3,0,0,0-3.514,1.637" transform="translate(-389.186 -126.028)" fill="#824c32"/>
        <path id="Trazado_1013907" data-name="Trazado 1013907" d="M806.766,127.357s-4.725,16.373,2.609,22.757l-8.614,7.16-9.436-9.054a31.719,31.719,0,0,0,2.961-8.864c.38-3.074-2.834-10.925-2.834-10.925Z" transform="translate(-515.917 -83.031)" fill="#703115"/>
        <path id="Trazado_1013908" data-name="Trazado 1013908" d="M763.3,167.209s5.96,4.284,13.6-1.3c0,0,.318,4.445,3.446,6.426s11.594-.216,16.577,3.64.365,15.274-1.489,33.892c-1.651,16.575-1.118,21.979-1.118,21.979l-44.331,1.118-.339-18.623c-1.245-7.679-5.065-11.012-2.157-18.228,2.717-6.741,6.214-12.047,5.67-20.6,0,0,10.33-.109,10.143-8.3" transform="translate(-486.639 -108.163)" fill="#f2e0d1"/>
        <path id="Trazado_1013909" data-name="Trazado 1013909" d="M940.675,847.466l5.139,14.434,8.321-2.935-2.456-16.778Z" transform="translate(-613.287 -549.075)" fill="#824c32"/>
        <path id="Trazado_1013910" data-name="Trazado 1013910" d="M756.648,848.844l.258,18.266,8.612.1,2.955-19.8Z" transform="translate(-493.308 -552.476)" fill="#824c32"/>
        <path id="Trazado_1013911" data-name="Trazado 1013911" d="M796.068,420.491c-3.661-16.4-9.4-33.885-15.7-46.416,0,0-19.925,5.6-26.606,5.594-17.957-.007-17.447-2.67-17.447-2.67s-9.073,47.973-11.169,92.43c-1.439,30.518,3.446,72.061,4.65,72.1,1.745.17,20.8,1.922,22.352.559.7-1.183,1.812-110.513,9.109-120.255s14.144,48.786,17.527,58.788c3.081,9.109,14.52,61.547,15.113,62.629,1.105,4.483,8.329,2.1,11.337.887,1.824-.611,10.218-1.547,11.142-3.57.19-1.82-15.838-100.075-20.3-120.078" transform="translate(-472.596 -243.882)" fill="#466987"/>
        <path id="Trazado_1013912" data-name="Trazado 1013912" d="M813.194,442.506c-1.971-1.837-2.75-4.724-3.377-7.044a110.045,110.045,0,0,1-3.514-16.247c-.062-.554-.116-1.111-.17-1.668a38.406,38.406,0,0,0-.694-4.859c-.085,0-.168.013-.255.013-.106,0-.206-.009-.307-.015a37.014,37.014,0,0,1,.713,4.914c.054.56.108,1.12.171,1.677A110.4,110.4,0,0,0,809.29,435.6c.645,2.388,1.447,5.359,3.531,7.3a.273.273,0,0,0,.373-.4" transform="translate(-524.752 -269.055)" fill="#2b4054"/>
        <path id="Trazado_1013913" data-name="Trazado 1013913" d="M950.2,882.188a9.277,9.277,0,0,1,2.906-.637c.937-.039,1.894.1,2.841.141a5.114,5.114,0,0,0,1.336,0c.495-.114.823-.311,1.38.014a4.663,4.663,0,0,1,1.329,1.359,8.769,8.769,0,0,1,1.311,2.721,37.769,37.769,0,0,1,.558,4.084c.614,3.9,2.9,6.938,3.987,10.618.811,2.753,1.546,6.85.023,8.661a4.1,4.1,0,0,1-1.784,1.142,20.573,20.573,0,0,1-4.928,1.112c-.858.1-1.721.173-2.584.245a2.426,2.426,0,0,1-1.945-.32,7.559,7.559,0,0,1-1.764-2.632,39.946,39.946,0,0,1-2.734-10.844,28.936,28.936,0,0,0-1.34-4.55q-.763-2.394-1.368-4.852c-.442-1.8-.679-3.729.268-4.838a3.687,3.687,0,0,1,1.281-.895c.4-.194.812-.374,1.227-.531" transform="translate(-617.435 -574.725)" fill="#466987"/>
        <path id="Trazado_1013914" data-name="Trazado 1013914" d="M980.221,902.142l.2-.6a2.387,2.387,0,0,1-.428-.764,41.649,41.649,0,0,1-2.107-7.4,105.582,105.582,0,0,1-1.719-11.525c-.063.017-.127.034-.195.05a1.805,1.805,0,0,1-.272.036,106.839,106.839,0,0,0,1.725,11.525,42.734,42.734,0,0,0,2.17,7.6,3.168,3.168,0,0,0,.628,1.069" transform="translate(-636.121 -574.939)" fill="#1f2845"/>
        <path id="Trazado_1013915" data-name="Trazado 1013915" d="M951.572,891.611l1.473,5.169c.482,1.693.981,3.443,1.342,5.187q.065.314.126.629c.116.585.235,1.19.394,1.784.072.269.152.538.233.806a9.171,9.171,0,0,1,.459,2.093l.483.087a10.174,10.174,0,0,0-.506-2.366c-.077-.258-.155-.515-.224-.772-.149-.557-.264-1.143-.376-1.708-.042-.213-.085-.426-.128-.638-.37-1.787-.875-3.558-1.364-5.277l-1.472-5.164a14.182,14.182,0,0,0-1.647-4.093,9.417,9.417,0,0,0-.87-1.041,2.739,2.739,0,0,0-.411.365c.053.058.106.118.159.175a9.067,9.067,0,0,1,.827.984,13.162,13.162,0,0,1,1.5,3.781" transform="translate(-618.77 -577.839)" fill="#1f2845"/>
        <path id="Trazado_1013916" data-name="Trazado 1013916" d="M985.31,922.858c.136.053.3.09.366-.072a.7.7,0,0,0,.012-.308.935.935,0,0,0-.177-.522.424.424,0,0,0-.172-.1.258.258,0,0,0-.2-.02.309.309,0,0,0-.121.253,1.6,1.6,0,0,0,.021.357.8.8,0,0,0,.079.291.353.353,0,0,0,.188.118" transform="translate(-642.198 -600.997)" fill="#1f2845"/>
        <path id="Trazado_1013917" data-name="Trazado 1013917" d="M983.2,913.074c.136.053.3.09.366-.072a.7.7,0,0,0,.012-.308.936.936,0,0,0-.177-.522.425.425,0,0,0-.172-.1.258.258,0,0,0-.2-.02.308.308,0,0,0-.121.253,1.6,1.6,0,0,0,.021.357.8.8,0,0,0,.079.291.353.353,0,0,0,.188.118" transform="translate(-640.822 -594.618)" fill="#1f2845"/>
        <path id="Trazado_1013918" data-name="Trazado 1013918" d="M980.605,897.589c.136.053.3.09.366-.072a.7.7,0,0,0,.012-.308.936.936,0,0,0-.177-.522.424.424,0,0,0-.172-.1.258.258,0,0,0-.2-.02.309.309,0,0,0-.121.253,1.6,1.6,0,0,0,.021.357.794.794,0,0,0,.079.291.353.353,0,0,0,.188.118" transform="translate(-639.131 -584.523)" fill="#1f2845"/>
        <path id="Trazado_1013919" data-name="Trazado 1013919" d="M981.736,905.711c.136.053.3.09.366-.072a.7.7,0,0,0,.012-.308.936.936,0,0,0-.177-.522.424.424,0,0,0-.172-.1.258.258,0,0,0-.2-.02.308.308,0,0,0-.121.253,1.6,1.6,0,0,0,.021.357.8.8,0,0,0,.079.291.352.352,0,0,0,.188.118" transform="translate(-639.868 -589.818)" fill="#1f2845"/>
        <path id="Trazado_1013920" data-name="Trazado 1013920" d="M979.217,889.718c.136.053.3.09.366-.072a.7.7,0,0,0,.012-.308.935.935,0,0,0-.177-.522.424.424,0,0,0-.172-.1.258.258,0,0,0-.2-.02.309.309,0,0,0-.121.253,1.6,1.6,0,0,0,.021.357.794.794,0,0,0,.079.291.352.352,0,0,0,.188.118" transform="translate(-638.226 -579.391)" fill="#1f2845"/>
        <path id="Trazado_1013921" data-name="Trazado 1013921" d="M961.446,929.95c-.1.11-.233.221-.359.1a.683.683,0,0,1-.144-.27.942.942,0,0,1-.068-.548.443.443,0,0,1,.111-.166.265.265,0,0,1,.167-.108c.078,0,.159.073.218.171a1.6,1.6,0,0,1,.136.329.8.8,0,0,1,.055.3.367.367,0,0,1-.117.192" transform="translate(-626.444 -605.649)" fill="#1f2845"/>
        <path id="Trazado_1013922" data-name="Trazado 1013922" d="M959.1,920.223c-.1.11-.233.221-.358.1a.683.683,0,0,1-.144-.27.942.942,0,0,1-.068-.549.443.443,0,0,1,.111-.166.265.265,0,0,1,.167-.108c.078,0,.159.073.218.171a1.586,1.586,0,0,1,.136.329.8.8,0,0,1,.055.3.368.368,0,0,1-.117.192" transform="translate(-624.916 -599.307)" fill="#1f2845"/>
        <path id="Trazado_1013923" data-name="Trazado 1013923" d="M954.726,905.171c-.1.11-.233.221-.359.1a.681.681,0,0,1-.144-.27.942.942,0,0,1-.068-.549.444.444,0,0,1,.111-.166.264.264,0,0,1,.167-.108c.078,0,.159.073.218.171a1.594,1.594,0,0,1,.136.329.8.8,0,0,1,.055.3.368.368,0,0,1-.117.193" transform="translate(-622.063 -589.494)" fill="#1f2845"/>
        <path id="Trazado_1013924" data-name="Trazado 1013924" d="M957.227,912.96c-.1.11-.233.221-.359.1a.682.682,0,0,1-.144-.27.942.942,0,0,1-.068-.549.445.445,0,0,1,.111-.166.265.265,0,0,1,.167-.108c.078,0,.159.073.218.171a1.6,1.6,0,0,1,.136.329.8.8,0,0,1,.055.3.368.368,0,0,1-.117.193" transform="translate(-623.694 -594.572)" fill="#1f2845"/>
        <path id="Trazado_1013925" data-name="Trazado 1013925" d="M952.563,897.489c-.1.11-.233.221-.358.1a.684.684,0,0,1-.144-.27.942.942,0,0,1-.068-.549.444.444,0,0,1,.111-.166.265.265,0,0,1,.167-.108c.078,0,.159.073.218.171a1.592,1.592,0,0,1,.136.329.8.8,0,0,1,.055.3.367.367,0,0,1-.117.192" transform="translate(-620.653 -584.485)" fill="#1f2845"/>
        <path id="Trazado_1013926" data-name="Trazado 1013926" d="M961.951,919.837a9.7,9.7,0,0,1,.617-1.339,3.807,3.807,0,0,1,.922-.877l1.983-1.285,1.967-1.284a8.469,8.469,0,0,0,.932-.741,1.4,1.4,0,0,1,1.132-.27,1.767,1.767,0,0,0-.9.758,8.8,8.8,0,0,1-.954.759l-1.98,1.293-1.969,1.276a3.384,3.384,0,0,0-.865.826c-.306.258-.586.58-.883.885" transform="translate(-627.159 -595.892)" fill="#f2e0d1"/>
        <path id="Trazado_1013927" data-name="Trazado 1013927" d="M957.365,903.172a13.12,13.12,0,0,1,.751-1.287q.459-.5.936-.963a19.588,19.588,0,0,1,1.989-1.685,13.135,13.135,0,0,1,2.122-1.368c.385-.152.768-.267,1.156-.386a2.693,2.693,0,0,1,1.264.144,2.9,2.9,0,0,0-1.13.4c-.381.117-.768.232-1.136.379a13,13,0,0,0-2.075,1.342,19.327,19.327,0,0,0-1.955,1.656c-.313.3-.623.617-.919.952-.341.253-.664.543-1,.817" transform="translate(-624.169 -585.118)" fill="#f2e0d1"/>
        <path id="Trazado_1013928" data-name="Trazado 1013928" d="M968.622,920.245a6.943,6.943,0,0,0-1.183-.326,7.889,7.889,0,0,0-1.164-.355c-.779-.175-1.565-.287-2.345-.385a16.975,16.975,0,0,0-2.321-.131,11.242,11.242,0,0,0-1.139.076c-.393-.047-.78-.053-1.177-.075a7.411,7.411,0,0,1,1.079-.474,11.486,11.486,0,0,1,1.161-.077,17.243,17.243,0,0,1,2.353.132c.789.1,1.574.21,2.372.389a9.062,9.062,0,0,1,1.2.364,6.681,6.681,0,0,1,1.16.862" transform="translate(-625.427 -598.825)" fill="#f2e0d1"/>
        <path id="Trazado_1013929" data-name="Trazado 1013929" d="M961.977,926.227c.341-.144.678-.273,1-.441a10.186,10.186,0,0,0,1.028-.288c.68-.224,1.349-.5,2.027-.755s1.366-.487,2.06-.688l1.046-.279c.371.006.738,0,1.114.038l-.989.506-1.037.276q-1.033.3-2.043.682c-.674.255-1.347.53-2.036.757q-.516.172-1.048.3a5.6,5.6,0,0,1-1.126-.108" transform="translate(-627.176 -602.269)" fill="#f2e0d1"/>
        <path id="Trazado_1013930" data-name="Trazado 1013930" d="M954.959,895.675c.258-.445.536-.853.813-1.269.32-.334.644-.665.982-.968a11.754,11.754,0,0,1,2.169-1.483c.749-.409,1.508-.783,2.274-1.137l1.155-.51c.414-.074.822-.161,1.243-.2l-1.084.736-1.149.506c-.761.352-1.517.724-2.26,1.13a11.509,11.509,0,0,0-2.12,1.448q-.495.447-.963.955c-.355.256-.7.544-1.06.794" transform="translate(-622.6 -580.317)" fill="#f2e0d1"/>
        <path id="Trazado_1013931" data-name="Trazado 1013931" d="M959.413,911.209a6.419,6.419,0,0,1,.773-1.127c.324-.245.654-.472.98-.692.655-.437,1.313-.872,1.993-1.257.672-.405,1.4-.665,2.055-1.044.322-.191.623-.478.965-.689a3.874,3.874,0,0,1,1.131-.246,6.81,6.81,0,0,0-.937.76c-.323.2-.623.484-.97.692-.694.4-1.4.646-2.061,1.048-.67.379-1.324.811-1.978,1.247-.326.221-.649.437-.958.68a7.481,7.481,0,0,0-.993.626" transform="translate(-625.504 -590.78)" fill="#f2e0d1"/>
        <path id="Trazado_1013932" data-name="Trazado 1013932" d="M957.477,910.969a6.114,6.114,0,0,1,.965-.848,9.962,9.962,0,0,1,1.126-.348,9.151,9.151,0,0,1,1.159-.2l.608-.026.616.091,2.39.47c.4.079.8.157,1.2.253a9.406,9.406,0,0,1,1.206.717c-.4,0-.8-.021-1.187.007-.394-.094-.79-.171-1.188-.25l-2.387-.469-.574-.086-.559.025a8.832,8.832,0,0,0-1.122.2,8.074,8.074,0,0,0-1.088.342Z" transform="translate(-624.242 -592.99)" fill="#f2e0d1"/>
        <path id="Trazado_1013933" data-name="Trazado 1013933" d="M954.977,904.177a8.078,8.078,0,0,1,1.083-.659c.395-.079.79-.159,1.189-.218a19.7,19.7,0,0,1,2.418-.219,20.462,20.462,0,0,1,2.46.079c.413.04.826.09,1.241.153l.639.283a.74.74,0,0,1,.332.337c.074.14.124.29.234.34-.107.028-.226-.119-.314-.2a.278.278,0,0,0-.248-.1l-.6.07c-.408-.062-.815-.111-1.222-.151a20.1,20.1,0,0,0-2.422-.078,19.344,19.344,0,0,0-2.381.215c-.392.061-.783.131-1.169.22-.411-.022-.821-.031-1.243-.074" transform="translate(-622.612 -588.771)" fill="#f2e0d1"/>
        <path id="Trazado_1013934" data-name="Trazado 1013934" d="M952.925,896.377a5.783,5.783,0,0,0,1.148-.456l1.192-.276a11.125,11.125,0,0,1,2.484-.21,22.589,22.589,0,0,1,2.523.212l1.262.181c.428.186.854.344,1.284.555-.41.085-.824.115-1.236.175l-1.256-.18a22.148,22.148,0,0,0-2.487-.209,10.85,10.85,0,0,0-2.417.2l-1.191.282a3.482,3.482,0,0,1-1.3-.277" transform="translate(-621.274 -583.789)" fill="#f2e0d1"/>
        <path id="Trazado_1013935" data-name="Trazado 1013935" d="M976.75,938.406a10.043,10.043,0,0,0-1.1-1.989,7.9,7.9,0,0,0-1.373-1.368,19.673,19.673,0,0,0-3.93-2.528,3.856,3.856,0,0,0-1.1-.384,2.977,2.977,0,0,0-.885.039,10.246,10.246,0,0,0-2.644.805,4.483,4.483,0,0,0-2.188,1.856,7.3,7.3,0,0,0-.67,1.852,17.157,17.157,0,0,0-.411,2.57c-.036.417-.056.841-.065,1.269.153.39.314.776.489,1.153a7.561,7.561,0,0,0,1.764,2.631,2.426,2.426,0,0,0,1.945.32c.863-.072,1.727-.143,2.585-.245a20.558,20.558,0,0,0,4.928-1.112,4.094,4.094,0,0,0,1.784-1.142,5.523,5.523,0,0,0,.873-3.729" transform="translate(-627.44 -607.707)" fill="#f7efe8"/>
        <path id="Trazado_1013936" data-name="Trazado 1013936" d="M970.176,948.868q-2.252.461-4.514.87a5.349,5.349,0,0,1-1.944.1,6.724,6.724,0,0,1-1.154-.364l-1.477-.565a22.347,22.347,0,0,0,.94,2.409,7.563,7.563,0,0,0,1.764,2.632,2.427,2.427,0,0,0,1.945.32c.863-.072,1.727-.143,2.585-.245a20.575,20.575,0,0,0,4.928-1.112,4.091,4.091,0,0,0,1.784-1.142c.9-1.073,1.009-2.947.781-4.869a15.968,15.968,0,0,1-5.636,1.961" transform="translate(-626.595 -617.349)" fill="#1f2845"/>
        <path id="Trazado_1013937" data-name="Trazado 1013937" d="M998.86,953.882a.113.113,0,0,1-.056,0,.333.333,0,0,1-.185-.32,10.546,10.546,0,0,0-.449-2.888c-.045-.147-.007-.3.083-.337s.2.049.243.2a11.4,11.4,0,0,1,.485,3.128c0,.121-.05.208-.122.223" transform="translate(-650.761 -619.578)" fill="#466987"/>
        <path id="Trazado_1013938" data-name="Trazado 1013938" d="M995.887,955.129c-.078.016-.166-.052-.212-.172a.315.315,0,0,1,.054-.357s-.01-.056-.04-.189l-.514-2.313c-.033-.15.016-.29.111-.312h0c.094-.02.2.084.23.234l.514,2.313c.12.539-.015.72-.106.78a.123.123,0,0,1-.039.016" transform="translate(-648.814 -620.528)" fill="#466987"/>
        <path id="Trazado_1013939" data-name="Trazado 1013939" d="M992.4,956.444h-.009c-.1.012-.2-.1-.224-.253-.142-.784-.323-1.573-.538-2.342-.041-.149,0-.3.09-.331s.2.058.24.206c.223.8.41,1.612.557,2.425.026.146-.025.275-.116.294" transform="translate(-646.499 -621.655)" fill="#466987"/>
        <path id="Trazado_1013940" data-name="Trazado 1013940" d="M967.189,959.49c-.086.018-.182-.069-.222-.2a2.6,2.6,0,0,0-.21-.465c-.032-.062-.065-.123-.1-.186a7.9,7.9,0,0,1-.565-1.716,3.844,3.844,0,0,0-.14-.516.357.357,0,0,1-.166-.336c0-.108.071-.23.136-.225.1-.021.205.082.26.188a3.308,3.308,0,0,1,.243.763,7.3,7.3,0,0,0,.508,1.57l.088.169a3.21,3.21,0,0,1,.27.617c.044.148.005.3-.085.334l-.02.006" transform="translate(-629.662 -623.172)" fill="#466987"/>
        <path id="Trazado_1013941" data-name="Trazado 1013941" d="M971.165,960.525l-.093.033-.145-.09a2.779,2.779,0,0,1-.389-1.012c-.153-.639-.329-1.247-.527-1.833a.3.3,0,0,1,.07-.346c.094-.046.2.033.247.177.207.612.389,1.245.543,1.883a2.7,2.7,0,0,0,.228.7.294.294,0,0,1,.13.178c.04.149.029.284-.063.316" transform="translate(-632.399 -624.101)" fill="#466987"/>
        <path id="Trazado_1013942" data-name="Trazado 1013942" d="M974.182,960.1l-.023,0c-.1,0-.194-.123-.214-.275a10.111,10.111,0,0,0-.685-2.553.327.327,0,0,1,.043-.363c.081-.063.2,0,.253.139a11,11,0,0,1,.745,2.777c.018.14-.034.255-.119.273" transform="translate(-634.51 -623.853)" fill="#466987"/>
        <path id="Trazado_1013943" data-name="Trazado 1013943" d="M977.978,959.565h-.006c-.1.014-.2-.1-.227-.248-.175-.914-.38-1.829-.609-2.72-.039-.149.006-.294.1-.323s.2.068.237.217c.234.908.443,1.841.622,2.773.028.148-.023.28-.115.3" transform="translate(-637.05 -623.451)" fill="#466987"/>
        <path id="Trazado_1013944" data-name="Trazado 1013944" d="M981.468,959.043c-.078.016-.167-.053-.213-.175a3.027,3.027,0,0,1-.139-.591c-.128-.79-.285-1.559-.473-2.312-.037-.15.008-.293.1-.321s.2.072.236.221c.193.778.356,1.57.483,2.355a2.467,2.467,0,0,0,.1.452.311.311,0,0,1-.057.355.12.12,0,0,1-.038.015" transform="translate(-639.337 -623.043)" fill="#466987"/>
        <path id="Trazado_1013945" data-name="Trazado 1013945" d="M985.387,958.707c-.094.02-.2-.084-.23-.233l-.658-2.942c-.034-.15.015-.29.11-.312h0c.094-.02.2.084.23.233l.658,2.943c.034.15-.016.29-.11.312h0" transform="translate(-641.852 -622.766)" fill="#466987"/>
        <path id="Trazado_1013946" data-name="Trazado 1013946" d="M988.922,957.647c-.092.019-.194-.08-.229-.227l-.377-1.577a4.946,4.946,0,0,0-.3-.966.344.344,0,0,1,.024-.373c.079-.072.192-.023.256.112a5.64,5.64,0,0,1,.358,1.135l.377,1.577c.036.15-.011.292-.105.317h-.006" transform="translate(-644.126 -622.281)" fill="#466987"/>
        <path id="Trazado_1013947" data-name="Trazado 1013947" d="M706.163,904.2c5.107-.618,10.183-1.433,15.255-2.268,2.369-.39,3.22-1.372,3.111-3.7a25.4,25.4,0,0,0-2.353-9.55c-.191-.413-.442-.783-.972-.8-.56-.022-.592.476-.792.8-1.407,2.286-2.986,3.171-4.887,2.584a8.087,8.087,0,0,1-3.08-1.932c-.592-.552-1.224-1.064-1.812-1.619a8.585,8.585,0,0,0-.967-.8c-.4-.279,1.48-.927.818-1.758a1.858,1.858,0,0,0-1.736-.363,39.871,39.871,0,0,0-3.76,2.093c-.459.229-.949.5-1.485.8a35.414,35.414,0,0,0-4.4,2.61,27.874,27.874,0,0,1-4.22,2.413c-.984.428-2,.8-3.008,1.218-4.239,1.773-6.429,6.369-3.954,10.359,1.03,1.661,2.9,1.7,4.658,1.539,2.27-.209,4.523-.6,6.788-.872s4.535-.506,6.8-.756" transform="translate(-447.819 -576.816)" fill="#466987"/>
        <path id="Trazado_1013948" data-name="Trazado 1013948" d="M688.54,923.369a7.086,7.086,0,0,1-.706-1.495,25.381,25.381,0,0,0,3.671-.642q1.857-.413,3.67-.994a36.049,36.049,0,0,0,6.579-2.757,13.246,13.246,0,0,0,1.917-1.288,11.994,11.994,0,0,1,2.378-1.8,5.042,5.042,0,0,1,3.517-.136.688.688,0,0,1,.334.174.594.594,0,0,1,.1.487,4.54,4.54,0,0,1-1.117,1.843.816.816,0,0,0-.216.59.743.743,0,0,0,.286.418c1.144.962,2.671.49,3.833-.172.677-.386,1.367-.754,2.047-1.136a3.758,3.758,0,0,1,1.006-.553c2.726-1.456,6.064-2.537,8.839-1.178.084.041.165.089.247.136q.175,1.214.234,2.452c.109,2.325-.741,3.307-3.11,3.7-5.072.835-10.148,1.649-15.255,2.268-2.268.25-4.538.481-6.8.756s-4.518.663-6.788.872c-1.759.162-3.628.122-4.658-1.538" transform="translate(-448.444 -595.898)" fill="#f7efe8"/>
        <path id="Trazado_1013949" data-name="Trazado 1013949" d="M705.8,926.265c4.167-.681,8.29-1.689,12.5-2.023a17.323,17.323,0,0,0,5.032-.792c.479-.221,1.233-.8,1.946-1.184.009.145.019.29.025.435.109,2.325-.741,3.307-3.111,3.7-5.072.835-10.148,1.649-15.255,2.267-2.268.25-4.538.481-6.8.756s-4.518.663-6.788.872c-1.758.162-3.628.122-4.658-1.538a7.189,7.189,0,0,1-.628-1.279,103.66,103.66,0,0,0,17.739-1.211" transform="translate(-448.591 -601.283)" fill="#1f2845"/>
        <path id="Trazado_1013950" data-name="Trazado 1013950" d="M692.562,911.777a8.758,8.758,0,0,1,3.015-2.072c.64-.267,1.285-.514,1.923-.769a3.02,3.02,0,0,1,.883.994c.178.327.445.868.207,1.211a4.713,4.713,0,0,1-1.321.839,3.329,3.329,0,0,1-1.732.169,23.141,23.141,0,0,1-2.974-.372" transform="translate(-451.527 -592.593)" fill="#f7efe8"/>
        <path id="Trazado_1013951" data-name="Trazado 1013951" d="M692.187,900.413c.126-.141.255-.279.392-.412a6.909,6.909,0,0,0,4.619.049,13.97,13.97,0,0,0,1.657-.757l.042-.022c1.426-.728,2.9-1.482,4.343-2.237,3.1-1.624,5.448-2.94,7.61-4.268.628-.386,1.242-.773,1.824-1.152.132-.086.294-.175.466-.27l.11-.061q.225.161.45.349c-.1.059-.205.116-.305.172-.163.09-.317.175-.433.251-.586.381-1.2.772-1.836,1.16-2.173,1.334-4.53,2.656-7.641,4.285-1.445.757-2.921,1.511-4.348,2.24l-.042.022a14.348,14.348,0,0,1-1.721.785,7.029,7.029,0,0,1-1.575.358,7.587,7.587,0,0,1-3.61-.491" transform="translate(-451.282 -581.084)" fill="#1f2845"/>
        <path id="Trazado_1013952" data-name="Trazado 1013952" d="M715.073,915.6c.023.218.081.48.29.547a.538.538,0,0,0,.336-.038.652.652,0,0,0,.452-.364.691.691,0,0,0,0-.279.613.613,0,0,0-.094-.3.407.407,0,0,0-.34-.14,1.128,1.128,0,0,0-.368.1.536.536,0,0,0-.264.173.563.563,0,0,0-.016.309" transform="translate(-466.193 -596.558)" fill="#1f2845"/>
        <path id="Trazado_1013953" data-name="Trazado 1013953" d="M724.368,911.6c.023.218.081.48.29.547a.538.538,0,0,0,.335-.038.652.652,0,0,0,.452-.364.692.692,0,0,0,0-.279.613.613,0,0,0-.094-.3.407.407,0,0,0-.34-.14,1.126,1.126,0,0,0-.368.1.536.536,0,0,0-.264.173.564.564,0,0,0-.016.309" transform="translate(-472.253 -593.956)" fill="#1f2845"/>
        <path id="Trazado_1013954" data-name="Trazado 1013954" d="M739.231,903.866c.023.218.081.48.29.546a.536.536,0,0,0,.335-.037.652.652,0,0,0,.452-.364.693.693,0,0,0,0-.279.612.612,0,0,0-.094-.3.407.407,0,0,0-.34-.14,1.125,1.125,0,0,0-.368.1.535.535,0,0,0-.264.173.564.564,0,0,0-.016.309" transform="translate(-481.943 -588.911)" fill="#1f2845"/>
        <path id="Trazado_1013955" data-name="Trazado 1013955" d="M731.784,907.815c.023.218.081.48.29.547a.54.54,0,0,0,.336-.038.651.651,0,0,0,.452-.364.692.692,0,0,0,0-.279.617.617,0,0,0-.094-.3.407.407,0,0,0-.34-.14,1.124,1.124,0,0,0-.367.1.535.535,0,0,0-.264.173.564.564,0,0,0-.016.309" transform="translate(-477.088 -591.486)" fill="#1f2845"/>
        <path id="Trazado_1013956" data-name="Trazado 1013956" d="M746.8,900.332c.023.218.081.48.29.546a.536.536,0,0,0,.336-.037.651.651,0,0,0,.452-.364.691.691,0,0,0,0-.279.613.613,0,0,0-.094-.3.407.407,0,0,0-.34-.14,1.126,1.126,0,0,0-.367.1.536.536,0,0,0-.264.173.565.565,0,0,0-.016.309" transform="translate(-486.878 -586.607)" fill="#1f2845"/>
        <path id="Trazado_1013957" data-name="Trazado 1013957" d="M789.108,928.617a.2.2,0,0,0,.172-.158l.234-1.19a.747.747,0,0,0-.027-.492.2.2,0,0,0-.352.178.457.457,0,0,1-.008.238l-.234,1.19a.2.2,0,0,0,.155.231.2.2,0,0,0,.06,0" transform="translate(-514.328 -604.155)" fill="#466987"/>
        <path id="Trazado_1013958" data-name="Trazado 1013958" d="M784.961,929.634a.2.2,0,0,0,.161-.121,1.268,1.268,0,0,0,.039-.649l-.005-.045a5.181,5.181,0,0,1-.029-.835.2.2,0,0,0-.394-.018,5.574,5.574,0,0,0,.031.9l.005.046a.953.953,0,0,1-.012.453.2.2,0,0,0,.2.27" transform="translate(-511.615 -604.878)" fill="#466987"/>
        <path id="Trazado_1013959" data-name="Trazado 1013959" d="M780.084,930.663a.2.2,0,0,0,.175-.187,7.932,7.932,0,0,0-.1-1.617.2.2,0,0,0-.227-.163.2.2,0,0,0-.163.226,7.489,7.489,0,0,1,.093,1.536.2.2,0,0,0,.188.205h.03" transform="translate(-508.384 -605.475)" fill="#466987"/>
        <path id="Trazado_1013960" data-name="Trazado 1013960" d="M774.669,931.1a.2.2,0,0,0,.174-.179,9.06,9.06,0,0,0-.024-1.781.2.2,0,0,0-.218-.174h0a.2.2,0,0,0-.174.218,8.64,8.64,0,0,1,.023,1.7.2.2,0,0,0,.218.213" transform="translate(-504.899 -605.649)" fill="#466987"/>
        <path id="Trazado_1013961" data-name="Trazado 1013961" d="M769.365,931.6a.2.2,0,0,0,.166-.135,1.927,1.927,0,0,0,.042-.766l-.01-.131a4.194,4.194,0,0,1,.019-.768.2.2,0,0,0-.391-.046,4.614,4.614,0,0,0-.021.841l.011.136a1.614,1.614,0,0,1-.024.613.2.2,0,0,0,.127.248.2.2,0,0,0,.082.008" transform="translate(-501.457 -606.054)" fill="#466987"/>
        <path id="Trazado_1013962" data-name="Trazado 1013962" d="M764.4,932.411a.2.2,0,0,0,.156-.11,1.048,1.048,0,0,0,.051-.6c-.049-.4-.093-.8-.128-1.2a.2.2,0,0,0-.214-.179.2.2,0,0,0-.178.214c.036.4.08.813.13,1.215a.747.747,0,0,1-.014.384.2.2,0,0,0,.091.263.194.194,0,0,0,.108.019" transform="translate(-498.156 -606.532)" fill="#466987"/>
        <path id="Trazado_1013963" data-name="Trazado 1013963" d="M759.524,933.279a.2.2,0,0,0,.1-.039c.288-.22.227-.622.195-.838a5.2,5.2,0,0,1-.05-1.074.2.2,0,1,0-.393-.022,5.658,5.658,0,0,0,.053,1.155c.03.2.046.4-.044.466a.2.2,0,0,0,.141.352" transform="translate(-495.041 -607.056)" fill="#466987"/>
        <path id="Trazado_1013964" data-name="Trazado 1013964" d="M754.268,934.132l.017,0a.2.2,0,0,0,.155-.232,5.188,5.188,0,0,1-.085-1.428.2.2,0,1,0-.393-.031,5.583,5.583,0,0,0,.091,1.536.2.2,0,0,0,.214.157" transform="translate(-491.546 -607.798)" fill="#466987"/>
        <path id="Trazado_1013965" data-name="Trazado 1013965" d="M749.042,935.335h.006a.2.2,0,0,0,.167-.223c-.08-.565-.135-1.139-.165-1.708a.2.2,0,1,0-.393.021c.03.581.087,1.167.168,1.743a.2.2,0,0,0,.216.168" transform="translate(-488.099 -608.423)" fill="#466987"/>
        <path id="Trazado_1013966" data-name="Trazado 1013966" d="M743.773,936.027h0a.2.2,0,0,0,.172-.22,6.741,6.741,0,0,1-.03-1.348.2.2,0,0,0-.393-.031,7.166,7.166,0,0,0,.032,1.427.2.2,0,0,0,.217.172" transform="translate(-484.738 -609.094)" fill="#466987"/>
        <path id="Trazado_1013967" data-name="Trazado 1013967" d="M738.667,936.79a.2.2,0,0,0,.129-.066.5.5,0,0,0,.088-.416l-.114-.862a1.043,1.043,0,0,0-.054-.243.2.2,0,0,0-.367.142.714.714,0,0,1,.031.153l.114.862a.291.291,0,0,1,0,.108.195.195,0,0,0,.169.322" transform="translate(-481.369 -609.636)" fill="#466987"/>
        <path id="Trazado_1013968" data-name="Trazado 1013968" d="M732.66,937.634a.2.2,0,0,0,.175-.207c-.029-.484-.073-.974-.13-1.456a.2.2,0,0,0-.219-.173.2.2,0,0,0-.173.219c.056.474.1.957.128,1.433a.2.2,0,0,0,.208.185h.01" transform="translate(-477.442 -610.106)" fill="#466987"/>
        <path id="Trazado_1013969" data-name="Trazado 1013969" d="M726.569,938.027a.2.2,0,0,0,.164-.13,1.237,1.237,0,0,0,.045-.466l-.037-.938a.2.2,0,1,0-.394.016l.037.937a.916.916,0,0,1-.023.32.2.2,0,0,0,.121.251.2.2,0,0,0,.087.01" transform="translate(-473.554 -610.436)" fill="#466987"/>
        <path id="Trazado_1013970" data-name="Trazado 1013970" d="M720.767,938.964a.2.2,0,0,0,.168-.143,1.223,1.223,0,0,0,.025-.4l-.056-1.091a.2.2,0,1,0-.393.02l.056,1.091a.912.912,0,0,1-.012.273.2.2,0,0,0,.138.242.193.193,0,0,0,.074.006" transform="translate(-469.748 -610.984)" fill="#466987"/>
        <path id="Trazado_1013971" data-name="Trazado 1013971" d="M715.7,939.422h0a.2.2,0,0,0,.17-.221,15.354,15.354,0,0,1-.122-1.614.2.2,0,1,0-.394.009,15.747,15.747,0,0,0,.125,1.655.2.2,0,0,0,.217.171" transform="translate(-466.391 -611.147)" fill="#466987"/>
        <path id="Trazado_1013972" data-name="Trazado 1013972" d="M710.927,939.6h.007a.2.2,0,0,0,.166-.223c-.068-.465-.113-.939-.135-1.408a.2.2,0,1,0-.394.018c.022.482.069.969.138,1.447a.2.2,0,0,0,.216.167" transform="translate(-463.268 -611.4)" fill="#466987"/>
        <path id="Trazado_1013973" data-name="Trazado 1013973" d="M706.294,939.839h.01a.2.2,0,0,0,.163-.227c-.023-.141-.052-.282-.081-.423a3.348,3.348,0,0,1-.1-1.2.2.2,0,1,0-.389-.064,3.7,3.7,0,0,0,.105,1.347c.028.136.056.273.078.408a.2.2,0,0,0,.216.164" transform="translate(-460.2 -611.382)" fill="#466987"/>
        <path id="Trazado_1013974" data-name="Trazado 1013974" d="M701.635,940.2a.2.2,0,0,0,.174-.215l-.166-1.678a.2.2,0,0,0-.215-.177h0a.2.2,0,0,0-.174.215l.166,1.678a.2.2,0,0,0,.215.177h0" transform="translate(-457.191 -611.627)" fill="#466987"/>
        <path id="Trazado_1013975" data-name="Trazado 1013975" d="M696.862,940.363a.2.2,0,0,0,.175-.21.8.8,0,0,0-.112-.324c-.017-.032-.034-.065-.048-.1a1.133,1.133,0,0,1-.062-.316c-.03-.3-.05-.613-.061-.919a.2.2,0,0,0-.394.014c.011.314.032.631.063.943a1.471,1.471,0,0,0,.089.428c.018.045.041.088.063.131a.5.5,0,0,1,.068.169.2.2,0,0,0,.211.182h.008" transform="translate(-454.003 -611.741)" fill="#466987"/>
        <path id="Trazado_1013976" data-name="Trazado 1013976" d="M691.933,940.171a.2.2,0,0,0,.136-.314,1.433,1.433,0,0,1-.381-.995l-.028-.316a.2.2,0,0,0-.213-.179.2.2,0,0,0-.179.213l.028.317a1.8,1.8,0,0,0,.458,1.2.2.2,0,0,0,.179.078" transform="translate(-450.682 -611.78)" fill="#466987"/>
        <path id="Trazado_1013977" data-name="Trazado 1013977" d="M708.754,902.948a1.091,1.091,0,0,0,.106.1l.218.2c.293.261.594.517.889.789.073.068.148.139.219.21l.209.2.205.2c-.09-.273-.18-.545-.261-.821q-.169-.571-.315-1.148l-.07-.29c.237-.122.47-.251.7-.383a11.719,11.719,0,0,1,2.833,1.554l.327.252.115.095c-.074-.153-.15-.3-.218-.46a7.29,7.29,0,0,1-.483-1.538c-.086-.451-.18-.879-.289-1.317l.173-.112c.057-.043.117-.084.175-.127.056.231.116.464.169.7l.158.774a6.868,6.868,0,0,0,.459,1.462c.1.237.214.47.329.7.065.258.139.515.2.783-.251-.131-.487-.27-.726-.4-.2-.175-.41-.339-.622-.5a11.453,11.453,0,0,0-2.792-1.524c-.04-.015-.082-.026-.123-.041l.066.272q.143.57.31,1.132t.356,1.119c.064.185.127.37.2.553l.006.106c0,.007,0,.014,0,.021a1.585,1.585,0,0,1,.025.166,1.277,1.277,0,0,1-.014.329,2.591,2.591,0,0,0-.208-.23c-.035-.035-.069-.069-.107-.1a.242.242,0,0,1-.09-.1,2.694,2.694,0,0,0-.347-.431c-.131-.137-.273-.271-.417-.408l-.216-.209c-.069-.068-.137-.134-.208-.2-.286-.263-.586-.52-.883-.784l-.222-.2c-.068-.073-.162-.12-.207-.219l-.009-.016q.189-.078.376-.157" transform="translate(-461.838 -586.994)" fill="#f7efe8"/>
        <path id="Trazado_1013978" data-name="Trazado 1013978" d="M723.253,897.586c-.136-.093-.277-.181-.417-.269.115-.083.23-.166.349-.246.1.063.2.124.291.19a10.067,10.067,0,0,1,1.154.92c.358.325.723.645,1.073.99q.167.165.326.339l-.109-.4c-.12-.459-.227-.928-.3-1.4a3.594,3.594,0,0,0-.157-.653,3.947,3.947,0,0,0-.293-.606c-.08-.141-.165-.285-.248-.433l.346-.19c.079.141.161.282.244.428a4.33,4.33,0,0,1,.321.667,3.989,3.989,0,0,1,.175.72c.076.46.179.912.3,1.366.06.226.121.453.186.678.007.242.018.485,0,.734-.2-.163-.383-.314-.581-.455-.153-.177-.316-.349-.486-.516-.339-.334-.7-.653-1.06-.978a9.712,9.712,0,0,0-1.113-.888" transform="translate(-471.264 -584.049)" fill="#f7efe8"/>
        <path id="Trazado_1013979" data-name="Trazado 1013979" d="M732.395,894.771l-.453-.508a7,7,0,0,0-.97-.905,3.41,3.41,0,0,0-.552-.341c-.054-.05-.113-.1-.171-.143l.374-.2a4.843,4.843,0,0,1,.583.369,7.424,7.424,0,0,1,1.025.955l.456.511c.148.165.306.327.464.492l.2.207-.086-.258c-.144-.434-.283-.872-.4-1.317a11.439,11.439,0,0,1-.286-1.36c-.029-.207-.05-.422-.065-.627q.21-.114.412-.22c.156.1.318.19.486.286a12.489,12.489,0,0,1,1.285.846,9.089,9.089,0,0,1,1.154,1.03,7.67,7.67,0,0,1,.5.594,3.791,3.791,0,0,1,.26.75c-.2-.176-.381-.352-.578-.511a5.923,5.923,0,0,0-.473-.563,8.676,8.676,0,0,0-1.1-.985,12.1,12.1,0,0,0-1.244-.819l-.286-.163c.011.109.024.218.039.328a10.945,10.945,0,0,0,.277,1.313c.118.434.254.865.4,1.3l.219.647c.017.235.034.469.03.711-.189-.149-.369-.288-.558-.418l-.46-.491c-.157-.164-.317-.328-.473-.5" transform="translate(-476.097 -581.176)" fill="#f7efe8"/>
        <path id="Trazado_1013980" data-name="Trazado 1013980" d="M862.972,426.512a17.123,17.123,0,0,1-11.105-4.618,14.7,14.7,0,0,1-5.157-9.856.2.2,0,0,1,.193-.213.221.221,0,0,1,.213.193,14.289,14.289,0,0,0,5.023,9.573,16.434,16.434,0,0,0,11.464,4.5h.011a.2.2,0,0,1,.011.406c-.216.011-.435.017-.653.017" transform="translate(-552.025 -268.495)" fill="#2b4054"/>
        <path id="Trazado_1013981" data-name="Trazado 1013981" d="M745.083,431.472a.2.2,0,0,1-.046-.4,12.579,12.579,0,0,0,7.5-5.972,15.164,15.164,0,0,0,2-11.307.2.2,0,0,1,.394-.1,15.58,15.58,0,0,1-2.051,11.619,12.976,12.976,0,0,1-7.755,6.155.192.192,0,0,1-.046.006" transform="translate(-485.636 -269.611)" fill="#2b4054"/>
        <path id="Trazado_1013982" data-name="Trazado 1013982" d="M772.251,392.817c-6.28.078-11.857.194-17.864-2.772a.551.551,0,0,1-.3-.591l.553-2.992a.536.536,0,0,1,.764-.381c6.7,3.177,14.37,2.791,21.385,2.555a32.1,32.1,0,0,0,3.625-.255c.71-.107,1.448-.27,2.1-.415,6.38-1.417,12.123-2.817,18.421-4.529a.543.543,0,0,1,.638.3l1.217,2.739a.542.542,0,0,1-.352.743c-6.334,1.719-12.775,3.307-19.157,4.724-.673.15-1.51.336-2.344.461a34.977,34.977,0,0,1-4.026.292c-1.52.05-3.08.1-4.664.121" transform="translate(-491.636 -249.973)" fill="#34333c"/>
        <path id="Trazado_1013983" data-name="Trazado 1013983" d="M799.409,401.839h-9a.406.406,0,0,1-.406-.406V395.72a.406.406,0,0,1,.406-.406h9a.406.406,0,0,1,.406.406v5.713a.406.406,0,0,1-.406.406m-8.6-.813H799v-4.9h-8.191Z" transform="translate(-515.053 -257.729)" fill="#fff"/>
        <rect id="Rectángulo_461391" data-name="Rectángulo 461391" width="5.805" height="1.63" transform="matrix(0.125, -0.992, 0.992, 0.125, 269.57, 142.822)" fill="#466987"/>
        <rect id="Rectángulo_461392" data-name="Rectángulo 461392" width="1.63" height="5.805" transform="translate(288.708 137.826) rotate(-7.189)" fill="#466987"/>
        <path id="Trazado_1013984" data-name="Trazado 1013984" d="M737.391,169.679a8.273,8.273,0,0,0,.165-1.865,7.034,7.034,0,0,0,.984.55c.151-.5.291-1.015.409-1.531a7.937,7.937,0,0,1-1.261.017c-6.875,3-12.842,8.825-13.445,16.406a30.817,30.817,0,0,0,.508,7.043c.113.755.228,1.51.321,2.265.954,7.719-.228,15.576-1.37,23.175-.745,4.949-1.588,10.56-4.775,14.729-.426.557-.891,1.085-1.382,1.644a21.053,21.053,0,0,0-2.329,3c-2.061,3.416-2.079,7.473-1.865,10.626.226,3.337.781,6.663,1.319,9.881.465,2.788.947,5.669,1.2,8.506a56.2,56.2,0,0,1-8.94,35.706l2.039,1.336a58.655,58.655,0,0,0,9.329-37.258c-.263-2.93-.752-5.858-1.225-8.69-.528-3.16-1.073-6.426-1.292-9.645-.19-2.8-.188-6.369,1.521-9.2a18.953,18.953,0,0,1,2.073-2.65c.5-.565,1.011-1.149,1.487-1.773,3.567-4.667,4.5-10.866,5.249-15.847,1.167-7.76,2.374-15.785,1.378-23.835-.1-.776-.212-1.553-.329-2.328a28.573,28.573,0,0,1-.489-6.487c.488-6.141,5.127-10.98,10.718-13.771" transform="translate(-460.896 -108.768)" fill="#ccb39e"/>
        <path id="Trazado_1013985" data-name="Trazado 1013985" d="M878.5,290.908a12.471,12.471,0,0,1-17.045,1.035c-2.723-2.467-4.155-5.955-5.67-9.647-.371-.9-.741-1.806-1.13-2.69a23.709,23.709,0,0,0-4.758-7.321,26.352,26.352,0,0,0,2.463-11.828,43.977,43.977,0,0,0-4.376-20.171c-2.826-5.627-7.011-10.4-11.057-15.014-2.2-2.514-4.484-5.114-6.5-7.8-3.213-4.293-10.211-15.363-5.83-25.431a33.034,33.034,0,0,1,4.631-7.033c.971-1.238,1.975-2.518,2.876-3.856,3.329-4.944,4.22-10,2.446-13.859-1.793-3.906-5.743-5.841-10.064-6.362.02.747.06,1.5.142,2.242.243-.16.489-.33.736-.511a9.053,9.053,0,0,0,.135.913c3.006.621,5.63,2.1,6.837,4.735,2,4.366-.908,9.484-2.252,11.481-.852,1.265-1.829,2.509-2.773,3.712a35.409,35.409,0,0,0-4.948,7.565c-4.891,11.24,2.646,23.23,6.113,27.863,2.069,2.764,4.38,5.4,6.615,7.949,3.946,4.5,8.026,9.153,10.712,14.5a41.522,41.522,0,0,1,4.116,19.048,24.768,24.768,0,0,1-1.951,10.245,10.724,10.724,0,0,0-4.192-1.771c-3.182-.578-6.344.45-8.745,1.409a6.065,6.065,0,0,0-2.964,2.055,3.788,3.788,0,0,0-.306,3.7,6.8,6.8,0,0,0,4.843,3.773c4.316.792,9.034-1.364,11.976-5.406a22.635,22.635,0,0,1,3.839,6.157c.381.865.742,1.747,1.106,2.633,1.552,3.781,3.156,7.69,6.288,10.527a14.9,14.9,0,0,0,20.523-1.246ZM837.051,277.44a4.426,4.426,0,0,1-3.037-2.317,1.342,1.342,0,0,1,.076-1.388,4.036,4.036,0,0,1,1.851-1.159,16.514,16.514,0,0,1,5.933-1.4,8.243,8.243,0,0,1,1.471.128,8.42,8.42,0,0,1,3.414,1.494c-2.361,3.373-6.3,5.279-9.707,4.644" transform="translate(-535.109 -104.92)" fill="#ccb39e"/>
        <path id="Trazado_1013986" data-name="Trazado 1013986" d="M712.751,541.39a7.111,7.111,0,0,0-1.118-.775c-.067.118-.132.236-.2.353a6.709,6.709,0,0,1,1.063.738l.9.733c.07-.118.135-.239.2-.358Z" transform="translate(-463.829 -352.461)" fill="#6b533e"/>
        <path id="Trazado_1013987" data-name="Trazado 1013987" d="M719.245,525.655c-.056.127-.117.251-.174.377a16.183,16.183,0,0,1,1.917,1.66c.061-.13.121-.261.181-.391a16.6,16.6,0,0,0-1.924-1.646" transform="translate(-468.809 -342.707)" fill="#6b533e"/>
        <path id="Trazado_1013988" data-name="Trazado 1013988" d="M725.717,511.45a7.674,7.674,0,0,0-.819-.35c-.042.129-.08.26-.123.389a7.387,7.387,0,0,1,.767.328l1.461.695c.044-.129.083-.26.126-.389Z" transform="translate(-472.528 -333.218)" fill="#6b533e"/>
        <path id="Trazado_1013989" data-name="Trazado 1013989" d="M729.857,492.722c-.028.136-.056.271-.085.407a7.479,7.479,0,0,1,2.413.374c.028-.134.051-.268.078-.4a7.892,7.892,0,0,0-2.407-.379" transform="translate(-475.786 -321.236)" fill="#6b533e"/>
        <path id="Trazado_1013990" data-name="Trazado 1013990" d="M734.72,475.595l-2.273.014c-.013.136-.027.271-.041.406l2.317-.014.133,0c.013-.135.029-.27.041-.406l-.176,0" transform="translate(-477.503 -310.07)" fill="#6b533e"/>
        <path id="Trazado_1013991" data-name="Trazado 1013991" d="M735.682,459.172c0-.135-.008-.27-.009-.405a17.078,17.078,0,0,0-2.433.16c0,.136,0,.272,0,.408a16.483,16.483,0,0,1,2.44-.163" transform="translate(-478.047 -299.098)" fill="#6b533e"/>
        <path id="Trazado_1013992" data-name="Trazado 1013992" d="M732.446,444.63c.013.134.031.269.044.4a23.385,23.385,0,0,1,2.445-.054v0c-.012-.136-.031-.27-.044-.406a24.1,24.1,0,0,0-2.445.057" transform="translate(-477.529 -289.838)" fill="#6b533e"/>
        <path id="Trazado_1013993" data-name="Trazado 1013993" d="M730.57,430.507q.032.2.063.4,1.232-.043,2.462-.025c-.021-.136-.042-.271-.063-.407q-1.232-.016-2.462.028" transform="translate(-476.306 -280.653)" fill="#6b533e"/>
        <path id="Trazado_1013994" data-name="Trazado 1013994" d="M728.412,416.932c.808-.1,1.62-.178,2.433-.223l-.067-.4c-.813.046-1.624.125-2.432.226l.066.4" transform="translate(-474.856 -271.415)" fill="#6b533e"/>
        <path id="Trazado_1013995" data-name="Trazado 1013995" d="M728.649,401.835q-1.221.032-2.443.1c.016.135.035.269.052.4q1.224-.07,2.444-.1c-.017-.135-.036-.27-.052-.4" transform="translate(-473.461 -261.981)" fill="#6b533e"/>
        <path id="Trazado_1013996" data-name="Trazado 1013996" d="M726.721,381.484a2.582,2.582,0,0,1,.98.126c.009-.138.023-.276.035-.415a3.133,3.133,0,0,0-1.016-.117l-1.429,0c-.011.136-.022.271-.031.406Z" transform="translate(-472.845 -248.448)" fill="#6b533e"/>
        <path id="Trazado_1013997" data-name="Trazado 1013997" d="M729.881,363.88c.373.2.744.4,1.106.617a4.51,4.51,0,0,1,.964.722c.065-.13.128-.261.2-.389a5.384,5.384,0,0,0-.958-.684c-.364-.214-.737-.42-1.113-.62-.068.118-.135.235-.2.354" transform="translate(-475.857 -237.005)" fill="#6b533e"/>
        <path id="Trazado_1013998" data-name="Trazado 1013998" d="M740.683,349.959a4.5,4.5,0,0,1,1.621,1.869c.1-.117.193-.237.289-.357a5.275,5.275,0,0,0-1.653-1.831l-.008.011c-.08.1-.167.2-.25.308" transform="translate(-482.9 -227.952)" fill="#6b533e"/>
        <path id="Trazado_1013999" data-name="Trazado 1013999" d="M750.035,338.615c.056-.129.113-.258.166-.387a11.794,11.794,0,0,0-2.06-1.388c-.049.127-.1.253-.151.379a11.394,11.394,0,0,1,2.046,1.4" transform="translate(-487.663 -219.606)" fill="#6b533e"/>
        <path id="Trazado_1014000" data-name="Trazado 1014000" d="M752.478,322q-.042.2-.084.4a12.127,12.127,0,0,1,2.272.993c.031-.138.061-.275.091-.413a12.92,12.92,0,0,0-2.279-.981" transform="translate(-490.535 -209.932)" fill="#6b533e"/>
        <path id="Trazado_1014001" data-name="Trazado 1014001" d="M758.3,297.872a7.442,7.442,0,0,0-1.857-.216c-.02.136-.039.273-.059.409a7.1,7.1,0,0,1,1.816.2,5.894,5.894,0,0,1,.589.2c.02-.135.039-.271.058-.407-.182-.064-.358-.136-.548-.184" transform="translate(-493.138 -194.06)" fill="#6b533e"/>
        <path id="Trazado_1014002" data-name="Trazado 1014002" d="M758.744,279.742a15.477,15.477,0,0,1,2.432.181c.014-.135.029-.27.042-.405a15.877,15.877,0,0,0-2.432-.183c-.014.136-.029.271-.043.407" transform="translate(-494.675 -182.115)" fill="#6b533e"/>
        <path id="Trazado_1014003" data-name="Trazado 1014003" d="M759.959,262.093c0,.14-.009.281-.014.421a14.427,14.427,0,0,1,2.449-.32c0-.135.01-.27.013-.405a14.946,14.946,0,0,0-2.448.3" transform="translate(-495.458 -170.676)" fill="#6b533e"/>
        <path id="Trazado_1014004" data-name="Trazado 1014004" d="M760.623,245.471c-.323.09-.653.177-.983.25.01.136.021.273.03.409.359-.077.716-.17,1.062-.267a12.731,12.731,0,0,1,1.337-.322c-.01-.134-.019-.268-.03-.4a12.638,12.638,0,0,0-1.417.333" transform="translate(-495.259 -159.82)" fill="#6b533e"/>
        <path id="Trazado_1014005" data-name="Trazado 1014005" d="M757.8,230.995a7.136,7.136,0,0,1,2.383-.559c-.02-.135-.039-.269-.059-.4a7.522,7.522,0,0,0-2.386.545l.062.417" transform="translate(-494.019 -149.972)" fill="#6b533e"/>
        <path id="Trazado_1014006" data-name="Trazado 1014006" d="M756.535,216.268q1.223-.193,2.457-.292c0-.136,0-.272.01-.408q-1.238.1-2.463.289c0,.137,0,.274,0,.411" transform="translate(-493.235 -140.541)" fill="#6b533e"/>
        <path id="Trazado_1014007" data-name="Trazado 1014007" d="M760.2,199.106a6.224,6.224,0,0,1,2.155,1.149c.053-.13.1-.263.155-.392a6.628,6.628,0,0,0-2.157-1.134c-.056.123-.1.252-.152.377" transform="translate(-495.625 -129.563)" fill="#6b533e"/>
        <path id="Trazado_1014008" data-name="Trazado 1014008" d="M773.136,184.152a8.3,8.3,0,0,0-1.622-1.642c-.1.1-.185.2-.279.3a7.91,7.91,0,0,1,1.574,1.587c.035.048.071.1.108.154.095-.1.194-.2.29-.293-.024-.033-.048-.071-.071-.1" transform="translate(-502.819 -118.988)" fill="#6b533e"/>
        <path id="Trazado_1014009" data-name="Trazado 1014009" d="M785.946,171.343c-.118.069-.236.139-.353.21a7.114,7.114,0,0,1,1.276,2.066c.116-.071.234-.138.352-.207a7.522,7.522,0,0,0-1.275-2.069" transform="translate(-512.18 -111.708)" fill="#6b533e"/>
        <path id="Trazado_1014010" data-name="Trazado 1014010" d="M836.583,164.925c.131.034.264.064.393.1a6.058,6.058,0,0,1,1.229-2.183c-.137-.046-.275-.091-.414-.133a6.468,6.468,0,0,0-1.208,2.214" transform="translate(-545.423 -106.08)" fill="#6b533e"/>
        <path id="Trazado_1014011" data-name="Trazado 1014011" d="M848.711,173.454c.109.095.205.2.309.3a6.816,6.816,0,0,1,2.576-.81c-.1-.132-.213-.258-.323-.383a8.039,8.039,0,0,0-2.481.851l-.081.04" transform="translate(-553.33 -112.503)" fill="#6b533e"/>
        <path id="Trazado_1014012" data-name="Trazado 1014012" d="M856.753,188.837a2.564,2.564,0,0,0-.707-.068h-.23c.015.135.027.27.036.406h.195a2.25,2.25,0,0,1,.6.052,2.076,2.076,0,0,1,.467.222c.406.238.8.5,1.18.772.007-.167,0-.332,0-.5-.319-.219-.643-.43-.978-.626a2.386,2.386,0,0,0-.562-.262" transform="translate(-557.962 -123.069)" fill="#6b533e"/>
        <path id="Trazado_1014013" data-name="Trazado 1014013" d="M854.163,205.074a5.689,5.689,0,0,0-1.12-.9c-.051.129-.1.26-.153.386a5.336,5.336,0,0,1,.981.8,7.182,7.182,0,0,1,.852,1.083c.069-.144.132-.287.2-.432a7.422,7.422,0,0,0-.757-.934" transform="translate(-556.055 -133.113)" fill="#6b533e"/>
        <path id="Trazado_1014014" data-name="Trazado 1014014" d="M848.243,217.739c.08-.113.164-.224.243-.339a6.065,6.065,0,0,0-.536-.5,9.945,9.945,0,0,0-1.418-.947q-.115.168-.234.334a9.634,9.634,0,0,1,1.393.927,5.559,5.559,0,0,1,.552.524" transform="translate(-551.757 -140.793)" fill="#6b533e"/>
        <path id="Trazado_1014015" data-name="Trazado 1014015" d="M839.894,228.733l.251-.32a5.721,5.721,0,0,0-.764-.6,10.081,10.081,0,0,0-1.314-.7l-.258.329a10.067,10.067,0,0,1,1.349.709,5.288,5.288,0,0,1,.736.581" transform="translate(-546.222 -148.069)" fill="#6b533e"/>
        <path id="Trazado_1014016" data-name="Trazado 1014016" d="M828.63,241.225c.589.357,1.166.747,1.73,1.151.067-.118.134-.236.2-.353-.562-.4-1.137-.789-1.723-1.145-.1-.062-.209-.125-.319-.183-.07.117-.143.232-.211.351.109.057.216.118.319.18" transform="translate(-540.03 -156.923)" fill="#6b533e"/>
        <path id="Trazado_1014017" data-name="Trazado 1014017" d="M824.53,253.908a5.044,5.044,0,0,1,.8.157c.04-.129.084-.257.127-.385a5.416,5.416,0,0,0-.882-.175,9.832,9.832,0,0,0-1.622-.019c-.041.137-.074.275-.113.412a10.11,10.11,0,0,1,1.69.01" transform="translate(-536.463 -165.247)" fill="#6b533e"/>
        <path id="Trazado_1014018" data-name="Trazado 1014018" d="M823.24,267.526c0-.135.008-.269.015-.4a15.258,15.258,0,0,0-2.434-.079c-.007.136-.015.271-.019.407a14.791,14.791,0,0,1,2.438.077" transform="translate(-535.135 -174.091)" fill="#6b533e"/>
        <path id="Trazado_1014019" data-name="Trazado 1014019" d="M822.229,281.47a9.1,9.1,0,0,1,.9-.21,7.165,7.165,0,0,1,1.175-.065c-.026-.135-.053-.27-.077-.406a7.3,7.3,0,0,0-1.163.07,9.384,9.384,0,0,0-.938.22c-.1.028-.2.049-.3.075.024.135.047.271.072.406l.335-.089" transform="translate(-535.8 -183.062)" fill="#6b533e"/>
        <path id="Trazado_1014020" data-name="Trazado 1014020" d="M829.929,299.93c-.06-.133-.119-.267-.177-.4a20.877,20.877,0,0,0-2.552.208c.054.13.109.258.163.386a20.563,20.563,0,0,1,2.567-.192" transform="translate(-539.305 -195.28)" fill="#6b533e"/>
        <path id="Trazado_1014021" data-name="Trazado 1014021" d="M838.694,316.211c-.172.006-.346.008-.516.018-.238.014-.478.032-.714.067a7.642,7.642,0,0,0-1.361.369c.074.12.146.237.22.354a7.058,7.058,0,0,1,1.2-.322c.223-.033.45-.049.677-.062.248-.015.5-.02.753-.027-.087-.131-.173-.261-.261-.4" transform="translate(-545.11 -206.157)" fill="#6b533e"/>
        <path id="Trazado_1014022" data-name="Trazado 1014022" d="M850.908,334.945a7.814,7.814,0,0,1,1.958-.769c-.1-.113-.188-.23-.284-.344a7.981,7.981,0,0,0-1.88.762c-.145.085-.278.188-.415.285l.259.314c.12-.085.236-.175.363-.249" transform="translate(-554.357 -217.645)" fill="#6b533e"/>
        <path id="Trazado_1014023" data-name="Trazado 1014023" d="M861.6,345.847c-.4.216-.794.448-1.186.677l.272.311c.366-.213.729-.428,1.105-.63a5.509,5.509,0,0,1,1.013-.455c.047-.014.1-.019.144-.031l-.169-.193-.13-.149a6.081,6.081,0,0,0-1.049.47" transform="translate(-560.958 -225.172)" fill="#6b533e"/>
        <path id="Trazado_1014024" data-name="Trazado 1014024" d="M871.347,359.575a7.9,7.9,0,0,1,2.432-.889l-.291-.35a8.3,8.3,0,0,0-2.4.922l.264.316" transform="translate(-567.916 -233.621)" fill="#6b533e"/>
        <path id="Trazado_1014025" data-name="Trazado 1014025" d="M880.507,371a6.839,6.839,0,0,1,2.36-.911c-.089-.123-.181-.243-.271-.365a7.266,7.266,0,0,0-2.331.951l.243.325" transform="translate(-573.902 -241.046)" fill="#6b533e"/>
        <path id="Trazado_1014026" data-name="Trazado 1014026" d="M890.6,382.257a8.857,8.857,0,0,0-2.513.566c.072.117.146.233.216.35a8.335,8.335,0,0,1,2.527-.528c-.075-.13-.153-.259-.229-.388" transform="translate(-578.999 -249.217)" fill="#6b533e"/>
        <path id="Trazado_1014027" data-name="Trazado 1014027" d="M895.16,396.979c.055.128.114.253.168.382a16.549,16.549,0,0,1,2.542-.173c-.055-.141-.106-.284-.163-.424a17.048,17.048,0,0,0-2.547.215" transform="translate(-583.613 -258.675)" fill="#6b533e"/>
        <path id="Trazado_1014028" data-name="Trazado 1014028" d="M900.48,412.686c.034.131.065.263.1.394a9.352,9.352,0,0,1,2.488-.086c-.033-.14-.069-.278-.1-.416a9.749,9.749,0,0,0-2.482.108" transform="translate(-587.082 -268.963)" fill="#6b533e"/>
        <path id="Trazado_1014029" data-name="Trazado 1014029" d="M903.291,427c.018.133.034.267.051.4a7.871,7.871,0,0,1,1.455-.064,4.989,4.989,0,0,1,1.013.163c-.017-.146-.037-.29-.055-.435a5.476,5.476,0,0,0-.934-.135,8.671,8.671,0,0,0-1.529.07" transform="translate(-588.915 -278.337)" fill="#6b533e"/>
        <path id="Trazado_1014030" data-name="Trazado 1014030" d="M904.444,440.078c.005.135,0,.273.006.408a3.513,3.513,0,0,1,1.62.233,4.361,4.361,0,0,1,.828.531c0-.169,0-.339-.008-.508a3.329,3.329,0,0,0-2.446-.664" transform="translate(-589.666 -286.909)" fill="#6b533e"/>
        <path id="Trazado_1014031" data-name="Trazado 1014031" d="M903.973,455.9a16.688,16.688,0,0,1,2.267,1.523c.023-.155.038-.318.059-.475a17.088,17.088,0,0,0-2.276-1.489c-.014.151-.034.293-.05.441" transform="translate(-589.359 -296.945)" fill="#6b533e"/>
        <path id="Trazado_1014032" data-name="Trazado 1014032" d="M903.922,469.092a6.859,6.859,0,0,0-2.161-1.3q-.053.2-.11.393a6.078,6.078,0,0,1,2.137,1.34c.047-.143.09-.291.134-.437" transform="translate(-587.845 -304.985)" fill="#6b533e"/>
        <path id="Trazado_1014033" data-name="Trazado 1014033" d="M890.438,488.469c-.106-.127-.219-.251-.333-.375l-.134-.148c-.1.092-.2.186-.3.273l.135.15c.11.118.218.236.32.359a6,6,0,0,1,.9,1.552c.109-.089.212-.186.318-.278a6.256,6.256,0,0,0-.9-1.534" transform="translate(-580.034 -318.122)" fill="#6b533e"/>
        <path id="Trazado_1014034" data-name="Trazado 1014034" d="M875.8,497.938c.14-.021.281-.048.42-.075.014-.087.033-.172.04-.262a7.307,7.307,0,0,0-.143-1.758l-.072-.438c-.133.031-.266.056-.4.08l.07.424a6.971,6.971,0,0,1,.141,1.659,2.847,2.847,0,0,1-.056.369" transform="translate(-570.89 -322.985)" fill="#6b533e"/>
        <path id="Trazado_1014035" data-name="Trazado 1014035" d="M860.363,493.729a5.157,5.157,0,0,0-.187.518,3.445,3.445,0,0,1-.232.626,1.877,1.877,0,0,1-.993.843c.129.089.257.179.391.259a2.183,2.183,0,0,0,.961-.911,3.766,3.766,0,0,0,.262-.7c.045-.147.09-.288.143-.423-.118-.066-.233-.137-.346-.214" transform="translate(-560.006 -321.893)" fill="#6b533e"/>
        <path id="Trazado_1014036" data-name="Trazado 1014036" d="M853.342,486.079c.169,0,.351-.015.524-.023a1.289,1.289,0,0,1,.035-.4,7.428,7.428,0,0,1-1.711-.08,4.036,4.036,0,0,1-.712-.205,3.624,3.624,0,0,0-.046.422,4.533,4.533,0,0,0,.685.183,6.713,6.713,0,0,0,1.225.1" transform="translate(-555.104 -316.445)" fill="#6b533e"/>
        <path id="Trazado_1014037" data-name="Trazado 1014037" d="M861.026,476.84a2.7,2.7,0,0,1-.345-.5,2.329,2.329,0,0,1-.223-.88c-.127.052-.255.108-.385.165a2.622,2.622,0,0,0,.246.9,3.079,3.079,0,0,0,.4.574,6.315,6.315,0,0,0,.623.635c.077-.032.153-.066.231-.1l.192-.075a5.969,5.969,0,0,1-.735-.724" transform="translate(-560.738 -309.983)" fill="#6b533e"/>
        <path id="Trazado_1014038" data-name="Trazado 1014038" d="M875.712,471.035c-.137.018-.27.046-.406.068a20.547,20.547,0,0,0,.069,2.457c.134-.025.267-.052.4-.072a20.039,20.039,0,0,1-.064-2.453" transform="translate(-570.662 -307.097)" fill="#6b533e"/>
        <path id="Trazado_1014039" data-name="Trazado 1014039" d="M886.938,474.057l-.229.364c.139.033.279.063.416.1l.158-.251a6.537,6.537,0,0,1,1.447-1.767c-.151-.06-.3-.112-.458-.165a7.759,7.759,0,0,0-1.333,1.716" transform="translate(-578.104 -307.948)" fill="#6b533e"/>
        <path id="Trazado_1014040" data-name="Trazado 1014040" d="M903.724,487.3a6.222,6.222,0,0,0,1.689-1.8c-.089-.117-.176-.238-.267-.352a5.8,5.8,0,0,1-1.674,1.837c.082.108.172.208.252.318" transform="translate(-589.033 -316.297)" fill="#6b533e"/>
        <path id="Trazado_1014041" data-name="Trazado 1014041" d="M912.146,497.441a9.528,9.528,0,0,1-2.067,1.324c.061.124.115.244.174.368a9.719,9.719,0,0,0,2.08-1.323c-.062-.126-.125-.246-.188-.369" transform="translate(-593.34 -324.313)" fill="#6b533e"/>
        <path id="Trazado_1014042" data-name="Trazado 1014042" d="M916.792,507.49l.059-.054c-.054-.132-.111-.261-.165-.393-.055.052-.117.1-.172.151l-.1.093c-.536.5-1.091.988-1.657,1.461l.054.127.109.263c.6-.5,1.2-1.019,1.772-1.554Z" transform="translate(-596.391 -330.573)" fill="#6b533e"/>
        <path id="Trazado_1014043" data-name="Trazado 1014043" d="M921.877,517.572c-.064-.144-.13-.285-.194-.43a23.272,23.272,0,0,0-1.524,2.518c.072.149.151.294.225.442a22.819,22.819,0,0,1,1.493-2.53" transform="translate(-599.912 -337.157)" fill="#6b533e"/>
        <path id="Trazado_1014044" data-name="Trazado 1014044" d="M927.592,527.536a9.592,9.592,0,0,0-.7,1.152,5.963,5.963,0,0,0-.485,1.471c.109.151.217.3.33.451a5.564,5.564,0,0,1,.52-1.743,8.431,8.431,0,0,1,.564-.95c-.079-.125-.156-.254-.233-.381" transform="translate(-603.987 -343.934)" fill="#6b533e"/>
        <path id="Trazado_1014045" data-name="Trazado 1014045" d="M935.507,539.295a5.869,5.869,0,0,1,.009-.781,11.432,11.432,0,0,1,.392-2.03c-.116-.107-.219-.222-.33-.333a12.723,12.723,0,0,0-.467,2.329c-.014.171-.01.333-.012.5.136.105.267.217.407.317" transform="translate(-609.653 -349.55)" fill="#6b533e"/>
        <path id="Trazado_1014046" data-name="Trazado 1014046" d="M948.106,543.519c-.007.138-.009.273-.009.4v2.155q.2.06.406.113v-2.268c0-.082,0-.167,0-.252-.136-.043-.266-.1-.4-.144" transform="translate(-618.126 -354.354)" fill="#6b533e"/>
        <path id="Trazado_1014047" data-name="Trazado 1014047" d="M965.891,547.053a6.25,6.25,0,0,1-.4-1.85c-.133.021-.269.027-.4.043a6.669,6.669,0,0,0,.428,1.952c.054.142.121.286.185.43.139-.02.276-.042.414-.066-.08-.171-.156-.341-.221-.51" transform="translate(-629.201 -355.452)" fill="#6b533e"/>
        <path id="Trazado_1014048" data-name="Trazado 1014048" d="M980.255,542.293a3.026,3.026,0,0,1-.37-.593,14.194,14.194,0,0,1-.68-1.541c-.116.073-.23.15-.349.22a14.789,14.789,0,0,0,.667,1.507,3.4,3.4,0,0,0,.421.667c.123-.07.249-.134.369-.207-.018-.019-.04-.032-.057-.052" transform="translate(-638.18 -352.163)" fill="#6b533e"/>
        <rect id="Rectángulo_461393" data-name="Rectángulo 461393" width="2.856" height="64.882" transform="translate(188.198 181.39)" fill="#4d3932"/>
        <path id="Trazado_1014049" data-name="Trazado 1014049" d="M542.474,755.743H537.04V684.234a1.072,1.072,0,0,1,1.072-1.072H541.4a1.072,1.072,0,0,1,1.072,1.072Z" transform="translate(-350.132 -445.396)" fill="#b37753"/>
        <path id="Trazado_1014050" data-name="Trazado 1014050" d="M524.864,539.868H495.047a3.718,3.718,0,0,1-3.718-3.718v-3.733h37.253v3.733a3.718,3.718,0,0,1-3.718,3.718" transform="translate(-320.329 -347.116)" fill="#b37753"/>
        <path id="Trazado_1014051" data-name="Trazado 1014051" d="M523.512,875.866,510,871.012l-13.6,4.854a20.4,20.4,0,0,1-2.212.584,3.719,3.719,0,0,0-2.865,3.62V883.8h37.253V880.07a3.719,3.719,0,0,0-2.866-3.62,19.94,19.94,0,0,1-2.2-.584" transform="translate(-320.329 -567.868)" fill="#b37753"/>
        <path id="Trazado_1014052" data-name="Trazado 1014052" d="M430.807,115.571c3.726,11.838,7.314,23.727,11.388,35.446,2.8,8.058,3.459,15.6-1.471,23.128a43.3,43.3,0,0,0-6.442,18.5c-1.626,12.9-.959,25.832.132,38.733.085,1,1.356,2.1,2.344,2.75a6.724,6.724,0,0,0,3.1.683c8.046.561,16.091,1.15,24.145,1.546,1.3.064,8.35-.072,10.663-.161,4.033-.155,8.075-.165,12.1-.445,4.342-.3,8.683-.73,12.994-1.33,2-.279,3.734-1.179,3.807-3.761.224-7.988.57-15.972.826-23.959a65.947,65.947,0,0,0-7.378-33.095,29.757,29.757,0,0,1-1.874-22.38c1.432-4.973,3.3-9.82,4.728-14.793,3.042-10.583,6.038-21.182,8.816-31.836,1.06-4.066.546-6.085-3.719-7.442-4.779-1.52-9.477-3.291-14.257-4.8C480.776,89.206,479.46,87.5,479.121,77.3c-.033-.994.363-2.127-.353-2.831-3.816-3.751-11.6-2.476-16.236-1.862-6.179.818-5.4,1.654-5.413,7.806-.012,6.517-1.592,8.908-7.639,11.082-5.874,2.112-11.8,4.09-17.7,6.11-3.913,1.338-5.012,3.187-4,7.063.951,3.651,1.9,7.308,3.032,10.9" transform="translate(-278.664 -46.869)" fill="#e5a17a"/>
        <path id="Trazado_1014053" data-name="Trazado 1014053" d="M508.063,155.875s-11.907,31.086-35.719,20.155v-.04l-.045.02-.045-.02v.04c-23.812,10.931-35.719-20.155-35.719-20.155-3.758-2.21-2.873,3.537-2.873,3.537,13.6,48.777,37.516,30.333,38.637,29.435,1.122.9,25.04,19.342,38.637-29.435,0,0,.884-5.747-2.873-3.537" transform="translate(-282.673 -101.294)" fill="#efae87"/>
        <path id="Trazado_1014054" data-name="Trazado 1014054" d="M511.98,393.8s12.107,7.637,23.656,0c0,0-10.808,20.552-9.1,49.733a2.174,2.174,0,0,1-2.083,2.314l-.693.025a2.162,2.162,0,0,1-2.243-2.179c.081-8.472-.309-38.432-9.541-49.893" transform="translate(-333.793 -256.745)" fill="#df9a72"/>
        <path id="Trazado_1014055" data-name="Trazado 1014055" d="M527.2,908.175H489.511a.637.637,0,0,1-.637-.637v-.031a.636.636,0,0,1,.637-.636H527.2a.636.636,0,0,1,.637.636v.031a.637.637,0,0,1-.637.637" transform="translate(-318.729 -591.247)" fill="#a06a4a"/>
        <path id="Trazado_1014056" data-name="Trazado 1014056" d="M535.058,74.558c0,1.918-4.927,3.472-11,3.472s-11-1.555-11-3.472,4.927-3.472,11-3.472,11,1.555,11,3.472" transform="translate(-334.491 -46.344)" fill="#b37753"/>
        <path id="Trazado_1014057" data-name="Trazado 1014057" d="M541.894,48.921h-1.662a1.094,1.094,0,0,1-1.094-1.094V32.755a1.094,1.094,0,0,1,1.094-1.094h1.662a1.094,1.094,0,0,1,1.094,1.094V47.828a1.094,1.094,0,0,1-1.094,1.094" transform="translate(-351.499 -20.64)" fill="#e5a17a"/>
        <path id="Trazado_1014058" data-name="Trazado 1014058" d="M534.7,231.1c-5.59-16.354-7.819-36.5-11.736-53.8-.964-4.256-.238-8.138-3.384-7.619-1.221.2-1.49.973-2.525,1.908-9.261,8.377-20.86,11.855-31.582,8.389-10.29-3.326-16.92-12.142-22.722-23.662a82.412,82.412,0,0,0-4.55-14.219c-2.51-6.115-4.773-16.185-3.265-24.8.089-.511.2-.98.32-1.432l-.76.784c-3.755,3.873-10.16,4.033-14.233,5.515-4.1,1.493-5.208,3.676-5.3,10.146-.114,7.914,3.808,57.837,5.259,76.864a49.218,49.218,0,0,1-1.405,15.944c-2.588,9.847-6.844,26.566-7.947,34.061-1.628,11.065-2.767,45.188-2.767,45.188l.085.014a4.887,4.887,0,0,0-.666,1.409,1.988,1.988,0,0,0,.5,2.231c.981.522,1.86-1.116,2.8-1.047,1.26.092,1.839,3.059,2.967,4.027,1.015.871,2.254-.042,3.293-1.163s2.09-2.5,3.232-2.591c1.935-.161,3.477,3.417,5.412,2.9.742-.2,1.474-1,2.2-.837s1.273,1.24,1.867,2.032a34.043,34.043,0,0,0,3.565,2.861,2.155,2.155,0,0,0,3.433-1.592c0-.045.006-.09.009-.135a17.227,17.227,0,0,1,6.439-12.038,7.935,7.935,0,0,0,1.28-1.357,27.826,27.826,0,0,0,2.669-5.384,31.561,31.561,0,0,1,9.166-12.259c4.049-3.143,8.751-4.734,12.279-8.945,3.873-4.624,5.879-11.9,9.99-16.092,3.8-3.878,8.735-4.475,13.336-5.772a49.778,49.778,0,0,0,21.964-13.623,4.6,4.6,0,0,0,1.345-2.122,7.013,7.013,0,0,0-.562-3.787" transform="translate(-278.658 -75.543)" fill="#1e3a8a"/>
        <path id="Trazado_1014059" data-name="Trazado 1014059" d="M486.774,560.992a115.368,115.368,0,0,1-.456-14.482,52.42,52.42,0,0,1,.807-7.227,50.526,50.526,0,0,0,.979-7.112c.289-4.768-.355-9.607.105-14.468a21.708,21.708,0,0,1,1.834-7.052c.533-1.1,1.157-2.127,1.669-3.212a8.246,8.246,0,0,0,.915-3.45,7.859,7.859,0,0,1-.718,3.536c-.462,1.123-1.037,2.191-1.5,3.29a21.305,21.305,0,0,0-1.574,6.939c-.327,4.773.308,9.586.082,14.459a51.284,51.284,0,0,1-1.064,7.2,63.412,63.412,0,0,0-.913,7.132c-.35,4.792-.215,9.62-.165,14.445" transform="translate(-317.013 -328.582)" fill="#b94732"/>
        <path id="Trazado_1014060" data-name="Trazado 1014060" d="M441.914,594.474a71.058,71.058,0,0,0-.089-8.472,21.823,21.823,0,0,1,.271-4.292,27.046,27.046,0,0,1,1.175-4.132,30.775,30.775,0,0,0,1.884-8.148c.145-1.4.217-2.8.251-4.214.062-1.411.061-2.826.109-4.242a58.63,58.63,0,0,1,.263,8.5,27.4,27.4,0,0,1-.533,4.254,32.044,32.044,0,0,1-1.207,4.112,27.655,27.655,0,0,0-1.187,4.007,25.173,25.173,0,0,0-.4,4.153c-.045,1.4-.021,2.82-.058,4.24a23.892,23.892,0,0,1-.474,4.229" transform="translate(-288.047 -365.735)" fill="#b94732"/>
        <path id="Trazado_1014061" data-name="Trazado 1014061" d="M519.707,305.223a37.938,37.938,0,0,0,5.58,4.5,37.481,37.481,0,0,0,6.339,3.272,39.913,39.913,0,0,0,6.838,1.979,35.476,35.476,0,0,0,7.081.6A33.654,33.654,0,0,0,559.34,312.5a47.705,47.705,0,0,0,6.283-3.42c2.032-1.264,3.971-2.676,5.9-4.112a54.226,54.226,0,0,1-11.915,8.1,33.339,33.339,0,0,1-14.048,3.318,35.925,35.925,0,0,1-14.166-2.815,37.447,37.447,0,0,1-6.326-3.52,34.421,34.421,0,0,1-5.357-4.824" transform="translate(-338.831 -198.824)" fill="#b94732"/>
        <path id="Trazado_1014062" data-name="Trazado 1014062" d="M611.191,313.567c-2.214,3.478-4.5,6.9-6.8,10.323-2.314,3.405-4.586,6.846-7.163,10.1a40.888,40.888,0,0,1-4.281,4.529,23.186,23.186,0,0,1-5.123,3.572,19.957,19.957,0,0,1-12.1,2,21.4,21.4,0,0,0,6.114-.429,19.871,19.871,0,0,0,5.7-2.119,30.879,30.879,0,0,0,9.066-8.059c2.593-3.165,4.858-6.614,7.282-9.945,2.4-3.345,4.821-6.682,7.31-9.968" transform="translate(-375.35 -204.433)" fill="#b94732"/>
        <path id="Trazado_1014063" data-name="Trazado 1014063" d="M673.058,329.7c-.7,3.674-1.478,7.328-2.274,10.978a91.626,91.626,0,0,0-2.073,10.952,50.541,50.541,0,0,0,.473,11.089c.2,1.858.4,3.723.478,5.6a29.119,29.119,0,0,1-.282,5.608,33.472,33.472,0,0,0-.116-5.582c-.161-1.853-.428-3.7-.7-5.545a47.443,47.443,0,0,1-.661-11.245,80.578,80.578,0,0,1,2.276-11.017c.922-3.621,1.857-7.238,2.879-10.836" transform="translate(-435.37 -214.951)" fill="#b94732"/>
        <path id="Trazado_1014064" data-name="Trazado 1014064" d="M762.568,216.151a58.885,58.885,0,0,0-1.413-12.775c-.891-3.662-2.828-11.521-7.63-11.922a5.168,5.168,0,0,0-3.68,1.478,10.558,10.558,0,0,0-3.553,8.206c.114,7.214,1.571,14.516,1.587,21.8a3.124,3.124,0,0,1-3.4,3.142c-10.8-.993-29.755-2.3-39.536-1.954-2.453-.273-7.692-2.214-11.646-3.136-1.5-.349-2.809-1.151-4.185.252l.493,2.465a48.336,48.336,0,0,1-4.933,1.752c-1.742.432-.775,2.242.3,2.378,0,0-1.777,1.134-.005,2.177,0,0-1.51,1.6.8,2.714,0,0-1.28,3.211,3.343,2.385,1.983-.355,4.774-1.392,7.936-2.344a18.719,18.719,0,0,1,12.667.665c3.2,1.351,6.518,2.5,9.738,3.579,11.773,3.043,21.1,3.44,32.865,2.216a11.4,11.4,0,0,0,5.744-2.152c3.826-2.906,4.508-7.672,4.518-12.175.006-2.9.054-5.827,0-8.756" transform="translate(-445.759 -124.812)" fill="#824c32"/>
        <path id="Trazado_1014065" data-name="Trazado 1014065" d="M746.583,47.115c-1.42-.726-2.874-2.1-2.507-3.654a7.872,7.872,0,0,0,.305-1.085c.105-1.2-1.264-1.909-2.054-2.82a3.482,3.482,0,0,1-.159-4.222c.56-.755,1.422-1.262,1.9-2.071.732-1.235.384-2.788.227-4.215a14.252,14.252,0,0,1,.239-4.57,2.282,2.282,0,0,1,1.02-1.7c.779-.366,1.826.132,2.5-.4a2.118,2.118,0,0,0,.562-.91,9.643,9.643,0,0,1,2.042-3.3,4.579,4.579,0,0,1,3.509-1.406c2,.182,3.867,2.026,5.761,1.343,1.257-.453,1.877-1.83,2.782-2.815,1.745-1.9,4.633-2.318,7.172-1.875s4.887,1.6,7.332,2.417a10.167,10.167,0,0,1,2.612,1.1,12.246,12.246,0,0,1,2.083,2.148c2.379,2.7,5.654,4.411,8.483,6.633,1.384,1.087,2.794,2.746,2.218,4.411a6.151,6.151,0,0,0-.311.854c-.165.884.563,1.649,1.145,2.334s1.062,1.747.465,2.421a7.782,7.782,0,0,1-.782.589c-.874.763-.53,2.177-.077,3.246s.908,2.41.15,3.29c-.52.6-1.423.715-2.018,1.244a2.96,2.96,0,0,0-.769,1.32c-.449,1.359-.506,2.818-.872,4.2a4.6,4.6,0,0,1-2.5,3.291c-.89.334-1.934.238-2.733.753-1.072.691-1.259,2.151-1.864,3.275a5.5,5.5,0,0,1-4.909,2.643c-1.952-.023-6.865.833-8.429-.337s.172-4.356-1.4-5.5c-2.654-1.936-5.889-2.864-9.051-3.756a9.429,9.429,0,0,0-3.229-.516c-.95.071-1.856.428-2.8.567-2.341.344-3.963-1.864-6.054-2.933" transform="translate(-483.453 -8.645)"/>
        <path id="Trazado_1014066" data-name="Trazado 1014066" d="M851.41,14.763a11.02,11.02,0,0,0-1.147-3.706c-1.58-2.654-5.049-3.538-7.091-5.856a2.751,2.751,0,0,0-1.241-1.019,2.146,2.146,0,0,0-1.05.079,18.382,18.382,0,0,0-7.022,3.308,9.256,9.256,0,0,0-2.436,2.961A8.321,8.321,0,0,0,831,15.52q.017.106.035.211a24.879,24.879,0,0,0,.89,3.408c.164.508.317,1.008.445,1.521.018.071.243.895.1.726,1.109,1.284,3.5,2.061,5.092,2.573a23.3,23.3,0,0,0,5.68,1.08.942.942,0,0,1,.092-.34.879.879,0,0,1,1.172-.328l.037.017c.056.016.111.037.168.053.028.007.12.039.191.053-.006,0,0-.005.05,0s.111,0,.166,0c.088,0,.176-.013.268-.017l.13-.026c.088-.019.175-.042.262-.066.188-.053.373-.117.556-.184a8.248,8.248,0,0,1,2.452-.642,3.8,3.8,0,0,0,1.724-2.572,11.6,11.6,0,0,1,.15-1.433,14.557,14.557,0,0,1,.739-1.566,5.864,5.864,0,0,0,.017-3.223" transform="translate(-541.664 -2.701)"/>
        <path id="Trazado_1014067" data-name="Trazado 1014067" d="M773.717,9.481a5.063,5.063,0,0,0,.074-3.82,8.545,8.545,0,0,0-1.324-2.189,14.146,14.146,0,0,0-3.7-3.2A1.59,1.59,0,0,0,768.041,0a2.031,2.031,0,0,0-1.092.46c-1.932,1.21-4.572,1.105-6.248,2.65a8.13,8.13,0,0,0-1.591,2.38,4.327,4.327,0,0,0-.667,2.283,10.8,10.8,0,0,1,.193,1.263,8.622,8.622,0,0,1-.2,1.045,2.906,2.906,0,0,0,.85,2.388,3.388,3.388,0,0,1,1.317,1.343,16.373,16.373,0,0,0,6.365,1.1c1.233-.028,3.089-.074,4.144-.749-.309.2.63-1.054,1.019-1.7a19.078,19.078,0,0,0,1.582-2.977" transform="translate(-494.459 0.005)"/>
        <path id="Trazado_1014068" data-name="Trazado 1014068" d="M771.9,17.26a.2.2,0,0,1-.1-.077,9.4,9.4,0,0,1-1.479-3.436,2.9,2.9,0,0,1-.037-1.3,1.347,1.347,0,0,1,.93-1.009,1.911,1.911,0,0,1,.463-.037,1.566,1.566,0,0,0,.365-.026c.4-.1.593-.488.822-.941A2.764,2.764,0,0,1,773.6,9.4a2.123,2.123,0,0,1,2.175,0l.169.081a2.408,2.408,0,0,0,.636.242.618.618,0,0,0,.615-.2.209.209,0,0,1,.35.227,1.013,1.013,0,0,1-1.035.381,2.817,2.817,0,0,1-.749-.277l-.163-.078a1.829,1.829,0,0,0-1.749-.045,2.481,2.481,0,0,0-.612.886c-.252.5-.513,1.018-1.1,1.159a1.887,1.887,0,0,1-.464.038,1.562,1.562,0,0,0-.364.026.929.929,0,0,0-.623.7,2.554,2.554,0,0,0,.041,1.112,8.978,8.978,0,0,0,1.413,3.282.209.209,0,0,1-.241.316" transform="translate(-502.159 -5.936)" fill="#382924"/>
        <path id="Trazado_1014069" data-name="Trazado 1014069" d="M812.076,55.745a.244.244,0,0,1-.18-.1,34.09,34.09,0,0,0-6.351-5.94,35.118,35.118,0,0,1-6.354-5.916l-.125-.164a4.415,4.415,0,0,0-1.055-1.107.246.246,0,1,1,.266-.413,4.831,4.831,0,0,1,1.18,1.223l.124.162a34.751,34.751,0,0,0,6.268,5.829,34.468,34.468,0,0,1,6.44,6.031.246.246,0,0,1-.212.393" transform="translate(-520.202 -27.425)" fill="#382924"/>
        <path id="Trazado_1014070" data-name="Trazado 1014070" d="M753.238,51.874q-.027.415-.019.828a.246.246,0,0,0,.251.241.243.243,0,0,0,.241-.251A10.824,10.824,0,0,1,755.6,46.62a17.348,17.348,0,0,1,4.6-4.549c.438-.307,1.526-.961,2.169-.414a.246.246,0,0,0,.319-.374c-.871-.743-2.11-.078-2.77.385a17.824,17.824,0,0,0-4.73,4.681,11.428,11.428,0,0,0-1.948,5.524" transform="translate(-491.072 -26.696)" fill="#382924"/>
        <path id="Trazado_1014071" data-name="Trazado 1014071" d="M851.772,25.987a.283.283,0,0,1-.264-.263,3.451,3.451,0,0,1,.871-2.174,4.59,4.59,0,0,0,.754-1.381c.318-1.2-.495-2.422-1.421-3.57a3.615,3.615,0,0,0-1.216-1.112,2.921,2.921,0,0,0-.859-.2,9.545,9.545,0,0,0-7.654,2.636.237.237,0,0,0-.047.073.283.283,0,0,1-.182.505.4.4,0,0,1-.37-.257.741.741,0,0,1,.2-.726,10.145,10.145,0,0,1,8.111-2.794,3.461,3.461,0,0,1,1.025.242,4.1,4.1,0,0,1,1.428,1.274c1.019,1.264,1.909,2.632,1.527,4.071a5.1,5.1,0,0,1-.836,1.558,3,3,0,0,0-.771,1.813.283.283,0,0,1-.263.3.271.271,0,0,1-.038,0" transform="translate(-548.532 -10.867)" fill="#382924"/>
        <path id="Trazado_1014072" data-name="Trazado 1014072" d="M791.88,72.945a2.9,2.9,0,0,0-1.272-3.081c-1.134-.509-1.625-.527-3.043.918,0,0-.012-.046-.035-.126-4.321-2.424-8.763-4.194-12.981-7.656-1.663-1.365-7.362-6.905-7.5-8.072-.043-.007-1.968,2.05-2.2,2.315-4.9,5.543-5.447,9.841-5.048,17.284a31.8,31.8,0,0,0,2.778,11.716,14.513,14.513,0,0,0,6.4,6.864c4.641,2.389,11.1,1.513,18.107-12.185,0,0,2.995,3.476,4.794-7.976" transform="translate(-495.292 -35.809)" fill="#824c32"/>
        <path id="Trazado_1014073" data-name="Trazado 1014073" d="M786.289,63c-1.663-1.365-7.362-6.905-7.5-8.072-.017,0-.345.334-.743.753l0,0-.009.015-.336.355a3.742,3.742,0,0,1,1.046,1.625,29.439,29.439,0,0,0,4.343,4.815,21.285,21.285,0,0,0,3.237,2.345c.947.554,1.938,1.027,2.928,1.5l4.095,1.952a30.432,30.432,0,0,0,5.7,2.246C794.792,68.17,790.432,66.4,786.289,63" transform="translate(-507.031 -35.809)" fill="#5c2811"/>
        <path id="Trazado_1014074" data-name="Trazado 1014074" d="M842.613,108.017a9.6,9.6,0,0,0-.575-1.257,1.025,1.025,0,0,0-.465-.484c.107-.086.22-.165.328-.24a2.19,2.19,0,0,1,1.061-.489.176.176,0,1,0-.017-.351,2.455,2.455,0,0,0-1.246.552,1.954,1.954,0,0,0-1.082,1.552l-.371,1.931a.176.176,0,1,0,.345.066l.371-1.931a2.27,2.27,0,0,1,.168-.586,1.188,1.188,0,0,1,.142-.214.182.182,0,0,0,.111.048c.105.007.21.112.33.331a9.117,9.117,0,0,1,.552,1.207.184.184,0,0,0,.239.109.19.19,0,0,0,.108-.243" transform="translate(-547.81 -68.583)" fill="#5c2811"/>
        <path id="Trazado_1014075" data-name="Trazado 1014075" d="M799.4,92.853a4.265,4.265,0,0,0-1.857-.407,1.46,1.46,0,0,0-1.372,1.124,3.39,3.39,0,0,0,2.086.421,13.164,13.164,0,0,1,4.565,1.123c1.064-1.311-2.53-1.918-3.422-2.261" transform="translate(-519.077 -60.264)"/>
        <path id="Trazado_1014076" data-name="Trazado 1014076" d="M764.759,92.027a3.461,3.461,0,0,1,1.534-.138,1.183,1.183,0,0,1,.988,1.044,2.745,2.745,0,0,1-1.72.126,10.674,10.674,0,0,0-3.785.437c-.721-1.162,2.23-1.284,2.982-1.468" transform="translate(-496.579 -59.879)"/>
        <path id="Trazado_1014077" data-name="Trazado 1014077" d="M789.093,136.821l-6,.751a.208.208,0,0,0-.1.329c.855,1.24,4.354,5.723,6.292-.8.042-.143-.06-.3-.186-.281" transform="translate(-510.454 -89.2)" fill="#fff"/>
        <path id="Trazado_1014078" data-name="Trazado 1014078" d="M784.478,119.293a1.456,1.456,0,0,1-.83-.489c-.6-.755-.138-1.933.307-3.072.149-.38.289-.739.375-1.049a.352.352,0,0,1,.442-.25.359.359,0,0,1,.25.442c-.1.346-.243.722-.4,1.119-.337.861-.756,1.933-.414,2.364.164.205.621.412,1.873.228a.359.359,0,0,1,.1.711,4.618,4.618,0,0,1-1.71,0" transform="translate(-510.725 -74.594)" fill="#5c2811"/>
        <path id="Trazado_1014079" data-name="Trazado 1014079" d="M829.657,132.092a6.124,6.124,0,0,1-.663-2.687,7.917,7.917,0,0,1,.435-2.758A8.858,8.858,0,0,1,830,125.36a9.839,9.839,0,0,1,.761-1.185,11.741,11.741,0,0,1,1.95-2.029c.363-.3.743-.578,1.133-.84s.782-.506,1.16-.764a8.636,8.636,0,0,0,1.062-.834,6.708,6.708,0,0,0,.874-1.009,7.24,7.24,0,0,0,1.1-2.413,6.83,6.83,0,0,0,.137-2.626,6.714,6.714,0,0,0-.856-2.464,5.849,5.849,0,0,0-.774-1.036,8.226,8.226,0,0,0-.981-.878c-.706-.55-1.5-1.04-2.254-1.64a8.51,8.51,0,0,1-1.084-1.007,5.892,5.892,0,0,1-.865-1.258,7.636,7.636,0,0,1-.773-2.892,10.275,10.275,0,0,1-.007-1.478c.008-.121.018-.248.03-.364l.036-.352c.025-.235.052-.467.08-.7.114-.932.249-1.859.411-2.787q.121-.7.274-1.394c.1-.467.216-.932.372-1.412l1.368.466c-.141.4-.26.832-.368,1.268s-.206.881-.3,1.328c-.181.894-.336,1.8-.47,2.705-.033.226-.065.453-.095.679l-.043.339c-.014.114-.026.218-.037.327a9.072,9.072,0,0,0-.038,1.3,6.491,6.491,0,0,0,.566,2.47,4.8,4.8,0,0,0,.673,1.051,7.443,7.443,0,0,0,.922.914c.676.576,1.45,1.094,2.188,1.707a9.132,9.132,0,0,1,1.055,1.012,6.763,6.763,0,0,1,.847,1.217,7.573,7.573,0,0,1,.618,5.677,7.85,7.85,0,0,1-1.285,2.576,7.216,7.216,0,0,1-.98,1.058,9.062,9.062,0,0,1-1.152.844c-.4.252-.8.484-1.189.727s-.765.5-1.128.779a11.419,11.419,0,0,0-1.961,1.907,9.613,9.613,0,0,0-.779,1.128,8.612,8.612,0,0,0-.6,1.236,7.773,7.773,0,0,0-.517,2.693,6.073,6.073,0,0,0,.569,2.688" transform="translate(-540.474 -61.28)"/>
        <path id="Trazado_1014080" data-name="Trazado 1014080" d="M738.36,85.526a5.467,5.467,0,0,0,1.7-1.958,6.651,6.651,0,0,0,.726-2.479,7.93,7.93,0,0,0-.214-2.569,10.654,10.654,0,0,0-.933-2.407c-.2-.382-.424-.751-.662-1.112s-.49-.722-.729-1.1a8.309,8.309,0,0,1-.644-1.189,6.578,6.578,0,0,1-.4-1.307,6.823,6.823,0,0,1,.015-2.731,6.551,6.551,0,0,1,1.123-2.515,6.921,6.921,0,0,1,2.046-1.867,6.666,6.666,0,0,1,1.273-.587,9.881,9.881,0,0,1,1.334-.34c.889-.168,1.763-.252,2.59-.415a6.052,6.052,0,0,0,2.248-.841,5.646,5.646,0,0,0,1.624-1.717,7.616,7.616,0,0,0,.561-1.077q.061-.14.115-.283l.112-.3q.112-.3.22-.607c.287-.814.553-1.638.791-2.464.119-.413.229-.827.328-1.238a11.9,11.9,0,0,0,.234-1.214l1.431.2a13.069,13.069,0,0,1-.3,1.357c-.117.437-.245.866-.38,1.292-.271.85-.567,1.686-.885,2.515q-.119.311-.245.622c-.043.1-.082.2-.129.313s-.093.215-.143.321a8.844,8.844,0,0,1-.7,1.227,6.811,6.811,0,0,1-2.037,2,5.9,5.9,0,0,1-1.314.6,9.158,9.158,0,0,1-1.357.311c-.9.142-1.774.195-2.611.323a8.937,8.937,0,0,0-1.221.264,5.785,5.785,0,0,0-1.126.472,6.127,6.127,0,0,0-1.867,1.587,5.852,5.852,0,0,0-1.082,2.211,6.221,6.221,0,0,0-.1,2.486,6.046,6.046,0,0,0,.327,1.212,7.842,7.842,0,0,0,.567,1.139c.218.372.456.739.686,1.117s.448.768.64,1.168a10.967,10.967,0,0,1,.873,2.514,8.155,8.155,0,0,1,.126,2.651,6.8,6.8,0,0,1-.83,2.5,5.513,5.513,0,0,1-1.78,1.913" transform="translate(-480.544 -34.692)"/>
        <path id="Trazado_1014081" data-name="Trazado 1014081" d="M782.075,50.168a4.872,4.872,0,0,0-.3,1.716c0,.075,0,.15.007.225l.011.226.025.227c.008.076.015.152.03.227.027.151.048.3.087.454l.052.227.064.225a9.14,9.14,0,0,0,.715,1.757,8.731,8.731,0,0,0,1.045,1.592,3.891,3.891,0,0,0,.673.625,3.017,3.017,0,0,0,.386.235,3.25,3.25,0,0,0,.428.172,5.209,5.209,0,0,1,.977.377,1.7,1.7,0,0,1,.44.359,2.122,2.122,0,0,1,.3.457,5.057,5.057,0,0,1,.336.975,4.933,4.933,0,0,0,.314.926,1.841,1.841,0,0,0,.263.4,1.35,1.35,0,0,0,.377.292,1.152,1.152,0,0,0,.464.133.843.843,0,0,0,.474-.11.869.869,0,0,1-.474.156,1.216,1.216,0,0,1-.5-.1,1.454,1.454,0,0,1-.436-.279,1.976,1.976,0,0,1-.324-.406,5.137,5.137,0,0,1-.414-.932,4.783,4.783,0,0,0-.394-.882,1.738,1.738,0,0,0-.28-.352,1.259,1.259,0,0,0-.355-.239,4.9,4.9,0,0,0-.915-.255,3.872,3.872,0,0,1-.515-.156,3.6,3.6,0,0,1-.492-.241,4.572,4.572,0,0,1-.854-.658,7.521,7.521,0,0,1-.7-.787c-.108-.136-.209-.276-.309-.417s-.2-.285-.292-.43a10.107,10.107,0,0,1-.962-1.865l-.1-.248-.083-.254c-.059-.168-.1-.344-.148-.517-.025-.086-.042-.175-.06-.264l-.054-.267-.039-.271c-.011-.09-.028-.181-.032-.273a6.233,6.233,0,0,1,.188-2.23Z" transform="translate(-508.849 -32.415)"/>
        <path id="Trazado_1014082" data-name="Trazado 1014082" d="M811.127,120.8a2.12,2.12,0,0,0-.481.7,1.58,1.58,0,0,0,.709,1.745,3.832,3.832,0,0,0,1.939.51,3.246,3.246,0,0,0,1.188-.1,3.034,3.034,0,0,0,1.159-.794,4.862,4.862,0,0,0,1.08-1.5,2.576,2.576,0,0,0,.122-1.815,1.285,1.285,0,0,0-.388-.6,1.522,1.522,0,0,0-.577-.258c-1.9-.5-3.526.791-4.752,2.106" transform="translate(-528.469 -77.313)" fill="#5c240b"/>
        <path id="Trazado_1014083" data-name="Trazado 1014083" d="M762.966,123.714a8.512,8.512,0,0,0-1.86-1.971,31.931,31.931,0,0,0,1.03,4.483,2.342,2.342,0,0,0,.287-.116,1.58,1.58,0,0,0,.929-1.639,2.121,2.121,0,0,0-.386-.757" transform="translate(-496.215 -79.37)" fill="#5c240b"/>
        <path id="Trazado_1014084" data-name="Trazado 1014084" d="M802.13,108.209c.007,1.062-.545,1.929-1.233,1.938s-1.251-.845-1.258-1.907.545-1.929,1.233-1.938,1.251.845,1.258,1.907" transform="translate(-521.337 -69.304)"/>
        <path id="Trazado_1014085" data-name="Trazado 1014085" d="M797.8,105.907a2.813,2.813,0,0,0-1.987.83.279.279,0,1,0,.413.374,2.9,2.9,0,0,1,2.45-.623,7.942,7.942,0,0,1,2.748.815.278.278,0,0,0,.249-.5,8.483,8.483,0,0,0-2.936-.871,5.586,5.586,0,0,0-.936-.027" transform="translate(-518.796 -69.04)"/>
        <path id="Trazado_1014086" data-name="Trazado 1014086" d="M766.089,105.285a2.814,2.814,0,0,0-1.987.83.279.279,0,1,0,.413.374,2.9,2.9,0,0,1,2.45-.623,7.942,7.942,0,0,1,2.748.815.278.278,0,0,0,.249-.5,8.483,8.483,0,0,0-2.936-.871,5.586,5.586,0,0,0-.936-.027" transform="translate(-498.121 -68.635)"/>
        <path id="Trazado_1014087" data-name="Trazado 1014087" d="M770.619,107.809c.007,1.062-.545,1.929-1.233,1.938s-1.251-.845-1.258-1.907.545-1.929,1.233-1.938,1.251.845,1.258,1.907" transform="translate(-500.793 -69.043)"/>
      </g>
    </g>
  </g>
</svg>
