<svg xmlns="http://www.w3.org/2000/svg" width="546.408" height="314.543" viewBox="0 0 546.408 314.543">
  <g id="Grupo_1195000" data-name="Grupo 1195000" transform="translate(-526.523 -14133.469)">
    <g id="Grupo_1194827" data-name="Grupo 1194827">
      <g id="Grupo_1194999" data-name="Grupo 1194999">
        <path id="Trazado_1015356" data-name="Trazado 1015356" d="M-7.845-1.883h4.977V0h-7.32V-11.375h2.344ZM5.359-4.93H.859v3.047H6.141V0H-1.484V-11.375H6.125v1.9H.859v2.711h4.5ZM10.048,0H7.7V-11.375h2.344Z" transform="translate(536.711 14145)" fill="#12263f"/>
        <path id="Trazado_1015357" data-name="Trazado 1015357" d="M-2.454-3.961h-4.4v-1.82h4.4ZM1.6-6.687h1.2a1.7,1.7,0,0,0,1.273-.43,1.574,1.574,0,0,0,.414-1.141,1.392,1.392,0,0,0-.41-1.07,1.59,1.59,0,0,0-1.129-.383,1.666,1.666,0,0,0-1.086.355,1.137,1.137,0,0,0-.437.926H-.828a2.777,2.777,0,0,1,.48-1.6A3.2,3.2,0,0,1,1-11.133a4.485,4.485,0,0,1,1.9-.4,4.253,4.253,0,0,1,2.828.863A2.945,2.945,0,0,1,6.75-8.289a2.394,2.394,0,0,1-.477,1.438,3.1,3.1,0,0,1-1.25,1.008A2.826,2.826,0,0,1,6.457-4.812,2.8,2.8,0,0,1,6.93-3.187,2.994,2.994,0,0,1,5.825-.758,4.445,4.445,0,0,1,2.9.156a4.214,4.214,0,0,1-2.785-.9A2.934,2.934,0,0,1-.968-3.117H1.29A1.308,1.308,0,0,0,1.77-2.07a1.771,1.771,0,0,0,1.184.406A1.779,1.779,0,0,0,4.215-2.09a1.47,1.47,0,0,0,.457-1.129q0-1.7-1.875-1.7H1.6Z" transform="translate(595.922 14336.512)" fill="#12263f"/>
        <path id="Trazado_1015358" data-name="Trazado 1015358" d="M-71.517,0V-11.375h3.5a5.315,5.315,0,0,1,2.684.676,4.712,4.712,0,0,1,1.848,1.922,5.928,5.928,0,0,1,.664,2.832v.523a5.945,5.945,0,0,1-.652,2.82,4.672,4.672,0,0,1-1.84,1.914A5.355,5.355,0,0,1-67.993,0Zm2.344-9.477v7.594h1.133a2.545,2.545,0,0,0,2.1-.9,4.06,4.06,0,0,0,.742-2.57v-.6a4.124,4.124,0,0,0-.719-2.629,2.537,2.537,0,0,0-2.1-.895ZM-58.844,0H-61.11V-8.453h2.266Zm-2.4-10.641a1.112,1.112,0,0,1,.34-.836,1.277,1.277,0,0,1,.926-.328,1.28,1.28,0,0,1,.922.328,1.105,1.105,0,0,1,.344.836,1.108,1.108,0,0,1-.348.844,1.283,1.283,0,0,1-.918.328,1.283,1.283,0,0,1-.918-.328A1.108,1.108,0,0,1-61.242-10.641Zm8.876,8.3a.727.727,0,0,0-.41-.652,4.659,4.659,0,0,0-1.316-.426q-3.016-.633-3.016-2.562a2.323,2.323,0,0,1,.934-1.879,3.766,3.766,0,0,1,2.441-.754,4.053,4.053,0,0,1,2.574.758,2.388,2.388,0,0,1,.965,1.969h-2.258a1.092,1.092,0,0,0-.312-.8A1.322,1.322,0,0,0-53.741-7a1.351,1.351,0,0,0-.883.258.814.814,0,0,0-.312.656.7.7,0,0,0,.355.605,3.657,3.657,0,0,0,1.2.4A9.8,9.8,0,0,1-51.96-4.7,2.336,2.336,0,0,1-50.171-2.43a2.2,2.2,0,0,1-.992,1.871,4.28,4.28,0,0,1-2.562.715,4.47,4.47,0,0,1-1.887-.379,3.166,3.166,0,0,1-1.293-1.039,2.414,2.414,0,0,1-.469-1.426h2.141a1.179,1.179,0,0,0,.445.922,1.766,1.766,0,0,0,1.109.32,1.635,1.635,0,0,0,.98-.246A.766.766,0,0,0-52.366-2.336Zm11.3-1.812a5.07,5.07,0,0,1-.887,3.129A2.843,2.843,0,0,1-44.35.156a2.633,2.633,0,0,1-2.07-.891V3.25h-2.258v-11.7h2.094l.078.828a2.654,2.654,0,0,1,2.141-.984,2.862,2.862,0,0,1,2.43,1.156,5.207,5.207,0,0,1,.867,3.188Zm-2.258-.164a3.327,3.327,0,0,0-.418-1.82,1.361,1.361,0,0,0-1.215-.641,1.479,1.479,0,0,0-1.461.813V-2.5a1.5,1.5,0,0,0,1.477.836Q-43.326-1.664-43.326-4.312ZM-35.74.156A4.15,4.15,0,0,1-38.767-.984a4.054,4.054,0,0,1-1.168-3.039v-.219a5.106,5.106,0,0,1,.492-2.277,3.612,3.612,0,0,1,1.395-1.547,3.914,3.914,0,0,1,2.059-.543,3.508,3.508,0,0,1,2.73,1.094,4.444,4.444,0,0,1,1,3.1v.922h-5.383a2.1,2.1,0,0,0,.66,1.328,2,2,0,0,0,1.395.5,2.437,2.437,0,0,0,2.039-.945l1.109,1.242A3.389,3.389,0,0,1-33.818-.246,4.511,4.511,0,0,1-35.74.156ZM-36-6.789a1.411,1.411,0,0,0-1.09.455,2.357,2.357,0,0,0-.535,1.3h3.141v-.181a1.681,1.681,0,0,0-.406-1.165A1.456,1.456,0,0,0-36-6.789Zm9.806.453A6.134,6.134,0,0,0-27-6.4a1.654,1.654,0,0,0-1.68.867V0h-2.258V-8.453h2.133l.063,1.008a2.092,2.092,0,0,1,1.883-1.164,2.366,2.366,0,0,1,.7.1Zm5.7,4a.727.727,0,0,0-.41-.652,4.659,4.659,0,0,0-1.316-.426q-3.016-.633-3.016-2.562A2.323,2.323,0,0,1-24.3-7.855a3.766,3.766,0,0,1,2.441-.754,4.053,4.053,0,0,1,2.574.758,2.388,2.388,0,0,1,.965,1.969h-2.258a1.092,1.092,0,0,0-.312-.8A1.322,1.322,0,0,0-21.863-7a1.351,1.351,0,0,0-.883.258.814.814,0,0,0-.312.656.7.7,0,0,0,.355.605,3.657,3.657,0,0,0,1.2.4,9.8,9.8,0,0,1,1.422.379A2.336,2.336,0,0,1-18.292-2.43a2.2,2.2,0,0,1-.992,1.871,4.28,4.28,0,0,1-2.562.715,4.47,4.47,0,0,1-1.887-.379,3.166,3.166,0,0,1-1.293-1.039A2.414,2.414,0,0,1-25.5-2.687h2.141a1.179,1.179,0,0,0,.445.922,1.766,1.766,0,0,0,1.109.32,1.635,1.635,0,0,0,.98-.246A.766.766,0,0,0-20.488-2.336ZM-14.416,0h-2.266V-8.453h2.266Zm-2.4-10.641a1.112,1.112,0,0,1,.34-.836,1.277,1.277,0,0,1,.926-.328,1.28,1.28,0,0,1,.922.328,1.105,1.105,0,0,1,.344.836,1.108,1.108,0,0,1-.348.844,1.283,1.283,0,0,1-.918.328,1.283,1.283,0,0,1-.918-.328A1.108,1.108,0,0,1-16.815-10.641ZM-12.869-4.3a5.013,5.013,0,0,1,.484-2.242A3.546,3.546,0,0,1-10.99-8.07a4.069,4.069,0,0,1,2.113-.539A3.849,3.849,0,0,1-6.083-7.562,4.2,4.2,0,0,1-4.876-4.719l.016.578A4.418,4.418,0,0,1-5.947-1.02,3.775,3.775,0,0,1-8.861.156a3.793,3.793,0,0,1-2.918-1.172A4.5,4.5,0,0,1-12.869-4.2Zm2.258.16A3.16,3.16,0,0,0-10.158-2.3a1.5,1.5,0,0,0,1.3.638,1.5,1.5,0,0,0,1.281-.63,3.457,3.457,0,0,0,.461-2.015A3.128,3.128,0,0,0-7.58-6.14a1.5,1.5,0,0,0-1.3-.649,1.474,1.474,0,0,0-1.281.646A3.516,3.516,0,0,0-10.611-4.144ZM-8.431-12H-5.97L-8.134-9.578H-9.97Zm7.079,3.547.07.977a2.951,2.951,0,0,1,2.43-1.133,2.453,2.453,0,0,1,2,.789A3.682,3.682,0,0,1,3.82-5.461V0H1.562V-5.406A1.465,1.465,0,0,0,1.25-6.449,1.4,1.4,0,0,0,.21-6.773a1.553,1.553,0,0,0-1.43.813V0H-3.477V-8.453Zm13.025,0,.07.977a2.951,2.951,0,0,1,2.43-1.133,2.453,2.453,0,0,1,2,.789,3.682,3.682,0,0,1,.672,2.359V0H14.587V-5.406a1.465,1.465,0,0,0-.312-1.043,1.4,1.4,0,0,0-1.039-.324,1.553,1.553,0,0,0-1.43.813V0H9.548V-8.453ZM23.495,0a2.507,2.507,0,0,1-.227-.758,2.732,2.732,0,0,1-2.133.914,3,3,0,0,1-2.059-.719,2.312,2.312,0,0,1-.816-1.812,2.389,2.389,0,0,1,1-2.062,4.915,4.915,0,0,1,2.879-.727h1.039v-.484a1.393,1.393,0,0,0-.3-.937,1.183,1.183,0,0,0-.949-.352,1.345,1.345,0,0,0-.895.273.929.929,0,0,0-.324.75H18.448A2.268,2.268,0,0,1,18.9-7.273a3,3,0,0,1,1.281-.98,4.669,4.669,0,0,1,1.859-.355,3.689,3.689,0,0,1,2.48.785,2.747,2.747,0,0,1,.918,2.207v3.664a4.041,4.041,0,0,0,.336,1.82V0ZM21.627-1.57a1.945,1.945,0,0,0,.922-.223,1.462,1.462,0,0,0,.625-.6V-3.844H22.33q-1.7,0-1.8,1.172l-.008.133a.9.9,0,0,0,.3.7A1.153,1.153,0,0,0,21.627-1.57Zm8.29-8.961v2.078h1.445V-6.8H29.917v4.219a1.007,1.007,0,0,0,.18.672.9.9,0,0,0,.688.2,3.6,3.6,0,0,0,.664-.055V-.047a4.648,4.648,0,0,1-1.367.2,2.156,2.156,0,0,1-2.422-2.4V-6.8H26.425V-8.453H27.66v-2.078ZM37.723-.859A2.831,2.831,0,0,1,35.41.156a2.67,2.67,0,0,1-2.074-.781,3.335,3.335,0,0,1-.73-2.289V-8.453h2.258v5.467q0,1.322,1.2,1.322a1.63,1.63,0,0,0,1.578-.8V-8.453H39.91V0H37.785ZM46.4-6.336a6.134,6.134,0,0,0-.812-.062,1.654,1.654,0,0,0-1.68.867V0H41.654V-8.453h2.133l.063,1.008a2.092,2.092,0,0,1,1.883-1.164,2.366,2.366,0,0,1,.7.1ZM52.194,0a2.507,2.507,0,0,1-.227-.758,2.732,2.732,0,0,1-2.133.914,3,3,0,0,1-2.059-.719,2.312,2.312,0,0,1-.816-1.812,2.389,2.389,0,0,1,1-2.062,4.915,4.915,0,0,1,2.879-.727h1.039v-.484a1.393,1.393,0,0,0-.3-.937,1.183,1.183,0,0,0-.949-.352,1.345,1.345,0,0,0-.895.273.929.929,0,0,0-.324.75H47.147A2.268,2.268,0,0,1,47.6-7.273a3,3,0,0,1,1.281-.98,4.669,4.669,0,0,1,1.859-.355,3.689,3.689,0,0,1,2.48.785,2.747,2.747,0,0,1,.918,2.207v3.664a4.041,4.041,0,0,0,.336,1.82V0ZM50.326-1.57a1.945,1.945,0,0,0,.922-.223,1.462,1.462,0,0,0,.625-.6V-3.844H51.03q-1.7,0-1.8,1.172l-.008.133a.9.9,0,0,0,.3.7A1.153,1.153,0,0,0,50.326-1.57ZM58.3,0H56.03V-12H58.3ZM70.251-11.492v1.859h-.219a3.836,3.836,0,0,0-2.465.8,3.238,3.238,0,0,0-1.121,2.148,3.075,3.075,0,0,1,2.289-.922,2.9,2.9,0,0,1,2.359,1.063,4.259,4.259,0,0,1,.875,2.8,4.19,4.19,0,0,1-.48,2.008,3.446,3.446,0,0,1-1.359,1.4,3.949,3.949,0,0,1-1.988.5,3.689,3.689,0,0,1-2.9-1.25A4.852,4.852,0,0,1,64.134-4.43v-.812a7.3,7.3,0,0,1,.7-3.27,5.127,5.127,0,0,1,2.008-2.2,5.884,5.884,0,0,1,3.035-.785Zm-2.2,5.7a1.8,1.8,0,0,0-.992.285,1.715,1.715,0,0,0-.656.753v.686A3.04,3.04,0,0,0,66.845-2.3a1.439,1.439,0,0,0,1.25.635,1.423,1.423,0,0,0,1.176-.573,2.337,2.337,0,0,0,.449-1.485,2.333,2.333,0,0,0-.453-1.5A1.477,1.477,0,0,0,68.048-5.789Z" transform="translate(793.922 14392.512)" fill="#12263f"/>
        <path id="Trazado_1015359" data-name="Trazado 1015359" d="M-68.662-9.477h-3.484V0H-74.49V-9.477h-3.437v-1.9h9.266ZM-69.411-4.3a5.013,5.013,0,0,1,.484-2.242A3.546,3.546,0,0,1-67.532-8.07a4.069,4.069,0,0,1,2.113-.539,3.849,3.849,0,0,1,2.793,1.047,4.2,4.2,0,0,1,1.207,2.844l.016.578A4.418,4.418,0,0,1-62.489-1.02,3.775,3.775,0,0,1-65.4.156a3.793,3.793,0,0,1-2.918-1.172A4.5,4.5,0,0,1-69.411-4.2Zm2.258.16A3.16,3.16,0,0,0-66.7-2.3a1.5,1.5,0,0,0,1.3.638,1.5,1.5,0,0,0,1.281-.63,3.457,3.457,0,0,0,.461-2.015,3.128,3.128,0,0,0-.461-1.831,1.5,1.5,0,0,0-1.3-.649,1.474,1.474,0,0,0-1.281.646A3.516,3.516,0,0,0-67.153-4.144ZM-57.59,0h-2.266V-12h2.266Zm5.79.156A4.15,4.15,0,0,1-54.827-.984,4.054,4.054,0,0,1-56-4.023v-.219A5.106,5.106,0,0,1-55.5-6.52a3.612,3.612,0,0,1,1.395-1.547,3.914,3.914,0,0,1,2.059-.543,3.508,3.508,0,0,1,2.73,1.094,4.444,4.444,0,0,1,1,3.1v.922h-5.383a2.1,2.1,0,0,0,.66,1.328,2,2,0,0,0,1.395.5,2.437,2.437,0,0,0,2.039-.945L-48.5-1.367A3.389,3.389,0,0,1-49.878-.246,4.511,4.511,0,0,1-51.8.156Zm-.258-6.945a1.411,1.411,0,0,0-1.09.455,2.357,2.357,0,0,0-.535,1.3h3.141v-.181a1.681,1.681,0,0,0-.406-1.165A1.456,1.456,0,0,0-52.058-6.789Zm9.806.453a6.134,6.134,0,0,0-.812-.062,1.654,1.654,0,0,0-1.68.867V0H-47V-8.453h2.133l.063,1.008a2.092,2.092,0,0,1,1.883-1.164,2.366,2.366,0,0,1,.7.1ZM-36.462,0a2.507,2.507,0,0,1-.227-.758,2.732,2.732,0,0,1-2.133.914A3,3,0,0,1-40.88-.562,2.312,2.312,0,0,1-41.7-2.375a2.389,2.389,0,0,1,1-2.062,4.915,4.915,0,0,1,2.879-.727h1.039v-.484a1.393,1.393,0,0,0-.3-.937,1.183,1.183,0,0,0-.949-.352,1.345,1.345,0,0,0-.895.273.929.929,0,0,0-.324.75h-2.258a2.268,2.268,0,0,1,.453-1.359,3,3,0,0,1,1.281-.98,4.669,4.669,0,0,1,1.859-.355,3.689,3.689,0,0,1,2.48.785,2.747,2.747,0,0,1,.918,2.207v3.664a4.041,4.041,0,0,0,.336,1.82V0Zm-1.867-1.57a1.945,1.945,0,0,0,.922-.223,1.462,1.462,0,0,0,.625-.6V-3.844h-.844q-1.7,0-1.8,1.172l-.008.133a.9.9,0,0,0,.3.7A1.153,1.153,0,0,0-38.329-1.57Zm7.665-6.883.07.977a2.951,2.951,0,0,1,2.43-1.133,2.453,2.453,0,0,1,2,.789,3.682,3.682,0,0,1,.672,2.359V0H-27.75V-5.406a1.465,1.465,0,0,0-.312-1.043A1.4,1.4,0,0,0-29.1-6.773a1.553,1.553,0,0,0-1.43.813V0h-2.258V-8.453Zm10.438,6.789a1.481,1.481,0,0,0,1.016-.344,1.2,1.2,0,0,0,.406-.914h2.117a2.9,2.9,0,0,1-.469,1.574A3.093,3.093,0,0,1-18.417-.238a3.949,3.949,0,0,1-1.77.395A3.67,3.67,0,0,1-23.046-1,4.56,4.56,0,0,1-24.093-4.18v-.148a4.508,4.508,0,0,1,1.039-3.117A3.627,3.627,0,0,1-20.2-8.609a3.555,3.555,0,0,1,2.543.9,3.2,3.2,0,0,1,.973,2.4H-18.8a1.551,1.551,0,0,0-.406-1.072,1.354,1.354,0,0,0-1.031-.412,1.36,1.36,0,0,0-1.191.575,3.333,3.333,0,0,0-.4,1.866v.235a3.375,3.375,0,0,0,.4,1.878A1.377,1.377,0,0,0-20.226-1.664ZM-12.975,0h-2.266V-8.453h2.266Zm-2.4-10.641a1.112,1.112,0,0,1,.34-.836,1.277,1.277,0,0,1,.926-.328,1.28,1.28,0,0,1,.922.328,1.105,1.105,0,0,1,.344.836,1.108,1.108,0,0,1-.348.844,1.283,1.283,0,0,1-.918.328,1.283,1.283,0,0,1-.918-.328A1.108,1.108,0,0,1-15.373-10.641ZM-6.177,0A2.507,2.507,0,0,1-6.4-.758,2.732,2.732,0,0,1-8.537.156,3,3,0,0,1-10.6-.562a2.312,2.312,0,0,1-.816-1.812,2.389,2.389,0,0,1,1-2.062,4.915,4.915,0,0,1,2.879-.727H-6.5v-.484a1.393,1.393,0,0,0-.3-.937,1.183,1.183,0,0,0-.949-.352,1.345,1.345,0,0,0-.895.273.929.929,0,0,0-.324.75h-2.258a2.268,2.268,0,0,1,.453-1.359,3,3,0,0,1,1.281-.98A4.669,4.669,0,0,1-7.63-8.609a3.689,3.689,0,0,1,2.48.785,2.747,2.747,0,0,1,.918,2.207v3.664A4.041,4.041,0,0,0-3.9-.133V0ZM-8.044-1.57a1.945,1.945,0,0,0,.922-.223,1.462,1.462,0,0,0,.625-.6V-3.844h-.844q-1.7,0-1.8,1.172l-.008.133a.9.9,0,0,0,.3.7A1.153,1.153,0,0,0-8.044-1.57ZM8.747-5.828H1.762V-7.672H8.747Zm0,3.383H1.762V-4.289H8.747Zm8.533.563h4.977V0h-7.32V-11.375H17.28Zm13.2-3.047h-4.5v3.047h5.281V0H23.64V-11.375h7.609v1.9H25.984v2.711h4.5Zm8.095,1.945A1.2,1.2,0,0,0,38.11-4a6.148,6.148,0,0,0-1.687-.75,11.962,11.962,0,0,1-1.93-.777,3.153,3.153,0,0,1-1.937-2.82A2.747,2.747,0,0,1,33.075-10a3.389,3.389,0,0,1,1.492-1.129,5.616,5.616,0,0,1,2.184-.406,5.112,5.112,0,0,1,2.172.441A3.458,3.458,0,0,1,40.4-9.844a3.261,3.261,0,0,1,.527,1.828H38.586a1.534,1.534,0,0,0-.492-1.215,2.023,2.023,0,0,0-1.383-.434,2.162,2.162,0,0,0-1.336.363,1.146,1.146,0,0,0-.477.957,1.1,1.1,0,0,0,.559.93,6.311,6.311,0,0,0,1.645.7,7.106,7.106,0,0,1,2.914,1.492A2.972,2.972,0,0,1,40.93-3,2.737,2.737,0,0,1,39.813-.684a4.891,4.891,0,0,1-3.008.84,5.808,5.808,0,0,1-2.391-.48A3.783,3.783,0,0,1,32.77-1.641,3.371,3.371,0,0,1,32.2-3.578h2.352q0,1.883,2.25,1.883a2.189,2.189,0,0,0,1.3-.34A1.106,1.106,0,0,0,38.578-2.984Zm12.244-.977h-4.4v-1.82h4.4Zm8.369,2.078h4.977V0h-7.32V-11.375h2.344ZM72.4-4.93H67.9v3.047h5.281V0H65.552V-11.375h7.609v1.9H67.9v2.711h4.5ZM77.084,0H74.74V-11.375h2.344Z" transform="translate(793.922 14433.512)" fill="#12263f"/>
        <path id="Trazado_1015360" data-name="Trazado 1015360" d="M-3.555-6.367h2.82v2.039h-2.82v3.188H-5.7V-4.328H-8.532V-6.367H-5.7V-9.422h2.148Zm6.423-.32h1.2a1.7,1.7,0,0,0,1.273-.43,1.574,1.574,0,0,0,.414-1.141,1.392,1.392,0,0,0-.41-1.07,1.59,1.59,0,0,0-1.129-.383,1.666,1.666,0,0,0-1.086.355A1.137,1.137,0,0,0,2.7-8.43H.438a2.777,2.777,0,0,1,.48-1.6,3.2,3.2,0,0,1,1.344-1.105,4.485,4.485,0,0,1,1.9-.4,4.253,4.253,0,0,1,2.828.863A2.945,2.945,0,0,1,8.016-8.289,2.394,2.394,0,0,1,7.54-6.852,3.1,3.1,0,0,1,6.29-5.844,2.826,2.826,0,0,1,7.723-4.812,2.8,2.8,0,0,1,8.2-3.187,2.994,2.994,0,0,1,7.09-.758,4.445,4.445,0,0,1,4.165.156a4.214,4.214,0,0,1-2.785-.9A2.934,2.934,0,0,1,.3-3.117H2.555a1.308,1.308,0,0,0,.48,1.047,1.771,1.771,0,0,0,1.184.406A1.779,1.779,0,0,0,5.481-2.09a1.47,1.47,0,0,0,.457-1.129q0-1.7-1.875-1.7h-1.2Z" transform="translate(985.172 14336.512)" fill="#12263f"/>
        <path id="Trazado_1015361" data-name="Trazado 1015361" d="M-10.431-1.883h4.977V0h-7.32V-11.375h2.344ZM2.773-4.93h-4.5v3.047H3.555V0H-4.07V-11.375H3.539v1.9H-1.727v2.711h4.5Zm8.095,1.945A1.2,1.2,0,0,0,10.4-4a6.148,6.148,0,0,0-1.687-.75,11.963,11.963,0,0,1-1.93-.777,3.153,3.153,0,0,1-1.937-2.82A2.747,2.747,0,0,1,5.364-10a3.389,3.389,0,0,1,1.492-1.129,5.616,5.616,0,0,1,2.184-.406,5.112,5.112,0,0,1,2.172.441,3.458,3.458,0,0,1,1.48,1.246,3.261,3.261,0,0,1,.527,1.828H10.876a1.534,1.534,0,0,0-.492-1.215A2.023,2.023,0,0,0,9-9.664,2.162,2.162,0,0,0,7.665-9.3a1.146,1.146,0,0,0-.477.957,1.1,1.1,0,0,0,.559.93,6.311,6.311,0,0,0,1.645.7,7.106,7.106,0,0,1,2.914,1.492A2.972,2.972,0,0,1,13.22-3,2.737,2.737,0,0,1,12.1-.684a4.891,4.891,0,0,1-3.008.84A5.808,5.808,0,0,1,6.7-.324,3.783,3.783,0,0,1,5.06-1.641a3.371,3.371,0,0,1-.566-1.937H6.845q0,1.883,2.25,1.883a2.189,2.189,0,0,0,1.3-.34A1.106,1.106,0,0,0,10.868-2.984Z" transform="translate(1059.711 14145)" fill="#12263f"/>
        <path id="Trazado_1015362" data-name="Trazado 1015362" d="M0,0V292" transform="translate(536.922 14156.012)" fill="none" stroke="#12263f" stroke-width="2"/>
        <path id="Trazado_1015363" data-name="Trazado 1015363" d="M0,0V292" transform="translate(1061.922 14156.012)" fill="none" stroke="#12263f" stroke-width="2"/>
        <path id="Trazado_1015364" data-name="Trazado 1015364" d="M0,0V76" transform="translate(603.922 14344.012)" fill="none" stroke="#12263f" stroke-width="2"/>
        <path id="Trazado_1015365" data-name="Trazado 1015365" d="M0,0V76" transform="translate(993.922 14344.012)" fill="none" stroke="#12263f" stroke-width="2"/>
        <path id="Trazado_1015366" data-name="Trazado 1015366" d="M0,0V33" transform="translate(801.422 14334.012)" fill="none" stroke="#12263f" stroke-width="2"/>
        <path id="Trazado_1015367" data-name="Trazado 1015367" d="M0,0H525" transform="translate(536.922 14367.012)" fill="none" stroke="#12263f" stroke-width="2"/>
        <path id="Trazado_1015368" data-name="Trazado 1015368" d="M0,0H166" transform="translate(547.922 14428.012)" fill="none" stroke="#12263f" stroke-width="2"/>
        <path id="Trazado_1015369" data-name="Trazado 1015369" d="M6.5,0,13,17H0Z" transform="translate(536.422 14434.512) rotate(-90)" fill="#12263f"/>
        <path id="Trazado_1015370" data-name="Trazado 1015370" d="M0,0H90.667" transform="translate(615.422 14387.012)" fill="none" stroke="#12263f" stroke-width="2"/>
        <path id="Trazado_1015371" data-name="Trazado 1015371" d="M6.5,0,13,17H0Z" transform="translate(603.922 14393.512) rotate(-90)" fill="#12263f"/>
        <path id="Trazado_1015372" data-name="Trazado 1015372" d="M0,0H90.667" transform="translate(982.422 14387.012) rotate(180)" fill="none" stroke="#12263f" stroke-width="2"/>
        <path id="Trazado_1015373" data-name="Trazado 1015373" d="M6.5,0,13,17H0Z" transform="translate(993.922 14380.512) rotate(90)" fill="#12263f"/>
        <path id="Trazado_1015374" data-name="Trazado 1015374" d="M0,0H166" transform="translate(1050.422 14428.012) rotate(180)" fill="none" stroke="#12263f" stroke-width="2"/>
        <path id="Trazado_1015375" data-name="Trazado 1015375" d="M6.5,0,13,17H0Z" transform="translate(1061.922 14421.512) rotate(90)" fill="#12263f"/>
        <path id="Trazado_1014703" data-name="Trazado 1014703" d="M-9864.5,3247s45.5,4,103-95,77-109,91-110,39,13.5,98,110,89.5,95,97.5,95" transform="translate(10468.422 11119.989)" fill="none" stroke="#2ed19b" stroke-width="2"/>
        <path id="Trazado_1014702" data-name="Trazado 1014702" d="M11.126-4.6c.294,0,1.039,0,1.039-.723,0-.5-.429-.5-.835-.5H6.339C2.952-5.823.513-2.052.513.613A3.282,3.282,0,0,0,3.788,4.135c2.664,0,5.577-2.868,5.577-6.255A4.121,4.121,0,0,0,8.62-4.6ZM3.81,3.684c-1.152,0-1.987-.881-1.987-2.439C1.823-.11,2.636-4.6,5.955-4.6A1.936,1.936,0,0,1,8.01-2.39a9.329,9.329,0,0,1-1.152,4A3.914,3.914,0,0,1,3.81,3.684Z" transform="translate(606.257 14332.855)" fill="#12263f" stroke="#12263f" stroke-width="1.13"/>
        <path id="Trazado_1014702-2" data-name="Trazado 1014702" d="M11.126-4.6c.294,0,1.039,0,1.039-.723,0-.5-.429-.5-.835-.5H6.339C2.952-5.823.513-2.052.513.613A3.282,3.282,0,0,0,3.788,4.135c2.664,0,5.577-2.868,5.577-6.255A4.121,4.121,0,0,0,8.62-4.6ZM3.81,3.684c-1.152,0-1.987-.881-1.987-2.439C1.823-.11,2.636-4.6,5.955-4.6A1.936,1.936,0,0,1,8.01-2.39a9.329,9.329,0,0,1-1.152,4A3.914,3.914,0,0,1,3.81,3.684Z" transform="translate(869.197 14388.855)" fill="#12263f" stroke="#12263f" stroke-width="1.13"/>
        <path id="Trazado_1014702-3" data-name="Trazado 1014702" d="M11.126-4.6c.294,0,1.039,0,1.039-.723,0-.5-.429-.5-.835-.5H6.339C2.952-5.823.513-2.052.513.613A3.282,3.282,0,0,0,3.788,4.135c2.664,0,5.577-2.868,5.577-6.255A4.121,4.121,0,0,0,8.62-4.6ZM3.81,3.684c-1.152,0-1.987-.881-1.987-2.439C1.823-.11,2.636-4.6,5.955-4.6A1.936,1.936,0,0,1,8.01-2.39a9.329,9.329,0,0,1-1.152,4A3.914,3.914,0,0,1,3.81,3.684Z" transform="translate(996.507 14332.855)" fill="#12263f" stroke="#12263f" stroke-width="1.13"/>
      </g>
    </g>
  </g>
</svg>
