<svg xmlns="http://www.w3.org/2000/svg" width="915.66" height="134.375" viewBox="0 0 915.66 134.375">
  <g id="Grupo_1194992" data-name="Grupo 1194992" transform="translate(-342.17 -18895.459)">
    <path id="Trazado_1015303" data-name="Trazado 1015303" d="M0,0H915.66V81.8H0Z" transform="translate(342.17 18947.531)" fill="#f6f6f6"/>
    <path id="Trazado_1015304" data-name="Trazado 1015304" d="M17.126,13.211A4.025,4.025,0,0,1,15.771,16.1a4.76,4.76,0,0,1-3.223,1.055,4.28,4.28,0,0,1-3.441-1.473,6.038,6.038,0,0,1-1.254-4.043v-.7a6.819,6.819,0,0,1,.578-2.891,4.332,4.332,0,0,1,1.652-1.918,4.629,4.629,0,0,1,2.5-.668,4.637,4.637,0,0,1,3.172,1.055,4.326,4.326,0,0,1,1.391,2.961H14.8a2.376,2.376,0,0,0-.613-1.6,2.271,2.271,0,0,0-1.605-.5,1.991,1.991,0,0,0-1.754.84,4.707,4.707,0,0,0-.6,2.605V11.7a5.038,5.038,0,0,0,.559,2.7,1.954,1.954,0,0,0,1.762.852,2.314,2.314,0,0,0,1.621-.5,2.241,2.241,0,0,0,.613-1.535ZM23.415,17a2.507,2.507,0,0,1-.227-.758,2.732,2.732,0,0,1-2.133.914A3,3,0,0,1,19,16.438a2.312,2.312,0,0,1-.816-1.812,2.389,2.389,0,0,1,1-2.062,4.915,4.915,0,0,1,2.879-.727H23.1v-.484a1.393,1.393,0,0,0-.3-.937,1.183,1.183,0,0,0-.949-.352,1.345,1.345,0,0,0-.895.273.929.929,0,0,0-.324.75H18.369a2.268,2.268,0,0,1,.453-1.359,3,3,0,0,1,1.281-.98,4.669,4.669,0,0,1,1.859-.355,3.689,3.689,0,0,1,2.48.785,2.747,2.747,0,0,1,.918,2.207v3.664a4.041,4.041,0,0,0,.336,1.82V17Zm-1.867-1.57a1.945,1.945,0,0,0,.922-.223,1.462,1.462,0,0,0,.625-.6V13.156h-.844q-1.7,0-1.8,1.172l-.008.133a.9.9,0,0,0,.3.7A1.153,1.153,0,0,0,21.548,15.43Zm10.3-4.766a6.134,6.134,0,0,0-.812-.062,1.654,1.654,0,0,0-1.68.867V17H27.1V8.547h2.133l.063,1.008a2.092,2.092,0,0,1,1.883-1.164,2.366,2.366,0,0,1,.7.1Zm4.18-4.2V8.547H37.47V10.2H36.025v4.219a1.007,1.007,0,0,0,.18.672.9.9,0,0,0,.688.2,3.6,3.6,0,0,0,.664-.055v1.711a4.648,4.648,0,0,1-1.367.2,2.156,2.156,0,0,1-2.422-2.4V10.2H32.533V8.547h1.234V6.469ZM43.626,17a2.507,2.507,0,0,1-.227-.758,2.732,2.732,0,0,1-2.133.914,3,3,0,0,1-2.059-.719,2.312,2.312,0,0,1-.816-1.812,2.389,2.389,0,0,1,1-2.062,4.915,4.915,0,0,1,2.879-.727h1.039v-.484a1.393,1.393,0,0,0-.3-.937,1.183,1.183,0,0,0-.949-.352,1.345,1.345,0,0,0-.895.273.929.929,0,0,0-.324.75H38.58a2.268,2.268,0,0,1,.453-1.359,3,3,0,0,1,1.281-.98,4.669,4.669,0,0,1,1.859-.355,3.689,3.689,0,0,1,2.48.785,2.747,2.747,0,0,1,.918,2.207v3.664a4.041,4.041,0,0,0,.336,1.82V17Zm-1.867-1.57a1.945,1.945,0,0,0,.922-.223,1.462,1.462,0,0,0,.625-.6V13.156h-.844q-1.7,0-1.8,1.172l-.008.133a.9.9,0,0,0,.3.7A1.153,1.153,0,0,0,41.759,15.43ZM53.369,8.547l.07.977a2.951,2.951,0,0,1,2.43-1.133,2.453,2.453,0,0,1,2,.789,3.682,3.682,0,0,1,.672,2.359V17H56.283V11.594a1.465,1.465,0,0,0-.312-1.043,1.4,1.4,0,0,0-1.039-.324,1.553,1.553,0,0,0-1.43.813V17H51.244V8.547Zm14.492,4.3a5.07,5.07,0,0,1-.887,3.129,2.843,2.843,0,0,1-2.395,1.176,2.633,2.633,0,0,1-2.07-.891V20.25H60.251V8.547h2.094l.078.828a2.654,2.654,0,0,1,2.141-.984,2.862,2.862,0,0,1,2.43,1.156,5.207,5.207,0,0,1,.867,3.188ZM65.6,12.688a3.327,3.327,0,0,0-.418-1.82,1.361,1.361,0,0,0-1.215-.641,1.479,1.479,0,0,0-1.461.813V14.5a1.5,1.5,0,0,0,1.477.836Q65.6,15.336,65.6,12.688Z" transform="translate(353.934 18983.672)" fill="#12263f"/>
    <path id="Trazado_1015305" data-name="Trazado 1015305" d="M0,0V81.8" transform="translate(445.83 18947.531)" fill="none" stroke="#afafaf" stroke-linecap="round" stroke-width="1"/>
    <path id="Trazado_1015306" data-name="Trazado 1015306" d="M0,0V81.8" transform="translate(737.83 18947.531)" fill="none" stroke="#afafaf" stroke-linecap="round" stroke-width="1"/>
    <path id="Trazado_1015307" data-name="Trazado 1015307" d="M0,0V81.8" transform="translate(945.83 18947.531)" fill="none" stroke="#afafaf" stroke-linecap="round" stroke-width="1"/>
    <path id="Trazado_991593" data-name="Trazado 991593" d="M0,0H915.66V52.072H0Z" transform="translate(342.17 18895.459)" fill="#182e6e"/>
    <path id="Trazado_1015308" data-name="Trazado 1015308" d="M-47.918-2.109h4.773V0H-50.66V-11.375h2.742ZM-39.238,0h-2.648V-8.453h2.648Zm-.984-11.844h2.781l-2.172,2.453-2.148,0Zm5.164,3.391.086.992a2.906,2.906,0,0,1,2.414-1.148,2.14,2.14,0,0,1,2.164,1.273A2.813,2.813,0,0,1-27.91-8.609q2.57,0,2.641,3.109V0H-27.91V-5.336a1.611,1.611,0,0,0-.219-.945.931.931,0,0,0-.8-.3,1.247,1.247,0,0,0-1.164.7l.008.109V0h-2.641V-5.32a1.694,1.694,0,0,0-.211-.961.929.929,0,0,0-.8-.3,1.263,1.263,0,0,0-1.156.7V0h-2.633V-8.453ZM-20.988,0h-2.641V-8.453h2.641Zm-2.8-10.633a1.175,1.175,0,0,1,.406-.922,1.533,1.533,0,0,1,1.055-.359,1.533,1.533,0,0,1,1.055.359,1.175,1.175,0,0,1,.406.922,1.175,1.175,0,0,1-.406.922,1.533,1.533,0,0,1-1.055.359,1.533,1.533,0,0,1-1.055-.359A1.175,1.175,0,0,1-23.785-10.633Zm7.484.078v2.1h1.391v1.828H-16.3v3.867a.987.987,0,0,0,.172.664.922.922,0,0,0,.68.188,3.862,3.862,0,0,0,.656-.047V-.07a4.859,4.859,0,0,1-1.484.227,2.758,2.758,0,0,1-2.008-.641,2.626,2.626,0,0,1-.648-1.945v-4.2h-1.078V-8.453h1.078v-2.1ZM-9.785.156A4.345,4.345,0,0,1-12.934-1a4.006,4.006,0,0,1-1.2-3.02v-.219a5.191,5.191,0,0,1,.48-2.289,3.516,3.516,0,0,1,1.4-1.535,4.233,4.233,0,0,1,2.188-.543A3.659,3.659,0,0,1-7.254-7.5,4.344,4.344,0,0,1-6.223-4.422V-3.4h-5.234a1.9,1.9,0,0,0,.617,1.117,1.836,1.836,0,0,0,1.234.406A2.366,2.366,0,0,0-7.652-2.75l1.2,1.422A3.363,3.363,0,0,1-7.844-.246,4.713,4.713,0,0,1-9.785.156Zm-.3-6.734q-1.156,0-1.375,1.531H-8.8v-.2a1.3,1.3,0,0,0-.32-.98A1.275,1.275,0,0,0-10.082-6.578ZM1.6,0H-1.043V-8.453H1.6ZM-1.2-10.633a1.175,1.175,0,0,1,.406-.922,1.533,1.533,0,0,1,1.055-.359,1.533,1.533,0,0,1,1.055.359,1.175,1.175,0,0,1,.406.922,1.175,1.175,0,0,1-.406.922,1.533,1.533,0,0,1-1.055.359A1.533,1.533,0,0,1-.793-9.711,1.175,1.175,0,0,1-1.2-10.633Zm6.836,2.18.086.992A2.867,2.867,0,0,1,8.137-8.609a2.412,2.412,0,0,1,1.973.789,3.757,3.757,0,0,1,.676,2.375V0H8.145V-5.336a1.426,1.426,0,0,0-.258-.941,1.193,1.193,0,0,0-.937-.3A1.256,1.256,0,0,0,5.8-5.969V0H3.168V-8.453ZM12.824,0V-6.625H11.6V-8.453h1.227v-.672a2.921,2.921,0,0,1,.852-2.242,3.364,3.364,0,0,1,2.391-.8A5.235,5.235,0,0,1,17.3-12l.008,1.938a2.4,2.4,0,0,0-.648-.07q-1.2,0-1.2,1.031v.648h1.648v1.828H15.465V0Zm9.3.156A4.345,4.345,0,0,1,18.98-1a4.006,4.006,0,0,1-1.2-3.02v-.219a5.191,5.191,0,0,1,.48-2.289,3.516,3.516,0,0,1,1.4-1.535,4.233,4.233,0,0,1,2.188-.543A3.659,3.659,0,0,1,24.66-7.5a4.344,4.344,0,0,1,1.031,3.082V-3.4H20.457a1.9,1.9,0,0,0,.617,1.117,1.836,1.836,0,0,0,1.234.406,2.366,2.366,0,0,0,1.953-.875l1.2,1.422A3.363,3.363,0,0,1,24.07-.246,4.713,4.713,0,0,1,22.129.156Zm-.3-6.734q-1.156,0-1.375,1.531h2.656v-.2a1.3,1.3,0,0,0-.32-.98A1.275,1.275,0,0,0,21.832-6.578Zm10.031.508L31-6.133a1.558,1.558,0,0,0-1.594.781V0H26.77V-8.453h2.469l.086,1.086a2.039,2.039,0,0,1,1.852-1.242,2.567,2.567,0,0,1,.734.094ZM35.59,0H32.949V-8.453H35.59Zm-2.8-10.633a1.175,1.175,0,0,1,.406-.922,1.533,1.533,0,0,1,1.055-.359,1.533,1.533,0,0,1,1.055.359,1.175,1.175,0,0,1,.406.922,1.175,1.175,0,0,1-.406.922,1.533,1.533,0,0,1-1.055.359A1.533,1.533,0,0,1,33.2-9.711,1.175,1.175,0,0,1,32.793-10.633ZM36.879-4.3a4.989,4.989,0,0,1,.492-2.254,3.52,3.52,0,0,1,1.414-1.52,4.259,4.259,0,0,1,2.164-.531,3.887,3.887,0,0,1,2.992,1.176,4.512,4.512,0,0,1,1.094,3.2v.094A4.378,4.378,0,0,1,43.938-1,3.9,3.9,0,0,1,40.965.156a3.942,3.942,0,0,1-2.9-1.082,4.232,4.232,0,0,1-1.18-2.934Zm2.633.164a3.145,3.145,0,0,0,.367,1.719,1.223,1.223,0,0,0,1.086.547q1.406,0,1.438-2.164V-4.3q0-2.273-1.453-2.273-1.32,0-1.43,1.961Zm11.8-1.93-.867-.062a1.558,1.558,0,0,0-1.594.781V0H46.215V-8.453h2.469l.086,1.086a2.039,2.039,0,0,1,1.852-1.242,2.567,2.567,0,0,1,.734.094Z" transform="translate(602.83 18924.6)" fill="#fff"/>
    <path id="Trazado_1015309" data-name="Trazado 1015309" d="M-43.25-2.109h4.773V0h-7.516V-11.375h2.742ZM-34.57,0h-2.648V-8.453h2.648Zm-.984-11.844h2.781l-2.172,2.453-2.148,0Zm5.094,3.391.086.992a2.867,2.867,0,0,1,2.414-1.148,2.412,2.412,0,0,1,1.973.789,3.757,3.757,0,0,1,.676,2.375V0h-2.641V-5.336a1.426,1.426,0,0,0-.258-.941,1.193,1.193,0,0,0-.937-.3,1.256,1.256,0,0,0-1.148.609V0H-32.93V-8.453Zm10.7,8.609A4.345,4.345,0,0,1-22.914-1a4.006,4.006,0,0,1-1.2-3.02v-.219a5.191,5.191,0,0,1,.48-2.289,3.516,3.516,0,0,1,1.4-1.535,4.233,4.233,0,0,1,2.188-.543A3.659,3.659,0,0,1-17.234-7.5,4.344,4.344,0,0,1-16.2-4.422V-3.4h-5.234a1.9,1.9,0,0,0,.617,1.117,1.836,1.836,0,0,0,1.234.406,2.366,2.366,0,0,0,1.953-.875l1.2,1.422A3.363,3.363,0,0,1-17.824-.246,4.713,4.713,0,0,1-19.766.156Zm-.3-6.734q-1.156,0-1.375,1.531h2.656v-.2a1.3,1.3,0,0,0-.32-.98A1.275,1.275,0,0,0-20.062-6.578ZM-10.383,0a2.973,2.973,0,0,1-.25-.758,2.448,2.448,0,0,1-2.031.914A3,3,0,0,1-14.7-.566a2.3,2.3,0,0,1-.836-1.816,2.364,2.364,0,0,1,1.016-2.078,5.174,5.174,0,0,1,2.953-.7h.813v-.448q0-1.17-1.008-1.17a.824.824,0,0,0-.937.926h-2.633a2.36,2.36,0,0,1,1.043-1.99,4.383,4.383,0,0,1,2.66-.765A3.843,3.843,0,0,1-9.07-7.82a2.743,2.743,0,0,1,.961,2.164v3.742A3.832,3.832,0,0,0-7.75-.133V0Zm-1.648-1.719a1.469,1.469,0,0,0,.816-.211,1.322,1.322,0,0,0,.465-.477V-3.758h-.766q-1.375,0-1.375,1.234a.754.754,0,0,0,.242.582A.876.876,0,0,0-12.031-1.719ZM.906-1.875a1.171,1.171,0,0,0,.859-.3,1.1,1.1,0,0,0,.3-.84H4.531a2.922,2.922,0,0,1-1,2.281A3.705,3.705,0,0,1,.969.156,3.751,3.751,0,0,1-1.937-1,4.556,4.556,0,0,1-3-4.2v-.109a5.149,5.149,0,0,1,.473-2.262A3.441,3.441,0,0,1-1.164-8.082,4.065,4.065,0,0,1,.945-8.609,3.658,3.658,0,0,1,3.563-7.7a3.242,3.242,0,0,1,.969,2.477H2.063a1.445,1.445,0,0,0-.32-1.008,1.106,1.106,0,0,0-.859-.352q-1.023,0-1.2,1.3A9.206,9.206,0,0,0-.367-4.133a3.616,3.616,0,0,0,.3,1.766A1.055,1.055,0,0,0,.906-1.875ZM9.734.156A4.345,4.345,0,0,1,6.586-1a4.006,4.006,0,0,1-1.2-3.02v-.219a5.191,5.191,0,0,1,.48-2.289,3.516,3.516,0,0,1,1.4-1.535,4.233,4.233,0,0,1,2.188-.543A3.659,3.659,0,0,1,12.266-7.5,4.344,4.344,0,0,1,13.3-4.422V-3.4H8.063A1.9,1.9,0,0,0,8.68-2.281a1.836,1.836,0,0,0,1.234.406,2.366,2.366,0,0,0,1.953-.875l1.2,1.422A3.363,3.363,0,0,1,11.676-.246,4.713,4.713,0,0,1,9.734.156Zm-.3-6.734q-1.156,0-1.375,1.531h2.656v-.2a1.3,1.3,0,0,0-.32-.98A1.275,1.275,0,0,0,9.438-6.578Zm7.336-1.875.086.992a2.867,2.867,0,0,1,2.414-1.148,2.412,2.412,0,0,1,1.973.789,3.757,3.757,0,0,1,.676,2.375V0H19.281V-5.336a1.426,1.426,0,0,0-.258-.941,1.193,1.193,0,0,0-.937-.3,1.256,1.256,0,0,0-1.148.609V0H14.3V-8.453Zm9.672-2.1v2.1h1.391v1.828H26.445v3.867a.987.987,0,0,0,.172.664.922.922,0,0,0,.68.188,3.862,3.862,0,0,0,.656-.047V-.07a4.859,4.859,0,0,1-1.484.227,2.758,2.758,0,0,1-2.008-.641,2.626,2.626,0,0,1-.648-1.945v-4.2H22.734V-8.453h1.078v-2.1ZM33.984-6.07l-.867-.062a1.558,1.558,0,0,0-1.594.781V0H28.891V-8.453h2.469l.086,1.086A2.039,2.039,0,0,1,33.3-8.609a2.567,2.567,0,0,1,.734.094ZM39.461,0a2.973,2.973,0,0,1-.25-.758A2.448,2.448,0,0,1,37.18.156a3,3,0,0,1-2.031-.723,2.3,2.3,0,0,1-.836-1.816,2.364,2.364,0,0,1,1.016-2.078,5.174,5.174,0,0,1,2.953-.7h.813v-.448q0-1.17-1.008-1.17a.824.824,0,0,0-.937.926H34.516a2.36,2.36,0,0,1,1.043-1.99,4.383,4.383,0,0,1,2.66-.765,3.843,3.843,0,0,1,2.555.789,2.743,2.743,0,0,1,.961,2.164v3.742a3.832,3.832,0,0,0,.359,1.781V0ZM37.813-1.719a1.469,1.469,0,0,0,.816-.211,1.322,1.322,0,0,0,.465-.477V-3.758h-.766q-1.375,0-1.375,1.234a.754.754,0,0,0,.242.582A.876.876,0,0,0,37.813-1.719ZM45.969,0H43.328V-12h2.641Z" transform="translate(832.936 18924.6)" fill="#fff"/>
    <path id="Trazado_1015310" data-name="Trazado 1015310" d="M-51.422-2.109h4.773V0h-7.516V-11.375h2.742ZM-42.742,0h-2.648V-8.453h2.648Zm-.984-11.844h2.781l-2.172,2.453-2.148,0Zm5.164,3.391.086.992a2.906,2.906,0,0,1,2.414-1.148A2.14,2.14,0,0,1-33.9-7.336a2.813,2.813,0,0,1,2.484-1.273q2.57,0,2.641,3.109V0h-2.641V-5.336a1.611,1.611,0,0,0-.219-.945.931.931,0,0,0-.8-.3,1.247,1.247,0,0,0-1.164.7l.008.109V0h-2.641V-5.32a1.694,1.694,0,0,0-.211-.961.929.929,0,0,0-.8-.3,1.263,1.263,0,0,0-1.156.7V0h-2.633V-8.453ZM-24.492,0h-2.641V-8.453h2.641Zm-2.8-10.633a1.175,1.175,0,0,1,.406-.922,1.533,1.533,0,0,1,1.055-.359,1.533,1.533,0,0,1,1.055.359,1.175,1.175,0,0,1,.406.922,1.175,1.175,0,0,1-.406.922,1.533,1.533,0,0,1-1.055.359,1.533,1.533,0,0,1-1.055-.359A1.175,1.175,0,0,1-27.289-10.633Zm7.484.078v2.1h1.391v1.828H-19.8v3.867a.987.987,0,0,0,.172.664.922.922,0,0,0,.68.188,3.862,3.862,0,0,0,.656-.047V-.07a4.859,4.859,0,0,1-1.484.227,2.758,2.758,0,0,1-2.008-.641,2.626,2.626,0,0,1-.648-1.945v-4.2h-1.078V-8.453h1.078v-2.1ZM-13.289.156A4.345,4.345,0,0,1-16.437-1a4.006,4.006,0,0,1-1.2-3.02v-.219a5.191,5.191,0,0,1,.48-2.289,3.516,3.516,0,0,1,1.4-1.535,4.233,4.233,0,0,1,2.188-.543A3.659,3.659,0,0,1-10.758-7.5,4.344,4.344,0,0,1-9.727-4.422V-3.4h-5.234a1.9,1.9,0,0,0,.617,1.117,1.836,1.836,0,0,0,1.234.406,2.366,2.366,0,0,0,1.953-.875l1.2,1.422A3.363,3.363,0,0,1-11.348-.246,4.713,4.713,0,0,1-13.289.156Zm-.3-6.734q-1.156,0-1.375,1.531H-12.3v-.2a1.3,1.3,0,0,0-.32-.98A1.275,1.275,0,0,0-13.586-6.578Zm13.328,4.2a.608.608,0,0,0-.352-.539,5.348,5.348,0,0,0-1.336-.422A6.092,6.092,0,0,1-3.57-3.91a2.722,2.722,0,0,1-.977-.863,2.061,2.061,0,0,1-.336-1.164,2.336,2.336,0,0,1,.961-1.918,3.958,3.958,0,0,1,2.516-.754,4.386,4.386,0,0,1,2.688.758A2.37,2.37,0,0,1,2.3-5.859H-.344q0-1.016-1.07-1.016a1.061,1.061,0,0,0-.7.23.714.714,0,0,0-.281.574.655.655,0,0,0,.344.57,3.248,3.248,0,0,0,1.1.359A9.485,9.485,0,0,1,.375-4.8,2.406,2.406,0,0,1,2.281-2.453,2.214,2.214,0,0,1,1.254-.57a4.505,4.505,0,0,1-2.66.727A4.6,4.6,0,0,1-3.344-.234,3.24,3.24,0,0,1-4.672-1.3a2.406,2.406,0,0,1-.477-1.414h2.461a1.017,1.017,0,0,0,.391.855,1.607,1.607,0,0,0,.961.27A1.264,1.264,0,0,0-.527-1.8.7.7,0,0,0-.258-2.375Zm8.8,1.461A2.714,2.714,0,0,1,6.289.156,2.662,2.662,0,0,1,4.184-.652a3.4,3.4,0,0,1-.715-2.324V-8.453H6.1v5.492A.946.946,0,0,0,7.156-1.875a1.376,1.376,0,0,0,1.289-.648v-5.93h2.648V0H8.625Zm11.836-3.25A5.1,5.1,0,0,1,19.5-1.02,2.843,2.843,0,0,1,17.1.156,2.437,2.437,0,0,1,15.188-.7V3.25H12.555v-11.7h2.461l.078.781a2.437,2.437,0,0,1,1.992-.937,2.866,2.866,0,0,1,2.43,1.152,5.16,5.16,0,0,1,.867,3.168ZM17.75-4.328q0-2.25-1.312-2.25a1.239,1.239,0,0,0-1.25.672v3.328a1.279,1.279,0,0,0,1.266.7q1.258,0,1.3-2.172ZM25.633.156A4.345,4.345,0,0,1,22.484-1a4.006,4.006,0,0,1-1.2-3.02v-.219a5.191,5.191,0,0,1,.48-2.289,3.516,3.516,0,0,1,1.4-1.535,4.233,4.233,0,0,1,2.188-.543A3.659,3.659,0,0,1,28.164-7.5,4.344,4.344,0,0,1,29.2-4.422V-3.4H23.961a1.9,1.9,0,0,0,.617,1.117,1.836,1.836,0,0,0,1.234.406,2.366,2.366,0,0,0,1.953-.875l1.2,1.422A3.363,3.363,0,0,1,27.574-.246,4.713,4.713,0,0,1,25.633.156Zm-.3-6.734q-1.156,0-1.375,1.531h2.656v-.2a1.3,1.3,0,0,0-.32-.98A1.275,1.275,0,0,0,25.336-6.578Zm10.031.508L34.5-6.133a1.558,1.558,0,0,0-1.594.781V0H30.273V-8.453h2.469l.086,1.086A2.039,2.039,0,0,1,34.68-8.609a2.567,2.567,0,0,1,.734.094ZM39.094,0H36.453V-8.453h2.641ZM36.3-10.633a1.175,1.175,0,0,1,.406-.922,1.533,1.533,0,0,1,1.055-.359,1.533,1.533,0,0,1,1.055.359,1.175,1.175,0,0,1,.406.922,1.175,1.175,0,0,1-.406.922,1.533,1.533,0,0,1-1.055.359A1.533,1.533,0,0,1,36.7-9.711,1.175,1.175,0,0,1,36.3-10.633ZM40.383-4.3a4.989,4.989,0,0,1,.492-2.254,3.52,3.52,0,0,1,1.414-1.52,4.259,4.259,0,0,1,2.164-.531,3.887,3.887,0,0,1,2.992,1.176,4.512,4.512,0,0,1,1.094,3.2v.094A4.378,4.378,0,0,1,47.441-1,3.9,3.9,0,0,1,44.469.156a3.942,3.942,0,0,1-2.9-1.082,4.232,4.232,0,0,1-1.18-2.934Zm2.633.164a3.145,3.145,0,0,0,.367,1.719,1.223,1.223,0,0,0,1.086.547q1.406,0,1.438-2.164V-4.3q0-2.273-1.453-2.273-1.32,0-1.43,1.961Zm11.8-1.93-.867-.062a1.558,1.558,0,0,0-1.594.781V0H49.719V-8.453h2.469l.086,1.086a2.039,2.039,0,0,1,1.852-1.242,2.567,2.567,0,0,1,.734.094Z" transform="translate(1089.83 18924.6)" fill="#fff"/>
    <path id="Trazado_1015311" data-name="Trazado 1015311" d="M6.644,23.95,1.85,13.411c-.268.194-.633.463-.779.584a3.242,3.242,0,0,1-.827.536A.249.249,0,0,1,0,14.263c0-.073,0-.147.317-.39l2.312-1.752c.268-.2.39-.2.414-.2.073,0,.194,0,.365.39l4.284,9.468L17.937.511a1.973,1.973,0,0,1,.138-.237.6.6,0,0,1,.566-.4H94.369a.6.6,0,1,1,0,1.2H18.764l-11,22.775c-.17.34-.243.487-.608.487C6.936,24.34,6.814,24.34,6.644,23.95Z" transform="translate(594.74 18976.816)" fill="#12263f"/>
    <path id="Trazado_1015312" data-name="Trazado 1015312" d="M6.644,23.95,1.85,13.411c-.268.194-.633.463-.779.584a3.242,3.242,0,0,1-.827.536A.249.249,0,0,1,0,14.263c0-.073,0-.147.317-.39l2.312-1.752c.268-.2.39-.2.414-.2.073,0,.194,0,.365.39l4.284,9.468L17.937.511a1.973,1.973,0,0,1,.138-.237.6.6,0,0,1,.566-.4H94.369a.6.6,0,1,1,0,1.2H18.764l-11,22.775c-.17.34-.243.487-.608.487C6.936,24.34,6.814,24.34,6.644,23.95Z" transform="translate(1094.74 18976.816)" fill="#12263f"/>
    <path id="Trazado_1015313" data-name="Trazado 1015313" d="M6.086,15.117h4.977V17H3.742V5.625H6.086ZM14.9,17H12.555V5.625H14.9ZM26,13.211A4.025,4.025,0,0,1,24.645,16.1a4.76,4.76,0,0,1-3.223,1.055,4.28,4.28,0,0,1-3.441-1.473,6.038,6.038,0,0,1-1.254-4.043v-.7A6.819,6.819,0,0,1,17.3,8.055a4.332,4.332,0,0,1,1.652-1.918,4.629,4.629,0,0,1,2.5-.668,4.637,4.637,0,0,1,3.172,1.055,4.326,4.326,0,0,1,1.391,2.961H23.672a2.376,2.376,0,0,0-.613-1.6,2.271,2.271,0,0,0-1.605-.5,1.991,1.991,0,0,0-1.754.84,4.707,4.707,0,0,0-.6,2.605V11.7a5.038,5.038,0,0,0,.559,2.7,1.954,1.954,0,0,0,1.762.852,2.314,2.314,0,0,0,1.621-.5,2.241,2.241,0,0,0,.613-1.535Zm12.555-2.039H31.57V9.328h6.984Zm0,3.383H31.57V12.711h6.984Zm8.039-6.008.07.977a2.951,2.951,0,0,1,2.43-1.133,2.453,2.453,0,0,1,2,.789,3.682,3.682,0,0,1,.672,2.359V17H49.508V11.594a1.465,1.465,0,0,0-.312-1.043,1.4,1.4,0,0,0-1.039-.324,1.553,1.553,0,0,0-1.43.813V17H44.469V8.547Zm14.492,4.3A5.07,5.07,0,0,1,60.2,15.98,2.843,2.843,0,0,1,57.8,17.156a2.633,2.633,0,0,1-2.07-.891V20.25H53.477V8.547H55.57l.078.828a2.654,2.654,0,0,1,2.141-.984,2.862,2.862,0,0,1,2.43,1.156,5.207,5.207,0,0,1,.867,3.188Zm-2.258-.164a3.327,3.327,0,0,0-.418-1.82,1.361,1.361,0,0,0-1.215-.641,1.479,1.479,0,0,0-1.461.813V14.5a1.5,1.5,0,0,0,1.477.836Q58.828,15.336,58.828,12.688ZM63.945,5h2.461L64.242,7.422H62.406Zm12.219,8.039h-4.4v-1.82h4.4Zm8-2.727h1.2a1.7,1.7,0,0,0,1.273-.43,1.575,1.575,0,0,0,.414-1.141,1.392,1.392,0,0,0-.41-1.07,1.59,1.59,0,0,0-1.129-.383,1.666,1.666,0,0,0-1.086.355,1.137,1.137,0,0,0-.437.926H81.734a2.777,2.777,0,0,1,.48-1.6,3.2,3.2,0,0,1,1.344-1.105,4.485,4.485,0,0,1,1.9-.4,4.253,4.253,0,0,1,2.828.863,2.945,2.945,0,0,1,1.023,2.379,2.394,2.394,0,0,1-.477,1.438,3.1,3.1,0,0,1-1.25,1.008,2.826,2.826,0,0,1,1.434,1.031,2.8,2.8,0,0,1,.473,1.625,2.994,2.994,0,0,1-1.105,2.43,4.445,4.445,0,0,1-2.926.914,4.214,4.214,0,0,1-2.785-.9,2.934,2.934,0,0,1-1.082-2.375h2.258a1.308,1.308,0,0,0,.48,1.047,2,2,0,0,0,2.445-.02,1.47,1.47,0,0,0,.457-1.129q0-1.7-1.875-1.7h-1.2Z" transform="translate(498 18982.156)" fill="#12263f"/>
    <path id="Trazado_1015314" data-name="Trazado 1015314" d="M4.82,15.117H9.8V17H2.477V5.625H4.82ZM13.633,17H11.289V5.625h2.344Zm11.1-3.789A4.025,4.025,0,0,1,23.379,16.1a4.76,4.76,0,0,1-3.223,1.055,4.28,4.28,0,0,1-3.441-1.473,6.038,6.038,0,0,1-1.254-4.043v-.7a6.819,6.819,0,0,1,.578-2.891,4.332,4.332,0,0,1,1.652-1.918,4.629,4.629,0,0,1,2.5-.668,4.637,4.637,0,0,1,3.172,1.055A4.326,4.326,0,0,1,24.75,9.484H22.406a2.376,2.376,0,0,0-.613-1.6,2.271,2.271,0,0,0-1.605-.5,1.991,1.991,0,0,0-1.754.84,4.707,4.707,0,0,0-.6,2.605V11.7a5.038,5.038,0,0,0,.559,2.7,1.954,1.954,0,0,0,1.762.852,2.314,2.314,0,0,0,1.621-.5,2.241,2.241,0,0,0,.613-1.535Zm12.555-2.039H30.3V9.328h6.984Zm0,3.383H30.3V12.711h6.984Zm8.039-6.008.07.977a2.951,2.951,0,0,1,2.43-1.133,2.453,2.453,0,0,1,2,.789,3.682,3.682,0,0,1,.672,2.359V17H48.242V11.594a1.465,1.465,0,0,0-.312-1.043,1.4,1.4,0,0,0-1.039-.324,1.553,1.553,0,0,0-1.43.813V17H43.2V8.547Zm14.492,4.3a5.07,5.07,0,0,1-.887,3.129,2.843,2.843,0,0,1-2.395,1.176,2.633,2.633,0,0,1-2.07-.891V20.25H52.211V8.547H54.3l.078.828a2.654,2.654,0,0,1,2.141-.984,2.862,2.862,0,0,1,2.43,1.156,5.207,5.207,0,0,1,.867,3.188Zm-2.258-.164a3.327,3.327,0,0,0-.418-1.82,1.361,1.361,0,0,0-1.215-.641,1.479,1.479,0,0,0-1.461.813V14.5a1.5,1.5,0,0,0,1.477.836Q57.563,15.336,57.563,12.688ZM62.68,5h2.461L62.977,7.422H61.141Zm12.383,5.633h2.82v2.039h-2.82v3.188H72.914V12.672H70.086V10.633h2.828V7.578h2.148Zm10.367-.32h1.2a1.7,1.7,0,0,0,1.273-.43,1.575,1.575,0,0,0,.414-1.141,1.392,1.392,0,0,0-.41-1.07,1.59,1.59,0,0,0-1.129-.383,1.666,1.666,0,0,0-1.086.355,1.137,1.137,0,0,0-.437.926H83a2.777,2.777,0,0,1,.48-1.6,3.2,3.2,0,0,1,1.344-1.105,4.485,4.485,0,0,1,1.9-.4,4.253,4.253,0,0,1,2.828.863,2.945,2.945,0,0,1,1.023,2.379,2.394,2.394,0,0,1-.477,1.438,3.1,3.1,0,0,1-1.25,1.008,2.826,2.826,0,0,1,1.434,1.031,2.8,2.8,0,0,1,.473,1.625,2.994,2.994,0,0,1-1.105,2.43,4.445,4.445,0,0,1-2.926.914,4.214,4.214,0,0,1-2.785-.9,2.934,2.934,0,0,1-1.082-2.375h2.258a1.308,1.308,0,0,0,.48,1.047,2,2,0,0,0,2.445-.02,1.47,1.47,0,0,0,.457-1.129q0-1.7-1.875-1.7h-1.2Z" transform="translate(998 18982.156)" fill="#12263f"/>
    <path id="Trazado_1015315" data-name="Trazado 1015315" d="M24.574,15.117h4.977V17H22.23V5.625h2.344Zm15.25-1.906A4.025,4.025,0,0,1,38.469,16.1a4.76,4.76,0,0,1-3.223,1.055A4.28,4.28,0,0,1,31.8,15.684a6.038,6.038,0,0,1-1.254-4.043v-.7a6.819,6.819,0,0,1,.578-2.891,4.332,4.332,0,0,1,1.652-1.918,5.164,5.164,0,0,1,5.668.387A4.326,4.326,0,0,1,39.84,9.484H37.5a2.376,2.376,0,0,0-.613-1.6,2.271,2.271,0,0,0-1.605-.5,1.991,1.991,0,0,0-1.754.84,4.707,4.707,0,0,0-.6,2.605V11.7a5.038,5.038,0,0,0,.559,2.7,1.954,1.954,0,0,0,1.762.852,2.314,2.314,0,0,0,1.621-.5,2.241,2.241,0,0,0,.613-1.535Zm12.555-2.039H45.395V9.328h6.984Zm0,3.383H45.395V12.711h6.984Zm13.57-1.7a5.07,5.07,0,0,1-.887,3.129,2.843,2.843,0,0,1-2.395,1.176,2.633,2.633,0,0,1-2.07-.891V20.25H58.34V8.547h2.094l.078.828a2.654,2.654,0,0,1,2.141-.984,2.862,2.862,0,0,1,2.43,1.156,5.207,5.207,0,0,1,.867,3.188Zm-2.258-.164a3.327,3.327,0,0,0-.418-1.82,1.361,1.361,0,0,0-1.215-.641,1.479,1.479,0,0,0-1.461.813V14.5a1.5,1.5,0,0,0,1.477.836Q63.691,15.336,63.691,12.688ZM68.809,5H71.27L69.105,7.422H67.27Z" transform="translate(787.83 18980.947)" fill="#12263f"/>
    <path id="Trazado_1015316" data-name="Trazado 1015316" d="M16.66,8.547l.07.977a2.951,2.951,0,0,1,2.43-1.133,2.453,2.453,0,0,1,2,.789,3.682,3.682,0,0,1,.672,2.359V17H19.574V11.594a1.465,1.465,0,0,0-.312-1.043,1.4,1.4,0,0,0-1.039-.324,1.553,1.553,0,0,0-1.43.813V17H14.535V8.547Zm14.492,4.3a5.07,5.07,0,0,1-.887,3.129,2.843,2.843,0,0,1-2.395,1.176,2.633,2.633,0,0,1-2.07-.891V20.25H23.543V8.547h2.094l.078.828a2.654,2.654,0,0,1,2.141-.984,2.862,2.862,0,0,1,2.43,1.156,5.207,5.207,0,0,1,.867,3.188Zm-2.258-.164a3.327,3.327,0,0,0-.418-1.82,1.361,1.361,0,0,0-1.215-.641,1.478,1.478,0,0,0-1.461.813V14.5a1.5,1.5,0,0,0,1.477.836Q28.895,15.336,28.895,12.688Zm7.742-.312a11.99,11.99,0,0,1,.477-3.406A8.989,8.989,0,0,1,38.52,6.105a5.251,5.251,0,0,1,2.016-1.73l.438,1.219A5.438,5.438,0,0,0,39.191,8.2a12.082,12.082,0,0,0-.641,4.125v.242a12.313,12.313,0,0,0,.633,4.141,5.544,5.544,0,0,0,1.789,2.648l-.437,1.2a5.253,5.253,0,0,1-1.98-1.684,8.838,8.838,0,0,1-1.4-2.785,11.918,11.918,0,0,1-.516-3.3ZM47.543,17H45.285V8.3l-2.7.836V7.3L47.3,5.609h.242Zm12.164-3.961h-4.4v-1.82h4.4Zm13.406-.187a5.07,5.07,0,0,1-.887,3.129,2.843,2.843,0,0,1-2.395,1.176,2.633,2.633,0,0,1-2.07-.891V20.25H65.5V8.547H67.6l.078.828a2.654,2.654,0,0,1,2.141-.984,2.862,2.862,0,0,1,2.43,1.156,5.207,5.207,0,0,1,.867,3.188Zm-2.258-.164a3.327,3.327,0,0,0-.418-1.82,1.361,1.361,0,0,0-1.215-.641,1.478,1.478,0,0,0-1.461.813V14.5a1.5,1.5,0,0,0,1.477.836Q70.855,15.336,70.855,12.688Zm7.547-.133a11.377,11.377,0,0,1-.508,3.4,9.225,9.225,0,0,1-1.461,2.883,5.263,5.263,0,0,1-2.039,1.719l-.437-1.2a5.494,5.494,0,0,0,1.75-2.578,11.939,11.939,0,0,0,.664-4.008v-.414a12.209,12.209,0,0,0-.637-4.117A5.727,5.727,0,0,0,73.957,5.57l.438-1.2a5.265,5.265,0,0,1,2,1.672,9.106,9.106,0,0,1,1.461,2.82A11.3,11.3,0,0,1,78.4,12.2Z" transform="translate(600.541 18983.672)" fill="#12263f"/>
    <path id="Trazado_1015317" data-name="Trazado 1015317" d="M16.66,8.547l.07.977a2.951,2.951,0,0,1,2.43-1.133,2.453,2.453,0,0,1,2,.789,3.682,3.682,0,0,1,.672,2.359V17H19.574V11.594a1.465,1.465,0,0,0-.312-1.043,1.4,1.4,0,0,0-1.039-.324,1.553,1.553,0,0,0-1.43.813V17H14.535V8.547Zm14.492,4.3a5.07,5.07,0,0,1-.887,3.129,2.843,2.843,0,0,1-2.395,1.176,2.633,2.633,0,0,1-2.07-.891V20.25H23.543V8.547h2.094l.078.828a2.654,2.654,0,0,1,2.141-.984,2.862,2.862,0,0,1,2.43,1.156,5.207,5.207,0,0,1,.867,3.188Zm-2.258-.164a3.327,3.327,0,0,0-.418-1.82,1.361,1.361,0,0,0-1.215-.641,1.478,1.478,0,0,0-1.461.813V14.5a1.5,1.5,0,0,0,1.477.836Q28.895,15.336,28.895,12.688Zm7.742-.312a11.99,11.99,0,0,1,.477-3.406A8.989,8.989,0,0,1,38.52,6.105a5.251,5.251,0,0,1,2.016-1.73l.438,1.219A5.438,5.438,0,0,0,39.191,8.2a12.082,12.082,0,0,0-.641,4.125v.242a12.313,12.313,0,0,0,.633,4.141,5.544,5.544,0,0,0,1.789,2.648l-.437,1.2a5.253,5.253,0,0,1-1.98-1.684,8.838,8.838,0,0,1-1.4-2.785,11.918,11.918,0,0,1-.516-3.3ZM47.543,17H45.285V8.3l-2.7.836V7.3L47.3,5.609h.242Zm12.164-3.961h-4.4v-1.82h4.4Zm13.406-.187a5.07,5.07,0,0,1-.887,3.129,2.843,2.843,0,0,1-2.395,1.176,2.633,2.633,0,0,1-2.07-.891V20.25H65.5V8.547H67.6l.078.828a2.654,2.654,0,0,1,2.141-.984,2.862,2.862,0,0,1,2.43,1.156,5.207,5.207,0,0,1,.867,3.188Zm-2.258-.164a3.327,3.327,0,0,0-.418-1.82,1.361,1.361,0,0,0-1.215-.641,1.478,1.478,0,0,0-1.461.813V14.5a1.5,1.5,0,0,0,1.477.836Q70.855,15.336,70.855,12.688Zm7.547-.133a11.377,11.377,0,0,1-.508,3.4,9.225,9.225,0,0,1-1.461,2.883,5.263,5.263,0,0,1-2.039,1.719l-.437-1.2a5.494,5.494,0,0,0,1.75-2.578,11.939,11.939,0,0,0,.664-4.008v-.414a12.209,12.209,0,0,0-.637-4.117A5.727,5.727,0,0,0,73.957,5.57l.438-1.2a5.265,5.265,0,0,1,2,1.672,9.106,9.106,0,0,1,1.461,2.82A11.3,11.3,0,0,1,78.4,12.2Z" transform="translate(1100.541 18983.672)" fill="#12263f"/>
    <path id="Trazado_1015318" data-name="Trazado 1015318" d="M0,0H10" transform="translate(623.211 18987.182)" fill="none" stroke="#12263f" stroke-width="2"/>
    <path id="Trazado_1015319" data-name="Trazado 1015319" d="M0,0H10" transform="translate(1123.211 18987.182)" fill="none" stroke="#12263f" stroke-width="2"/>
    <path id="Trazado_1015320" data-name="Trazado 1015320" d="M0,0H8" transform="translate(665.211 18987.182)" fill="none" stroke="#12263f" stroke-width="2"/>
    <path id="Trazado_1015321" data-name="Trazado 1015321" d="M0,0H8" transform="translate(1165.211 18987.182)" fill="none" stroke="#12263f" stroke-width="2"/>
  </g>
</svg>
