<svg xmlns="http://www.w3.org/2000/svg" xmlns:xlink="http://www.w3.org/1999/xlink" width="975.105" height="626.86" viewBox="0 0 975.105 626.86">
  <defs>
    <clipPath id="clip-path">
      <rect id="Rectángulo_461795" data-name="Rectángulo 461795" width="600.633" height="577.516" fill="none"/>
    </clipPath>
    <clipPath id="clip-path-3">
      <rect id="Rectángulo_461792" data-name="Rectángulo 461792" width="426.981" height="426.985" fill="none"/>
    </clipPath>
    <clipPath id="clip-path-4">
      <rect id="Rectángulo_461793" data-name="Rectángulo 461793" width="205.432" height="205.43" fill="none"/>
    </clipPath>
  </defs>
  <g id="Grupo_1194995" data-name="Grupo 1194995" transform="translate(-289.889 -5070.315)">
    <g id="Grupo_1194788" data-name="Grupo 1194788" transform="translate(499.684 5096)" clip-path="url(#clip-path)">
      <rect id="Rectángulo_461778" data-name="Rectángulo 461778" width="1.691" height="41.802" transform="translate(298.232 3.625)" fill="#b9c6ba"/>
      <g id="Grupo_1194787" data-name="Grupo 1194787">
        <g id="Grupo_1194786" data-name="Grupo 1194786" clip-path="url(#clip-path)">
          <path id="Trazado_1014645" data-name="Trazado 1014645" d="M94.951,3.814a3.814,3.814,0,1,0-3.814,3.814,3.814,3.814,0,0,0,3.814-3.814" transform="translate(207.937)" fill="#b9c6ba"/>
          <rect id="Rectángulo_461779" data-name="Rectángulo 461779" width="41.8" height="1.687" transform="translate(498.82 146.84) rotate(-37.513)" fill="#b9c6ba"/>
          <path id="Trazado_1014646" data-name="Trazado 1014646" d="M162.448,41.852a3.814,3.814,0,1,0-5.346-.71,3.811,3.811,0,0,0,5.346.71" transform="translate(372.224 83.366)" fill="#b9c6ba"/>
          <rect id="Rectángulo_461780" data-name="Rectángulo 461780" width="1.689" height="41.799" transform="matrix(0.246, -0.969, 0.969, 0.246, 556.281, 367.893)" fill="#b9c6ba"/>
          <path id="Trazado_1014647" data-name="Trazado 1014647" d="M178.257,117.972a3.813,3.813,0,1,0-2.759-4.636,3.817,3.817,0,0,0,2.759,4.636" transform="translate(417.622 263.036)" fill="#b9c6ba"/>
          <rect id="Rectángulo_461781" data-name="Rectángulo 461781" width="1.69" height="41.797" transform="translate(408.207 537.517) rotate(-28.439)" fill="#b9c6ba"/>
          <path id="Trazado_1014648" data-name="Trazado 1014648" d="M126.14,174.173a3.814,3.814,0,1,0,1.538-5.17,3.814,3.814,0,0,0-1.538,5.17" transform="translate(299.271 401.344)" fill="#b9c6ba"/>
          <rect id="Rectángulo_461782" data-name="Rectángulo 461782" width="1.691" height="41.799" transform="translate(65.326 118.781) rotate(-52.55)" fill="#b9c6ba"/>
          <path id="Trazado_1014649" data-name="Trazado 1014649" d="M24.523,34.624a3.814,3.814,0,1,0,.71,5.346,3.81,3.81,0,0,0-.71-5.346" transform="translate(43.789 80.575)" fill="#b9c6ba"/>
          <rect id="Rectángulo_461783" data-name="Rectángulo 461783" width="41.8" height="1.689" transform="translate(3.423 373.498) rotate(-14.259)" fill="#b9c6ba"/>
          <path id="Trazado_1014650" data-name="Trazado 1014650" d="M2.874,109.679a3.813,3.813,0,1,0,4.636,2.756,3.811,3.811,0,0,0-4.636-2.756" transform="translate(0 260.891)" fill="#b9c6ba"/>
          <rect id="Rectángulo_461784" data-name="Rectángulo 461784" width="41.798" height="1.688" transform="translate(171.026 570.412) rotate(-61.536)" fill="#b9c6ba"/>
          <path id="Trazado_1014651" data-name="Trazado 1014651" d="M50.162,169.643a3.813,3.813,0,1,0,5.17-1.538,3.812,3.812,0,0,0-5.17,1.538" transform="translate(118.352 399.197)" fill="#b9c6ba"/>
          <rect id="Rectángulo_461785" data-name="Rectángulo 461785" width="2.025" height="174.952" transform="translate(298.658 130.499)" fill="#c70e59"/>
          <rect id="Rectángulo_461786" data-name="Rectángulo 461786" width="2.027" height="174.942" transform="translate(162.273 197.159) rotate(-51.423)" fill="#ff9b00"/>
          <rect id="Rectángulo_461787" data-name="Rectángulo 461787" width="174.982" height="2.026" transform="translate(128.87 343.51) rotate(-12.923)" fill="#8ac740"/>
          <rect id="Rectángulo_461788" data-name="Rectángulo 461788" width="174.954" height="2.029" transform="matrix(0.435, -0.901, 0.901, 0.435, 222.774, 462.602)" fill="#009488"/>
          <rect id="Rectángulo_461789" data-name="Rectángulo 461789" width="2.027" height="174.953" transform="matrix(0.901, -0.434, 0.434, 0.901, 298.757, 305.89)" fill="#00aaf9"/>
          <rect id="Rectángulo_461790" data-name="Rectángulo 461790" width="2.115" height="182.691" transform="translate(299.442 306.53) rotate(-77.138)" fill="#394cb5"/>
          <rect id="Rectángulo_461791" data-name="Rectángulo 461791" width="174.943" height="2.028" transform="translate(298.976 304.583) rotate(-38.511)" fill="#9d1bb7"/>
          <path id="Trazado_1014652" data-name="Trazado 1014652" d="M64.715,135.339,33.063,110.423A236.412,236.412,0,0,1,219.931,19.694V59.975A196.368,196.368,0,0,0,64.715,135.339" transform="translate(78.731 46.896)" fill="#ff9b00"/>
          <path id="Trazado_1014653" data-name="Trazado 1014653" d="M243.548,135.339A196.364,196.364,0,0,0,88.329,59.975V19.694A236.4,236.4,0,0,1,275.2,110.423Z" transform="translate(210.333 46.896)" fill="#c70e59"/>
          <path id="Trazado_1014654" data-name="Trazado 1014654" d="M210.289,248.38l-39.2-9.261a198.785,198.785,0,0,0,5.308-45.664A195.441,195.441,0,0,0,134.235,71.443l31.648-24.916a235.342,235.342,0,0,1,50.79,146.928,239.042,239.042,0,0,1-6.384,54.925" transform="translate(319.646 110.792)" fill="#9d1bb7"/>
          <path id="Trazado_1014655" data-name="Trazado 1014655" d="M148.843,272.389A236.4,236.4,0,0,1,19.93,112.747l39.2-9.261a196.282,196.282,0,0,0,107.06,132.551Z" transform="translate(47.458 246.425)" fill="#009488"/>
          <path id="Trazado_1014656" data-name="Trazado 1014656" d="M130.82,272.389l-17.349-36.352a196.291,196.291,0,0,0,107.06-132.551l39.2,9.261A236.389,236.389,0,0,1,130.82,272.389" transform="translate(270.202 246.425)" fill="#394cb5"/>
          <path id="Trazado_1014657" data-name="Trazado 1014657" d="M160.416,202.13A235.746,235.746,0,0,1,58.056,179.04l17.349-36.352a195.753,195.753,0,0,0,85.011,19.161,195.757,195.757,0,0,0,85.015-19.161l17.346,36.352a235.736,235.736,0,0,1-102.36,23.091" transform="translate(138.245 339.774)" fill="#00aaf9"/>
          <path id="Trazado_1014658" data-name="Trazado 1014658" d="M24.426,248.38a239.044,239.044,0,0,1-6.384-54.925A235.339,235.339,0,0,1,68.828,46.527l31.655,24.916A195.4,195.4,0,0,0,58.323,193.455a198.6,198.6,0,0,0,5.305,45.664Z" transform="translate(42.962 110.792)" fill="#8ac740"/>
          <g id="Grupo_1194782" data-name="Grupo 1194782" transform="translate(85.172 90.752)" opacity="0.5" style="mix-blend-mode: multiply;isolation: isolate">
            <g id="Grupo_1194781" data-name="Grupo 1194781">
              <g id="Grupo_1194780" data-name="Grupo 1194780" clip-path="url(#clip-path-3)">
                <path id="Trazado_1014659" data-name="Trazado 1014659" d="M67.118,130.726,38.682,108.349A212.386,212.386,0,0,1,206.55,26.841V63.03a176.393,176.393,0,0,0-139.432,67.7" transform="translate(6.939 -26.838)" fill="#ff9b00"/>
                <path id="Trazado_1014660" data-name="Trazado 1014660" d="M227.765,130.726A176.41,176.41,0,0,0,88.329,63.03V26.841A212.382,212.382,0,0,1,256.2,108.349Z" transform="translate(125.16 -26.838)" fill="#c70e59"/>
                <path id="Trazado_1014661" data-name="Trazado 1014661" d="M197.892,232.273l-35.216-8.321a178.592,178.592,0,0,0,4.764-41.021A175.567,175.567,0,0,0,129.567,73.324L158,50.947a211.4,211.4,0,0,1,45.62,131.983,214.93,214.93,0,0,1-5.731,49.342" transform="translate(223.358 30.565)" fill="#9d1bb7"/>
                <path id="Trazado_1014662" data-name="Trazado 1014662" d="M142.692,253.839A212.354,212.354,0,0,1,26.885,110.434L62.1,102.113a176.349,176.349,0,0,0,96.176,119.074Z" transform="translate(-21.153 152.403)" fill="#009488"/>
                <path id="Trazado_1014663" data-name="Trazado 1014663" d="M126.5,253.839l-15.584-32.653a176.367,176.367,0,0,0,96.176-119.074l35.216,8.321A212.345,212.345,0,0,1,126.5,253.839" transform="translate(178.943 152.403)" fill="#394cb5"/>
                <path id="Trazado_1014664" data-name="Trazado 1014664" d="M153.087,190.726a211.742,211.742,0,0,1-91.953-20.744l15.588-32.653a175.851,175.851,0,0,0,76.365,17.211,175.841,175.841,0,0,0,76.365-17.211l15.591,32.653a211.757,211.757,0,0,1-91.956,20.744" transform="translate(60.402 236.261)" fill="#00aaf9"/>
                <path id="Trazado_1014665" data-name="Trazado 1014665" d="M30.921,232.273A214.928,214.928,0,0,1,25.19,182.93,211.4,211.4,0,0,1,70.81,50.947L99.246,73.324A175.527,175.527,0,0,0,61.373,182.93a178.78,178.78,0,0,0,4.764,41.021Z" transform="translate(-25.189 30.565)" fill="#8ac740"/>
              </g>
            </g>
          </g>
          <path id="Trazado_1014666" data-name="Trazado 1014666" d="M166.134,57.8a45.654,45.654,0,1,1-45.654-45.65A45.653,45.653,0,0,1,166.134,57.8" transform="translate(178.181 28.932)" fill="#c70e59"/>
          <path id="Trazado_1014667" data-name="Trazado 1014667" d="M146.323,49.618a34.029,34.029,0,1,1-34.029-34.032,34.027,34.027,0,0,1,34.029,34.032" transform="translate(186.368 37.114)" fill="#fff"/>
          <g id="Grupo_1194785" data-name="Grupo 1194785" transform="translate(197.96 200.859)" opacity="0.7">
            <g id="Grupo_1194784" data-name="Grupo 1194784">
              <g id="Grupo_1194783" data-name="Grupo 1194783" clip-path="url(#clip-path-4)">
                <path id="Trazado_1014668" data-name="Trazado 1014668" d="M263.98,162.123A102.717,102.717,0,1,1,161.265,59.4,102.714,102.714,0,0,1,263.98,162.123" transform="translate(-58.548 -59.404)" fill="#b8babc"/>
              </g>
            </g>
          </g>
          <path id="Trazado_1014669" data-name="Trazado 1014669" d="M243.158,153.517a90.5,90.5,0,1,1-90.5-90.5,90.491,90.491,0,0,1,90.5,90.5" transform="translate(148.018 150.061)" fill="#fff"/>
          <path id="Trazado_1014670" data-name="Trazado 1014670" d="M216.61,82.746a45.652,45.652,0,1,1-45.654-45.654A45.653,45.653,0,0,1,216.61,82.746" transform="translate(298.384 88.325)" fill="#9d1bb7"/>
          <path id="Trazado_1014671" data-name="Trazado 1014671" d="M196.8,74.561a34.03,34.03,0,1,1-34.032-34.032A34.027,34.027,0,0,1,196.8,74.561" transform="translate(306.568 96.509)" fill="#fff"/>
          <path id="Trazado_1014672" data-name="Trazado 1014672" d="M230.462,137.007a45.652,45.652,0,1,1-45.647-45.654,45.652,45.652,0,0,1,45.647,45.654" transform="translate(331.369 217.533)" fill="#394cb5"/>
          <path id="Trazado_1014673" data-name="Trazado 1014673" d="M210.662,128.822A34.034,34.034,0,1,1,176.633,94.79a34.033,34.033,0,0,1,34.029,34.032" transform="translate(339.55 225.718)" fill="#fff"/>
          <path id="Trazado_1014674" data-name="Trazado 1014674" d="M193.836,179.754a45.65,45.65,0,1,1-45.65-45.643,45.653,45.653,0,0,1,45.65,45.643" transform="translate(244.163 319.35)" fill="#00aaf9"/>
          <path id="Trazado_1014675" data-name="Trazado 1014675" d="M174.032,171.575a34.03,34.03,0,1,1-34.025-34.029,34.032,34.032,0,0,1,34.025,34.029" transform="translate(252.342 327.53)" fill="#fff"/>
          <path id="Trazado_1014676" data-name="Trazado 1014676" d="M138.421,180.213a45.65,45.65,0,1,1-45.65-45.65,45.645,45.645,0,0,1,45.65,45.65" transform="translate(112.206 320.427)" fill="#009488"/>
          <path id="Trazado_1014677" data-name="Trazado 1014677" d="M118.615,172.029A34.029,34.029,0,1,1,84.589,138a34.024,34.024,0,0,1,34.025,34.029" transform="translate(120.388 328.611)" fill="#fff"/>
          <path id="Trazado_1014678" data-name="Trazado 1014678" d="M103.526,137.007a45.65,45.65,0,1,1-45.65-45.654,45.653,45.653,0,0,1,45.65,45.654" transform="translate(29.113 217.533)" fill="#8ac740"/>
          <path id="Trazado_1014679" data-name="Trazado 1014679" d="M83.726,128.822A34.032,34.032,0,1,1,49.7,94.79a34.028,34.028,0,0,1,34.029,34.032" transform="translate(37.295 225.718)" fill="#fff"/>
          <path id="Trazado_1014680" data-name="Trazado 1014680" d="M115.545,82.36A45.652,45.652,0,1,1,69.9,36.71a45.653,45.653,0,0,1,45.647,45.65" transform="translate(57.724 87.415)" fill="#ff9b00"/>
          <path id="Trazado_1014681" data-name="Trazado 1014681" d="M95.74,74.173A34.03,34.03,0,1,1,61.711,40.148,34.031,34.031,0,0,1,95.74,74.173" transform="translate(65.91 95.602)" fill="#fff"/>
          <path id="Trazado_1014682" data-name="Trazado 1014682" d="M49.728,112.434v-2.019l-14.1-9.88L21.546,110.4h-.007v.007l-.007.007h.007v2.019h3.456v13.092H22.563v2.827H48.7v-2.827H46.269V112.434ZM36.92,125.526H34.34V112.434h2.58Zm-8.544-13.092h2.58v13.092h-2.58Zm14.509,13.092H40.3V112.434h2.58Z" transform="translate(51.273 239.398)" fill="#8ac740"/>
          <path id="Trazado_1014683" data-name="Trazado 1014683" d="M44.888,54.989H36.9a.918.918,0,1,1,0-1.836h7.99a.918.918,0,1,1,0,1.836" transform="translate(85.665 126.57)" fill="#ff9b00"/>
          <path id="Trazado_1014684" data-name="Trazado 1014684" d="M44.888,55.678H36.9a.923.923,0,1,1,0-1.846h7.99a.923.923,0,1,1,0,1.846" transform="translate(85.665 128.187)" fill="#ff9b00"/>
          <path id="Trazado_1014685" data-name="Trazado 1014685" d="M42.371,56.36h-5a.923.923,0,0,1,0-1.846h5a.923.923,0,0,1,0,1.846" transform="translate(86.806 129.811)" fill="#ff9b00"/>
          <path id="Trazado_1014686" data-name="Trazado 1014686" d="M44.924,45.443a10.666,10.666,0,0,0-7.2,18.526,9.094,9.094,0,0,1,2.955,6.725h8.5a9.139,9.139,0,0,1,2.955-6.725,10.554,10.554,0,0,0,3.456-7.844A10.672,10.672,0,0,0,44.924,45.443M41.4,50.112a6.853,6.853,0,0,0-2.654,9.271.921.921,0,0,1-.358,1.258.86.86,0,0,1-.436.108.914.914,0,0,1-.808-.47,8.667,8.667,0,0,1,3.364-11.773.929.929,0,0,1,1.261.352.913.913,0,0,1-.369,1.254" transform="translate(81.596 108.211)" fill="#ff9b00"/>
          <path id="Trazado_1014687" data-name="Trazado 1014687" d="M123.895,142.9a11,11,0,0,0-11,11c0,9.136,11,22.313,11,22.313s10.989-13.42,10.989-22.313a11,11,0,0,0-10.989-11m0,19.09a8.085,8.085,0,1,1,8.091-8.091,8.092,8.092,0,0,1-8.091,8.091" transform="translate(268.84 340.267)" fill="#00aaf9"/>
          <path id="Trazado_1014688" data-name="Trazado 1014688" d="M58.886,147.457c.172.4-.321.128-.321.335a.19.19,0,0,0,.122.047c.169.061,1.011-.078.943-.2-.135-.25-.713-.108-.744-.183" transform="translate(139.457 351.13)" fill="#009488"/>
          <path id="Trazado_1014689" data-name="Trazado 1014689" d="M62.434,145.255c.26-.034.727-.484.287-.429-.325.041-1-.091-1.2.091a.966.966,0,0,0,.308.068.394.394,0,0,0,.6.27" transform="translate(146.503 344.845)" fill="#009488"/>
          <path id="Trazado_1014690" data-name="Trazado 1014690" d="M62.413,146c.108-.064.514-.517.22-.585a.444.444,0,0,0-.571.483c-.237.294.162.206.352.1" transform="translate(147.609 346.234)" fill="#009488"/>
          <path id="Trazado_1014691" data-name="Trazado 1014691" d="M59.839,147.772c-.122-.4-1.958-.788-1.731-.179-.112-.379.757-.152.866-.078.149.118.074.389.25.389.064,0,.659-.014.615-.132" transform="translate(138.322 350.7)" fill="#009488"/>
          <path id="Trazado_1014692" data-name="Trazado 1014692" d="M62.378,145.9c-.02-.064.436.524.085.511l.01.061c-.007-.061-.2.162-.186.145a1.045,1.045,0,0,1,.24.057,2.026,2.026,0,0,0-.338.233c.176,0,1.16-.152,1.025-.291-.017-.007.287-.193.017-.243-.145-.041-.159-.162-.277-.338a3.006,3.006,0,0,1-.183-.362c.044.088-.057-.3-.128-.291.057-.078.152-.213.145-.206-.193.112-.754.284-.511.575.01,0-.142.064-.081.084.081.041.078.108.183.064" transform="translate(148.067 345.706)" fill="#009488"/>
          <path id="Trazado_1014693" data-name="Trazado 1014693" d="M71.321,143.888A14.952,14.952,0,1,0,86.27,158.84a14.966,14.966,0,0,0-14.948-14.952m7.212,8.639a3.573,3.573,0,0,0-2.066.416c-.118.078-.822-.034-.46-.277.091-.068.876-.247.811-.453-.152-.45.565-.45.524-.784a7.228,7.228,0,0,1,.96-.328c.122,0,.622.683.882.771.511.166-.1.521-.392.47.017.027.463.243.463.277,0-.22.169-.311.277-.463.071-.1-.115-.21.02-.3.071-.03.267.081.227.145.128-.257-1.062-.605-.855-1.224-.071.206.541.578.656.663.318.206.227.243.358.5a2.3,2.3,0,0,0,.531.646c.473.047.068-.517.071-.659,0,.057.436-.223.531.125a1.1,1.1,0,0,0,.139.372c.024.017.331.281.331.21,0,.159.541.024.893.041.081.142.159.281.237.433-.081.264-.254.71-.446.568-.24-.166-.676.1-.964-.017-.176-.081-1.322-.636-1.251-.01.064.565-.747-.189-1-.277-.22-.064-.649-.057-.484-.382.051-.112-.1-.46.01-.46m.632-3.672.024,0c.1.088.206.179.311.26a5.4,5.4,0,0,0-.9.115c.054-.115.473-.314.555-.216-.034-.057-.1-.1.014-.156m4.757,8.308a3.582,3.582,0,0,0-.271-.352c-.159-.159-.342-.3-.342-.568,0,.007-.227-.561-.247-.6a10.214,10.214,0,0,0-.653-1.3,1.517,1.517,0,0,1,.9,1.035,1.768,1.768,0,0,0,.5.808c.061.314.068.653.112.97M81.411,151.1a6.458,6.458,0,0,1,.45.548.506.506,0,0,1-.636-.152,3.73,3.73,0,0,1,.186-.4m1.116,13.735c-.081.152-.156.3-.237.443.064-.237.041-.3.237-.443m.21-.771c.057-.3.01-.3.314-.548a2.164,2.164,0,0,1,.172-.152c-.135.348-.291.69-.45,1.028a.868.868,0,0,1-.037-.328m.957-3.571a2.788,2.788,0,0,1,.267-.338,12.865,12.865,0,0,1-.281,1.751,1.744,1.744,0,0,1,.014-1.413m-25.15-1.653a12.757,12.757,0,0,1,.281-2.648c.321.237.882.659,1.238.558.331-.1.429.051.646.3.128.159.456.128.629.23.314.183.369.625.73.9.145.115.24.054.406.2.328.308.1-.3.3-.243,1.207.284-.68,1.921-.112,2.336-.511.338.193,1.15.433,1.5.2.287.3.781.575.981.433.318.822.446.923.987a10.556,10.556,0,0,1,.223,2.387c-.017.362-.135,2.086.348,2.1-.034-.085-.057-.156-.088-.227a.511.511,0,0,0,.1.007,1.435,1.435,0,0,1,.081.49c-.419-.112.047.612.02.653-.135.23.2.69.649,1.031a12.77,12.77,0,0,1-7.388-11.537m12.778,12.778a12.633,12.633,0,0,1-4.362-.818.457.457,0,0,0,.369-.2c-.622-.128-1.136-.754-.632-1.285-.436-.156-.294-.771-.017-1.028a.272.272,0,0,1-.321-.311c.237.1.264,0,.423-.108.125-.091-.041-.206.308-.291.582-.162.342-.724,0-.883.149-.034.487.206.649.054.264-.26.24-.548.4-.845.1-.179.419-.25.362-.649s.2-.521.551-.713c.754-.416.869-.859.882-1.762.01-.629.947-1.123.541-1.809-.281-.047-1.288-1.011-1.633-.544.213-.284-.484-.49-.673-.294a3.386,3.386,0,0,0-.379-.646c-.237-.484-.206-.724-.845-.744-.538-.03-.812-.724-1.224-.947.068-.034.132-.057.2-.088-.385.132-1.224.247-1.451-.25-.139.169-.325.338-.264.565a.342.342,0,0,1,.071-.5c-.014-.041-.027-.074-.041-.1-.2.125-.761.23-.761.514-.014.514-.6-.014-.913.145-.473.25-.436-.666-.379-.889.156-.565-.818-.582-.859-.463a6.187,6.187,0,0,1,.45-1.082c-.609-.135-.409.2-.727.443-.091.071-.828.223-.8.091s-.284-.487-.291-.669c-.014-.267.237-.541.24-.815.014-.321.839-.957,1.15-.649.166.166.369-.186.538-.162a4.427,4.427,0,0,1,.7.051c.325.287-.017.717.426.957.308-.555-.139-.943.352-1.44.193-.2.531-.267.707-.463a2.467,2.467,0,0,0,.328-.6,2.9,2.9,0,0,0,.473-.467c.172-.223.558-.115.727-.3.044-.054-.061-.311.193-.416.294-.112.578-.233.886-.318-.369.193-.291.443.068.227a4.474,4.474,0,0,1,.781-.331,1.878,1.878,0,0,1-.027-.2c-.118.108-.406.345-.6.22-.247-.179.024-.423.115-.609a3.284,3.284,0,0,0-.933.267,1.49,1.49,0,0,1,1.055-.5,6.117,6.117,0,0,0,1.231-.237,5.664,5.664,0,0,0-.656.71c.24.013.46-.027.605.112l.125-.078a1.025,1.025,0,0,1,.064.169c.227-.115.24-.328.223-.544-.054,0-.44-.047-.372-.193.1-.186.446-.636.017-.849a1.1,1.1,0,0,1-.328-1.035c-.25.49-1.167.355-.632-.054-.375-.091-.4-.243-.788-.287-.456-.034-.392.494-.761.741.48-.152-.44.666-.389.632-.2.176-.23.044-.318.429a.545.545,0,0,1-.311.294c-.057-.1-.068-.22-.135-.328.054.017.1.02.159.034.007-.041.01-.071.02-.115a.526.526,0,0,1-.122.017c.078-.1.078-.257.169-.358-.521.091-.7-.477-1.17-.382l0-.061a13.241,13.241,0,0,1,1.691-1.038.917.917,0,0,1,.734-.071.392.392,0,0,0-.159-.23,11.5,11.5,0,0,1,1.156-.44.9.9,0,0,0,.3-.1l.115-.034c.277,0-.128.291-.227.335-.132.068-.088.115-.277.186-.206.085-.26-.118-.456.095.172.132.406.044.632.132-.034-.014.72.551.72.4,0-.1-.2-.284-.186-.342.024-.041.352.183.4.21.274-.237-.1-.568.041-.659.179-.128.3.389.443.156.047-.088.3-.149.406-.206-.183-.237-.443-.189-.578-.365-.017-.013.128-.128.085-.24a11.262,11.262,0,0,1,1.944-.22.844.844,0,0,0,.128.041c-.223-.03-.372.024-.385.233.1-.03.206-.041.3-.068a1.049,1.049,0,0,0-.423,1.288c.1.233.233.484.538.494.4.024.389-.216.653-.473a2.869,2.869,0,0,1,1.251-.659,5.507,5.507,0,0,1,1.471-.612,12.344,12.344,0,0,1,3.669,1.478c-.034.183-.007.477.095.555.095.057.622.013.669-.122.024.014.037.034.061.044.071.193.284.822-.108.565.047.041,0-.335.007-.362-.69.037.064.676-.534.751-.426.068-.318.433-.73.534.057-.017-.494.342-.626.281a.674.674,0,0,1,.034.172c-.186-.186-.744-.112-.183.24.467.294.172.855-.358.74-.308-.068-.585-.091-.717.115-.081.112.02,1.1-.068,1.143.271-.135.578.085.463.341-.145.321-.49.568-.669.869a1.563,1.563,0,0,1-.369.555c-.132.115-.379.166-.46.4-.132.3-.507.653-.507,1.011,0,.227.132.385.132.673a.94.94,0,0,1-.179.514c-.149.118.1.176.051.342-.132.44.534.409.534.764,0,.49.653.751.991,1a8.808,8.808,0,0,1,1.119-.088c.521-.237.937-.5,1.278.095.078.139.446-.034.615.112.166.172.037.358.057.582,0,.125-.169.24-.142.375.047.257.379.49.48.74a3.057,3.057,0,0,1,.348,1.177c-.03.538-.426.93-.3,1.5.112.521.47.866.49,1.43.02.46.406.842.544,1.285a2.275,2.275,0,0,1,.068.46c.014.264.338.02.46.068.517.166,1.163-.3,1.471-.686.085-.125.179-.216.267-.331a12.748,12.748,0,0,1-10.725,5.9" transform="translate(134.221 342.632)" fill="#009488"/>
          <path id="Trazado_1014694" data-name="Trazado 1014694" d="M147.272,47.181a11.987,11.987,0,1,0,11.99,11.983h-11.99Z" transform="translate(322.139 112.349)" fill="#9d1bb7"/>
          <path id="Trazado_1014695" data-name="Trazado 1014695" d="M139.43,46.878V57.854H150.4A10.971,10.971,0,0,0,139.43,46.878" transform="translate(332.016 111.628)" fill="#9d1bb7"/>
          <path id="Trazado_1014696" data-name="Trazado 1014696" d="M153.081,122.152l5.018-5.018,2.113,2.113,9.745-9.748,1.626,1.623.632-3.882.183-.183-.132-.132.473-2.9-7.1,1.16,1.836,1.822-7.263,7.263-2.113-2.11-5.356,5.352v-16.03h-3.08v23.75h23.75v-3.08Z" transform="translate(356.383 241.653)" fill="#394cb5"/>
          <path id="Trazado_1014697" data-name="Trazado 1014697" d="M99.776,22.056c-9.136,0-16.571,4.893-16.571,10.918S90.64,43.9,99.776,43.9c.311,0,.592-.024.906-.047l4.538,3.872,4.727-6.123c3.9-2,6.411-5.109,6.411-8.626,0-6.025-7.435-10.918-16.582-10.918m7.462,15.956H91.709v-2h15.53Zm0-3.966H91.709v-2h15.53Zm0-3.966H91.709V28.108h15.53Z" transform="translate(198.131 52.521)" fill="#c70e59"/>
        </g>
      </g>
    </g>
    <path id="Trazado_1015302" data-name="Trazado 1015302" d="M4.052-4.342V0H.967V-12.8H6.073a5.948,5.948,0,0,1,2.6.541,4.074,4.074,0,0,1,1.749,1.538,4.2,4.2,0,0,1,.62,2.263A3.7,3.7,0,0,1,9.7-5.462,5.561,5.561,0,0,1,6.021-4.342Zm0-2.382H6.073A1.906,1.906,0,0,0,7.44-7.172a1.665,1.665,0,0,0,.47-1.266A2.059,2.059,0,0,0,7.427-9.87a1.712,1.712,0,0,0-1.318-.545H4.052ZM15.671,0H12.7V-13.5h2.971Zm7.181,0a3.344,3.344,0,0,1-.281-.853A2.754,2.754,0,0,1,20.285.176,3.374,3.374,0,0,1,18-.637a2.588,2.588,0,0,1-.94-2.043A2.66,2.66,0,0,1,18.2-5.019a5.821,5.821,0,0,1,3.322-.791h.914v-.5q0-1.316-1.134-1.316A.927.927,0,0,0,20.25-6.587H17.288a2.655,2.655,0,0,1,1.173-2.239,4.931,4.931,0,0,1,2.993-.86,4.323,4.323,0,0,1,2.874.888,3.086,3.086,0,0,1,1.081,2.435v4.21a4.311,4.311,0,0,0,.4,2V0ZM21-1.934a1.652,1.652,0,0,0,.918-.237,1.487,1.487,0,0,0,.523-.536V-4.228h-.861q-1.547,0-1.547,1.389a.848.848,0,0,0,.272.655A.986.986,0,0,0,21-1.934ZM29.769-9.51l.1,1.116a3.225,3.225,0,0,1,2.716-1.292A2.713,2.713,0,0,1,34.8-8.8a4.226,4.226,0,0,1,.76,2.672V0H32.59V-6a1.6,1.6,0,0,0-.29-1.059A1.342,1.342,0,0,0,31.245-7.4a1.413,1.413,0,0,0-1.292.686V0H26.991V-9.51ZM40.324,0H37.354V-9.51h2.971ZM37.178-11.962A1.322,1.322,0,0,1,37.635-13a1.724,1.724,0,0,1,1.187-.4,1.724,1.724,0,0,1,1.187.4,1.322,1.322,0,0,1,.457,1.037,1.322,1.322,0,0,1-.457,1.037,1.724,1.724,0,0,1-1.187.4,1.724,1.724,0,0,1-1.187-.4A1.322,1.322,0,0,1,37.178-11.962ZM42.838,0V-7.453h-1.38V-9.51h1.38v-.316a3.631,3.631,0,0,1,1.248-2.909,4.987,4.987,0,0,1,3.243-.949,11.509,11.509,0,0,1,3.094.51l-.4,2.338-.492-.132a7.832,7.832,0,0,0-2.021-.255q-1.7,0-1.7,1.547v.167h1.863v2.057H45.809V0Zm8.947,0H48.806V-9.51h2.979Zm5.827-2.109a1.317,1.317,0,0,0,.967-.338,1.241,1.241,0,0,0,.334-.945H61.69A3.288,3.288,0,0,1,60.57-.826a4.168,4.168,0,0,1-2.887,1,4.22,4.22,0,0,1-3.27-1.3,5.125,5.125,0,0,1-1.2-3.6v-.123A5.792,5.792,0,0,1,53.75-7.4a3.872,3.872,0,0,1,1.534-1.7,4.573,4.573,0,0,1,2.373-.593A4.116,4.116,0,0,1,60.6-8.657a3.647,3.647,0,0,1,1.09,2.786H58.913A1.626,1.626,0,0,0,58.553-7a1.244,1.244,0,0,0-.967-.4q-1.151,0-1.345,1.468a10.357,10.357,0,0,0-.062,1.283,4.068,4.068,0,0,0,.343,1.986A1.187,1.187,0,0,0,57.612-2.109ZM68.3,0a3.344,3.344,0,0,1-.281-.853A2.754,2.754,0,0,1,65.733.176a3.374,3.374,0,0,1-2.285-.813,2.588,2.588,0,0,1-.94-2.043A2.66,2.66,0,0,1,63.65-5.019a5.821,5.821,0,0,1,3.322-.791h.914v-.5q0-1.316-1.134-1.316A.927.927,0,0,0,65.7-6.587H62.736A2.655,2.655,0,0,1,63.91-8.825a4.931,4.931,0,0,1,2.993-.86,4.323,4.323,0,0,1,2.874.888,3.086,3.086,0,0,1,1.081,2.435v4.21a4.311,4.311,0,0,0,.4,2V0ZM66.445-1.934a1.652,1.652,0,0,0,.918-.237,1.487,1.487,0,0,0,.523-.536V-4.228h-.861q-1.547,0-1.547,1.389a.848.848,0,0,0,.272.655A.986.986,0,0,0,66.445-1.934Zm10.072-.176a1.317,1.317,0,0,0,.967-.338,1.241,1.241,0,0,0,.334-.945H80.6A3.288,3.288,0,0,1,79.475-.826a4.168,4.168,0,0,1-2.887,1,4.22,4.22,0,0,1-3.27-1.3,5.125,5.125,0,0,1-1.2-3.6v-.123A5.792,5.792,0,0,1,72.655-7.4a3.872,3.872,0,0,1,1.534-1.7,4.573,4.573,0,0,1,2.373-.593,4.116,4.116,0,0,1,2.944,1.028A3.647,3.647,0,0,1,80.6-5.871H77.818A1.626,1.626,0,0,0,77.458-7a1.244,1.244,0,0,0-.967-.4q-1.151,0-1.345,1.468a10.357,10.357,0,0,0-.062,1.283,4.068,4.068,0,0,0,.343,1.986A1.187,1.187,0,0,0,76.518-2.109ZM84.973,0H82V-9.51h2.971ZM81.826-11.962A1.322,1.322,0,0,1,82.283-13a1.724,1.724,0,0,1,1.187-.4,1.724,1.724,0,0,1,1.187.4,1.322,1.322,0,0,1,.457,1.037,1.322,1.322,0,0,1-.457,1.037,1.724,1.724,0,0,1-1.187.4,1.724,1.724,0,0,1-1.187-.4A1.322,1.322,0,0,1,81.826-11.962Zm4.6,7.119a5.613,5.613,0,0,1,.554-2.536,3.96,3.96,0,0,1,1.591-1.709A4.791,4.791,0,0,1,91-9.686a4.373,4.373,0,0,1,3.366,1.323,5.076,5.076,0,0,1,1.23,3.6v.105a4.925,4.925,0,0,1-1.235,3.529A4.384,4.384,0,0,1,91.02.176a4.434,4.434,0,0,1-3.261-1.217,4.761,4.761,0,0,1-1.327-3.3Zm2.962.185A3.538,3.538,0,0,0,89.8-2.725a1.376,1.376,0,0,0,1.222.615q1.582,0,1.617-2.435v-.3Q92.637-7.4,91-7.4q-1.485,0-1.608,2.206ZM91.406-13.5h3.129l-2.443,2.76-2.417,0Zm8.218,3.99.1,1.116a3.225,3.225,0,0,1,2.716-1.292,2.713,2.713,0,0,1,2.219.888,4.226,4.226,0,0,1,.76,2.672V0h-2.971V-6a1.6,1.6,0,0,0-.29-1.059A1.342,1.342,0,0,0,101.1-7.4a1.413,1.413,0,0,0-1.292.686V0H96.847V-9.51Z" transform="translate(746.711 5084)" fill="#12263f"/>
    <path id="Trazado_1015303" data-name="Trazado 1015303" d="M8.235-2.391H4.008L3.27,0h-3.3L4.667-12.8h2.9L12.3,0H8.982ZM4.746-4.772H7.5L6.117-9.211ZM15.39-9.51l.1,1.116A3.225,3.225,0,0,1,18.2-9.686a2.713,2.713,0,0,1,2.219.888,4.226,4.226,0,0,1,.76,2.672V0H18.211V-6a1.6,1.6,0,0,0-.29-1.059A1.342,1.342,0,0,0,16.866-7.4a1.413,1.413,0,0,0-1.292.686V0H12.612V-9.51ZM28.178,0A3.344,3.344,0,0,1,27.9-.853,2.754,2.754,0,0,1,25.611.176a3.374,3.374,0,0,1-2.285-.813,2.588,2.588,0,0,1-.94-2.043,2.66,2.66,0,0,1,1.143-2.338,5.821,5.821,0,0,1,3.322-.791h.914v-.5q0-1.316-1.134-1.316a.927.927,0,0,0-1.055,1.042H22.614a2.655,2.655,0,0,1,1.173-2.239,4.931,4.931,0,0,1,2.993-.86,4.323,4.323,0,0,1,2.874.888,3.086,3.086,0,0,1,1.081,2.435v4.21a4.311,4.311,0,0,0,.4,2V0ZM26.323-1.934a1.652,1.652,0,0,0,.918-.237,1.487,1.487,0,0,0,.523-.536V-4.228H26.9q-1.547,0-1.547,1.389a.848.848,0,0,0,.272.655A.986.986,0,0,0,26.323-1.934ZM27.062-13.5H30.19l-2.443,2.76-2.417,0ZM35.5,0H32.528V-13.5H35.5Zm4.948,0H37.477V-9.51h2.971ZM37.3-11.962A1.322,1.322,0,0,1,37.758-13a1.724,1.724,0,0,1,1.187-.4,1.724,1.724,0,0,1,1.187.4,1.322,1.322,0,0,1,.457,1.037,1.322,1.322,0,0,1-.457,1.037,1.724,1.724,0,0,1-1.187.4,1.724,1.724,0,0,1-1.187-.4A1.322,1.322,0,0,1,37.3-11.962Zm9.949,9.29a.684.684,0,0,0-.4-.606,6.016,6.016,0,0,0-1.5-.475A6.853,6.853,0,0,1,43.523-4.4a3.062,3.062,0,0,1-1.1-.971,2.319,2.319,0,0,1-.378-1.31,2.628,2.628,0,0,1,1.081-2.158,4.453,4.453,0,0,1,2.83-.848,4.934,4.934,0,0,1,3.023.853,2.666,2.666,0,0,1,1.143,2.241H47.153q0-1.143-1.2-1.143a1.194,1.194,0,0,0-.782.259.8.8,0,0,0-.316.646.737.737,0,0,0,.387.642,3.654,3.654,0,0,0,1.235.4,10.671,10.671,0,0,1,1.49.378A2.706,2.706,0,0,1,50.106-2.76,2.491,2.491,0,0,1,48.951-.642a5.068,5.068,0,0,1-2.993.817,5.172,5.172,0,0,1-2.18-.439,3.645,3.645,0,0,1-1.494-1.2,2.707,2.707,0,0,1-.536-1.591h2.769a1.145,1.145,0,0,0,.439.962,1.808,1.808,0,0,0,1.081.3,1.422,1.422,0,0,0,.91-.246A.787.787,0,0,0,47.25-2.672ZM54.615,0H51.645V-9.51h2.971ZM51.469-11.962A1.322,1.322,0,0,1,51.926-13a1.724,1.724,0,0,1,1.187-.4A1.724,1.724,0,0,1,54.3-13a1.322,1.322,0,0,1,.457,1.037,1.322,1.322,0,0,1-.457,1.037,1.724,1.724,0,0,1-1.187.4,1.724,1.724,0,0,1-1.187-.4A1.322,1.322,0,0,1,51.469-11.962Zm9.949,9.29a.684.684,0,0,0-.4-.606,6.016,6.016,0,0,0-1.5-.475A6.853,6.853,0,0,1,57.691-4.4a3.062,3.062,0,0,1-1.1-.971,2.319,2.319,0,0,1-.378-1.31A2.628,2.628,0,0,1,57.3-8.837a4.453,4.453,0,0,1,2.83-.848,4.934,4.934,0,0,1,3.023.853,2.666,2.666,0,0,1,1.143,2.241H61.321q0-1.143-1.2-1.143a1.194,1.194,0,0,0-.782.259.8.8,0,0,0-.316.646.737.737,0,0,0,.387.642,3.654,3.654,0,0,0,1.235.4,10.671,10.671,0,0,1,1.49.378A2.706,2.706,0,0,1,64.274-2.76,2.491,2.491,0,0,1,63.119-.642a5.068,5.068,0,0,1-2.993.817,5.172,5.172,0,0,1-2.18-.439,3.645,3.645,0,0,1-1.494-1.2,2.707,2.707,0,0,1-.536-1.591h2.769a1.145,1.145,0,0,0,.439.962,1.808,1.808,0,0,0,1.081.3,1.422,1.422,0,0,0,.91-.246A.787.787,0,0,0,61.418-2.672Zm8.35-2.153a5.809,5.809,0,0,1,.976-3.56,3.211,3.211,0,0,1,2.725-1.3,2.731,2.731,0,0,1,2.145,1V-13.5h2.971V0H75.92l-.149-1.02a2.8,2.8,0,0,1-2.32,1.2,3.205,3.205,0,0,1-2.689-1.3A5.993,5.993,0,0,1,69.768-4.825Zm2.962.185q0,2.531,1.477,2.531a1.458,1.458,0,0,0,1.406-.826V-6.557A1.419,1.419,0,0,0,74.224-7.4q-1.371,0-1.485,2.215ZM84.867.176a4.889,4.889,0,0,1-3.542-1.305,4.507,4.507,0,0,1-1.354-3.4v-.246a5.84,5.84,0,0,1,.541-2.575A3.955,3.955,0,0,1,82.09-9.075a4.763,4.763,0,0,1,2.461-.611,4.117,4.117,0,0,1,3.164,1.244,4.887,4.887,0,0,1,1.16,3.467v1.151H82.986a2.135,2.135,0,0,0,.694,1.257,2.066,2.066,0,0,0,1.389.457,2.662,2.662,0,0,0,2.2-.984l1.354,1.6A3.784,3.784,0,0,1,87.051-.277,5.3,5.3,0,0,1,84.867.176ZM84.533-7.4q-1.3,0-1.547,1.723h2.988v-.229a1.467,1.467,0,0,0-.36-1.1A1.434,1.434,0,0,0,84.533-7.4Zm15.768.571-.976-.07a1.752,1.752,0,0,0-1.793.879V0H94.57V-9.51h2.777l.1,1.222a2.294,2.294,0,0,1,2.083-1.4,2.888,2.888,0,0,1,.826.105Zm5.669,7a4.889,4.889,0,0,1-3.542-1.305,4.507,4.507,0,0,1-1.354-3.4v-.246a5.84,5.84,0,0,1,.541-2.575,3.955,3.955,0,0,1,1.578-1.727,4.763,4.763,0,0,1,2.461-.611,4.117,4.117,0,0,1,3.164,1.244,4.887,4.887,0,0,1,1.16,3.467v1.151h-5.889a2.135,2.135,0,0,0,.694,1.257,2.066,2.066,0,0,0,1.389.457,2.662,2.662,0,0,0,2.2-.984l1.354,1.6a3.784,3.784,0,0,1-1.569,1.217A5.3,5.3,0,0,1,105.97.176ZM105.636-7.4q-1.3,0-1.547,1.723h2.988v-.229a1.467,1.467,0,0,0-.36-1.1A1.434,1.434,0,0,0,105.636-7.4Zm5.159,2.549a5.709,5.709,0,0,1,.984-3.551A3.233,3.233,0,0,1,114.5-9.686a2.761,2.761,0,0,1,2.338,1.2l.211-1.02h2.566V3.656H116.64V-.791a2.757,2.757,0,0,1-2.162.967,3.2,3.2,0,0,1-2.685-1.305A6.027,6.027,0,0,1,110.795-4.852Zm2.962.185q0,2.558,1.477,2.558a1.43,1.43,0,0,0,1.406-.773V-6.645a1.4,1.4,0,0,0-1.389-.756q-1.38,0-1.485,2.206Zm13.192,3.639a3.054,3.054,0,0,1-2.54,1.2,3,3,0,0,1-2.369-.91,3.826,3.826,0,0,1-.8-2.615V-9.51H124.2v6.179a1.065,1.065,0,0,0,1.187,1.222,1.548,1.548,0,0,0,1.45-.729V-9.51h2.979V0h-2.777Zm9.088,1.2A4.889,4.889,0,0,1,132.5-1.129a4.507,4.507,0,0,1-1.354-3.4v-.246a5.84,5.84,0,0,1,.541-2.575,3.955,3.955,0,0,1,1.578-1.727,4.763,4.763,0,0,1,2.461-.611,4.117,4.117,0,0,1,3.164,1.244,4.887,4.887,0,0,1,1.16,3.467v1.151h-5.889a2.135,2.135,0,0,0,.694,1.257,2.066,2.066,0,0,0,1.389.457,2.662,2.662,0,0,0,2.2-.984l1.354,1.6a3.784,3.784,0,0,1-1.569,1.217A5.3,5.3,0,0,1,136.037.176ZM135.7-7.4q-1.3,0-1.547,1.723h2.988v-.229a1.467,1.467,0,0,0-.36-1.1A1.434,1.434,0,0,0,135.7-7.4Zm11.285.571-.976-.07a1.752,1.752,0,0,0-1.793.879V0h-2.962V-9.51h2.777l.1,1.222a2.294,2.294,0,0,1,2.083-1.4,2.888,2.888,0,0,1,.826.105ZM151.181,0H148.21V-9.51h2.971Zm-3.146-11.962A1.322,1.322,0,0,1,148.491-13a1.724,1.724,0,0,1,1.187-.4,1.724,1.724,0,0,1,1.187.4,1.322,1.322,0,0,1,.457,1.037,1.322,1.322,0,0,1-.457,1.037,1.724,1.724,0,0,1-1.187.4,1.724,1.724,0,0,1-1.187-.4A1.322,1.322,0,0,1,148.034-11.962ZM155.8-9.51l.1,1.116a3.27,3.27,0,0,1,2.716-1.292,2.407,2.407,0,0,1,2.435,1.433,3.165,3.165,0,0,1,2.795-1.433q2.892,0,2.971,3.5V0h-2.971V-6a1.813,1.813,0,0,0-.246-1.063,1.048,1.048,0,0,0-.9-.334,1.4,1.4,0,0,0-1.31.782l.009.123V0h-2.971V-5.985a1.906,1.906,0,0,0-.237-1.081,1.045,1.045,0,0,0-.905-.334,1.42,1.42,0,0,0-1.3.782V0h-2.962V-9.51ZM171.633,0h-2.971V-9.51h2.971Zm-3.146-11.962A1.322,1.322,0,0,1,168.943-13a1.724,1.724,0,0,1,1.187-.4,1.724,1.724,0,0,1,1.187.4,1.322,1.322,0,0,1,.457,1.037,1.322,1.322,0,0,1-.457,1.037,1.724,1.724,0,0,1-1.187.4,1.724,1.724,0,0,1-1.187-.4A1.322,1.322,0,0,1,168.486-11.962ZM178.058.176a4.889,4.889,0,0,1-3.542-1.305,4.507,4.507,0,0,1-1.354-3.4v-.246a5.84,5.84,0,0,1,.541-2.575,3.955,3.955,0,0,1,1.578-1.727,4.763,4.763,0,0,1,2.461-.611,4.117,4.117,0,0,1,3.164,1.244,4.887,4.887,0,0,1,1.16,3.467v1.151h-5.889a2.135,2.135,0,0,0,.694,1.257,2.066,2.066,0,0,0,1.389.457,2.662,2.662,0,0,0,2.2-.984l1.354,1.6a3.784,3.784,0,0,1-1.569,1.217A5.3,5.3,0,0,1,178.058.176ZM177.724-7.4q-1.3,0-1.547,1.723h2.988v-.229a1.467,1.467,0,0,0-.36-1.1A1.434,1.434,0,0,0,177.724-7.4Zm8.253-2.109.1,1.116a3.225,3.225,0,0,1,2.716-1.292,2.713,2.713,0,0,1,2.219.888,4.226,4.226,0,0,1,.76,2.672V0H188.8V-6a1.6,1.6,0,0,0-.29-1.059,1.342,1.342,0,0,0-1.055-.338,1.413,1.413,0,0,0-1.292.686V0H183.2V-9.51Zm10.881-2.364V-9.51h1.564v2.057h-1.564V-3.1a1.111,1.111,0,0,0,.193.747,1.037,1.037,0,0,0,.765.211,4.345,4.345,0,0,0,.738-.053V-.079a5.466,5.466,0,0,1-1.67.255,3.1,3.1,0,0,1-2.259-.721,2.954,2.954,0,0,1-.729-2.188v-4.72h-1.213V-9.51H193.9v-2.364Zm2.092,7.031a5.613,5.613,0,0,1,.554-2.536,3.96,3.96,0,0,1,1.591-1.709,4.791,4.791,0,0,1,2.435-.6,4.373,4.373,0,0,1,3.366,1.323,5.076,5.076,0,0,1,1.23,3.6v.105a4.925,4.925,0,0,1-1.235,3.529A4.384,4.384,0,0,1,203.546.176a4.434,4.434,0,0,1-3.261-1.217,4.761,4.761,0,0,1-1.327-3.3Zm2.962.185a3.538,3.538,0,0,0,.413,1.934,1.376,1.376,0,0,0,1.222.615q1.582,0,1.617-2.435v-.3q0-2.558-1.635-2.558-1.485,0-1.608,2.206Zm12.5,1.986a.684.684,0,0,0-.4-.606,6.016,6.016,0,0,0-1.5-.475,6.853,6.853,0,0,1-1.828-.646,3.062,3.062,0,0,1-1.1-.971,2.319,2.319,0,0,1-.378-1.31,2.628,2.628,0,0,1,1.081-2.158,4.453,4.453,0,0,1,2.83-.848,4.934,4.934,0,0,1,3.023.853,2.666,2.666,0,0,1,1.143,2.241h-2.971q0-1.143-1.2-1.143a1.194,1.194,0,0,0-.782.259.8.8,0,0,0-.316.646.737.737,0,0,0,.387.642,3.654,3.654,0,0,0,1.235.4,10.671,10.671,0,0,1,1.49.378,2.706,2.706,0,0,1,2.145,2.646A2.491,2.491,0,0,1,216.11-.642a5.068,5.068,0,0,1-2.993.817,5.172,5.172,0,0,1-2.18-.439,3.645,3.645,0,0,1-1.494-1.2,2.707,2.707,0,0,1-.536-1.591h2.769a1.145,1.145,0,0,0,.439.962,1.808,1.808,0,0,0,1.081.3,1.422,1.422,0,0,0,.91-.246A.787.787,0,0,0,214.409-2.672Z" transform="translate(1047.711 5217)" fill="#12263f"/>
    <path id="Trazado_1015304" data-name="Trazado 1015304" d="M-56.944-4.333a4.673,4.673,0,0,1-.721,2.36,4.35,4.35,0,0,1-1.85,1.586,6.3,6.3,0,0,1-2.72.563,5.025,5.025,0,0,1-3.973-1.644,6.786,6.786,0,0,1-1.45-4.641v-.633A7.746,7.746,0,0,1-67-10.033a4.961,4.961,0,0,1,1.885-2.18,5.26,5.26,0,0,1,2.848-.769,5.516,5.516,0,0,1,3.744,1.226,4.844,4.844,0,0,1,1.608,3.379h-3.076a2.292,2.292,0,0,0-.589-1.679,2.422,2.422,0,0,0-1.687-.51,1.843,1.843,0,0,0-1.687.861,5.536,5.536,0,0,0-.562,2.751v.905a6.126,6.126,0,0,0,.514,2.927,1.882,1.882,0,0,0,1.771.879,2.369,2.369,0,0,0,1.626-.5,2.126,2.126,0,0,0,.6-1.591ZM-52.5,0h-2.971V-9.51H-52.5Zm-3.146-11.962A1.322,1.322,0,0,1-55.187-13,1.724,1.724,0,0,1-54-13.4a1.724,1.724,0,0,1,1.187.4,1.322,1.322,0,0,1,.457,1.037,1.322,1.322,0,0,1-.457,1.037,1.724,1.724,0,0,1-1.187.4,1.724,1.724,0,0,1-1.187-.4A1.322,1.322,0,0,1-55.644-11.962Zm8.991,9.853a1.317,1.317,0,0,0,.967-.338,1.241,1.241,0,0,0,.334-.945h2.777A3.288,3.288,0,0,1-43.695-.826a4.168,4.168,0,0,1-2.887,1,4.22,4.22,0,0,1-3.27-1.3,5.125,5.125,0,0,1-1.2-3.6v-.123A5.792,5.792,0,0,1-50.515-7.4a3.872,3.872,0,0,1,1.534-1.7,4.573,4.573,0,0,1,2.373-.593,4.116,4.116,0,0,1,2.944,1.028,3.647,3.647,0,0,1,1.09,2.786h-2.777A1.626,1.626,0,0,0-45.712-7a1.244,1.244,0,0,0-.967-.4q-1.151,0-1.345,1.468a10.357,10.357,0,0,0-.062,1.283,4.068,4.068,0,0,0,.343,1.986A1.187,1.187,0,0,0-46.652-2.109ZM-38.2,0h-2.971V-13.5H-38.2Zm1.45-4.843a5.613,5.613,0,0,1,.554-2.536A3.96,3.96,0,0,1-34.6-9.088a4.791,4.791,0,0,1,2.435-.6A4.373,4.373,0,0,1-28.8-8.363a5.076,5.076,0,0,1,1.23,3.6v.105a4.925,4.925,0,0,1-1.235,3.529A4.384,4.384,0,0,1-32.15.176a4.434,4.434,0,0,1-3.261-1.217,4.761,4.761,0,0,1-1.327-3.3Zm2.962.185a3.538,3.538,0,0,0,.413,1.934,1.376,1.376,0,0,0,1.222.615q1.582,0,1.617-2.435v-.3q0-2.558-1.635-2.558-1.485,0-1.608,2.206Zm11.628-.167a5.809,5.809,0,0,1,.976-3.56,3.211,3.211,0,0,1,2.725-1.3,2.731,2.731,0,0,1,2.145,1V-13.5h2.971V0H-16l-.149-1.02a2.8,2.8,0,0,1-2.32,1.2,3.205,3.205,0,0,1-2.689-1.3A5.993,5.993,0,0,1-22.157-4.825Zm2.962.185q0,2.531,1.477,2.531a1.458,1.458,0,0,0,1.406-.826V-6.557A1.419,1.419,0,0,0-17.7-7.4q-1.371,0-1.485,2.215ZM-7.058.176A4.889,4.889,0,0,1-10.6-1.129a4.507,4.507,0,0,1-1.354-3.4v-.246a5.84,5.84,0,0,1,.541-2.575A3.955,3.955,0,0,1-9.835-9.075a4.763,4.763,0,0,1,2.461-.611A4.117,4.117,0,0,1-4.21-8.442,4.887,4.887,0,0,1-3.05-4.975v1.151H-8.938a2.135,2.135,0,0,0,.694,1.257,2.066,2.066,0,0,0,1.389.457,2.662,2.662,0,0,0,2.2-.984l1.354,1.6A3.784,3.784,0,0,1-4.874-.277,5.3,5.3,0,0,1-7.058.176ZM-7.392-7.4q-1.3,0-1.547,1.723H-5.95v-.229a1.467,1.467,0,0,0-.36-1.1A1.434,1.434,0,0,0-7.392-7.4ZM9.36-3.4a1.268,1.268,0,0,0-.479-1.055A5.954,5.954,0,0,0,7.2-5.238a16.147,16.147,0,0,1-1.969-.782Q2.742-7.242,2.742-9.378a3.011,3.011,0,0,1,.62-1.876A4.008,4.008,0,0,1,5.115-12.52a6.823,6.823,0,0,1,2.549-.453,5.969,5.969,0,0,1,2.474.492,3.917,3.917,0,0,1,1.7,1.4A3.661,3.661,0,0,1,12.445-9H9.369a1.547,1.547,0,0,0-.479-1.213,1.867,1.867,0,0,0-1.3-.431,2.106,2.106,0,0,0-1.305.365,1.119,1.119,0,0,0-.479.927,1.127,1.127,0,0,0,.527.892,6.65,6.65,0,0,0,1.854.826,11.36,11.36,0,0,1,2.18.918,3.663,3.663,0,0,1,2.074,3.3A3.125,3.125,0,0,1,11.18-.782,5.629,5.629,0,0,1,7.708.176,6.888,6.888,0,0,1,4.891-.382a4.247,4.247,0,0,1-1.9-1.529,3.985,3.985,0,0,1-.637-2.237H5.449a1.963,1.963,0,0,0,.532,1.516,2.513,2.513,0,0,0,1.727.488,1.985,1.985,0,0,0,1.208-.33A1.088,1.088,0,0,0,9.36-3.4ZM17.016,0H14.045V-9.51h2.971ZM13.869-11.962A1.322,1.322,0,0,1,14.326-13a1.724,1.724,0,0,1,1.187-.4A1.724,1.724,0,0,1,16.7-13a1.322,1.322,0,0,1,.457,1.037,1.322,1.322,0,0,1-.457,1.037,1.724,1.724,0,0,1-1.187.4,1.724,1.724,0,0,1-1.187-.4A1.322,1.322,0,0,1,13.869-11.962Zm9.949,9.29a.684.684,0,0,0-.4-.606,6.016,6.016,0,0,0-1.5-.475A6.853,6.853,0,0,1,20.092-4.4a3.062,3.062,0,0,1-1.1-.971,2.319,2.319,0,0,1-.378-1.31A2.628,2.628,0,0,1,19.7-8.837a4.453,4.453,0,0,1,2.83-.848,4.934,4.934,0,0,1,3.023.853,2.666,2.666,0,0,1,1.143,2.241H23.722q0-1.143-1.2-1.143a1.194,1.194,0,0,0-.782.259.8.8,0,0,0-.316.646.737.737,0,0,0,.387.642,3.654,3.654,0,0,0,1.235.4,10.671,10.671,0,0,1,1.49.378A2.706,2.706,0,0,1,26.675-2.76,2.491,2.491,0,0,1,25.519-.642a5.068,5.068,0,0,1-2.993.817,5.172,5.172,0,0,1-2.18-.439,3.645,3.645,0,0,1-1.494-1.2,2.707,2.707,0,0,1-.536-1.591h2.769a1.145,1.145,0,0,0,.439.962,1.808,1.808,0,0,0,1.081.3,1.422,1.422,0,0,0,.91-.246A.787.787,0,0,0,23.818-2.672Zm7.69-9.2V-9.51h1.564v2.057H31.509V-3.1a1.111,1.111,0,0,0,.193.747,1.037,1.037,0,0,0,.765.211,4.345,4.345,0,0,0,.738-.053V-.079a5.466,5.466,0,0,1-1.67.255,3.1,3.1,0,0,1-2.259-.721,2.954,2.954,0,0,1-.729-2.188v-4.72H27.334V-9.51h1.213v-2.364ZM38.839.176A4.889,4.889,0,0,1,35.3-1.129a4.507,4.507,0,0,1-1.354-3.4v-.246a5.84,5.84,0,0,1,.541-2.575,3.955,3.955,0,0,1,1.578-1.727,4.763,4.763,0,0,1,2.461-.611,4.117,4.117,0,0,1,3.164,1.244,4.887,4.887,0,0,1,1.16,3.467v1.151H36.958a2.135,2.135,0,0,0,.694,1.257,2.066,2.066,0,0,0,1.389.457,2.662,2.662,0,0,0,2.2-.984l1.354,1.6A3.784,3.784,0,0,1,41.023-.277,5.3,5.3,0,0,1,38.839.176ZM38.5-7.4q-1.3,0-1.547,1.723h2.988v-.229a1.467,1.467,0,0,0-.36-1.1A1.434,1.434,0,0,0,38.5-7.4ZM46.837-9.51l.1,1.116a3.27,3.27,0,0,1,2.716-1.292,2.407,2.407,0,0,1,2.435,1.433,3.165,3.165,0,0,1,2.795-1.433q2.892,0,2.971,3.5V0H54.879V-6a1.813,1.813,0,0,0-.246-1.063,1.048,1.048,0,0,0-.9-.334,1.4,1.4,0,0,0-1.31.782l.009.123V0H49.465V-5.985a1.906,1.906,0,0,0-.237-1.081,1.045,1.045,0,0,0-.905-.334,1.42,1.42,0,0,0-1.3.782V0H44.06V-9.51ZM64.9,0a3.344,3.344,0,0,1-.281-.853A2.754,2.754,0,0,1,62.332.176a3.374,3.374,0,0,1-2.285-.813,2.588,2.588,0,0,1-.94-2.043,2.66,2.66,0,0,1,1.143-2.338,5.821,5.821,0,0,1,3.322-.791h.914v-.5q0-1.316-1.134-1.316A.927.927,0,0,0,62.3-6.587H59.335a2.655,2.655,0,0,1,1.173-2.239,4.931,4.931,0,0,1,2.993-.86,4.323,4.323,0,0,1,2.874.888,3.086,3.086,0,0,1,1.081,2.435v4.21a4.311,4.311,0,0,0,.4,2V0ZM63.044-1.934a1.652,1.652,0,0,0,.918-.237,1.487,1.487,0,0,0,.523-.536V-4.228h-.861q-1.547,0-1.547,1.389a.848.848,0,0,0,.272.655A.986.986,0,0,0,63.044-1.934ZM-61.071,20.175a5.809,5.809,0,0,1,.976-3.56,3.211,3.211,0,0,1,2.725-1.3,2.731,2.731,0,0,1,2.145,1V11.5h2.971V25h-2.663l-.149-1.02a2.8,2.8,0,0,1-2.32,1.2,3.205,3.205,0,0,1-2.689-1.3A5.993,5.993,0,0,1-61.071,20.175Zm2.962.185q0,2.531,1.477,2.531a1.458,1.458,0,0,0,1.406-.826V18.443a1.419,1.419,0,0,0-1.389-.844q-1.371,0-1.485,2.215Zm12.138,4.816a4.889,4.889,0,0,1-3.542-1.305,4.507,4.507,0,0,1-1.354-3.4v-.246a5.84,5.84,0,0,1,.541-2.575,3.955,3.955,0,0,1,1.578-1.727,4.763,4.763,0,0,1,2.461-.611,4.117,4.117,0,0,1,3.164,1.244,4.887,4.887,0,0,1,1.16,3.467v1.151h-5.889a2.135,2.135,0,0,0,.694,1.257,2.066,2.066,0,0,0,1.389.457,2.662,2.662,0,0,0,2.2-.984l1.354,1.6a3.784,3.784,0,0,1-1.569,1.217A5.3,5.3,0,0,1-45.971,25.176Zm-.334-7.576q-1.3,0-1.547,1.723h2.988v-.229a1.467,1.467,0,0,0-.36-1.1A1.434,1.434,0,0,0-46.305,17.6ZM-32.867,25h-3.076V12.2h3.076Zm4.729-9.51.1,1.116a3.225,3.225,0,0,1,2.716-1.292,2.713,2.713,0,0,1,2.219.888,4.226,4.226,0,0,1,.76,2.672V25h-2.971V19a1.6,1.6,0,0,0-.29-1.059,1.342,1.342,0,0,0-1.055-.338,1.413,1.413,0,0,0-1.292.686V25h-2.962V15.49ZM-20.052,25V17.547h-1.38V15.49h1.38v-.756a3.286,3.286,0,0,1,.958-2.522,3.785,3.785,0,0,1,2.689-.9,5.89,5.89,0,0,1,1.389.185l.009,2.18a2.706,2.706,0,0,0-.729-.079q-1.345,0-1.345,1.16v.729h1.854v2.057h-1.854V25Zm5.493-4.843a5.613,5.613,0,0,1,.554-2.536,3.96,3.96,0,0,1,1.591-1.709,4.791,4.791,0,0,1,2.435-.6,4.373,4.373,0,0,1,3.366,1.323,5.076,5.076,0,0,1,1.23,3.6v.105a4.925,4.925,0,0,1-1.235,3.529,4.384,4.384,0,0,1-3.344,1.305,4.434,4.434,0,0,1-3.261-1.217,4.761,4.761,0,0,1-1.327-3.3Zm2.962.185a3.538,3.538,0,0,0,.413,1.934,1.376,1.376,0,0,0,1.222.615q1.582,0,1.617-2.435v-.3q0-2.558-1.635-2.558-1.485,0-1.608,2.206ZM1.674,18.171.7,18.1a1.752,1.752,0,0,0-1.793.879V25H-4.056V15.49h2.777l.1,1.222A2.294,2.294,0,0,1,.9,15.314a2.888,2.888,0,0,1,.826.105ZM5.542,15.49l.1,1.116a3.27,3.27,0,0,1,2.716-1.292,2.407,2.407,0,0,1,2.435,1.433,3.165,3.165,0,0,1,2.795-1.433q2.892,0,2.971,3.5V25H13.583V19a1.813,1.813,0,0,0-.246-1.063,1.048,1.048,0,0,0-.9-.334,1.4,1.4,0,0,0-1.31.782l.009.123V25H8.169V19.015a1.906,1.906,0,0,0-.237-1.081,1.045,1.045,0,0,0-.905-.334,1.42,1.42,0,0,0-1.3.782V25H2.764V15.49ZM23.6,25a3.344,3.344,0,0,1-.281-.853,2.754,2.754,0,0,1-2.285,1.028,3.374,3.374,0,0,1-2.285-.813,2.588,2.588,0,0,1-.94-2.043,2.66,2.66,0,0,1,1.143-2.338,5.821,5.821,0,0,1,3.322-.791h.914v-.5q0-1.316-1.134-1.316A.927.927,0,0,0,21,18.413H18.04a2.655,2.655,0,0,1,1.173-2.239,4.931,4.931,0,0,1,2.993-.86,4.323,4.323,0,0,1,2.874.888,3.086,3.086,0,0,1,1.081,2.435v4.21a4.311,4.311,0,0,0,.4,2V25Zm-1.854-1.934a1.652,1.652,0,0,0,.918-.237,1.487,1.487,0,0,0,.523-.536V20.772h-.861q-1.547,0-1.547,1.389a.848.848,0,0,0,.272.655A.986.986,0,0,0,21.749,23.066Zm10.072-.176a1.317,1.317,0,0,0,.967-.338,1.241,1.241,0,0,0,.334-.945H35.9a3.288,3.288,0,0,1-1.121,2.566,4.168,4.168,0,0,1-2.887,1,4.22,4.22,0,0,1-3.27-1.3,5.125,5.125,0,0,1-1.2-3.6v-.123a5.792,5.792,0,0,1,.532-2.544,3.872,3.872,0,0,1,1.534-1.7,4.573,4.573,0,0,1,2.373-.593,4.116,4.116,0,0,1,2.944,1.028,3.647,3.647,0,0,1,1.09,2.786H33.122A1.626,1.626,0,0,0,32.761,18a1.244,1.244,0,0,0-.967-.4q-1.151,0-1.345,1.468a10.357,10.357,0,0,0-.062,1.283,4.068,4.068,0,0,0,.343,1.986A1.187,1.187,0,0,0,31.821,22.891ZM40.276,25H37.305V15.49h2.971ZM37.129,13.038A1.322,1.322,0,0,1,37.586,12a1.943,1.943,0,0,1,2.373,0,1.405,1.405,0,0,1,0,2.074,1.943,1.943,0,0,1-2.373,0A1.322,1.322,0,0,1,37.129,13.038Zm4.6,7.119a5.613,5.613,0,0,1,.554-2.536,3.96,3.96,0,0,1,1.591-1.709,4.791,4.791,0,0,1,2.435-.6,4.373,4.373,0,0,1,3.366,1.323,5.076,5.076,0,0,1,1.23,3.6v.105a4.925,4.925,0,0,1-1.235,3.529,4.384,4.384,0,0,1-3.344,1.305,4.434,4.434,0,0,1-3.261-1.217,4.761,4.761,0,0,1-1.327-3.3Zm2.962.185a3.538,3.538,0,0,0,.413,1.934,1.376,1.376,0,0,0,1.222.615q1.582,0,1.617-2.435v-.3q0-2.558-1.635-2.558-1.485,0-1.608,2.206ZM54.927,15.49l.1,1.116a3.225,3.225,0,0,1,2.716-1.292,2.713,2.713,0,0,1,2.219.888,4.226,4.226,0,0,1,.76,2.672V25H57.749V19a1.6,1.6,0,0,0-.29-1.059A1.342,1.342,0,0,0,56.4,17.6a1.413,1.413,0,0,0-1.292.686V25H52.15V15.49Z" transform="translate(795.711 5397)" fill="#12263f"/>
    <path id="Trazado_1015305" data-name="Trazado 1015305" d="M.967,0V-12.8H5.089a6.064,6.064,0,0,1,3.05.769,5.406,5.406,0,0,1,2.114,2.171,6.554,6.554,0,0,1,.769,3.142v.589a6.592,6.592,0,0,1-.743,3.151A5.429,5.429,0,0,1,8.187-.8a5.93,5.93,0,0,1-3.01.8ZM4.052-10.415v8.042H5.124a2.4,2.4,0,0,0,2.039-.945,4.63,4.63,0,0,0,.712-2.808V-6.68a4.592,4.592,0,0,0-.712-2.795,2.442,2.442,0,0,0-2.074-.94ZM15.592,0H12.621V-9.51h2.971ZM12.445-11.962A1.322,1.322,0,0,1,12.9-13a1.724,1.724,0,0,1,1.187-.4,1.724,1.724,0,0,1,1.187.4,1.322,1.322,0,0,1,.457,1.037,1.322,1.322,0,0,1-.457,1.037,1.724,1.724,0,0,1-1.187.4,1.724,1.724,0,0,1-1.187-.4A1.322,1.322,0,0,1,12.445-11.962Zm9.949,9.29a.684.684,0,0,0-.4-.606,6.016,6.016,0,0,0-1.5-.475A6.853,6.853,0,0,1,18.668-4.4a3.062,3.062,0,0,1-1.1-.971,2.319,2.319,0,0,1-.378-1.31,2.628,2.628,0,0,1,1.081-2.158,4.453,4.453,0,0,1,2.83-.848,4.934,4.934,0,0,1,3.023.853,2.666,2.666,0,0,1,1.143,2.241H22.3q0-1.143-1.2-1.143a1.194,1.194,0,0,0-.782.259A.8.8,0,0,0,20-6.829a.737.737,0,0,0,.387.642,3.654,3.654,0,0,0,1.235.4,10.671,10.671,0,0,1,1.49.378A2.706,2.706,0,0,1,25.251-2.76,2.491,2.491,0,0,1,24.1-.642,5.068,5.068,0,0,1,21.1.176a5.172,5.172,0,0,1-2.18-.439,3.645,3.645,0,0,1-1.494-1.2,2.707,2.707,0,0,1-.536-1.591h2.769a1.145,1.145,0,0,0,.439.962,1.808,1.808,0,0,0,1.081.3,1.422,1.422,0,0,0,.91-.246A.787.787,0,0,0,22.395-2.672ZM31.236.176a4.889,4.889,0,0,1-3.542-1.305,4.507,4.507,0,0,1-1.354-3.4v-.246a5.84,5.84,0,0,1,.541-2.575,3.955,3.955,0,0,1,1.578-1.727,4.763,4.763,0,0,1,2.461-.611,4.117,4.117,0,0,1,3.164,1.244,4.887,4.887,0,0,1,1.16,3.467v1.151H29.355a2.135,2.135,0,0,0,.694,1.257,2.066,2.066,0,0,0,1.389.457,2.662,2.662,0,0,0,2.2-.984l1.354,1.6A3.784,3.784,0,0,1,33.42-.277,5.3,5.3,0,0,1,31.236.176ZM30.9-7.4q-1.3,0-1.547,1.723h2.988v-.229a1.467,1.467,0,0,0-.36-1.1A1.434,1.434,0,0,0,30.9-7.4ZM39.155-9.51l.1,1.116a3.225,3.225,0,0,1,2.716-1.292,2.713,2.713,0,0,1,2.219.888,4.226,4.226,0,0,1,.76,2.672V0H41.977V-6a1.6,1.6,0,0,0-.29-1.059A1.342,1.342,0,0,0,40.632-7.4a1.413,1.413,0,0,0-1.292.686V0H36.378V-9.51Zm4.913-3.92a2.562,2.562,0,0,1-.584,1.7,1.813,1.813,0,0,1-1.446.7,2.852,2.852,0,0,1-1.292-.369,2.7,2.7,0,0,0-1.151-.369.66.66,0,0,0-.479.193.8.8,0,0,0-.2.6l-1.644-.088a2.576,2.576,0,0,1,.584-1.687,1.793,1.793,0,0,1,1.437-.712,2.967,2.967,0,0,1,1.151.325,7.07,7.07,0,0,0,.9.369,1.74,1.74,0,0,0,.4.044.671.671,0,0,0,.483-.2.807.807,0,0,0,.2-.6Zm2.145,8.587a5.613,5.613,0,0,1,.554-2.536,3.96,3.96,0,0,1,1.591-1.709,4.791,4.791,0,0,1,2.435-.6,4.373,4.373,0,0,1,3.366,1.323,5.076,5.076,0,0,1,1.23,3.6v.105a4.925,4.925,0,0,1-1.235,3.529A4.384,4.384,0,0,1,50.81.176a4.434,4.434,0,0,1-3.261-1.217,4.761,4.761,0,0,1-1.327-3.3Zm2.962.185a3.538,3.538,0,0,0,.413,1.934,1.376,1.376,0,0,0,1.222.615q1.582,0,1.617-2.435v-.3q0-2.558-1.635-2.558-1.485,0-1.608,2.206Z" transform="translate(1111.711 5480)" fill="#12263f"/>
    <path id="Trazado_1015306" data-name="Trazado 1015306" d="M.967,0V-12.8H5.089a6.064,6.064,0,0,1,3.05.769,5.406,5.406,0,0,1,2.114,2.171,6.554,6.554,0,0,1,.769,3.142v.589a6.592,6.592,0,0,1-.743,3.151A5.429,5.429,0,0,1,8.187-.8a5.93,5.93,0,0,1-3.01.8ZM4.052-10.415v8.042H5.124a2.4,2.4,0,0,0,2.039-.945,4.63,4.63,0,0,0,.712-2.808V-6.68a4.592,4.592,0,0,0-.712-2.795,2.442,2.442,0,0,0-2.074-.94ZM17.068.176a4.889,4.889,0,0,1-3.542-1.305,4.507,4.507,0,0,1-1.354-3.4v-.246a5.84,5.84,0,0,1,.541-2.575,3.955,3.955,0,0,1,1.578-1.727,4.763,4.763,0,0,1,2.461-.611,4.117,4.117,0,0,1,3.164,1.244,4.887,4.887,0,0,1,1.16,3.467v1.151H15.188a2.135,2.135,0,0,0,.694,1.257,2.066,2.066,0,0,0,1.389.457,2.662,2.662,0,0,0,2.2-.984l1.354,1.6A3.784,3.784,0,0,1,19.252-.277,5.3,5.3,0,0,1,17.068.176ZM16.734-7.4q-1.3,0-1.547,1.723h2.988v-.229a1.467,1.467,0,0,0-.36-1.1A1.434,1.434,0,0,0,16.734-7.4ZM27.246-2.672a.684.684,0,0,0-.4-.606,6.016,6.016,0,0,0-1.5-.475A6.853,6.853,0,0,1,23.52-4.4a3.062,3.062,0,0,1-1.1-.971,2.319,2.319,0,0,1-.378-1.31,2.628,2.628,0,0,1,1.081-2.158,4.453,4.453,0,0,1,2.83-.848,4.934,4.934,0,0,1,3.023.853A2.666,2.666,0,0,1,30.12-6.592H27.149q0-1.143-1.2-1.143a1.194,1.194,0,0,0-.782.259.8.8,0,0,0-.316.646.737.737,0,0,0,.387.642,3.654,3.654,0,0,0,1.235.4,10.671,10.671,0,0,1,1.49.378A2.706,2.706,0,0,1,30.1-2.76,2.491,2.491,0,0,1,28.947-.642a5.068,5.068,0,0,1-2.993.817,5.172,5.172,0,0,1-2.18-.439,3.645,3.645,0,0,1-1.494-1.2,2.707,2.707,0,0,1-.536-1.591h2.769a1.145,1.145,0,0,0,.439.962,1.808,1.808,0,0,0,1.081.3,1.422,1.422,0,0,0,.91-.246A.787.787,0,0,0,27.246-2.672ZM36.844,0a3.344,3.344,0,0,1-.281-.853A2.754,2.754,0,0,1,34.277.176a3.374,3.374,0,0,1-2.285-.813,2.588,2.588,0,0,1-.94-2.043,2.66,2.66,0,0,1,1.143-2.338,5.821,5.821,0,0,1,3.322-.791h.914v-.5q0-1.316-1.134-1.316a.927.927,0,0,0-1.055,1.042H31.28a2.655,2.655,0,0,1,1.173-2.239,4.931,4.931,0,0,1,2.993-.86A4.323,4.323,0,0,1,38.32-8.8,3.086,3.086,0,0,1,39.4-6.363v4.21a4.311,4.311,0,0,0,.4,2V0ZM34.989-1.934a1.652,1.652,0,0,0,.918-.237,1.487,1.487,0,0,0,.523-.536V-4.228h-.861q-1.547,0-1.547,1.389a.848.848,0,0,0,.272.655A.986.986,0,0,0,34.989-1.934Zm11.8-4.9-.976-.07a1.752,1.752,0,0,0-1.793.879V0H41.063V-9.51H43.84l.1,1.222a2.294,2.294,0,0,1,2.083-1.4,2.888,2.888,0,0,1,.826.105Zm6.82,0-.976-.07a1.752,1.752,0,0,0-1.793.879V0H47.883V-9.51H50.66l.1,1.222a2.294,2.294,0,0,1,2.083-1.4,2.888,2.888,0,0,1,.826.105Zm.378,1.986a5.613,5.613,0,0,1,.554-2.536,3.96,3.96,0,0,1,1.591-1.709,4.791,4.791,0,0,1,2.435-.6,4.373,4.373,0,0,1,3.366,1.323,5.076,5.076,0,0,1,1.23,3.6v.105a4.925,4.925,0,0,1-1.235,3.529A4.384,4.384,0,0,1,58.588.176a4.434,4.434,0,0,1-3.261-1.217A4.761,4.761,0,0,1,54-4.342Zm2.962.185a3.538,3.538,0,0,0,.413,1.934,1.376,1.376,0,0,0,1.222.615q1.582,0,1.617-2.435v-.3q0-2.558-1.635-2.558-1.485,0-1.608,2.206ZM67.6,0H64.626V-13.5H67.6Zm4.948,0H69.574V-13.5h2.971ZM74-4.843a5.613,5.613,0,0,1,.554-2.536A3.96,3.96,0,0,1,76.14-9.088a4.791,4.791,0,0,1,2.435-.6A4.373,4.373,0,0,1,81.94-8.363a5.076,5.076,0,0,1,1.23,3.6v.105a4.925,4.925,0,0,1-1.235,3.529A4.384,4.384,0,0,1,78.592.176a4.434,4.434,0,0,1-3.261-1.217A4.761,4.761,0,0,1,74-4.342Zm2.962.185a3.538,3.538,0,0,0,.413,1.934,1.376,1.376,0,0,0,1.222.615q1.582,0,1.617-2.435v-.3q0-2.558-1.635-2.558-1.485,0-1.608,2.206Z" transform="translate(913.711 5697)" fill="#12263f"/>
    <path id="Trazado_1015307" data-name="Trazado 1015307" d="M4.052-4.342V0H.967V-12.8H6.073a5.948,5.948,0,0,1,2.6.541,4.074,4.074,0,0,1,1.749,1.538,4.2,4.2,0,0,1,.62,2.263A3.7,3.7,0,0,1,9.7-5.462,5.561,5.561,0,0,1,6.021-4.342Zm0-2.382H6.073A1.906,1.906,0,0,0,7.44-7.172a1.665,1.665,0,0,0,.47-1.266A2.059,2.059,0,0,0,7.427-9.87a1.712,1.712,0,0,0-1.318-.545H4.052ZM18.3-6.829l-.976-.07a1.752,1.752,0,0,0-1.793.879V0H12.568V-9.51h2.777l.1,1.222a2.294,2.294,0,0,1,2.083-1.4,2.888,2.888,0,0,1,.826.105Zm6.732,5.8a3.054,3.054,0,0,1-2.54,1.2,3,3,0,0,1-2.369-.91,3.826,3.826,0,0,1-.8-2.615V-9.51H22.28v6.179a1.065,1.065,0,0,0,1.187,1.222,1.548,1.548,0,0,0,1.45-.729V-9.51H27.9V0H25.119Zm9.088,1.2a4.889,4.889,0,0,1-3.542-1.305,4.507,4.507,0,0,1-1.354-3.4v-.246a5.84,5.84,0,0,1,.541-2.575,3.955,3.955,0,0,1,1.578-1.727A4.763,4.763,0,0,1,33.8-9.686a4.117,4.117,0,0,1,3.164,1.244,4.887,4.887,0,0,1,1.16,3.467v1.151H32.238a2.135,2.135,0,0,0,.694,1.257,2.066,2.066,0,0,0,1.389.457,2.662,2.662,0,0,0,2.2-.984l1.354,1.6A3.784,3.784,0,0,1,36.3-.277,5.3,5.3,0,0,1,34.119.176ZM33.785-7.4q-1.3,0-1.547,1.723h2.988v-.229a1.467,1.467,0,0,0-.36-1.1A1.434,1.434,0,0,0,33.785-7.4ZM48.146-4.676a5.8,5.8,0,0,1-.967,3.595A3.238,3.238,0,0,1,44.455.176,2.81,2.81,0,0,1,42.117-.976L41.994,0H39.34V-13.5H42.3v4.755a2.711,2.711,0,0,1,2.136-.94A3.239,3.239,0,0,1,47.18-8.411a5.826,5.826,0,0,1,.967,3.586Zm-2.971-.189a3.866,3.866,0,0,0-.365-1.952A1.229,1.229,0,0,0,43.69-7.4a1.418,1.418,0,0,0-1.389.763v3.773a1.426,1.426,0,0,0,1.406.755,1.258,1.258,0,0,0,1.327-1.018A7.309,7.309,0,0,0,45.176-4.865ZM54.809,0a3.344,3.344,0,0,1-.281-.853A2.754,2.754,0,0,1,52.242.176a3.374,3.374,0,0,1-2.285-.813,2.588,2.588,0,0,1-.94-2.043,2.66,2.66,0,0,1,1.143-2.338,5.821,5.821,0,0,1,3.322-.791H54.4v-.5q0-1.316-1.134-1.316a.927.927,0,0,0-1.055,1.042H49.245a2.655,2.655,0,0,1,1.173-2.239,4.931,4.931,0,0,1,2.993-.86,4.323,4.323,0,0,1,2.874.888,3.086,3.086,0,0,1,1.081,2.435v4.21a4.311,4.311,0,0,0,.4,2V0ZM52.954-1.934a1.652,1.652,0,0,0,.918-.237,1.487,1.487,0,0,0,.523-.536V-4.228h-.861q-1.547,0-1.547,1.389a.848.848,0,0,0,.272.655A.986.986,0,0,0,52.954-1.934Z" transform="translate(627.711 5697)" fill="#12263f"/>
    <path id="Trazado_1015308" data-name="Trazado 1015308" d="M4.254,0H1.178V-12.8H4.254ZM8.982-9.51l.1,1.116a3.225,3.225,0,0,1,2.716-1.292,2.713,2.713,0,0,1,2.219.888,4.226,4.226,0,0,1,.76,2.672V0H11.8V-6a1.6,1.6,0,0,0-.29-1.059A1.342,1.342,0,0,0,10.459-7.4a1.413,1.413,0,0,0-1.292.686V0H6.205V-9.51Zm10.881-2.364V-9.51h1.564v2.057H19.863V-3.1a1.111,1.111,0,0,0,.193.747,1.037,1.037,0,0,0,.765.211A4.345,4.345,0,0,0,21.56-2.2V-.079a5.466,5.466,0,0,1-1.67.255,3.1,3.1,0,0,1-2.259-.721A2.954,2.954,0,0,1,16.9-2.733v-4.72H15.688V-9.51H16.9v-2.364ZM27.193.176a4.889,4.889,0,0,1-3.542-1.305,4.507,4.507,0,0,1-1.354-3.4v-.246a5.84,5.84,0,0,1,.541-2.575,3.955,3.955,0,0,1,1.578-1.727,4.763,4.763,0,0,1,2.461-.611,4.117,4.117,0,0,1,3.164,1.244A4.887,4.887,0,0,1,31.2-4.975v1.151H25.313a2.135,2.135,0,0,0,.694,1.257,2.066,2.066,0,0,0,1.389.457,2.662,2.662,0,0,0,2.2-.984l1.354,1.6A3.784,3.784,0,0,1,29.377-.277,5.3,5.3,0,0,1,27.193.176ZM26.859-7.4q-1.3,0-1.547,1.723H28.3v-.229a1.467,1.467,0,0,0-.36-1.1A1.434,1.434,0,0,0,26.859-7.4Zm5.186,2.575a6.421,6.421,0,0,1,.475-2.549,3.821,3.821,0,0,1,1.362-1.709,3.591,3.591,0,0,1,2.065-.6,2.855,2.855,0,0,1,2.32,1l.105-.826h2.689V-.36a4.009,4.009,0,0,1-.584,2.184,3.75,3.75,0,0,1-1.692,1.424,6.219,6.219,0,0,1-2.566.5,5.365,5.365,0,0,1-2.026-.4A3.657,3.657,0,0,1,32.7,2.32L33.935.58a2.716,2.716,0,0,0,2.18.976A1.764,1.764,0,0,0,38.083-.466v-.3a2.781,2.781,0,0,1-2.153.94,3.437,3.437,0,0,1-2.812-1.332A5.517,5.517,0,0,1,32.045-4.72Zm2.971.185a3.383,3.383,0,0,0,.439,1.85,1.386,1.386,0,0,0,1.23.681,1.573,1.573,0,0,0,1.4-.642v-4A1.534,1.534,0,0,0,36.7-7.4a1.4,1.4,0,0,0-1.239.708A3.858,3.858,0,0,0,35.016-4.641ZM48.5-6.829l-.976-.07a1.752,1.752,0,0,0-1.793.879V0H42.768V-9.51h2.777l.1,1.222a2.294,2.294,0,0,1,2.083-1.4,2.888,2.888,0,0,1,.826.105ZM54.659,0a3.344,3.344,0,0,1-.281-.853A2.754,2.754,0,0,1,52.093.176a3.374,3.374,0,0,1-2.285-.813,2.588,2.588,0,0,1-.94-2.043A2.66,2.66,0,0,1,50.01-5.019a5.821,5.821,0,0,1,3.322-.791h.914v-.5q0-1.316-1.134-1.316a.927.927,0,0,0-1.055,1.042H49.1a2.655,2.655,0,0,1,1.173-2.239,4.931,4.931,0,0,1,2.993-.86,4.323,4.323,0,0,1,2.874.888,3.086,3.086,0,0,1,1.081,2.435v4.21a4.311,4.311,0,0,0,.4,2V0ZM52.8-1.934a1.652,1.652,0,0,0,.918-.237,1.487,1.487,0,0,0,.523-.536V-4.228h-.861q-1.547,0-1.547,1.389a.848.848,0,0,0,.272.655A.986.986,0,0,0,52.8-1.934Zm10.072-.176a1.317,1.317,0,0,0,.967-.338,1.241,1.241,0,0,0,.334-.945h2.777A3.288,3.288,0,0,1,65.834-.826a4.168,4.168,0,0,1-2.887,1,4.22,4.22,0,0,1-3.27-1.3,5.125,5.125,0,0,1-1.2-3.6v-.123A5.792,5.792,0,0,1,59.014-7.4a3.872,3.872,0,0,1,1.534-1.7,4.573,4.573,0,0,1,2.373-.593,4.116,4.116,0,0,1,2.944,1.028,3.647,3.647,0,0,1,1.09,2.786H64.178A1.626,1.626,0,0,0,63.817-7a1.244,1.244,0,0,0-.967-.4q-1.151,0-1.345,1.468a10.357,10.357,0,0,0-.062,1.283,4.068,4.068,0,0,0,.343,1.986A1.187,1.187,0,0,0,62.877-2.109ZM71.332,0H68.361V-9.51h2.971ZM68.186-11.962A1.322,1.322,0,0,1,68.643-13a1.724,1.724,0,0,1,1.187-.4,1.724,1.724,0,0,1,1.187.4,1.322,1.322,0,0,1,.457,1.037,1.322,1.322,0,0,1-.457,1.037,1.724,1.724,0,0,1-1.187.4,1.724,1.724,0,0,1-1.187-.4A1.322,1.322,0,0,1,68.186-11.962Zm4.6,7.119a5.613,5.613,0,0,1,.554-2.536,3.96,3.96,0,0,1,1.591-1.709,4.791,4.791,0,0,1,2.435-.6,4.373,4.373,0,0,1,3.366,1.323,5.076,5.076,0,0,1,1.23,3.6v.105a4.925,4.925,0,0,1-1.235,3.529A4.384,4.384,0,0,1,77.379.176a4.434,4.434,0,0,1-3.261-1.217,4.761,4.761,0,0,1-1.327-3.3Zm2.962.185a3.538,3.538,0,0,0,.413,1.934,1.376,1.376,0,0,0,1.222.615q1.582,0,1.617-2.435v-.3Q79-7.4,77.361-7.4q-1.485,0-1.608,2.206ZM77.766-13.5h3.129l-2.443,2.76-2.417,0Zm8.218,3.99.1,1.116A3.225,3.225,0,0,1,88.8-9.686a2.713,2.713,0,0,1,2.219.888,4.226,4.226,0,0,1,.76,2.672V0H88.8V-6a1.6,1.6,0,0,0-.29-1.059A1.342,1.342,0,0,0,87.46-7.4a1.413,1.413,0,0,0-1.292.686V0H83.206V-9.51ZM101.7-4.148,103.28-9.51h3.173l-3.876,11.1-.167.4a2.944,2.944,0,0,1-2.918,1.846,4.642,4.642,0,0,1-1.222-.175V1.556h.387a2.026,2.026,0,0,0,.954-.18A1.094,1.094,0,0,0,100.1.729L100.336.1l-3.3-9.605H100.2ZM116.306.176a4.889,4.889,0,0,1-3.542-1.305,4.507,4.507,0,0,1-1.354-3.4v-.246a5.84,5.84,0,0,1,.541-2.575,3.955,3.955,0,0,1,1.578-1.727,4.763,4.763,0,0,1,2.461-.611,4.117,4.117,0,0,1,3.164,1.244,4.887,4.887,0,0,1,1.16,3.467v1.151h-5.889a2.135,2.135,0,0,0,.694,1.257,2.066,2.066,0,0,0,1.389.457,2.662,2.662,0,0,0,2.2-.984l1.354,1.6A3.784,3.784,0,0,1,118.49-.277,5.3,5.3,0,0,1,116.306.176ZM115.972-7.4q-1.3,0-1.547,1.723h2.988v-.229a1.467,1.467,0,0,0-.36-1.1A1.434,1.434,0,0,0,115.972-7.4ZM124.69-9.51V.325a3.452,3.452,0,0,1-.967,2.6,3.714,3.714,0,0,1-2.672.914,6.308,6.308,0,0,1-1.4-.149V1.45a5.667,5.667,0,0,0,.835.079A1.084,1.084,0,0,0,121.72.308V-9.51Zm-3.19-2.452A1.322,1.322,0,0,1,121.957-13a1.724,1.724,0,0,1,1.187-.4,1.724,1.724,0,0,1,1.187.4,1.322,1.322,0,0,1,.457,1.037,1.322,1.322,0,0,1-.457,1.037,1.724,1.724,0,0,1-1.187.4,1.724,1.724,0,0,1-1.187-.4A1.322,1.322,0,0,1,121.5-11.962ZM130.966.176a4.889,4.889,0,0,1-3.542-1.305,4.507,4.507,0,0,1-1.354-3.4v-.246a5.84,5.84,0,0,1,.541-2.575,3.955,3.955,0,0,1,1.578-1.727,4.763,4.763,0,0,1,2.461-.611,4.117,4.117,0,0,1,3.164,1.244,4.887,4.887,0,0,1,1.16,3.467v1.151h-5.889a2.135,2.135,0,0,0,.694,1.257,2.066,2.066,0,0,0,1.389.457,2.662,2.662,0,0,0,2.2-.984l1.354,1.6A3.784,3.784,0,0,1,133.15-.277,5.3,5.3,0,0,1,130.966.176ZM130.632-7.4q-1.3,0-1.547,1.723h2.988v-.229a1.467,1.467,0,0,0-.36-1.1A1.434,1.434,0,0,0,130.632-7.4Zm9.554,5.291a1.317,1.317,0,0,0,.967-.338,1.241,1.241,0,0,0,.334-.945h2.777a3.288,3.288,0,0,1-1.121,2.566,4.168,4.168,0,0,1-2.887,1,4.22,4.22,0,0,1-3.27-1.3,5.125,5.125,0,0,1-1.2-3.6v-.123a5.792,5.792,0,0,1,.532-2.544,3.872,3.872,0,0,1,1.534-1.7,4.573,4.573,0,0,1,2.373-.593,4.116,4.116,0,0,1,2.944,1.028,3.647,3.647,0,0,1,1.09,2.786h-2.777A1.626,1.626,0,0,0,141.126-7a1.244,1.244,0,0,0-.967-.4q-1.151,0-1.345,1.468a10.357,10.357,0,0,0-.062,1.283,4.068,4.068,0,0,0,.343,1.986A1.187,1.187,0,0,0,140.186-2.109Zm11,1.081a3.054,3.054,0,0,1-2.54,1.2,3,3,0,0,1-2.369-.91,3.826,3.826,0,0,1-.8-2.615V-9.51h2.962v6.179a1.065,1.065,0,0,0,1.187,1.222,1.548,1.548,0,0,0,1.45-.729V-9.51h2.979V0h-2.777Zm8.508-1.081a1.317,1.317,0,0,0,.967-.338,1.241,1.241,0,0,0,.334-.945h2.777a3.288,3.288,0,0,1-1.121,2.566,4.168,4.168,0,0,1-2.887,1,4.22,4.22,0,0,1-3.27-1.3,5.125,5.125,0,0,1-1.2-3.6v-.123a5.792,5.792,0,0,1,.532-2.544,3.872,3.872,0,0,1,1.534-1.7,4.573,4.573,0,0,1,2.373-.593,4.116,4.116,0,0,1,2.944,1.028,3.647,3.647,0,0,1,1.09,2.786h-2.777A1.626,1.626,0,0,0,160.629-7a1.244,1.244,0,0,0-.967-.4q-1.151,0-1.345,1.468a10.357,10.357,0,0,0-.062,1.283,4.068,4.068,0,0,0,.343,1.986A1.187,1.187,0,0,0,159.688-2.109ZM168.144,0h-2.971V-9.51h2.971ZM165-11.962A1.322,1.322,0,0,1,165.454-13a1.724,1.724,0,0,1,1.187-.4,1.724,1.724,0,0,1,1.187.4,1.322,1.322,0,0,1,.457,1.037,1.322,1.322,0,0,1-.457,1.037,1.724,1.724,0,0,1-1.187.4,1.724,1.724,0,0,1-1.187-.4A1.322,1.322,0,0,1,165-11.962Zm4.6,7.119a5.613,5.613,0,0,1,.554-2.536,3.96,3.96,0,0,1,1.591-1.709,4.791,4.791,0,0,1,2.435-.6,4.373,4.373,0,0,1,3.366,1.323,5.076,5.076,0,0,1,1.23,3.6v.105a4.925,4.925,0,0,1-1.235,3.529A4.384,4.384,0,0,1,174.19.176a4.434,4.434,0,0,1-3.261-1.217,4.761,4.761,0,0,1-1.327-3.3Zm2.962.185a3.538,3.538,0,0,0,.413,1.934,1.376,1.376,0,0,0,1.222.615q1.582,0,1.617-2.435v-.3q0-2.558-1.635-2.558-1.485,0-1.608,2.206Zm2.021-8.842h3.129l-2.443,2.76-2.417,0Zm8.218,3.99.1,1.116a3.225,3.225,0,0,1,2.716-1.292,2.713,2.713,0,0,1,2.219.888,4.226,4.226,0,0,1,.76,2.672V0h-2.971V-6a1.6,1.6,0,0,0-.29-1.059,1.342,1.342,0,0,0-1.055-.338,1.413,1.413,0,0,0-1.292.686V0h-2.962V-9.51Z" transform="translate(288.711 5491)" fill="#12263f"/>
    <path id="Trazado_1015309" data-name="Trazado 1015309" d="M11.8-6.135a7.546,7.546,0,0,1-.694,3.313A5.132,5.132,0,0,1,9.136-.6,5.494,5.494,0,0,1,6.223.176a5.572,5.572,0,0,1-2.9-.751A5.123,5.123,0,0,1,1.349-2.725,7.329,7.329,0,0,1,.606-5.933v-.721A7.58,7.58,0,0,1,1.3-9.971,5.119,5.119,0,0,1,3.274-12.19a5.533,5.533,0,0,1,2.931-.782,5.479,5.479,0,0,1,2.9.773A5.211,5.211,0,0,1,11.087-10,7.362,7.362,0,0,1,11.8-6.724ZM8.666-6.671a5.381,5.381,0,0,0-.637-2.9,2.044,2.044,0,0,0-1.824-.989q-2.32,0-2.452,3.48l-.009.94a5.535,5.535,0,0,0,.624,2.892A2.041,2.041,0,0,0,6.223-2.232a2.016,2.016,0,0,0,1.8-.993,5.383,5.383,0,0,0,.642-2.856ZM22.087-4.685a5.735,5.735,0,0,1-1,3.538A3.2,3.2,0,0,1,18.4.176a2.742,2.742,0,0,1-2.153-.958V3.656H13.28V-9.51h2.769l.088.879a2.742,2.742,0,0,1,2.241-1.055,3.224,3.224,0,0,1,2.733,1.3,5.805,5.805,0,0,1,.976,3.564Zm-2.962-.185q0-2.531-1.477-2.531a1.394,1.394,0,0,0-1.406.756V-2.9a1.439,1.439,0,0,0,1.424.791q1.415,0,1.459-2.443ZM27.993.176a4.889,4.889,0,0,1-3.542-1.305,4.507,4.507,0,0,1-1.354-3.4v-.246a5.84,5.84,0,0,1,.541-2.575,3.955,3.955,0,0,1,1.578-1.727,4.763,4.763,0,0,1,2.461-.611,4.117,4.117,0,0,1,3.164,1.244A4.887,4.887,0,0,1,32-4.975v1.151H26.112a2.135,2.135,0,0,0,.694,1.257,2.066,2.066,0,0,0,1.389.457,2.662,2.662,0,0,0,2.2-.984l1.354,1.6A3.784,3.784,0,0,1,30.177-.277,5.3,5.3,0,0,1,27.993.176ZM27.659-7.4q-1.3,0-1.547,1.723H29.1v-.229a1.467,1.467,0,0,0-.36-1.1A1.434,1.434,0,0,0,27.659-7.4Zm11.285.571-.976-.07a1.752,1.752,0,0,0-1.793.879V0H33.214V-9.51h2.777l.1,1.222a2.294,2.294,0,0,1,2.083-1.4A2.888,2.888,0,0,1,39-9.58ZM45.105,0a3.344,3.344,0,0,1-.281-.853A2.754,2.754,0,0,1,42.539.176a3.374,3.374,0,0,1-2.285-.813,2.588,2.588,0,0,1-.94-2.043,2.66,2.66,0,0,1,1.143-2.338,5.821,5.821,0,0,1,3.322-.791h.914v-.5q0-1.316-1.134-1.316A.927.927,0,0,0,42.5-6.587H39.542a2.655,2.655,0,0,1,1.173-2.239,4.931,4.931,0,0,1,2.993-.86,4.323,4.323,0,0,1,2.874.888,3.086,3.086,0,0,1,1.081,2.435v4.21a4.311,4.311,0,0,0,.4,2V0ZM43.251-1.934a1.652,1.652,0,0,0,.918-.237,1.487,1.487,0,0,0,.523-.536V-4.228h-.861q-1.547,0-1.547,1.389a.848.848,0,0,0,.272.655A.986.986,0,0,0,43.251-1.934Zm10.072-.176a1.317,1.317,0,0,0,.967-.338,1.241,1.241,0,0,0,.334-.945H57.4A3.288,3.288,0,0,1,56.281-.826a4.168,4.168,0,0,1-2.887,1,4.22,4.22,0,0,1-3.27-1.3,5.125,5.125,0,0,1-1.2-3.6v-.123A5.792,5.792,0,0,1,49.46-7.4a3.872,3.872,0,0,1,1.534-1.7,4.573,4.573,0,0,1,2.373-.593,4.116,4.116,0,0,1,2.944,1.028A3.647,3.647,0,0,1,57.4-5.871H54.624A1.626,1.626,0,0,0,54.264-7a1.244,1.244,0,0,0-.967-.4q-1.151,0-1.345,1.468a10.357,10.357,0,0,0-.062,1.283,4.068,4.068,0,0,0,.343,1.986A1.187,1.187,0,0,0,53.323-2.109ZM61.778,0H58.808V-9.51h2.971ZM58.632-11.962A1.322,1.322,0,0,1,59.089-13a1.724,1.724,0,0,1,1.187-.4,1.724,1.724,0,0,1,1.187.4,1.322,1.322,0,0,1,.457,1.037,1.322,1.322,0,0,1-.457,1.037,1.724,1.724,0,0,1-1.187.4,1.724,1.724,0,0,1-1.187-.4A1.322,1.322,0,0,1,58.632-11.962Zm4.6,7.119a5.613,5.613,0,0,1,.554-2.536,3.96,3.96,0,0,1,1.591-1.709,4.791,4.791,0,0,1,2.435-.6,4.373,4.373,0,0,1,3.366,1.323,5.076,5.076,0,0,1,1.23,3.6v.105a4.925,4.925,0,0,1-1.235,3.529A4.384,4.384,0,0,1,67.825.176a4.434,4.434,0,0,1-3.261-1.217,4.761,4.761,0,0,1-1.327-3.3Zm2.962.185A3.538,3.538,0,0,0,66.6-2.725a1.376,1.376,0,0,0,1.222.615q1.582,0,1.617-2.435v-.3q0-2.558-1.635-2.558-1.485,0-1.608,2.206ZM68.212-13.5h3.129L68.9-10.74l-2.417,0ZM76.43-9.51l.1,1.116a3.225,3.225,0,0,1,2.716-1.292,2.713,2.713,0,0,1,2.219.888,4.226,4.226,0,0,1,.76,2.672V0H79.251V-6a1.6,1.6,0,0,0-.29-1.059A1.342,1.342,0,0,0,77.906-7.4a1.413,1.413,0,0,0-1.292.686V0H73.652V-9.51ZM92.145-4.148,93.727-9.51H96.9l-3.876,11.1-.167.4a2.944,2.944,0,0,1-2.918,1.846,4.642,4.642,0,0,1-1.222-.175V1.556H89.1a2.026,2.026,0,0,0,.954-.18,1.094,1.094,0,0,0,.488-.647L90.782.1l-3.3-9.605h3.164ZM104.95-9.51l.1,1.116a3.27,3.27,0,0,1,2.716-1.292A2.407,2.407,0,0,1,110.2-8.253a3.165,3.165,0,0,1,2.795-1.433q2.892,0,2.971,3.5V0h-2.971V-6a1.813,1.813,0,0,0-.246-1.063,1.048,1.048,0,0,0-.9-.334,1.4,1.4,0,0,0-1.31.782l.009.123V0h-2.971V-5.985a1.906,1.906,0,0,0-.237-1.081,1.045,1.045,0,0,0-.905-.334,1.42,1.42,0,0,0-1.3.782V0h-2.962V-9.51ZM123.012,0a3.344,3.344,0,0,1-.281-.853A2.754,2.754,0,0,1,120.445.176a3.374,3.374,0,0,1-2.285-.813,2.588,2.588,0,0,1-.94-2.043,2.66,2.66,0,0,1,1.143-2.338,5.821,5.821,0,0,1,3.322-.791h.914v-.5q0-1.316-1.134-1.316a.927.927,0,0,0-1.055,1.042h-2.962a2.655,2.655,0,0,1,1.173-2.239,4.931,4.931,0,0,1,2.993-.86,4.323,4.323,0,0,1,2.874.888,3.086,3.086,0,0,1,1.081,2.435v4.21a4.311,4.311,0,0,0,.4,2V0Zm-1.854-1.934a1.652,1.652,0,0,0,.918-.237,1.487,1.487,0,0,0,.523-.536V-4.228h-.861q-1.547,0-1.547,1.389a.848.848,0,0,0,.272.655A.986.986,0,0,0,121.157-1.934Zm8.771-7.576.1,1.116a3.225,3.225,0,0,1,2.716-1.292,2.713,2.713,0,0,1,2.219.888,4.226,4.226,0,0,1,.76,2.672V0H132.75V-6a1.6,1.6,0,0,0-.29-1.059,1.342,1.342,0,0,0-1.055-.338,1.413,1.413,0,0,0-1.292.686V0h-2.962V-9.51Zm10.881-2.364V-9.51h1.564v2.057H140.81V-3.1a1.111,1.111,0,0,0,.193.747,1.037,1.037,0,0,0,.765.211,4.345,4.345,0,0,0,.738-.053V-.079a5.466,5.466,0,0,1-1.67.255,3.1,3.1,0,0,1-2.259-.721,2.954,2.954,0,0,1-.729-2.188v-4.72h-1.213V-9.51h1.213v-2.364ZM148.14.176A4.889,4.889,0,0,1,144.6-1.129a4.507,4.507,0,0,1-1.354-3.4v-.246a5.84,5.84,0,0,1,.541-2.575,3.955,3.955,0,0,1,1.578-1.727,4.763,4.763,0,0,1,2.461-.611,4.117,4.117,0,0,1,3.164,1.244,4.887,4.887,0,0,1,1.16,3.467v1.151h-5.889a2.135,2.135,0,0,0,.694,1.257,2.066,2.066,0,0,0,1.389.457,2.662,2.662,0,0,0,2.2-.984l1.354,1.6a3.784,3.784,0,0,1-1.569,1.217A5.3,5.3,0,0,1,148.14.176ZM147.806-7.4q-1.3,0-1.547,1.723h2.988v-.229a1.467,1.467,0,0,0-.36-1.1A1.434,1.434,0,0,0,147.806-7.4Zm8.253-2.109.1,1.116a3.225,3.225,0,0,1,2.716-1.292,2.713,2.713,0,0,1,2.219.888,4.226,4.226,0,0,1,.76,2.672V0H158.88V-6a1.6,1.6,0,0,0-.29-1.059,1.342,1.342,0,0,0-1.055-.338,1.413,1.413,0,0,0-1.292.686V0h-2.962V-9.51ZM166.614,0h-2.971V-9.51h2.971Zm-3.146-11.962A1.322,1.322,0,0,1,163.925-13a1.724,1.724,0,0,1,1.187-.4,1.724,1.724,0,0,1,1.187.4,1.322,1.322,0,0,1,.457,1.037,1.322,1.322,0,0,1-.457,1.037,1.724,1.724,0,0,1-1.187.4,1.724,1.724,0,0,1-1.187-.4A1.322,1.322,0,0,1,163.468-11.962Zm7.77,2.452.1,1.116a3.27,3.27,0,0,1,2.716-1.292,2.407,2.407,0,0,1,2.435,1.433,3.165,3.165,0,0,1,2.795-1.433q2.892,0,2.971,3.5V0h-2.971V-6a1.813,1.813,0,0,0-.246-1.063,1.048,1.048,0,0,0-.9-.334,1.4,1.4,0,0,0-1.31.782l.009.123V0h-2.971V-5.985a1.906,1.906,0,0,0-.237-1.081,1.045,1.045,0,0,0-.905-.334,1.42,1.42,0,0,0-1.3.782V0H168.46V-9.51ZM187.066,0H184.1V-9.51h2.971ZM183.92-11.962A1.322,1.322,0,0,1,184.377-13a1.724,1.724,0,0,1,1.187-.4,1.724,1.724,0,0,1,1.187.4,1.322,1.322,0,0,1,.457,1.037,1.322,1.322,0,0,1-.457,1.037,1.724,1.724,0,0,1-1.187.4,1.724,1.724,0,0,1-1.187-.4A1.322,1.322,0,0,1,183.92-11.962ZM193.491.176a4.889,4.889,0,0,1-3.542-1.305,4.507,4.507,0,0,1-1.354-3.4v-.246a5.84,5.84,0,0,1,.541-2.575,3.955,3.955,0,0,1,1.578-1.727,4.763,4.763,0,0,1,2.461-.611,4.117,4.117,0,0,1,3.164,1.244,4.887,4.887,0,0,1,1.16,3.467v1.151H191.61a2.135,2.135,0,0,0,.694,1.257,2.066,2.066,0,0,0,1.389.457,2.662,2.662,0,0,0,2.2-.984l1.354,1.6a3.784,3.784,0,0,1-1.569,1.217A5.3,5.3,0,0,1,193.491.176ZM193.157-7.4q-1.3,0-1.547,1.723H194.6v-.229a1.467,1.467,0,0,0-.36-1.1A1.434,1.434,0,0,0,193.157-7.4ZM201.41-9.51l.1,1.116a3.225,3.225,0,0,1,2.716-1.292,2.713,2.713,0,0,1,2.219.888,4.226,4.226,0,0,1,.76,2.672V0h-2.971V-6a1.6,1.6,0,0,0-.29-1.059,1.342,1.342,0,0,0-1.055-.338,1.413,1.413,0,0,0-1.292.686V0h-2.962V-9.51Zm10.881-2.364V-9.51h1.564v2.057h-1.564V-3.1a1.111,1.111,0,0,0,.193.747,1.037,1.037,0,0,0,.765.211,4.345,4.345,0,0,0,.738-.053V-.079a5.466,5.466,0,0,1-1.67.255,3.1,3.1,0,0,1-2.259-.721,2.954,2.954,0,0,1-.729-2.188v-4.72h-1.213V-9.51h1.213v-2.364Zm2.092,7.031a5.613,5.613,0,0,1,.554-2.536,3.96,3.96,0,0,1,1.591-1.709,4.791,4.791,0,0,1,2.435-.6,4.373,4.373,0,0,1,3.366,1.323,5.076,5.076,0,0,1,1.23,3.6v.105a4.925,4.925,0,0,1-1.235,3.529A4.384,4.384,0,0,1,218.979.176a4.434,4.434,0,0,1-3.261-1.217,4.761,4.761,0,0,1-1.327-3.3Zm2.962.185a3.538,3.538,0,0,0,.413,1.934,1.376,1.376,0,0,0,1.222.615q1.582,0,1.617-2.435v-.3q0-2.558-1.635-2.558-1.485,0-1.608,2.206Z" transform="translate(321.711 5211)" fill="#12263f"/>
  </g>
</svg>
