<svg xmlns="http://www.w3.org/2000/svg" width="47.609" height="47.609" viewBox="0 0 47.609 47.609">
  <g id="Grupo_1194697" data-name="Grupo 1194697" transform="translate(-187 -830.001)">
    <path id="Trazado_1014509" data-name="Trazado 1014509" d="M47.609,23.8A23.8,23.8,0,1,1,23.8,0a23.8,23.8,0,0,1,23.8,23.8" transform="translate(187 830.001)" fill="#104936"/>
    <g id="Grupo_1194696" data-name="Grupo 1194696" transform="translate(-3.066 -4.002)">
      <path id="Trazado_1014510" data-name="Trazado 1014510" d="M121.957,95.628V90.894s2.367-5.345,3.054-5.651,1.145.229,1.145.916a22.7,22.7,0,0,1-.687,3.131h4.658c.992,0,.611.916.458,1.756a28.808,28.808,0,0,1-2.138,4.582c-.229.305-6.109.764-6.491,0" transform="translate(90.067 762.147)" fill="#fff"/>
      <rect id="Rectángulo_461694" data-name="Rectángulo 461694" width="2.52" height="5.445" transform="translate(208.13 852.747)" fill="#fff"/>
      <path id="Trazado_1014511" data-name="Trazado 1014511" d="M96.718,164.045l-2.87,1.354-2.742,3.232,6.588,5.5,2.041-5.707L98.619,166.8Z" transform="translate(113.66 701.818)" fill="#fff"/>
      <path id="Trazado_1014512" data-name="Trazado 1014512" d="M135.949,164.045l2.87,1.354,2.743,3.232-6.589,5.5-2.041-5.707,1.116-1.622Z" transform="translate(81.674 701.818)" fill="#fff"/>
      <path id="Trazado_1014513" data-name="Trazado 1014513" d="M98.525,66.614l-3.88-2.69,2.028-4.263-4.7-.39-.376-4.706-4.269,2.015-2.678-3.888-2.69,3.88-4.263-2.028-.391,4.7-4.705.376,2.015,4.27-3.888,2.678,3.879,2.69-2.027,4.263,4.7.389.375,4.706,1.756-.828,2.514-1.186L84.6,80.494l.521-.753,2.169-3.128,4.263,2.029.389-4.705,4.706-.375-2.014-4.27ZM85.589,75.145a8.607,8.607,0,1,1,7.587-9.518,8.607,8.607,0,0,1-7.587,9.518" transform="translate(129.246 786.973)" fill="#fff"/>
    </g>
    <rect id="Rectángulo_461695" data-name="Rectángulo 461695" width="47.609" height="47.609" transform="translate(187 830.001)" fill="none"/>
  </g>
</svg>
