<svg xmlns="http://www.w3.org/2000/svg" xmlns:xlink="http://www.w3.org/1999/xlink" width="250.064" height="528.601" viewBox="0 0 250.064 528.601">
  <defs>
    <clipPath id="clip-path">
      <path id="Trazado_194907" data-name="Trazado 194907" d="M0,139.241c0,47.447,39.179,85.908,87.511,85.908s87.511-38.461,87.511-85.908S135.841,53.333,87.511,53.333,0,91.8,0,139.241" transform="translate(0 -53.333)" fill="#1e3a8a"/>
    </clipPath>
    <clipPath id="clip-path-2">
      <path id="Trazado_194907-2" data-name="Trazado 194907" d="M0,95.647A42.315,42.315,0,1,0,42.315,53.333,42.315,42.315,0,0,0,0,95.647" transform="translate(0 -53.333)" fill="#7f4fc7"/>
    </clipPath>
    <clipPath id="clip-path-3">
      <rect id="Rectángulo_46351" data-name="Rectángulo 46351" width="115.414" height="119.42" fill="none"/>
    </clipPath>
  </defs>
  <g id="conectada_01.375dd2a5" transform="translate(-0.003)">
    <g id="Grupo_155444" data-name="Grupo 155444" transform="translate(1.513 22.364)">
      <g id="Grupo_155253" data-name="Grupo 155253" transform="translate(5.211 181.396)">
        <path id="Trazado_196478" data-name="Trazado 196478" d="M319.689,149.033q-.327.339-.648.683a52.147,52.147,0,0,0-14.068,37.632l21.849-.761a30.63,30.63,0,1,1,61.222-2.141l21.849-.761a52.492,52.492,0,0,0-90.2-34.646" transform="translate(-304.936 -133.025)" fill="#283444"/>
        <path id="Trazado_196479" data-name="Trazado 196479" d="M304.88,231.066A52.492,52.492,0,1,0,409.8,227.4l-21.85.761a30.629,30.629,0,0,1-61.221,2.141Z" transform="translate(-304.844 -176.744)" fill="#0c1737"/>
      </g>
      <g id="Grupo_154313" data-name="Grupo 154313" transform="translate(73.533 321.892)">
        <g id="Grupo_152768" data-name="Grupo 152768" clip-path="url(#clip-path)">
          <path id="Trazado_194826" data-name="Trazado 194826" d="M4.605,55.593a2.284,2.284,0,0,0-2.3-2.26,2.262,2.262,0,1,0,0,4.522,2.284,2.284,0,0,0,2.3-2.263" transform="translate(0.001 -53.333)" fill="#1e3a8a"/>
          <path id="Trazado_194827" data-name="Trazado 194827" d="M12.879,55.589a2.3,2.3,0,1,0-2.3,2.263,2.3,2.3,0,0,0,2.3-2.263" transform="translate(13.028 -53.329)" fill="#1e3a8a"/>
          <path id="Trazado_194828" data-name="Trazado 194828" d="M21.152,55.589a2.3,2.3,0,1,0-2.3,2.263,2.3,2.3,0,0,0,2.3-2.263" transform="translate(26.059 -53.329)" fill="#1e3a8a"/>
          <path id="Trazado_194829" data-name="Trazado 194829" d="M29.425,55.589a2.3,2.3,0,1,0-2.3,2.263,2.3,2.3,0,0,0,2.3-2.263" transform="translate(39.088 -53.329)" fill="#1e3a8a"/>
          <path id="Trazado_194830" data-name="Trazado 194830" d="M37.7,55.589a2.3,2.3,0,1,0-2.3,2.263,2.3,2.3,0,0,0,2.3-2.263" transform="translate(52.116 -53.329)" fill="#1e3a8a"/>
          <path id="Trazado_194831" data-name="Trazado 194831" d="M45.966,55.589a2.3,2.3,0,1,0-2.3,2.263,2.3,2.3,0,0,0,2.3-2.263" transform="translate(65.146 -53.329)" fill="#1e3a8a"/>
          <path id="Trazado_194832" data-name="Trazado 194832" d="M54.242,55.589a2.3,2.3,0,1,0-2.3,2.263,2.3,2.3,0,0,0,2.3-2.263" transform="translate(78.175 -53.329)" fill="#1e3a8a"/>
          <path id="Trazado_194833" data-name="Trazado 194833" d="M62.515,55.589a2.3,2.3,0,1,0-2.3,2.263,2.3,2.3,0,0,0,2.3-2.263" transform="translate(91.204 -53.329)" fill="#1e3a8a"/>
          <path id="Trazado_194834" data-name="Trazado 194834" d="M70.788,55.589a2.3,2.3,0,1,0-2.3,2.262,2.3,2.3,0,0,0,2.3-2.262" transform="translate(104.234 -53.329)" fill="#1e3a8a"/>
          <path id="Trazado_194835" data-name="Trazado 194835" d="M4.609,63.866a2.284,2.284,0,0,0-2.3-2.26,2.26,2.26,0,0,0,0,4.52,2.284,2.284,0,0,0,2.3-2.26" transform="translate(-0.002 -40.693)" fill="#1e3a8a"/>
          <path id="Trazado_194836" data-name="Trazado 194836" d="M12.879,63.862a2.3,2.3,0,1,0-2.3,2.26,2.3,2.3,0,0,0,2.3-2.26" transform="translate(13.028 -40.689)" fill="#1e3a8a"/>
          <path id="Trazado_194837" data-name="Trazado 194837" d="M21.152,63.862a2.3,2.3,0,1,0-2.3,2.26,2.3,2.3,0,0,0,2.3-2.26" transform="translate(26.059 -40.689)" fill="#1e3a8a"/>
          <path id="Trazado_194838" data-name="Trazado 194838" d="M29.425,63.862a2.3,2.3,0,1,0-2.3,2.26,2.3,2.3,0,0,0,2.3-2.26" transform="translate(39.088 -40.689)" fill="#1e3a8a"/>
          <path id="Trazado_194839" data-name="Trazado 194839" d="M37.7,63.862a2.3,2.3,0,1,0-2.3,2.26,2.3,2.3,0,0,0,2.3-2.26" transform="translate(52.116 -40.689)" fill="#1e3a8a"/>
          <path id="Trazado_194840" data-name="Trazado 194840" d="M45.966,63.862a2.3,2.3,0,1,0-2.3,2.26,2.3,2.3,0,0,0,2.3-2.26" transform="translate(65.146 -40.689)" fill="#1e3a8a"/>
          <path id="Trazado_194841" data-name="Trazado 194841" d="M54.242,63.862a2.3,2.3,0,1,0-2.3,2.26,2.3,2.3,0,0,0,2.3-2.26" transform="translate(78.175 -40.689)" fill="#1e3a8a"/>
          <path id="Trazado_194842" data-name="Trazado 194842" d="M62.515,63.862a2.3,2.3,0,1,0-2.3,2.26,2.3,2.3,0,0,0,2.3-2.26" transform="translate(91.204 -40.689)" fill="#1e3a8a"/>
          <path id="Trazado_194843" data-name="Trazado 194843" d="M70.788,63.862a2.3,2.3,0,1,0-2.3,2.26,2.3,2.3,0,0,0,2.3-2.26" transform="translate(104.234 -40.689)" fill="#1e3a8a"/>
          <path id="Trazado_194844" data-name="Trazado 194844" d="M4.609,72.139a2.284,2.284,0,0,0-2.3-2.26,2.26,2.26,0,0,0,0,4.52,2.284,2.284,0,0,0,2.3-2.26" transform="translate(-0.002 -28.054)" fill="#1e3a8a"/>
          <path id="Trazado_194845" data-name="Trazado 194845" d="M12.879,72.135a2.3,2.3,0,1,0-2.3,2.26,2.3,2.3,0,0,0,2.3-2.26" transform="translate(13.028 -28.049)" fill="#1e3a8a"/>
          <path id="Trazado_194846" data-name="Trazado 194846" d="M21.152,72.135a2.3,2.3,0,1,0-2.3,2.26,2.3,2.3,0,0,0,2.3-2.26" transform="translate(26.059 -28.049)" fill="#1e3a8a"/>
          <path id="Trazado_194847" data-name="Trazado 194847" d="M29.425,72.135a2.3,2.3,0,1,0-2.3,2.26,2.3,2.3,0,0,0,2.3-2.26" transform="translate(39.088 -28.049)" fill="#1e3a8a"/>
          <path id="Trazado_194848" data-name="Trazado 194848" d="M37.7,72.135a2.3,2.3,0,1,0-2.3,2.26,2.3,2.3,0,0,0,2.3-2.26" transform="translate(52.116 -28.049)" fill="#1e3a8a"/>
          <path id="Trazado_194849" data-name="Trazado 194849" d="M45.966,72.135a2.3,2.3,0,1,0-2.3,2.26,2.3,2.3,0,0,0,2.3-2.26" transform="translate(65.146 -28.049)" fill="#1e3a8a"/>
          <path id="Trazado_194850" data-name="Trazado 194850" d="M54.242,72.135a2.3,2.3,0,1,0-2.3,2.26,2.3,2.3,0,0,0,2.3-2.26" transform="translate(78.175 -28.049)" fill="#1e3a8a"/>
          <path id="Trazado_194851" data-name="Trazado 194851" d="M62.515,72.135a2.3,2.3,0,1,0-2.3,2.26,2.3,2.3,0,0,0,2.3-2.26" transform="translate(91.204 -28.049)" fill="#1e3a8a"/>
          <path id="Trazado_194852" data-name="Trazado 194852" d="M70.788,72.135a2.3,2.3,0,1,0-2.3,2.26,2.3,2.3,0,0,0,2.3-2.26" transform="translate(104.234 -28.049)" fill="#1e3a8a"/>
          <path id="Trazado_194853" data-name="Trazado 194853" d="M4.609,80.411a2.284,2.284,0,0,0-2.3-2.26,2.26,2.26,0,0,0,0,4.52,2.284,2.284,0,0,0,2.3-2.26" transform="translate(-0.002 -15.416)" fill="#1e3a8a"/>
          <path id="Trazado_194854" data-name="Trazado 194854" d="M12.879,80.407a2.3,2.3,0,1,0-2.3,2.259,2.3,2.3,0,0,0,2.3-2.259" transform="translate(13.028 -15.411)" fill="#1e3a8a"/>
          <path id="Trazado_194855" data-name="Trazado 194855" d="M21.152,80.407a2.3,2.3,0,1,0-2.3,2.259,2.3,2.3,0,0,0,2.3-2.259" transform="translate(26.059 -15.411)" fill="#1e3a8a"/>
          <path id="Trazado_194856" data-name="Trazado 194856" d="M29.425,80.407a2.3,2.3,0,1,0-2.3,2.259,2.3,2.3,0,0,0,2.3-2.259" transform="translate(39.088 -15.411)" fill="#1e3a8a"/>
          <path id="Trazado_194857" data-name="Trazado 194857" d="M37.7,80.407a2.3,2.3,0,1,0-2.3,2.259,2.3,2.3,0,0,0,2.3-2.259" transform="translate(52.116 -15.411)" fill="#1e3a8a"/>
          <path id="Trazado_194858" data-name="Trazado 194858" d="M45.966,80.407a2.3,2.3,0,1,0-2.3,2.259,2.3,2.3,0,0,0,2.3-2.259" transform="translate(65.146 -15.411)" fill="#1e3a8a"/>
          <path id="Trazado_194859" data-name="Trazado 194859" d="M54.242,80.407a2.3,2.3,0,1,0-2.3,2.259,2.3,2.3,0,0,0,2.3-2.259" transform="translate(78.175 -15.411)" fill="#1e3a8a"/>
          <path id="Trazado_194860" data-name="Trazado 194860" d="M62.515,80.407a2.3,2.3,0,1,0-2.3,2.259,2.3,2.3,0,0,0,2.3-2.259" transform="translate(91.204 -15.411)" fill="#1e3a8a"/>
          <path id="Trazado_194861" data-name="Trazado 194861" d="M70.788,80.407a2.3,2.3,0,1,0-2.3,2.259,2.3,2.3,0,0,0,2.3-2.259" transform="translate(104.234 -15.411)" fill="#1e3a8a"/>
          <path id="Trazado_194862" data-name="Trazado 194862" d="M4.605,88.685a2.284,2.284,0,0,0-2.3-2.26,2.262,2.262,0,1,0,0,4.522,2.284,2.284,0,0,0,2.3-2.262" transform="translate(0.001 -2.776)" fill="#1e3a8a"/>
          <path id="Trazado_194863" data-name="Trazado 194863" d="M12.879,88.681a2.3,2.3,0,1,0-2.3,2.262,2.3,2.3,0,0,0,2.3-2.262" transform="translate(13.028 -2.771)" fill="#1e3a8a"/>
          <path id="Trazado_194864" data-name="Trazado 194864" d="M21.152,88.681a2.3,2.3,0,1,0-2.3,2.262,2.3,2.3,0,0,0,2.3-2.262" transform="translate(26.059 -2.771)" fill="#1e3a8a"/>
          <path id="Trazado_194865" data-name="Trazado 194865" d="M29.425,88.681a2.3,2.3,0,1,0-2.3,2.262,2.3,2.3,0,0,0,2.3-2.262" transform="translate(39.088 -2.771)" fill="#1e3a8a"/>
          <path id="Trazado_194866" data-name="Trazado 194866" d="M37.7,88.681a2.3,2.3,0,1,0-2.3,2.262,2.3,2.3,0,0,0,2.3-2.262" transform="translate(52.116 -2.771)" fill="#1e3a8a"/>
          <path id="Trazado_194867" data-name="Trazado 194867" d="M45.966,88.681a2.3,2.3,0,1,0-2.3,2.262,2.3,2.3,0,0,0,2.3-2.262" transform="translate(65.146 -2.771)" fill="#1e3a8a"/>
          <path id="Trazado_194868" data-name="Trazado 194868" d="M54.242,88.681a2.3,2.3,0,1,0-2.3,2.262,2.3,2.3,0,0,0,2.3-2.262" transform="translate(78.175 -2.771)" fill="#1e3a8a"/>
          <path id="Trazado_194869" data-name="Trazado 194869" d="M62.515,88.681a2.3,2.3,0,1,0-2.3,2.262,2.3,2.3,0,0,0,2.3-2.262" transform="translate(91.204 -2.771)" fill="#1e3a8a"/>
          <path id="Trazado_194870" data-name="Trazado 194870" d="M70.788,88.681a2.3,2.3,0,1,0-2.3,2.261,2.3,2.3,0,0,0,2.3-2.261" transform="translate(104.234 -2.771)" fill="#1e3a8a"/>
          <path id="Trazado_194871" data-name="Trazado 194871" d="M4.609,96.957a2.284,2.284,0,0,0-2.3-2.257,2.26,2.26,0,0,0,0,4.52,2.284,2.284,0,0,0,2.3-2.26" transform="translate(-0.002 9.864)" fill="#1e3a8a"/>
          <path id="Trazado_194872" data-name="Trazado 194872" d="M12.879,96.953a2.3,2.3,0,1,0-2.3,2.26,2.3,2.3,0,0,0,2.3-2.26" transform="translate(13.028 9.869)" fill="#1e3a8a"/>
          <path id="Trazado_194873" data-name="Trazado 194873" d="M21.152,96.953a2.3,2.3,0,1,0-2.3,2.26,2.3,2.3,0,0,0,2.3-2.26" transform="translate(26.059 9.869)" fill="#1e3a8a"/>
          <path id="Trazado_194874" data-name="Trazado 194874" d="M29.425,96.953a2.3,2.3,0,1,0-2.3,2.26,2.3,2.3,0,0,0,2.3-2.26" transform="translate(39.088 9.869)" fill="#1e3a8a"/>
          <path id="Trazado_194875" data-name="Trazado 194875" d="M37.7,96.953a2.3,2.3,0,1,0-2.3,2.26,2.3,2.3,0,0,0,2.3-2.26" transform="translate(52.116 9.869)" fill="#1e3a8a"/>
          <path id="Trazado_194876" data-name="Trazado 194876" d="M45.966,96.953a2.3,2.3,0,1,0-2.3,2.26,2.3,2.3,0,0,0,2.3-2.26" transform="translate(65.146 9.869)" fill="#1e3a8a"/>
          <path id="Trazado_194877" data-name="Trazado 194877" d="M54.242,96.953a2.3,2.3,0,1,0-2.3,2.26,2.3,2.3,0,0,0,2.3-2.26" transform="translate(78.175 9.869)" fill="#1e3a8a"/>
          <path id="Trazado_194878" data-name="Trazado 194878" d="M62.515,96.953a2.3,2.3,0,1,0-2.3,2.26,2.3,2.3,0,0,0,2.3-2.26" transform="translate(91.204 9.869)" fill="#1e3a8a"/>
          <path id="Trazado_194879" data-name="Trazado 194879" d="M70.788,96.953a2.3,2.3,0,1,0-2.3,2.26,2.3,2.3,0,0,0,2.3-2.26" transform="translate(104.234 9.869)" fill="#1e3a8a"/>
          <path id="Trazado_194880" data-name="Trazado 194880" d="M4.609,105.229a2.284,2.284,0,0,0-2.3-2.26,2.26,2.26,0,1,0,0,4.52,2.284,2.284,0,0,0,2.3-2.26" transform="translate(-0.002 22.503)" fill="#1e3a8a"/>
          <path id="Trazado_194881" data-name="Trazado 194881" d="M12.879,105.225a2.3,2.3,0,1,0-2.3,2.26,2.3,2.3,0,0,0,2.3-2.26" transform="translate(13.028 22.507)" fill="#1e3a8a"/>
          <path id="Trazado_194882" data-name="Trazado 194882" d="M21.152,105.225a2.3,2.3,0,1,0-2.3,2.26,2.3,2.3,0,0,0,2.3-2.26" transform="translate(26.059 22.507)" fill="#1e3a8a"/>
          <path id="Trazado_194883" data-name="Trazado 194883" d="M29.425,105.225a2.3,2.3,0,1,0-2.3,2.26,2.3,2.3,0,0,0,2.3-2.26" transform="translate(39.088 22.507)" fill="#1e3a8a"/>
          <path id="Trazado_194884" data-name="Trazado 194884" d="M37.7,105.225a2.3,2.3,0,1,0-2.3,2.26,2.3,2.3,0,0,0,2.3-2.26" transform="translate(52.116 22.507)" fill="#1e3a8a"/>
          <path id="Trazado_194885" data-name="Trazado 194885" d="M45.966,105.225a2.3,2.3,0,1,0-2.3,2.26,2.3,2.3,0,0,0,2.3-2.26" transform="translate(65.146 22.507)" fill="#1e3a8a"/>
          <path id="Trazado_194886" data-name="Trazado 194886" d="M54.242,105.225a2.3,2.3,0,1,0-2.3,2.26,2.3,2.3,0,0,0,2.3-2.26" transform="translate(78.175 22.507)" fill="#1e3a8a"/>
          <path id="Trazado_194887" data-name="Trazado 194887" d="M62.515,105.225a2.3,2.3,0,1,0-2.3,2.26,2.3,2.3,0,0,0,2.3-2.26" transform="translate(91.204 22.507)" fill="#1e3a8a"/>
          <path id="Trazado_194888" data-name="Trazado 194888" d="M70.788,105.225a2.3,2.3,0,1,0-2.3,2.26,2.3,2.3,0,0,0,2.3-2.26" transform="translate(104.234 22.507)" fill="#1e3a8a"/>
          <path id="Trazado_194889" data-name="Trazado 194889" d="M4.609,113.5a2.284,2.284,0,0,0-2.3-2.26,2.26,2.26,0,0,0,0,4.52,2.284,2.284,0,0,0,2.3-2.26" transform="translate(-0.002 35.142)" fill="#1e3a8a"/>
          <path id="Trazado_194890" data-name="Trazado 194890" d="M12.879,113.5a2.3,2.3,0,1,0-2.3,2.26,2.3,2.3,0,0,0,2.3-2.26" transform="translate(13.028 35.146)" fill="#1e3a8a"/>
          <path id="Trazado_194891" data-name="Trazado 194891" d="M21.152,113.5a2.3,2.3,0,1,0-2.3,2.26,2.3,2.3,0,0,0,2.3-2.26" transform="translate(26.059 35.146)" fill="#1e3a8a"/>
          <path id="Trazado_194892" data-name="Trazado 194892" d="M29.425,113.5a2.3,2.3,0,1,0-2.3,2.26,2.3,2.3,0,0,0,2.3-2.26" transform="translate(39.088 35.146)" fill="#1e3a8a"/>
          <path id="Trazado_194893" data-name="Trazado 194893" d="M37.7,113.5a2.3,2.3,0,1,0-2.3,2.26,2.3,2.3,0,0,0,2.3-2.26" transform="translate(52.116 35.146)" fill="#1e3a8a"/>
          <path id="Trazado_194894" data-name="Trazado 194894" d="M45.966,113.5a2.3,2.3,0,1,0-2.3,2.26,2.3,2.3,0,0,0,2.3-2.26" transform="translate(65.146 35.146)" fill="#1e3a8a"/>
          <path id="Trazado_194895" data-name="Trazado 194895" d="M54.242,113.5a2.3,2.3,0,1,0-2.3,2.26,2.3,2.3,0,0,0,2.3-2.26" transform="translate(78.175 35.146)" fill="#1e3a8a"/>
          <path id="Trazado_194896" data-name="Trazado 194896" d="M62.515,113.5a2.3,2.3,0,1,0-2.3,2.26,2.3,2.3,0,0,0,2.3-2.26" transform="translate(91.204 35.146)" fill="#1e3a8a"/>
          <path id="Trazado_194897" data-name="Trazado 194897" d="M70.788,113.5a2.3,2.3,0,1,0-2.3,2.26,2.3,2.3,0,0,0,2.3-2.26" transform="translate(104.234 35.146)" fill="#1e3a8a"/>
          <path id="Trazado_194898" data-name="Trazado 194898" d="M4.609,121.774a2.284,2.284,0,0,0-2.3-2.26,2.26,2.26,0,0,0,0,4.52,2.284,2.284,0,0,0,2.3-2.26" transform="translate(-0.002 47.78)" fill="#1e3a8a"/>
          <path id="Trazado_194899" data-name="Trazado 194899" d="M12.879,121.77a2.3,2.3,0,1,0-2.3,2.26,2.3,2.3,0,0,0,2.3-2.26" transform="translate(13.028 47.784)" fill="#1e3a8a"/>
          <path id="Trazado_194900" data-name="Trazado 194900" d="M21.152,121.77a2.3,2.3,0,1,0-2.3,2.26,2.3,2.3,0,0,0,2.3-2.26" transform="translate(26.059 47.784)" fill="#1e3a8a"/>
          <path id="Trazado_194901" data-name="Trazado 194901" d="M29.425,121.77a2.3,2.3,0,1,0-2.3,2.26,2.3,2.3,0,0,0,2.3-2.26" transform="translate(39.088 47.784)" fill="#1e3a8a"/>
          <path id="Trazado_194902" data-name="Trazado 194902" d="M37.7,121.77a2.3,2.3,0,1,0-2.3,2.26,2.3,2.3,0,0,0,2.3-2.26" transform="translate(52.116 47.784)" fill="#1e3a8a"/>
          <path id="Trazado_194903" data-name="Trazado 194903" d="M45.966,121.77a2.3,2.3,0,1,0-2.3,2.26,2.3,2.3,0,0,0,2.3-2.26" transform="translate(65.146 47.784)" fill="#1e3a8a"/>
          <path id="Trazado_194904" data-name="Trazado 194904" d="M54.242,121.77a2.3,2.3,0,1,0-2.3,2.26,2.3,2.3,0,0,0,2.3-2.26" transform="translate(78.175 47.784)" fill="#1e3a8a"/>
          <path id="Trazado_194905" data-name="Trazado 194905" d="M62.515,121.77a2.3,2.3,0,1,0-2.3,2.26,2.3,2.3,0,0,0,2.3-2.26" transform="translate(91.204 47.784)" fill="#1e3a8a"/>
          <path id="Trazado_194906" data-name="Trazado 194906" d="M70.788,121.77a2.3,2.3,0,1,0-2.3,2.26,2.3,2.3,0,0,0,2.3-2.26" transform="translate(104.234 47.784)" fill="#1e3a8a"/>
        </g>
      </g>
      <g id="Grupo_154805" data-name="Grupo 154805" transform="translate(148.638 0)">
        <g id="Grupo_152768-2" data-name="Grupo 152768" transform="translate(0)" clip-path="url(#clip-path-2)">
          <path id="Trazado_194826-2" data-name="Trazado 194826" d="M2.228,54.443a1.113,1.113,0,1,0-1.113,1.114,1.113,1.113,0,0,0,1.113-1.114" transform="translate(0 -53.333)" fill="#7f4fc7"/>
          <path id="Trazado_194827-2" data-name="Trazado 194827" d="M10.5,54.443a1.113,1.113,0,1,0-1.113,1.114A1.113,1.113,0,0,0,10.5,54.443" transform="translate(2.028 -53.333)" fill="#7f4fc7"/>
          <path id="Trazado_194828-2" data-name="Trazado 194828" d="M18.773,54.443a1.113,1.113,0,1,0-1.113,1.114,1.113,1.113,0,0,0,1.113-1.114" transform="translate(4.056 -53.333)" fill="#7f4fc7"/>
          <path id="Trazado_194829-2" data-name="Trazado 194829" d="M27.046,54.443a1.113,1.113,0,1,0-1.113,1.114,1.113,1.113,0,0,0,1.113-1.114" transform="translate(6.083 -53.333)" fill="#7f4fc7"/>
          <path id="Trazado_194830-2" data-name="Trazado 194830" d="M35.318,54.443A1.113,1.113,0,1,0,34.2,55.558a1.113,1.113,0,0,0,1.113-1.114" transform="translate(8.111 -53.333)" fill="#7f4fc7"/>
          <path id="Trazado_194831-2" data-name="Trazado 194831" d="M43.587,54.443a1.113,1.113,0,1,0-1.113,1.114,1.113,1.113,0,0,0,1.113-1.114" transform="translate(10.139 -53.333)" fill="#7f4fc7"/>
          <path id="Trazado_194832-2" data-name="Trazado 194832" d="M51.863,54.443a1.113,1.113,0,1,0-1.113,1.114,1.113,1.113,0,0,0,1.113-1.114" transform="translate(12.167 -53.333)" fill="#7f4fc7"/>
          <path id="Trazado_194833-2" data-name="Trazado 194833" d="M60.136,54.443a1.113,1.113,0,1,0-1.113,1.114,1.113,1.113,0,0,0,1.113-1.114" transform="translate(14.194 -53.333)" fill="#7f4fc7"/>
          <path id="Trazado_194834-2" data-name="Trazado 194834" d="M68.409,54.443A1.113,1.113,0,1,0,67.3,55.558a1.113,1.113,0,0,0,1.113-1.114" transform="translate(16.222 -53.333)" fill="#7f4fc7"/>
          <path id="Trazado_194835-2" data-name="Trazado 194835" d="M2.228,62.719a1.112,1.112,0,1,0-.326.788,1.113,1.113,0,0,0,.326-.788" transform="translate(0 -51.305)" fill="#7f4fc7"/>
          <path id="Trazado_194836-2" data-name="Trazado 194836" d="M10.5,62.719a1.112,1.112,0,1,0-.326.788,1.113,1.113,0,0,0,.326-.788" transform="translate(2.028 -51.305)" fill="#7f4fc7"/>
          <path id="Trazado_194837-2" data-name="Trazado 194837" d="M18.773,62.719a1.112,1.112,0,1,0-.326.788,1.113,1.113,0,0,0,.326-.788" transform="translate(4.056 -51.305)" fill="#7f4fc7"/>
          <path id="Trazado_194838-2" data-name="Trazado 194838" d="M27.046,62.719a1.112,1.112,0,1,0-.326.788,1.113,1.113,0,0,0,.326-.788" transform="translate(6.083 -51.305)" fill="#7f4fc7"/>
          <path id="Trazado_194839-2" data-name="Trazado 194839" d="M35.318,62.719a1.112,1.112,0,1,0-.326.788,1.113,1.113,0,0,0,.326-.788" transform="translate(8.111 -51.305)" fill="#7f4fc7"/>
          <path id="Trazado_194840-2" data-name="Trazado 194840" d="M43.587,62.719a1.112,1.112,0,1,0-.326.788,1.113,1.113,0,0,0,.326-.788" transform="translate(10.139 -51.305)" fill="#7f4fc7"/>
          <path id="Trazado_194841-2" data-name="Trazado 194841" d="M51.863,62.719a1.112,1.112,0,1,0-.326.788,1.113,1.113,0,0,0,.326-.788" transform="translate(12.167 -51.305)" fill="#7f4fc7"/>
          <path id="Trazado_194842-2" data-name="Trazado 194842" d="M60.136,62.719a1.113,1.113,0,1,0-1.113,1.113,1.113,1.113,0,0,0,1.113-1.113" transform="translate(14.194 -51.305)" fill="#7f4fc7"/>
          <path id="Trazado_194843-2" data-name="Trazado 194843" d="M68.409,62.719a1.112,1.112,0,1,0-.326.788,1.113,1.113,0,0,0,.326-.788" transform="translate(16.222 -51.305)" fill="#7f4fc7"/>
          <path id="Trazado_194844-2" data-name="Trazado 194844" d="M2.228,70.992a1.112,1.112,0,1,0-.326.788,1.113,1.113,0,0,0,.326-.788" transform="translate(0 -49.277)" fill="#7f4fc7"/>
          <path id="Trazado_194845-2" data-name="Trazado 194845" d="M10.5,70.992a1.112,1.112,0,1,0-.326.788,1.113,1.113,0,0,0,.326-.788" transform="translate(2.028 -49.277)" fill="#7f4fc7"/>
          <path id="Trazado_194846-2" data-name="Trazado 194846" d="M18.773,70.992a1.112,1.112,0,1,0-.326.788,1.113,1.113,0,0,0,.326-.788" transform="translate(4.056 -49.277)" fill="#7f4fc7"/>
          <path id="Trazado_194847-2" data-name="Trazado 194847" d="M27.046,70.992a1.112,1.112,0,1,0-.326.788,1.113,1.113,0,0,0,.326-.788" transform="translate(6.083 -49.277)" fill="#7f4fc7"/>
          <path id="Trazado_194848-2" data-name="Trazado 194848" d="M35.318,70.992a1.112,1.112,0,1,0-.326.788,1.113,1.113,0,0,0,.326-.788" transform="translate(8.111 -49.277)" fill="#7f4fc7"/>
          <path id="Trazado_194849-2" data-name="Trazado 194849" d="M43.587,70.992a1.112,1.112,0,1,0-.326.788,1.113,1.113,0,0,0,.326-.788" transform="translate(10.139 -49.277)" fill="#7f4fc7"/>
          <path id="Trazado_194850-2" data-name="Trazado 194850" d="M51.863,70.992a1.112,1.112,0,1,0-.326.788,1.113,1.113,0,0,0,.326-.788" transform="translate(12.167 -49.277)" fill="#7f4fc7"/>
          <path id="Trazado_194851-2" data-name="Trazado 194851" d="M60.136,70.992a1.113,1.113,0,1,0-1.113,1.113,1.113,1.113,0,0,0,1.113-1.113" transform="translate(14.194 -49.277)" fill="#7f4fc7"/>
          <path id="Trazado_194852-2" data-name="Trazado 194852" d="M68.409,70.992a1.112,1.112,0,1,0-.326.788,1.113,1.113,0,0,0,.326-.788" transform="translate(16.222 -49.277)" fill="#7f4fc7"/>
          <path id="Trazado_194853-2" data-name="Trazado 194853" d="M2.228,79.264a1.112,1.112,0,1,0-.326.788,1.113,1.113,0,0,0,.326-.788" transform="translate(0 -47.25)" fill="#7f4fc7"/>
          <path id="Trazado_194854-2" data-name="Trazado 194854" d="M10.5,79.264a1.112,1.112,0,1,0-.326.788,1.113,1.113,0,0,0,.326-.788" transform="translate(2.028 -47.25)" fill="#7f4fc7"/>
          <path id="Trazado_194855-2" data-name="Trazado 194855" d="M18.773,79.264a1.112,1.112,0,1,0-.326.788,1.113,1.113,0,0,0,.326-.788" transform="translate(4.056 -47.25)" fill="#7f4fc7"/>
          <path id="Trazado_194856-2" data-name="Trazado 194856" d="M27.046,79.264a1.112,1.112,0,1,0-.326.788,1.113,1.113,0,0,0,.326-.788" transform="translate(6.083 -47.25)" fill="#7f4fc7"/>
          <path id="Trazado_194857-2" data-name="Trazado 194857" d="M35.318,79.264a1.112,1.112,0,1,0-.326.788,1.113,1.113,0,0,0,.326-.788" transform="translate(8.111 -47.25)" fill="#7f4fc7"/>
          <path id="Trazado_194858-2" data-name="Trazado 194858" d="M43.587,79.264a1.112,1.112,0,1,0-.326.788,1.113,1.113,0,0,0,.326-.788" transform="translate(10.139 -47.25)" fill="#7f4fc7"/>
          <path id="Trazado_194859-2" data-name="Trazado 194859" d="M51.863,79.264a1.112,1.112,0,1,0-.326.788,1.113,1.113,0,0,0,.326-.788" transform="translate(12.167 -47.25)" fill="#7f4fc7"/>
          <path id="Trazado_194860-2" data-name="Trazado 194860" d="M60.136,79.264a1.113,1.113,0,1,0-1.113,1.113,1.113,1.113,0,0,0,1.113-1.113" transform="translate(14.194 -47.25)" fill="#7f4fc7"/>
          <path id="Trazado_194861-2" data-name="Trazado 194861" d="M68.409,79.264a1.112,1.112,0,1,0-.326.788,1.113,1.113,0,0,0,.326-.788" transform="translate(16.222 -47.25)" fill="#7f4fc7"/>
          <path id="Trazado_194862-2" data-name="Trazado 194862" d="M2.228,87.537a1.112,1.112,0,1,0-.325.788,1.113,1.113,0,0,0,.325-.788" transform="translate(0 -45.222)" fill="#7f4fc7"/>
          <path id="Trazado_194863-2" data-name="Trazado 194863" d="M10.5,87.537a1.112,1.112,0,1,0-.325.788,1.113,1.113,0,0,0,.325-.788" transform="translate(2.028 -45.222)" fill="#7f4fc7"/>
          <path id="Trazado_194864-2" data-name="Trazado 194864" d="M18.773,87.537a1.112,1.112,0,1,0-.325.788,1.113,1.113,0,0,0,.325-.788" transform="translate(4.056 -45.222)" fill="#7f4fc7"/>
          <path id="Trazado_194865-2" data-name="Trazado 194865" d="M27.046,87.537a1.112,1.112,0,1,0-.325.788,1.113,1.113,0,0,0,.325-.788" transform="translate(6.083 -45.222)" fill="#7f4fc7"/>
          <path id="Trazado_194866-2" data-name="Trazado 194866" d="M35.318,87.537a1.112,1.112,0,1,0-.325.788,1.113,1.113,0,0,0,.325-.788" transform="translate(8.111 -45.222)" fill="#7f4fc7"/>
          <path id="Trazado_194867-2" data-name="Trazado 194867" d="M43.587,87.537a1.112,1.112,0,1,0-.325.788,1.113,1.113,0,0,0,.325-.788" transform="translate(10.139 -45.222)" fill="#7f4fc7"/>
          <path id="Trazado_194868-2" data-name="Trazado 194868" d="M51.863,87.537a1.112,1.112,0,1,0-.325.788,1.113,1.113,0,0,0,.325-.788" transform="translate(12.167 -45.222)" fill="#7f4fc7"/>
          <path id="Trazado_194869-2" data-name="Trazado 194869" d="M60.136,87.537a1.113,1.113,0,1,0-1.113,1.114,1.113,1.113,0,0,0,1.113-1.114" transform="translate(14.194 -45.222)" fill="#7f4fc7"/>
          <path id="Trazado_194870-2" data-name="Trazado 194870" d="M68.409,87.537a1.112,1.112,0,1,0-.325.788,1.113,1.113,0,0,0,.325-.788" transform="translate(16.222 -45.222)" fill="#7f4fc7"/>
          <path id="Trazado_194871-2" data-name="Trazado 194871" d="M2.228,95.81A1.112,1.112,0,1,0,1.9,96.6a1.113,1.113,0,0,0,.326-.788" transform="translate(0 -43.194)" fill="#7f4fc7"/>
          <path id="Trazado_194872-2" data-name="Trazado 194872" d="M10.5,95.81a1.112,1.112,0,1,0-.326.788,1.113,1.113,0,0,0,.326-.788" transform="translate(2.028 -43.194)" fill="#7f4fc7"/>
          <path id="Trazado_194873-2" data-name="Trazado 194873" d="M18.773,95.81a1.112,1.112,0,1,0-.326.788,1.113,1.113,0,0,0,.326-.788" transform="translate(4.056 -43.194)" fill="#7f4fc7"/>
          <path id="Trazado_194874-2" data-name="Trazado 194874" d="M27.046,95.81a1.112,1.112,0,1,0-.326.788,1.113,1.113,0,0,0,.326-.788" transform="translate(6.083 -43.194)" fill="#7f4fc7"/>
          <path id="Trazado_194875-2" data-name="Trazado 194875" d="M35.318,95.81a1.112,1.112,0,1,0-.326.788,1.113,1.113,0,0,0,.326-.788" transform="translate(8.111 -43.194)" fill="#7f4fc7"/>
          <path id="Trazado_194876-2" data-name="Trazado 194876" d="M43.587,95.81a1.112,1.112,0,1,0-.326.788,1.113,1.113,0,0,0,.326-.788" transform="translate(10.139 -43.194)" fill="#7f4fc7"/>
          <path id="Trazado_194877-2" data-name="Trazado 194877" d="M51.863,95.81a1.112,1.112,0,1,0-.326.788,1.113,1.113,0,0,0,.326-.788" transform="translate(12.167 -43.194)" fill="#7f4fc7"/>
          <path id="Trazado_194878-2" data-name="Trazado 194878" d="M60.136,95.81a1.113,1.113,0,1,0-1.113,1.113,1.113,1.113,0,0,0,1.113-1.113" transform="translate(14.194 -43.194)" fill="#7f4fc7"/>
          <path id="Trazado_194879-2" data-name="Trazado 194879" d="M68.409,95.81a1.112,1.112,0,1,0-.326.788,1.113,1.113,0,0,0,.326-.788" transform="translate(16.222 -43.194)" fill="#7f4fc7"/>
          <path id="Trazado_194880-2" data-name="Trazado 194880" d="M2.228,104.082a1.112,1.112,0,1,0-.326.788,1.113,1.113,0,0,0,.326-.788" transform="translate(0 -41.166)" fill="#7f4fc7"/>
          <path id="Trazado_194881-2" data-name="Trazado 194881" d="M10.5,104.082a1.112,1.112,0,1,0-.326.788,1.113,1.113,0,0,0,.326-.788" transform="translate(2.028 -41.166)" fill="#7f4fc7"/>
          <path id="Trazado_194882-2" data-name="Trazado 194882" d="M18.773,104.082a1.112,1.112,0,1,0-.326.788,1.113,1.113,0,0,0,.326-.788" transform="translate(4.056 -41.166)" fill="#7f4fc7"/>
          <path id="Trazado_194883-2" data-name="Trazado 194883" d="M27.046,104.082a1.112,1.112,0,1,0-.326.788,1.113,1.113,0,0,0,.326-.788" transform="translate(6.083 -41.166)" fill="#7f4fc7"/>
          <path id="Trazado_194884-2" data-name="Trazado 194884" d="M35.318,104.082a1.112,1.112,0,1,0-.326.788,1.113,1.113,0,0,0,.326-.788" transform="translate(8.111 -41.166)" fill="#7f4fc7"/>
          <path id="Trazado_194885-2" data-name="Trazado 194885" d="M43.587,104.082a1.112,1.112,0,1,0-.326.788,1.113,1.113,0,0,0,.326-.788" transform="translate(10.139 -41.166)" fill="#7f4fc7"/>
          <path id="Trazado_194886-2" data-name="Trazado 194886" d="M51.863,104.082a1.112,1.112,0,1,0-.326.788,1.113,1.113,0,0,0,.326-.788" transform="translate(12.167 -41.166)" fill="#7f4fc7"/>
          <path id="Trazado_194887-2" data-name="Trazado 194887" d="M60.136,104.082a1.113,1.113,0,1,0-1.113,1.113,1.113,1.113,0,0,0,1.113-1.113" transform="translate(14.194 -41.166)" fill="#7f4fc7"/>
          <path id="Trazado_194888-2" data-name="Trazado 194888" d="M68.409,104.082a1.112,1.112,0,1,0-.326.788,1.113,1.113,0,0,0,.326-.788" transform="translate(16.222 -41.166)" fill="#7f4fc7"/>
          <path id="Trazado_194889-2" data-name="Trazado 194889" d="M2.228,112.355a1.112,1.112,0,1,0-.326.788,1.113,1.113,0,0,0,.326-.788" transform="translate(0 -39.138)" fill="#7f4fc7"/>
          <path id="Trazado_194890-2" data-name="Trazado 194890" d="M10.5,112.355a1.112,1.112,0,1,0-.326.788,1.113,1.113,0,0,0,.326-.788" transform="translate(2.028 -39.138)" fill="#7f4fc7"/>
          <path id="Trazado_194891-2" data-name="Trazado 194891" d="M18.773,112.355a1.112,1.112,0,1,0-.326.788,1.113,1.113,0,0,0,.326-.788" transform="translate(4.056 -39.138)" fill="#7f4fc7"/>
          <path id="Trazado_194892-2" data-name="Trazado 194892" d="M27.046,112.355a1.112,1.112,0,1,0-.326.788,1.113,1.113,0,0,0,.326-.788" transform="translate(6.083 -39.138)" fill="#7f4fc7"/>
          <path id="Trazado_194893-2" data-name="Trazado 194893" d="M35.318,112.355a1.112,1.112,0,1,0-.326.788,1.113,1.113,0,0,0,.326-.788" transform="translate(8.111 -39.138)" fill="#7f4fc7"/>
          <path id="Trazado_194894-2" data-name="Trazado 194894" d="M43.587,112.355a1.112,1.112,0,1,0-.326.788,1.113,1.113,0,0,0,.326-.788" transform="translate(10.139 -39.138)" fill="#7f4fc7"/>
          <path id="Trazado_194895-2" data-name="Trazado 194895" d="M51.863,112.355a1.112,1.112,0,1,0-.326.788,1.113,1.113,0,0,0,.326-.788" transform="translate(12.167 -39.138)" fill="#7f4fc7"/>
          <path id="Trazado_194896-2" data-name="Trazado 194896" d="M60.136,112.355a1.113,1.113,0,1,0-1.113,1.113,1.113,1.113,0,0,0,1.113-1.113" transform="translate(14.194 -39.138)" fill="#7f4fc7"/>
          <path id="Trazado_194897-2" data-name="Trazado 194897" d="M68.409,112.355a1.112,1.112,0,1,0-.326.788,1.113,1.113,0,0,0,.326-.788" transform="translate(16.222 -39.138)" fill="#7f4fc7"/>
          <path id="Trazado_194898-2" data-name="Trazado 194898" d="M2.228,120.627a1.112,1.112,0,1,0-.326.788,1.113,1.113,0,0,0,.326-.788" transform="translate(0 -37.111)" fill="#7f4fc7"/>
          <path id="Trazado_194899-2" data-name="Trazado 194899" d="M10.5,120.627a1.112,1.112,0,1,0-.326.788,1.113,1.113,0,0,0,.326-.788" transform="translate(2.028 -37.111)" fill="#7f4fc7"/>
          <path id="Trazado_194900-2" data-name="Trazado 194900" d="M18.773,120.627a1.112,1.112,0,1,0-.326.788,1.113,1.113,0,0,0,.326-.788" transform="translate(4.056 -37.111)" fill="#7f4fc7"/>
          <path id="Trazado_194901-2" data-name="Trazado 194901" d="M27.046,120.627a1.112,1.112,0,1,0-.326.788,1.113,1.113,0,0,0,.326-.788" transform="translate(6.083 -37.111)" fill="#7f4fc7"/>
          <path id="Trazado_194902-2" data-name="Trazado 194902" d="M35.318,120.627a1.112,1.112,0,1,0-.326.788,1.113,1.113,0,0,0,.326-.788" transform="translate(8.111 -37.111)" fill="#7f4fc7"/>
          <path id="Trazado_194903-2" data-name="Trazado 194903" d="M43.587,120.627a1.112,1.112,0,1,0-.326.788,1.113,1.113,0,0,0,.326-.788" transform="translate(10.139 -37.111)" fill="#7f4fc7"/>
          <path id="Trazado_194904-2" data-name="Trazado 194904" d="M51.863,120.627a1.112,1.112,0,1,0-.326.788,1.113,1.113,0,0,0,.326-.788" transform="translate(12.167 -37.111)" fill="#7f4fc7"/>
          <path id="Trazado_194905-2" data-name="Trazado 194905" d="M60.136,120.627a1.113,1.113,0,1,0-1.113,1.113,1.113,1.113,0,0,0,1.113-1.113" transform="translate(14.194 -37.111)" fill="#7f4fc7"/>
          <path id="Trazado_194906-2" data-name="Trazado 194906" d="M68.409,120.627a1.112,1.112,0,1,0-.326.788,1.113,1.113,0,0,0,.326-.788" transform="translate(16.222 -37.111)" fill="#7f4fc7"/>
        </g>
      </g>
      <g id="Grupo_155254" data-name="Grupo 155254" transform="translate(29.69 403.11)">
        <g id="Grupo_154318" data-name="Grupo 154318">
          <g id="Grupo_154315" data-name="Grupo 154315" transform="translate(32.747 9.551)">
            <path id="Trazado_195058" data-name="Trazado 195058" d="M14.017,225.789H54.543a1.523,1.523,0,0,0,0-3.038H14.017a1.523,1.523,0,1,0,0,3.038" transform="translate(-12.394 -222.747)" fill="#12263f"/>
            <path id="Trazado_195059" data-name="Trazado 195059" d="M83.974,225.789H94.206a1.523,1.523,0,0,0,0-3.038H83.974a1.523,1.523,0,1,0,0,3.038" transform="translate(-35.06 -222.747)" fill="#12263f"/>
            <path id="Trazado_195064" data-name="Trazado 195064" d="M112.811,232.612H84.346a1.067,1.067,0,1,0,0,2.134h28.469a1.067,1.067,0,1,0,0-2.134" transform="translate(-35.33 -225.943)" fill="#12263f"/>
            <path id="Trazado_195065" data-name="Trazado 195065" d="M73.867,232.612H66.681a1.067,1.067,0,1,0,0,2.134h7.186a1.067,1.067,0,1,0,0-2.134" transform="translate(-29.607 -225.943)" fill="#12263f"/>
          </g>
          <g id="Grupo_154316" data-name="Grupo 154316">
            <path id="Trazado_195062" data-name="Trazado 195062" d="M161.607,1.333H113.762c-.991,0-1.793.476-1.793,1.067s.8,1.068,1.793,1.068h47.845c.991,0,1.794-.476,1.794-1.068s-.8-1.067-1.794-1.067" transform="translate(-80.777 -1.333)" fill="#12263f"/>
            <path id="Trazado_195063" data-name="Trazado 195063" d="M115.873,1.333H97.1c-1.541,0-2.787.476-2.787,1.067S95.556,3.467,97.1,3.467h18.777c1.541,0,2.787-.476,2.787-1.068s-1.247-1.067-2.787-1.067" transform="translate(-94.309 -1.333)" fill="#12263f"/>
          </g>
        </g>
      </g>
      <g id="Grupo_154801" data-name="Grupo 154801" transform="translate(0.93 386.815)">
        <g id="Grupo_154721" data-name="Grupo 154721" clip-path="url(#clip-path-3)">
          <line id="Línea_1878" data-name="Línea 1878" x1="21.605" y2="101.839" transform="translate(61.14 29.463)" fill="none" stroke="#1e0b4a" stroke-linecap="round" stroke-linejoin="round" stroke-width="1.052"/>
          <path id="Trazado_196481" data-name="Trazado 196481" d="M238.009,274.732a8.116,8.116,0,1,1-8.116-8.116,8.116,8.116,0,0,1,8.116,8.116" transform="translate(-147.148 -245.268)" fill="#182e6e"/>
          <path id="Trazado_196482" data-name="Trazado 196482" d="M250.969,334.8c-8.993,25.883-37.317,39.553-37.317,39.553s-13.743-28.29-4.749-54.171,37.317-39.552,37.317-39.552,13.743,28.289,4.749,54.17" transform="translate(-144.709 -243.048)" fill="#12263f"/>
          <path id="Trazado_196483" data-name="Trazado 196483" d="M294.477,324.773c4.17,39.347-24.428,74.631-24.428,74.631s-35.357-28.508-39.526-67.855,24.429-74.631,24.429-74.631,35.356,28.508,39.525,67.855" transform="translate(-213.683 -246.805)" fill="#182e6e"/>
          <path id="Trazado_196484" data-name="Trazado 196484" d="M301.225,323.107A14.827,14.827,0,1,1,286.4,308.28a14.827,14.827,0,0,1,14.827,14.827" transform="translate(-268.053 -238.666)" fill="#12263f"/>
          <line id="Línea_1879" data-name="Línea 1879" x2="14.585" y2="137.648" transform="translate(41.781 14.95)" fill="none" stroke="#1e0b4a" stroke-linecap="round" stroke-linejoin="round" stroke-width="1.052"/>
          <line id="Línea_1880" data-name="Línea 1880" y1="17.929" x2="27.876" transform="translate(50.522 79.509)" fill="none" stroke="#1e0b4a" stroke-linecap="round" stroke-linejoin="round" stroke-width="1.052"/>
          <line id="Línea_1881" data-name="Línea 1881" x1="23.957" y1="12.551" transform="translate(22.858 49.911)" fill="none" stroke="#1e0b4a" stroke-linecap="round" stroke-linejoin="round" stroke-width="1.052"/>
          <line id="Línea_1882" data-name="Línea 1882" x2="26.068" y2="53.467" transform="translate(18.345 84.441)" fill="none" stroke="#1e0b4a" stroke-linecap="round" stroke-linejoin="round" stroke-width="1.052"/>
        </g>
      </g>
      <g id="Grupo_155255" data-name="Grupo 155255" transform="translate(0.931 23.371)">
        <g id="Grupo_154317" data-name="Grupo 154317">
          <g id="Grupo_154315-2" data-name="Grupo 154315" transform="translate(47.652 8.224)">
            <path id="Trazado_195058-2" data-name="Trazado 195058" d="M14.7,227.158H73.5a2.2,2.2,0,1,0,0-4.407H14.7a2.2,2.2,0,1,0,0,4.407" transform="translate(-12.5 -222.751)" fill="#0c1737"/>
            <path id="Trazado_195059-2" data-name="Trazado 195059" d="M84.665,227.158H99.51a2.2,2.2,0,1,0,0-4.407H84.665a2.2,2.2,0,1,0,0,4.407" transform="translate(-13.851 -222.751)" fill="#0c1737"/>
            <path id="Trazado_195064-2" data-name="Trazado 195064" d="M126.12,232.612h-41.3a1.548,1.548,0,1,0,0,3.1h41.3a1.548,1.548,0,0,0,0-3.1" transform="translate(-13.866 -222.941)" fill="#0c1737"/>
            <path id="Trazado_195065-2" data-name="Trazado 195065" d="M77.591,232.612H67.161a1.548,1.548,0,1,0,0,3.1H77.591a1.548,1.548,0,0,0,0-3.1" transform="translate(-13.525 -222.941)" fill="#0c1737"/>
          </g>
          <g id="Grupo_154316-2" data-name="Grupo 154316">
            <path id="Trazado_195062-2" data-name="Trazado 195062" d="M183.977,1.333h-69.41c-1.437,0-2.6.694-2.6,1.547s1.164,1.548,2.6,1.548h69.408c1.437,0,2.6-.694,2.6-1.548s-1.166-1.547-2.6-1.547" transform="translate(-66.719 -1.333)" fill="#0c1737"/>
            <path id="Trazado_195063-2" data-name="Trazado 195063" d="M125.591,1.333H98.352c-2.234,0-4.043.694-4.043,1.547s1.808,1.548,4.043,1.548h27.239c2.234,0,4.043-.694,4.043-1.548s-1.808-1.547-4.043-1.547" transform="translate(-94.309 -1.333)" fill="#0c1737"/>
          </g>
        </g>
      </g>
      <g id="Grupo_155256" data-name="Grupo 155256" transform="translate(200.263 155.617)">
        <rect id="Rectángulo_45220" data-name="Rectángulo 45220" width="106.857" height="25.376" transform="translate(48.291) rotate(90)" fill="#141a22"/>
        <rect id="Rectángulo_45221" data-name="Rectángulo 45221" width="3.287" height="3.287" transform="translate(0 23.055) rotate(-90)" fill="#283444"/>
        <rect id="Rectángulo_45222" data-name="Rectángulo 45222" width="3.287" height="3.287" transform="translate(0 30.038) rotate(-90)" fill="#283444"/>
        <rect id="Rectángulo_45223" data-name="Rectángulo 45223" width="3.287" height="3.287" transform="translate(0 37.022) rotate(-90)" fill="#283444"/>
        <rect id="Rectángulo_45224" data-name="Rectángulo 45224" width="3.286" height="3.287" transform="translate(0 44.005) rotate(-90)" fill="#283444"/>
        <rect id="Rectángulo_45225" data-name="Rectángulo 45225" width="3.287" height="3.287" transform="translate(0 50.989) rotate(-90)" fill="#283444"/>
        <rect id="Rectángulo_45226" data-name="Rectángulo 45226" width="3.286" height="3.287" transform="translate(0 57.972) rotate(-90)" fill="#283444"/>
        <rect id="Rectángulo_45227" data-name="Rectángulo 45227" width="3.287" height="3.287" transform="translate(0 64.955) rotate(-90)" fill="#283444"/>
        <rect id="Rectángulo_45228" data-name="Rectángulo 45228" width="3.286" height="3.287" transform="translate(0 71.939) rotate(-90)" fill="#283444"/>
        <rect id="Rectángulo_45229" data-name="Rectángulo 45229" width="3.287" height="3.287" transform="translate(0 78.923) rotate(-90)" fill="#283444"/>
        <rect id="Rectángulo_46135" data-name="Rectángulo 46135" width="3.287" height="3.287" transform="translate(0 99.873) rotate(-90)" fill="#283444"/>
        <rect id="Rectángulo_46159" data-name="Rectángulo 46159" width="3.287" height="3.287" transform="translate(0 120.824) rotate(-90)" fill="#283444"/>
        <rect id="Rectángulo_45230" data-name="Rectángulo 45230" width="3.287" height="3.287" transform="translate(0 85.906) rotate(-90)" fill="#283444"/>
        <rect id="Rectángulo_46125" data-name="Rectángulo 46125" width="3.287" height="3.287" transform="translate(0 106.857) rotate(-90)" fill="#283444"/>
        <rect id="Rectángulo_46160" data-name="Rectángulo 46160" width="3.287" height="3.287" transform="translate(0 127.807) rotate(-90)" fill="#283444"/>
        <rect id="Rectángulo_46168" data-name="Rectángulo 46168" width="3.287" height="3.287" transform="translate(0 141.773) rotate(-90)" fill="#283444"/>
        <rect id="Rectángulo_45231" data-name="Rectángulo 45231" width="3.287" height="3.287" transform="translate(0 92.889) rotate(-90)" fill="#283444"/>
        <rect id="Rectángulo_46123" data-name="Rectángulo 46123" width="3.287" height="3.287" transform="translate(0 113.84) rotate(-90)" fill="#283444"/>
        <rect id="Rectángulo_46161" data-name="Rectángulo 46161" width="3.287" height="3.287" transform="translate(0 134.79) rotate(-90)" fill="#283444"/>
        <rect id="Rectángulo_46162" data-name="Rectángulo 46162" width="3.287" height="3.287" transform="translate(0 148.757) rotate(-90)" fill="#283444"/>
        <rect id="Rectángulo_45232" data-name="Rectángulo 45232" width="3.287" height="3.287" transform="translate(6.984 23.055) rotate(-90)" fill="#283444"/>
        <rect id="Rectángulo_45233" data-name="Rectángulo 45233" width="3.287" height="3.287" transform="translate(6.984 30.038) rotate(-90)" fill="#283444"/>
        <rect id="Rectángulo_45234" data-name="Rectángulo 45234" width="3.287" height="3.287" transform="translate(6.984 37.022) rotate(-90)" fill="#283444"/>
        <rect id="Rectángulo_45235" data-name="Rectángulo 45235" width="3.286" height="3.287" transform="translate(6.984 44.005) rotate(-90)" fill="#283444"/>
        <rect id="Rectángulo_45236" data-name="Rectángulo 45236" width="3.287" height="3.287" transform="translate(6.984 50.989) rotate(-90)" fill="#283444"/>
        <rect id="Rectángulo_45237" data-name="Rectángulo 45237" width="3.286" height="3.287" transform="translate(6.984 57.972) rotate(-90)" fill="#283444"/>
        <rect id="Rectángulo_45238" data-name="Rectángulo 45238" width="3.287" height="3.287" transform="translate(6.984 64.955) rotate(-90)" fill="#283444"/>
        <rect id="Rectángulo_45239" data-name="Rectángulo 45239" width="3.286" height="3.287" transform="translate(6.984 71.939) rotate(-90)" fill="#283444"/>
        <rect id="Rectángulo_45240" data-name="Rectángulo 45240" width="3.287" height="3.287" transform="translate(6.984 78.923) rotate(-90)" fill="#283444"/>
        <rect id="Rectángulo_46136" data-name="Rectángulo 46136" width="3.287" height="3.287" transform="translate(6.984 99.873) rotate(-90)" fill="#283444"/>
        <rect id="Rectángulo_46156" data-name="Rectángulo 46156" width="3.287" height="3.287" transform="translate(6.984 120.824) rotate(-90)" fill="#283444"/>
        <rect id="Rectángulo_45241" data-name="Rectángulo 45241" width="3.287" height="3.287" transform="translate(6.984 85.906) rotate(-90)" fill="#283444"/>
        <rect id="Rectángulo_46126" data-name="Rectángulo 46126" width="3.287" height="3.287" transform="translate(6.984 106.857) rotate(-90)" fill="#283444"/>
        <rect id="Rectángulo_46157" data-name="Rectángulo 46157" width="3.287" height="3.287" transform="translate(6.984 127.807) rotate(-90)" fill="#283444"/>
        <rect id="Rectángulo_46169" data-name="Rectángulo 46169" width="3.287" height="3.287" transform="translate(6.984 141.773) rotate(-90)" fill="#283444"/>
        <rect id="Rectángulo_45242" data-name="Rectángulo 45242" width="3.287" height="3.287" transform="translate(6.984 92.889) rotate(-90)" fill="#283444"/>
        <rect id="Rectángulo_46124" data-name="Rectángulo 46124" width="3.287" height="3.287" transform="translate(6.984 113.84) rotate(-90)" fill="#283444"/>
        <rect id="Rectángulo_46158" data-name="Rectángulo 46158" width="3.287" height="3.287" transform="translate(6.984 134.79) rotate(-90)" fill="#283444"/>
        <rect id="Rectángulo_46163" data-name="Rectángulo 46163" width="3.287" height="3.287" transform="translate(6.984 148.757) rotate(-90)" fill="#283444"/>
        <rect id="Rectángulo_45243" data-name="Rectángulo 45243" width="3.287" height="3.287" transform="translate(12.856 23.055) rotate(-90)" fill="#283444"/>
        <rect id="Rectángulo_45244" data-name="Rectángulo 45244" width="3.287" height="3.287" transform="translate(12.856 30.038) rotate(-90)" fill="#283444"/>
        <rect id="Rectángulo_45245" data-name="Rectángulo 45245" width="3.287" height="3.287" transform="translate(12.856 37.022) rotate(-90)" fill="#283444"/>
        <rect id="Rectángulo_45246" data-name="Rectángulo 45246" width="3.286" height="3.287" transform="translate(12.856 44.005) rotate(-90)" fill="#283444"/>
        <rect id="Rectángulo_45247" data-name="Rectángulo 45247" width="3.287" height="3.287" transform="translate(12.856 50.989) rotate(-90)" fill="#283444"/>
        <rect id="Rectángulo_45248" data-name="Rectángulo 45248" width="3.286" height="3.287" transform="translate(12.856 57.972) rotate(-90)" fill="#283444"/>
        <rect id="Rectángulo_45249" data-name="Rectángulo 45249" width="3.287" height="3.287" transform="translate(12.856 64.955) rotate(-90)" fill="#283444"/>
        <rect id="Rectángulo_45250" data-name="Rectángulo 45250" width="3.286" height="3.287" transform="translate(12.856 71.939) rotate(-90)" fill="#283444"/>
        <rect id="Rectángulo_45251" data-name="Rectángulo 45251" width="3.287" height="3.287" transform="translate(12.856 78.923) rotate(-90)" fill="#283444"/>
        <rect id="Rectángulo_46137" data-name="Rectángulo 46137" width="3.287" height="3.287" transform="translate(12.856 99.873) rotate(-90)" fill="#283444"/>
        <rect id="Rectángulo_46146" data-name="Rectángulo 46146" width="3.287" height="3.287" transform="translate(12.856 120.824) rotate(-90)" fill="#283444"/>
        <rect id="Rectángulo_45252" data-name="Rectángulo 45252" width="3.287" height="3.287" transform="translate(12.856 85.906) rotate(-90)" fill="#283444"/>
        <rect id="Rectángulo_46127" data-name="Rectángulo 46127" width="3.287" height="3.287" transform="translate(12.856 106.857) rotate(-90)" fill="#283444"/>
        <rect id="Rectángulo_46147" data-name="Rectángulo 46147" width="3.287" height="3.287" transform="translate(12.856 127.807) rotate(-90)" fill="#283444"/>
        <rect id="Rectángulo_46170" data-name="Rectángulo 46170" width="3.287" height="3.287" transform="translate(12.856 141.773) rotate(-90)" fill="#283444"/>
        <rect id="Rectángulo_45253" data-name="Rectángulo 45253" width="3.287" height="3.287" transform="translate(12.856 92.889) rotate(-90)" fill="#283444"/>
        <rect id="Rectángulo_46128" data-name="Rectángulo 46128" width="3.287" height="3.287" transform="translate(12.856 113.84) rotate(-90)" fill="#283444"/>
        <rect id="Rectángulo_46148" data-name="Rectángulo 46148" width="3.287" height="3.287" transform="translate(12.856 134.79) rotate(-90)" fill="#283444"/>
        <rect id="Rectángulo_46164" data-name="Rectángulo 46164" width="3.287" height="3.287" transform="translate(12.856 148.757) rotate(-90)" fill="#283444"/>
        <rect id="Rectángulo_45221-2" data-name="Rectángulo 45221" width="3.287" height="3.287" transform="translate(18.747 23.055) rotate(-90)" fill="#283444"/>
        <rect id="Rectángulo_45222-2" data-name="Rectángulo 45222" width="3.287" height="3.287" transform="translate(18.747 30.038) rotate(-90)" fill="#283444"/>
        <rect id="Rectángulo_45223-2" data-name="Rectángulo 45223" width="3.287" height="3.287" transform="translate(18.747 37.022) rotate(-90)" fill="#283444"/>
        <rect id="Rectángulo_45224-2" data-name="Rectángulo 45224" width="3.286" height="3.287" transform="translate(18.747 44.005) rotate(-90)" fill="#283444"/>
        <rect id="Rectángulo_45225-2" data-name="Rectángulo 45225" width="3.287" height="3.287" transform="translate(18.747 50.989) rotate(-90)" fill="#283444"/>
        <rect id="Rectángulo_45226-2" data-name="Rectángulo 45226" width="3.286" height="3.287" transform="translate(18.747 57.972) rotate(-90)" fill="#283444"/>
        <rect id="Rectángulo_45227-2" data-name="Rectángulo 45227" width="3.287" height="3.287" transform="translate(18.747 64.955) rotate(-90)" fill="#283444"/>
        <rect id="Rectángulo_45228-2" data-name="Rectángulo 45228" width="3.286" height="3.287" transform="translate(18.747 71.939) rotate(-90)" fill="#283444"/>
        <rect id="Rectángulo_45229-2" data-name="Rectángulo 45229" width="3.287" height="3.287" transform="translate(18.747 78.923) rotate(-90)" fill="#283444"/>
        <rect id="Rectángulo_46138" data-name="Rectángulo 46138" width="3.287" height="3.287" transform="translate(18.747 99.873) rotate(-90)" fill="#283444"/>
        <rect id="Rectángulo_46149" data-name="Rectángulo 46149" width="3.287" height="3.287" transform="translate(18.747 120.824) rotate(-90)" fill="#283444"/>
        <rect id="Rectángulo_45230-2" data-name="Rectángulo 45230" width="3.287" height="3.287" transform="translate(18.747 85.906) rotate(-90)" fill="#283444"/>
        <rect id="Rectángulo_46129" data-name="Rectángulo 46129" width="3.287" height="3.287" transform="translate(18.747 106.857) rotate(-90)" fill="#283444"/>
        <rect id="Rectángulo_46150" data-name="Rectángulo 46150" width="3.287" height="3.287" transform="translate(18.747 127.807) rotate(-90)" fill="#283444"/>
        <rect id="Rectángulo_46171" data-name="Rectángulo 46171" width="3.287" height="3.287" transform="translate(18.747 141.773) rotate(-90)" fill="#283444"/>
        <rect id="Rectángulo_45231-2" data-name="Rectángulo 45231" width="3.287" height="3.287" transform="translate(18.747 92.889) rotate(-90)" fill="#283444"/>
        <rect id="Rectángulo_46130" data-name="Rectángulo 46130" width="3.287" height="3.287" transform="translate(18.747 113.84) rotate(-90)" fill="#283444"/>
        <rect id="Rectángulo_46151" data-name="Rectángulo 46151" width="3.287" height="3.287" transform="translate(18.747 134.79) rotate(-90)" fill="#283444"/>
        <rect id="Rectángulo_46165" data-name="Rectángulo 46165" width="3.287" height="3.287" transform="translate(18.747 148.757) rotate(-90)" fill="#283444"/>
        <rect id="Rectángulo_45232-2" data-name="Rectángulo 45232" width="3.287" height="3.287" transform="translate(25.175 23.055) rotate(-90)" fill="#283444"/>
        <rect id="Rectángulo_45233-2" data-name="Rectángulo 45233" width="3.287" height="3.287" transform="translate(25.175 30.038) rotate(-90)" fill="#283444"/>
        <rect id="Rectángulo_45234-2" data-name="Rectángulo 45234" width="3.287" height="3.287" transform="translate(25.175 37.022) rotate(-90)" fill="#283444"/>
        <rect id="Rectángulo_45235-2" data-name="Rectángulo 45235" width="3.286" height="3.287" transform="translate(25.175 44.005) rotate(-90)" fill="#283444"/>
        <rect id="Rectángulo_45236-2" data-name="Rectángulo 45236" width="3.287" height="3.287" transform="translate(25.175 50.989) rotate(-90)" fill="#283444"/>
        <rect id="Rectángulo_45237-2" data-name="Rectángulo 45237" width="3.286" height="3.287" transform="translate(25.175 57.972) rotate(-90)" fill="#283444"/>
        <rect id="Rectángulo_45238-2" data-name="Rectángulo 45238" width="3.287" height="3.287" transform="translate(25.175 64.955) rotate(-90)" fill="#283444"/>
        <rect id="Rectángulo_45239-2" data-name="Rectángulo 45239" width="3.286" height="3.287" transform="translate(25.175 71.939) rotate(-90)" fill="#283444"/>
        <rect id="Rectángulo_45240-2" data-name="Rectángulo 45240" width="3.287" height="3.287" transform="translate(25.175 78.923) rotate(-90)" fill="#283444"/>
        <rect id="Rectángulo_46139" data-name="Rectángulo 46139" width="3.287" height="3.287" transform="translate(25.175 99.873) rotate(-90)" fill="#283444"/>
        <rect id="Rectángulo_46152" data-name="Rectángulo 46152" width="3.287" height="3.287" transform="translate(25.175 120.824) rotate(-90)" fill="#283444"/>
        <rect id="Rectángulo_45241-2" data-name="Rectángulo 45241" width="3.287" height="3.287" transform="translate(25.175 85.906) rotate(-90)" fill="#283444"/>
        <rect id="Rectángulo_46131" data-name="Rectángulo 46131" width="3.287" height="3.287" transform="translate(25.175 106.857) rotate(-90)" fill="#283444"/>
        <rect id="Rectángulo_46153" data-name="Rectángulo 46153" width="3.287" height="3.287" transform="translate(25.175 127.807) rotate(-90)" fill="#283444"/>
        <rect id="Rectángulo_46172" data-name="Rectángulo 46172" width="3.287" height="3.287" transform="translate(25.175 141.773) rotate(-90)" fill="#283444"/>
        <rect id="Rectángulo_45242-2" data-name="Rectángulo 45242" width="3.287" height="3.287" transform="translate(25.175 92.889) rotate(-90)" fill="#283444"/>
        <rect id="Rectángulo_46132" data-name="Rectángulo 46132" width="3.287" height="3.287" transform="translate(25.175 113.84) rotate(-90)" fill="#283444"/>
        <rect id="Rectángulo_46154" data-name="Rectángulo 46154" width="3.287" height="3.287" transform="translate(25.175 134.79) rotate(-90)" fill="#283444"/>
        <rect id="Rectángulo_46166" data-name="Rectángulo 46166" width="3.287" height="3.287" transform="translate(25.175 148.757) rotate(-90)" fill="#283444"/>
        <rect id="Rectángulo_45243-2" data-name="Rectángulo 45243" width="3.287" height="3.287" transform="translate(31.603 23.055) rotate(-90)" fill="#283444"/>
        <rect id="Rectángulo_45244-2" data-name="Rectángulo 45244" width="3.287" height="3.287" transform="translate(31.603 30.038) rotate(-90)" fill="#283444"/>
        <rect id="Rectángulo_45245-2" data-name="Rectángulo 45245" width="3.287" height="3.287" transform="translate(31.603 37.022) rotate(-90)" fill="#283444"/>
        <rect id="Rectángulo_45246-2" data-name="Rectángulo 45246" width="3.286" height="3.287" transform="translate(31.603 44.005) rotate(-90)" fill="#283444"/>
        <rect id="Rectángulo_45247-2" data-name="Rectángulo 45247" width="3.287" height="3.287" transform="translate(31.603 50.989) rotate(-90)" fill="#283444"/>
        <rect id="Rectángulo_45248-2" data-name="Rectángulo 45248" width="3.286" height="3.287" transform="translate(31.603 57.972) rotate(-90)" fill="#283444"/>
        <rect id="Rectángulo_45249-2" data-name="Rectángulo 45249" width="3.287" height="3.287" transform="translate(31.603 64.955) rotate(-90)" fill="#283444"/>
        <rect id="Rectángulo_45250-2" data-name="Rectángulo 45250" width="3.286" height="3.287" transform="translate(31.603 71.939) rotate(-90)" fill="#283444"/>
        <rect id="Rectángulo_45251-2" data-name="Rectángulo 45251" width="3.287" height="3.287" transform="translate(31.603 78.923) rotate(-90)" fill="#283444"/>
        <rect id="Rectángulo_46140" data-name="Rectángulo 46140" width="3.287" height="3.287" transform="translate(31.603 99.873) rotate(-90)" fill="#283444"/>
        <rect id="Rectángulo_46144" data-name="Rectángulo 46144" width="3.287" height="3.287" transform="translate(31.603 120.824) rotate(-90)" fill="#283444"/>
        <rect id="Rectángulo_45252-2" data-name="Rectángulo 45252" width="3.287" height="3.287" transform="translate(31.603 85.906) rotate(-90)" fill="#283444"/>
        <rect id="Rectángulo_46133" data-name="Rectángulo 46133" width="3.287" height="3.287" transform="translate(31.603 106.857) rotate(-90)" fill="#283444"/>
        <rect id="Rectángulo_46145" data-name="Rectángulo 46145" width="3.287" height="3.287" transform="translate(31.603 127.807) rotate(-90)" fill="#283444"/>
        <rect id="Rectángulo_46173" data-name="Rectángulo 46173" width="3.287" height="3.287" transform="translate(31.603 141.773) rotate(-90)" fill="#283444"/>
        <rect id="Rectángulo_45253-2" data-name="Rectángulo 45253" width="3.287" height="3.287" transform="translate(31.603 92.889) rotate(-90)" fill="#283444"/>
        <rect id="Rectángulo_46134" data-name="Rectángulo 46134" width="3.287" height="3.287" transform="translate(31.603 113.84) rotate(-90)" fill="#283444"/>
        <rect id="Rectángulo_46155" data-name="Rectángulo 46155" width="3.287" height="3.287" transform="translate(31.603 134.79) rotate(-90)" fill="#283444"/>
        <rect id="Rectángulo_46167" data-name="Rectángulo 46167" width="3.287" height="3.287" transform="translate(31.603 148.757) rotate(-90)" fill="#283444"/>
      </g>
    </g>
    <g id="Grupo_155431" data-name="Grupo 155431" transform="translate(0.003 0)">
      <path id="Trazado_197345" data-name="Trazado 197345" d="M2197.589,1516.15l-11.222,24.278,9.8,62.221a2.121,2.121,0,0,0,4.122.3l24.371-78.908Z" transform="translate(-1983.168 -1076.752)" fill="#39808e"/>
      <path id="Trazado_197346" data-name="Trazado 197346" d="M1995.17,1721.135v-1.515a5.027,5.027,0,0,1,.813-2.742l14.927-24.483,24.543-3.015,4.556,28.195a4.975,4.975,0,0,1,.063.8v2.76h-44.9Z" transform="translate(-1855.374 -1192.535)" fill="#39808e"/>
      <path id="Trazado_197347" data-name="Trazado 197347" d="M2001.359,839.47c-3.7,55.808-11.975,192-6.423,289.691l40.61-3.962c4.407-46.851,18.841-223.268,21.629-275.623Z" transform="translate(-1853.973 -624.47)" fill="#12263f"/>
      <path id="Trazado_197348" data-name="Trazado 197348" d="M1826.34,829.87l57,4.232c-12.323,40.8-27.134,110.711-38.236,146.6,29.958,25.02,62.085,49.776,95.234,77.907l-25.554,34.877c-32.366-22.159-78.169-58.491-105.308-81.946-17.062-14.744-16.189-26.509-14.037-40.431C1803.987,915.9,1812.2,881.894,1826.34,829.87Z" transform="translate(-1721.117 -618.054)" fill="#12263f"/>
      <path id="Trazado_197349" data-name="Trazado 197349" d="M1988.9,570.473c5.322-46.122,13.205-97.014,14.521-117.35.514-7.969-1.456-15.745-7.381-17.675a270.847,270.847,0,0,0-71.464-13.513c-8.984-.484-16.521,3.177-17.715,12.094-5.356,39.993-12.515,77.118-15.937,123.153Z" transform="translate(-1785.688 -345.369)" fill="#faf5ed"/>
      <path id="Trazado_197350" data-name="Trazado 197350" d="M1870.346,681.8c-16.163-1.536-22.954-4.948-39.19-4.8" transform="translate(-1745.751 -515.881)" fill="none" stroke="#ffa929" stroke-miterlimit="10" stroke-width="1.894"/>
      <path id="Trazado_197351" data-name="Trazado 197351" d="M1847.681,517.323l-23.77-5.018c2.673-13.265,19.95-59.347,27.345-74.471,9.511-19.449,27.909-16.451,44.172-14.648,0,0-13.945,75.317-18.9,100.321-2.62,13.221-9.491,45.929-12.893,62.069a8.137,8.137,0,0,1-10.864,5.923l-19.349-3.982,11.609-58.626Z" transform="translate(-1740.906 -345.347)" fill="#dfaa99"/>
      <g id="Grupo_155427" data-name="Grupo 155427" transform="translate(156.805)">
        <path id="Trazado_197352" data-name="Trazado 197352" d="M2052.474,228.614s-5.773,27.083-6,44.231c-.073,5.458,3.4,6.785,8.891,7.206,6.287.484,12.671-3.94,14.73-12.124,5.16-20.527,7.932-33.231,2.379-37.194C2063.3,224.19,2052.474,228.614,2052.474,228.614Z" transform="translate(-2046.471 -215.207)" fill="#f7b797"/>
        <path id="Trazado_197353" data-name="Trazado 197353" d="M2093.8,279.274l-4.768,56.415-13.175-2.255,4.918-55.287Z" transform="translate(-2066.104 -249.294)" fill="#f7b797"/>
        <path id="Trazado_197354" data-name="Trazado 197354" d="M2086.15,281.538l5.418,1.735a2.149,2.149,0,0,0-.659-1.814C2089.728,280.218,2087.283,279.114,2086.15,281.538Z" transform="translate(-2072.987 -250.596)" fill="#32256b"/>
        <path id="Trazado_197355" data-name="Trazado 197355" d="M2064.788,279.024l-4.568.255a2.206,2.206,0,0,1,.862-1.575C2062.247,276.811,2064.369,276.391,2064.788,279.024Z" transform="translate(-2055.657 -248.539)" fill="#32256b"/>
        <path id="Trazado_197356" data-name="Trazado 197356" d="M2069.64,288.8a7.254,7.254,0,0,1-.869,6.874c-.835,1.142-1.645,1.787-1.851,2.63s.417,1.7,1.923,2.408" transform="translate(-2060.111 -256.412)" fill="none" stroke="#d65a50" stroke-linecap="round" stroke-linejoin="round" stroke-miterlimit="10" stroke-width="3.787"/>
        <path id="Trazado_197357" data-name="Trazado 197357" d="M2086.229,294.267a1.081,1.081,0,1,0,.423-.714,1.084,1.084,0,0,0-.423.714Z" transform="translate(-2073.031 -259.445)" fill="#32256b"/>
        <path id="Trazado_197358" data-name="Trazado 197358" d="M2062.509,291.241a1.031,1.031,0,1,0,1.168-.873A1.031,1.031,0,0,0,2062.509,291.241Z" transform="translate(-2057.179 -257.454)" fill="#32256b"/>
        <path id="Trazado_197359" data-name="Trazado 197359" d="M2073.129,343.18a6.5,6.5,0,0,1-7.485.938" transform="translate(-2059.285 -292.758)" fill="none" stroke="#d65a50" stroke-linecap="round" stroke-linejoin="round" stroke-miterlimit="10" stroke-width="3.787"/>
        <path id="Trazado_197360" data-name="Trazado 197360" d="M2117.535,254.134c-.613,5.889,1.552,9.209.856,15.354,2.457-4.6,5.246-5.833,6.756-10.82,1.757-5.836,4.925-13.132-.076-15.367C2120.094,244.292,2117.858,251.008,2117.535,254.134Z" transform="translate(-2093.892 -226)" fill="#32256b"/>
        <path id="Trazado_197361" data-name="Trazado 197361" d="M2057.348,200.358c-1.44-4.187.235-11.2,6.108-8.7,7.594,3.235,8.891,9.567,8.553,10.048s-.641-5.585,4.616-3.331c3.114,1.332,6.8,6.914,5.869,9.451-.849,2.3-6.433,4.8-8.43,5.139-4.842.835-16.76-2.981-18.366-1.661-.885.726-1.366,3.435-1.713,5.409-.856-2.895-1.5-9.11-1.721-12.124C2051.734,197.456,2054.56,197.986,2057.348,200.358Z" transform="translate(-2050.297 -191.133)" fill="#32256b"/>
        <path id="Trazado_197362" data-name="Trazado 197362" d="M2091.2,358.23a70.171,70.171,0,0,1-2.365,9.853,7.734,7.734,0,0,1-4.045,4.434,12.7,12.7,0,0,1-5.409,1.26l.551-6.191C2084.557,366.938,2088.972,363.652,2091.2,358.23Z" transform="translate(-2068.462 -302.818)" fill="#d65a50"/>
        <path id="Trazado_197363" data-name="Trazado 197363" d="M2079.406,432.509c-16.044,12.1-27.387,3.419-29.952-5.389a246.6,246.6,0,0,1,29.952,5.389Z" transform="translate(-2048.458 -348.862)" fill="#f7b797"/>
        <path id="Trazado_197364" data-name="Trazado 197364" d="M2123.821,299.572c4-1.5,5.22,3.21,3.976,6.539-1.3,3.479-4.656,5-8.453,3.83C2119.339,309.942,2118.692,301.5,2123.821,299.572Z" transform="translate(-2095.154 -263.421)" fill="#f7b797"/>
        <path id="Trazado_197365" data-name="Trazado 197365" d="M2126.03,311.281c.2-1.818,1.323-3.95,3.045-4.311" transform="translate(-2099.642 -268.556)" fill="none" stroke="#d65a50" stroke-linecap="round" stroke-linejoin="round" stroke-miterlimit="10" stroke-width="3.787"/>
      </g>
      <path id="Trazado_197366" data-name="Trazado 197366" d="M2074.695,622.513a9.281,9.281,0,0,1-8.314-10.137c2.01-20.554,6.914-69.832,9.6-88.95,2.725-19.38,11.858-55.721,19.771-76.206,6.586,1.523,21.967,6.42,25.926,8.218,9.176,4.168,14.09,14.336,11.438,33.46-1.99,14.322-8.765,50.959-11.653,60.118l-5.677-2.292-7.1,79.419Z" transform="translate(-1902.939 -362.297)" fill="#dfaa99"/>
      <path id="Trazado_197367" data-name="Trazado 197367" d="M2263.6,1546.675a12.574,12.574,0,0,1-10.042-16.806" transform="translate(-2027.565 -1085.922)" fill="none" stroke="#32256b" stroke-linecap="round" stroke-linejoin="round" stroke-miterlimit="10" stroke-width="3.787"/>
      <g id="Grupo_155428" data-name="Grupo 155428" transform="translate(0 105.983)">
        <path id="Trazado_197368" data-name="Trazado 197368" d="M1762.132,609.883c4.341,6.471-2.484,27.382-16.989,18.9-10.691-6.247-50.579-35.148-50.579-35.148l10.124-12.167s10.827,5.478,24.872,11.58C1736.183,595.926,1758.859,604.988,1762.132,609.883Z" transform="translate(-1654.457 -558.01)" fill="#f7b797"/>
        <path id="Trazado_197369" data-name="Trazado 197369" d="M1613.719,546.361s-1.695-.723-6.954-3.077-11.358-11.066-11.358-11.066a77.048,77.048,0,0,0-11.016,1.88c-2.026.507-3.806.023-3.535-1.11.152-.63,5.519-3.028,10.148-5.018a.049.049,0,0,0-.016-.1c-4.029-.391-7.484-.053-12.671.242-3.015.172-3.761-.989-3.846-1.5.166-.836,8.632-3.678,16.153-3.91a.048.048,0,1,0,.013-.1c-4.652-1.091-11.915-1.512-14.412-1.91-2.269-.362-2.72-1.469-2.6-2.262.279-.666,10.264-1.787,20.043-.491a.048.048,0,0,0,.03-.089c-3.578-2.1-10.539-3.545-12.641-4.371-2.255-.885-1.659-2.434-1.217-2.745,3.038-.1,7.541.422,16.4,2.094,3.1.587,12.86,4.964,16.388,8.486,2.879,2.875,8.1,11.222,8.1,11.222l3.117,1.648Z" transform="translate(-1573.603 -510.734)" fill="#f7b797"/>
        <path id="Trazado_197370" data-name="Trazado 197370" d="M1664.069,547.688c-4.042-2.689-7.24-2.95-10.121-4.069a24.594,24.594,0,0,1-4.092-2.066c-1.655,3.3,2.825,5.887,8.221,8.36,1.446,4.9,3.045,10.818,7.336,15.254" transform="translate(-1624.339 -531.329)" fill="none" stroke="#d65a50" stroke-linecap="round" stroke-linejoin="round" stroke-miterlimit="10" stroke-width="3.787"/>
      </g>
      <g id="Grupo_155430" data-name="Grupo 155430" transform="translate(45.187 116.53)">
        <path id="Trazado_197371" data-name="Trazado 197371" d="M2082.355,673.859c4.138,6.97,3.466,26.092-15.122,20.617-11.879-3.5-57.512-24.338-57.512-24.338l6.9-14.777c13.981,2.939,36.776,6.646,52.342,11.057C2076.264,668.489,2080.242,670.31,2082.355,673.859Z" transform="translate(-1910.285 -617.945)" fill="#f7b797"/>
        <g id="Grupo_155429" data-name="Grupo 155429" transform="translate(0 0)">
          <path id="Trazado_197372" data-name="Trazado 197372" d="M1952.757,603.834s-5.077-5.424-6.43-7.017c-2.7-3.174-10.508-7.667-10.508-7.667s-1.376,2.524-.037,4.377a67.38,67.38,0,0,0,5.541,5.037l4.424,10.489Z" transform="translate(-1860.473 -573.69)" fill="#e88f79"/>
          <path id="Trazado_197373" data-name="Trazado 197373" d="M1725.675,583.269h69.355a3.624,3.624,0,0,0,3.406-4.865l-12.194-33.5a3.624,3.624,0,0,0-3.406-2.385h-69.354a3.624,3.624,0,0,0-3.406,4.865l12.194,33.5a3.616,3.616,0,0,0,3.406,2.385Z" transform="translate(-1709.857 -542.524)" fill="#12263f"/>
          <path id="Trazado_197374" data-name="Trazado 197374" d="M1926.561,634.156s-5.847-2.43-8.052-3.227c-7.265-.878-11.01-1.808-15.586-3.506-1.957-.73-14.532-9.962-14.422-11.544s3.227-.248,3.227-.248-5.3-2.995-5.777-4c-1.085-2.262,4.822-.381,4.822-.381s-4.672-1.9-5.409-3.416c-.51-1.058,2.179-1.664,7.113.179s11.186,4.924,11.186,4.924-3.349-2.649-7.042-5.127c-2.379-1.6-5.09-3.087-6.477-3.937-2.63-1.608-1.343-3.235,2.855-1.808,3.571,1.22,16.524,6.941,19.552,7.439,1.98.325,3.4.5,4.228.59a2.544,2.544,0,0,1,1.522.73c1.595,1.585,7.067,5.1,8.987,6.486,1.545,1.114,6.165,2.059,6.165,2.059Z" transform="translate(-1827.128 -581.963)" fill="#f7b797"/>
        </g>
      </g>
    </g>
  </g>
</svg>
