<svg xmlns="http://www.w3.org/2000/svg" width="107" height="107" viewBox="0 0 107 107">
  <g id="Grupo_1194998" data-name="Grupo 1194998" transform="translate(-474 -12098.423)">
    <g id="Grupo_156312" data-name="Grupo 156312" transform="translate(185.332 7649.986)">
      <path id="Elipse_5845" data-name="Elipse 5845" d="M53.5,0A53.5,53.5,0,1,1,0,53.5,53.5,53.5,0,0,1,53.5,0Z" transform="translate(288.668 4448.437)" fill="#c0f1e1"/>
    </g>
    <g id="_29-sewing" data-name="29-sewing" transform="translate(491.451 12109.594)">
      <path id="Trazado_1009924" data-name="Trazado 1009924" d="M68.062,57v6.759H23V61.506A4.506,4.506,0,0,1,27.506,57Z" transform="translate(2.911 7.213)" fill="#cfcfcf"/>
      <ellipse id="Elipse_13659" data-name="Elipse 13659" cx="3.049" cy="3.557" rx="3.049" ry="3.557" transform="translate(59.964 41.671)" fill="#182e6e"/>
      <ellipse id="Elipse_13660" data-name="Elipse 13660" cx="3.049" cy="3.557" rx="3.049" ry="3.557" transform="translate(59.964 52.851)" fill="#182e6e"/>
      <path id="Trazado_1009925" data-name="Trazado 1009925" d="M51,27h6.759v6.759H51Z" transform="translate(6.454 3.417)" fill="#fce2b5"/>
      <path id="Trazado_1009926" data-name="Trazado 1009926" d="M39,27h6.759v6.759H39Z" transform="translate(4.935 3.417)" fill="#fce2b5"/>
      <path id="Trazado_1009927" data-name="Trazado 1009927" d="M40.265,33H62.8A4.506,4.506,0,0,1,67.3,37.506V60.037H51.531V44.265H42.519v2.253a4.506,4.506,0,0,1-4.506,4.506H33.506A4.506,4.506,0,0,1,29,46.519V37.506A4.506,4.506,0,0,1,33.506,33ZM62.8,40.886a3.38,3.38,0,1,0-3.38,3.38,3.38,3.38,0,0,0,3.38-3.38Zm0,11.265a3.38,3.38,0,1,0-3.38,3.38,3.38,3.38,0,0,0,3.38-3.38Z" transform="translate(3.67 4.176)" fill="#f0f0f0"/>
      <path id="Trazado_1009928" data-name="Trazado 1009928" d="M59.38,33H56a4.506,4.506,0,0,1,4.506,4.506V60.037h3.38V37.506A4.506,4.506,0,0,0,59.38,33Z" transform="translate(7.087 4.176)" fill="#f7f7f7"/>
      <path id="Trazado_1009929" data-name="Trazado 1009929" d="M30.265,51.414H19V15.364l4.506,4.506,6.647-7.751,2.039.732A5.473,5.473,0,0,1,36.2,15.263a5.387,5.387,0,0,1,.913,2.7l1.1,17.675H34.772a4.506,4.506,0,0,0-4.506,4.506v9.012a4.535,4.535,0,0,0,.541,2.14Z" transform="translate(2.405 1.534)" fill="#bbc3dc"/>
      <path id="Trazado_1009930" data-name="Trazado 1009930" d="M30.153,12.292l-6.647,7.751L19,15.537l6.759-4.506.1-.27Z" transform="translate(2.405 1.362)" fill="#fcfcfc"/>
      <path id="Trazado_1009931" data-name="Trazado 1009931" d="M26.634,11.633l-6.759,4.506-7.784-4.45,1.791-.642a2.265,2.265,0,0,0,1.487-2.129V8.253A2.26,2.26,0,0,1,17.621,6h4.506a2.26,2.26,0,0,1,2.253,2.253v.665a2.265,2.265,0,0,0,1.487,2.129l.867.315Z" transform="translate(1.53 0.759)" fill="#e4e4e4"/>
      <path id="Trazado_1009932" data-name="Trazado 1009932" d="M21.506,47V65.025H17V47h4.506Z" transform="translate(2.152 5.948)" fill="#adadad"/>
      <path id="Trazado_1009933" data-name="Trazado 1009933" d="M17,1h4.506V6.633H17Z" transform="translate(2.152 0.127)" fill="#adadad"/>
      <path id="Trazado_1009934" data-name="Trazado 1009934" d="M9.981,48H1.25L3.131,17.934a5.387,5.387,0,0,1,.913-2.7,5.473,5.473,0,0,1,4.011-2.411l1.228-.439,7.458,7.458,4.506-4.506V51.381H9.981Z" transform="translate(0.158 1.567)" fill="#bbc3dc"/>
      <path id="Trazado_1009935" data-name="Trazado 1009935" d="M20.344,15.5l-4.506,4.506L8.38,12.548l4.179-1.5Z" transform="translate(1.061 1.398)" fill="#fcfcfc"/>
      <path id="Trazado_1009936" data-name="Trazado 1009936" d="M10.012,47.38v1.127H1L1.282,44h8.731Z" transform="translate(0.127 5.568)" fill="#fcfcfc"/>
      <path id="Trazado_1009937" data-name="Trazado 1009937" d="M56.38,42.316A3.368,3.368,0,0,1,53.056,39.5a3.434,3.434,0,0,0-.056.564,3.38,3.38,0,0,0,6.759,0A3.432,3.432,0,0,0,59.7,39.5,3.368,3.368,0,0,1,56.38,42.316Z" transform="translate(6.707 4.998)" fill="#50b6f4"/>
      <path id="Trazado_1009938" data-name="Trazado 1009938" d="M56.38,52.316A3.368,3.368,0,0,1,53.056,49.5a3.434,3.434,0,0,0-.056.564,3.38,3.38,0,1,0,6.759,0A3.432,3.432,0,0,0,59.7,49.5a3.368,3.368,0,0,1-3.323,2.816Z" transform="translate(6.707 6.264)" fill="#50b6f4"/>
      <path id="Trazado_1009939" data-name="Trazado 1009939" d="M35.127,55.759,34,49h2.253Z" transform="translate(4.303 6.201)" fill="#f0f0f0"/>
      <path id="Trazado_1009940" data-name="Trazado 1009940" d="M49,43V58.772h2.253V45.253A2.253,2.253,0,0,0,49,43Z" transform="translate(6.201 5.441)" fill="#d9d9d9"/>
      <path id="Trazado_1009941" data-name="Trazado 1009941" d="M32.92,48.659a4.535,4.535,0,0,1-.541-2.14V37.506A4.506,4.506,0,0,1,36.886,33h-3.38A4.506,4.506,0,0,0,29,37.506v9.012a4.506,4.506,0,0,0,4.506,4.506h3.38a4.512,4.512,0,0,1-3.965-2.366Z" transform="translate(3.67 4.176)" fill="#cfcfcf"/>
      <path id="Trazado_1009942" data-name="Trazado 1009942" d="M41.759,43a2.253,2.253,0,0,0-2.253,2.253A4.506,4.506,0,0,1,35,49.759h2.253a4.506,4.506,0,0,0,4.506-4.506Z" transform="translate(4.429 5.441)" fill="#d9d9d9"/>
      <path id="Trazado_1009943" data-name="Trazado 1009943" d="M55.506,29.253h2.253V27H51v6.759h2.253V31.506A2.253,2.253,0,0,1,55.506,29.253Z" transform="translate(6.454 3.417)" fill="#f59e0b"/>
      <path id="Trazado_1009944" data-name="Trazado 1009944" d="M43.506,29.253h2.253V27H39v6.759h2.253V31.506A2.253,2.253,0,0,1,43.506,29.253Z" transform="translate(4.935 3.417)" fill="#f59e0b"/>
      <path id="Trazado_1009945" data-name="Trazado 1009945" d="M30.886,59.253H68.062V57H27.506A4.506,4.506,0,0,0,23,61.506v2.253h4.506V62.633a3.38,3.38,0,0,1,3.38-3.38Z" transform="translate(2.911 7.213)" fill="#d9d9d9"/>
      <path id="Trazado_1009946" data-name="Trazado 1009946" d="M19.253,65.025V51.506a2.253,2.253,0,0,1,2.253-2.253V47H17V65.025Z" transform="translate(2.152 5.948)" fill="#848484"/>
      <path id="Trazado_1009947" data-name="Trazado 1009947" d="M19.253,1V2.127A2.253,2.253,0,0,0,21.506,4.38V6.633H17V1Z" transform="translate(2.152 0.127)" fill="#848484"/>
      <path id="Trazado_1009948" data-name="Trazado 1009948" d="M1.266,44l-.141,2.253H5.49a2.253,2.253,0,0,1,2.253,2.253H10V44Z" transform="translate(0.143 5.568)" fill="#f0f0f0"/>
      <path id="Trazado_1009949" data-name="Trazado 1009949" d="M19,17V50.8h1.127V18.127Z" transform="translate(2.405 2.151)" fill="#ffc69e"/>
      <path id="Trazado_1009950" data-name="Trazado 1009950" d="M30.155,24A1.155,1.155,0,0,0,29,25.155v13.49a4.506,4.506,0,0,1,2.776-4.16L31.308,25.1A1.156,1.156,0,0,0,30.155,24Z" transform="translate(3.67 3.037)" fill="#0c1737"/>
      <path id="Trazado_1009951" data-name="Trazado 1009951" d="M8.225,24a1.156,1.156,0,0,0-1.154,1.1L6,46.531H9.38V25.155A1.155,1.155,0,0,0,8.225,24Z" transform="translate(0.76 3.037)" fill="#0c1737"/>
      <path id="Trazado_1009952" data-name="Trazado 1009952" d="M18,18.127V50.8h1.127V17Z" transform="translate(2.278 2.151)" fill="#fb9881"/>
      <path id="Trazado_1009953" data-name="Trazado 1009953" d="M25,37.715V48.981h4.506l.541-.113a4.535,4.535,0,0,1-.541-2.14V31.349A6.759,6.759,0,0,0,25,37.715Z" transform="translate(3.164 3.967)" fill="#0c1737"/>
      <path id="Trazado_1009954" data-name="Trazado 1009954" d="M31.35,31l.13,2.6a4.506,4.506,0,0,1,1.729-.346h3.447L36.515,31Z" transform="translate(3.967 3.923)" fill="#182e6e"/>
      <path id="Trazado_1009955" data-name="Trazado 1009955" d="M31.253,31A6.726,6.726,0,0,0,29,31.393v6.366a4.506,4.506,0,0,1,2.776-4.16L31.647,31Z" transform="translate(3.67 3.923)" fill="#0c1737"/>
      <path id="Trazado_1009956" data-name="Trazado 1009956" d="M25.868,10.522a2.259,2.259,0,0,1-.642-.372l-5.351,3.211-5.843-2.922c-.053.025-.095.063-.15.083l-1.791.642,7.784,4.45,6.759-4.506.1-.27Z" transform="translate(1.53 1.284)" fill="#c1c1c1"/>
      <path id="Trazado_1009957" data-name="Trazado 1009957" d="M22.886,10.506v1.352l1.971-1.183a2.253,2.253,0,0,1-.845-1.757V8.253A2.26,2.26,0,0,0,21.759,6H17.253A2.26,2.26,0,0,0,15,8.253h5.633A2.253,2.253,0,0,1,22.886,10.506Z" transform="translate(1.898 0.759)" fill="#f0f0f0"/>
      <rect id="Rectángulo_461297" data-name="Rectángulo 461297" width="3.049" height="4.065" rx="1" transform="translate(70.128 66.064) rotate(90)" fill="#e4e4e4"/>
      <rect id="Rectángulo_461298" data-name="Rectángulo 461298" width="9.147" height="3.049" rx="1" transform="translate(55.899 66.064)" fill="#e4e4e4"/>
      <rect id="Rectángulo_461299" data-name="Rectángulo 461299" width="2.033" height="3.049" rx="1" transform="translate(12.195 37.606)" fill="#0c1737"/>
      <rect id="Rectángulo_461300" data-name="Rectángulo 461300" width="9.147" height="2.033" rx="1" transform="translate(12.195 50.819) rotate(-90)" fill="#0c1737"/>
      <g id="Grupo_1194307" data-name="Grupo 1194307" transform="translate(35.244 16.362)">
        <ellipse id="Elipse_13661" data-name="Elipse 13661" cx="1.85" cy="2.575" rx="1.85" ry="2.575" transform="translate(1.816 32.37) rotate(-45)" fill="#f6fafd"/>
        <ellipse id="Elipse_13662" data-name="Elipse 13662" cx="0.929" cy="1.293" rx="0.929" ry="1.293" transform="translate(3.372 28.133) rotate(-45)" fill="#f6fafd"/>
        <ellipse id="Elipse_13663" data-name="Elipse 13663" cx="0.929" cy="1.293" rx="0.929" ry="1.293" transform="translate(0 3.344) rotate(-45)" fill="#f6fafd"/>
        <ellipse id="Elipse_13664" data-name="Elipse 13664" cx="0.465" cy="0.647" rx="0.465" ry="0.647" transform="translate(0.499 0.658) rotate(-45)" fill="#f6fafd"/>
      </g>
      <path id="Trazado_1009958" data-name="Trazado 1009958" d="M66.466,36.049H65.34V31.543h1.127V29.29H55.2v2.253h1.127v4.506H51.821V31.543h1.127V29.29H41.682v2.253h1.127v4.506H37.176a5.639,5.639,0,0,0-5.633,5.633v9.012a5.639,5.639,0,0,0,5.633,5.633H38.3V61.96h2.253V56.327h1.127a5.639,5.639,0,0,0,5.633-5.633V49.568h6.759V63.087H30.417a5.639,5.639,0,0,0-5.633,5.633V54.074h5.633V51.821H22.531v-32.2L25.114,22.2a1.074,1.074,0,0,0,.839.329,1.127,1.127,0,0,0,.812-.393L32.9,14.975l1.316.473a1.156,1.156,0,0,0,.268.061A4.353,4.353,0,0,1,38.4,19.565l.893,14.307,2.253-.14L40.65,19.425a6.6,6.6,0,0,0-5.789-6.141L27.783,10.74a1.127,1.127,0,0,1-.746-1.059V9.012A3.38,3.38,0,0,0,24.784,5.84V1.127A1.127,1.127,0,0,0,23.658,0H19.152a1.127,1.127,0,0,0-1.127,1.127V5.84a3.38,3.38,0,0,0-2.253,3.172v.669a1.127,1.127,0,0,1-.746,1.059L7.953,13.283a6.6,6.6,0,0,0-5.789,6.141l-.119,1.915L4.3,21.48l.113-1.915a4.353,4.353,0,0,1,3.909-4.056,1.156,1.156,0,0,0,.268-.061l.563-.2L16.1,22.2a1.127,1.127,0,0,0,1.593,0l2.581-2.583v32.2H11.266V32.67H9.013V48.441H2.607L4.153,23.728,1.9,23.588,0,54a1.127,1.127,0,0,0,1.127,1.2h9.012a1.127,1.127,0,0,0,1.127-1.127h6.759v2.253h2.253V54.074h2.253V69.846H20.278V58.58H18.025V70.972A1.127,1.127,0,0,0,19.152,72.1h4.506a1.127,1.127,0,0,0,1.127-1.127A1.127,1.127,0,0,0,25.911,72.1H70.973A1.127,1.127,0,0,0,72.1,70.972V50.695H69.846V63.087H60.834V65.34h9.012v4.506H27.037V68.719a3.38,3.38,0,0,1,3.38-3.38H58.581V63.087H56.327V48.441A1.127,1.127,0,0,0,55.2,47.315H46.189a1.127,1.127,0,0,0-1.127,1.127v2.253a3.38,3.38,0,0,1-3.38,3.38H37.176a3.38,3.38,0,0,1-3.38-3.38V41.682a3.38,3.38,0,0,1,3.38-3.38h29.29a3.38,3.38,0,0,1,3.38,3.38v2.253H72.1V41.682A5.639,5.639,0,0,0,66.466,36.049ZM2.325,52.948l.141-2.253H9.013v2.253Zm23.521-33.2-2.673-2.674,5.452-3.634,2.011.722ZM20.278,2.253h2.253v3.38H20.278ZM18.025,9.682V9.012a1.127,1.127,0,0,1,1.127-1.127h4.506a1.127,1.127,0,0,1,1.127,1.127v.669a3.38,3.38,0,0,0,1.359,2.7L21.36,15.574l-5.111-2.92A3.389,3.389,0,0,0,18.025,9.682ZM16.9,19.811,11.491,14.4l2.013-.723,6.06,3.463ZM58.581,31.543h4.506v4.506H58.581Zm-13.519,0h4.506v4.506H45.062Z" transform="translate(0)"/>
      <path id="Trazado_1009959" data-name="Trazado 1009959" d="M62,41h2.253v2.253H62Z" transform="translate(7.846 5.188)"/>
      <path id="Trazado_1009960" data-name="Trazado 1009960" d="M56.506,36a4.506,4.506,0,1,0,4.506,4.506A4.506,4.506,0,0,0,56.506,36Zm0,6.759a2.253,2.253,0,1,1,2.253-2.253A2.253,2.253,0,0,1,56.506,42.759Z" transform="translate(6.581 4.556)"/>
      <path id="Trazado_1009961" data-name="Trazado 1009961" d="M56.506,46a4.506,4.506,0,1,0,4.506,4.506A4.506,4.506,0,0,0,56.506,46Zm0,6.759a2.253,2.253,0,1,1,2.253-2.253A2.253,2.253,0,0,1,56.506,52.759Z" transform="translate(6.581 5.821)"/>
      <path id="Trazado_1009962" data-name="Trazado 1009962" d="M28,25h2.253v5.633H28Z" transform="translate(3.543 3.164)"/>
      <path id="Trazado_1009963" data-name="Trazado 1009963" d="M8,25h2.253v2.253H8Z" transform="translate(1.013 3.164)"/>
    </g>
  </g>
</svg>
